M48
; DRILL file {KiCad (6.0.7)} date Mon Aug 29 18:43:24 2022
; FORMAT={2:4/ absolute / inch / suppress leading zeros}
; #@! TF.CreationDate,2022-08-29T18:43:24+02:00
; #@! TF.GenerationSoftware,Kicad,Pcbnew,(6.0.7)
; #@! TF.FileFunction,Plated,1,4,PTH
FMAT,2
INCH,TZ
; #@! TA.AperFunction,Plated,PTH,ViaDrill
T1C0.0120
; #@! TA.AperFunction,Plated,PTH,ComponentDrill
T2C0.0236
; #@! TA.AperFunction,Plated,PTH,ComponentDrill
T3C0.0394
%
G90
G05
T1
X8307Y-26014
X8484Y-20866
X9114Y-12982
X9114Y-13976
X9124Y-14990
X9134Y-16004
X9134Y-30925
X9154Y-33927
X9360Y-32972
X9518Y-27126
X9518Y-29921
X9596Y-32008
X9626Y-29065
X9665Y-17972
X10591Y-20896
X10738Y-16299
X10842Y-28105
X10876Y-19567
X10896Y-15640
X10974Y-20453
X10994Y-18219
X11319Y-37785
X12106Y-23642
X12136Y-22165
X12156Y-29183
X12195Y-23937
X12205Y-22628
X12244Y-24232
X12293Y-27618
X12343Y-23386
X12589Y-23179
X12589Y-25984
X12618Y-13504
X12618Y-21575
X12618Y-27657
X12628Y-22008
X12657Y-30423
X12697Y-26634
X12697Y-26969
X12904Y-32333
X12913Y-27707
X12943Y-29665
X12963Y-22933
X12972Y-30010
X13091Y-22037
X13120Y-25827
X13140Y-28169
X13140Y-28661
X13150Y-20876
X13159Y-21240
X13219Y-21693
X14075Y-19291
X14094Y-27244
X14134Y-30945
X14193Y-25915
X14218Y-21137
X14242Y-31506
X14262Y-31890
X14281Y-28012
X14311Y-16024
X14360Y-17844
X14370Y-27559
X14400Y-31142
X14419Y-19321
X14419Y-21634
X14469Y-24094
X14528Y-29862
X14537Y-28888
X14547Y-21181
X14587Y-25955
X14636Y-14528
X14705Y-27913
X14724Y-21476
X14783Y-25512
X14833Y-19252
X15089Y-14557
X15138Y-29793
X15197Y-28553
X15246Y-17815
X15285Y-25817
X15472Y-28238
X15541Y-24026
X15620Y-17598
X15669Y-26978
X15974Y-14833
X15984Y-7136
X16024Y-26506
X16102Y-17352
X16102Y-26988
X16112Y-19449
X16526Y-15354
X16614Y-14035
X16644Y-33071
X16673Y-19163
X16722Y-16093
X16831Y-27776
X17165Y-26063
X17195Y-28602
X17249Y-33046
X17431Y-26496
X17451Y-8307
X17707Y-28553
X17766Y-32963
X17864Y-26339
X18041Y-20443
X18051Y-11378
X18061Y-19469
X18110Y-26900
X18219Y-23199
X18386Y-27815
X18445Y-30531
X18829Y-29961
X18927Y-29075
X19163Y-35305
X19193Y-31890
X19203Y-20463
X19203Y-33031
X19222Y-30925
X19242Y-33455
X19262Y-12982
X19262Y-16998
X19272Y-10974
X19272Y-11900
X19281Y-17972
X19301Y-16014
X19331Y-14862
X19380Y-26122
X19567Y-32352
X19596Y-13996
X19665Y-33967
X19715Y-22549
X19892Y-35197
X19921Y-26407
X20079Y-25217
X20541Y-32874
X20581Y-22510
X20600Y-34823
X20709Y-25581
X20768Y-14872
X20817Y-24843
X20960Y-19035
X21024Y-28642
X21142Y-34715
X21230Y-33012
X21250Y-32165
X21545Y-26230
X21555Y-22795
X21594Y-25866
X21762Y-33159
X21990Y-28344
X22008Y-30295
X22087Y-32372
X22146Y-25965
X22205Y-29213
X22269Y-13686
X22333Y-21240
X22382Y-33120
X22461Y-28652
X22461Y-34547
X22528Y-20091
X22569Y-10984
X22628Y-10098
X22677Y-7726
X22677Y-30728
X22982Y-25945
X23091Y-34941
X23307Y-32490
X23553Y-29931
X23622Y-14409
X23642Y-7756
X24045Y-29006
X24183Y-33179
X24311Y-25807
X24478Y-33593
X24547Y-32224
X24567Y-11526
X24626Y-10039
X24793Y-30000
X25089Y-27136
X25246Y-27402
X25305Y-21014
X25531Y-17077
X25669Y-10955
X25787Y-29498
X25846Y-29970
X25856Y-24754
X25866Y-22392
X25974Y-25610
X26053Y-32992
X26073Y-33967
X26102Y-12972
X26102Y-17894
X26112Y-13996
X26112Y-14970
X26122Y-29026
X26142Y-15984
X26358Y-31014
X26378Y-11890
X26831Y-30443
X26929Y-26378
X27313Y-32894
X27411Y-21280
X27648Y-6801
X27667Y-7323
X27707Y-7874
X27785Y-28504
X28081Y-22392
X28612Y-29478
X28760Y-31959
X28927Y-29301
X29075Y-22461
X29665Y-20659
X30374Y-22402
X30384Y-22037
X30522Y-22717
X30591Y-21762
X30797Y-23130
X30827Y-21486
X31841Y-38701
X32274Y-22648
X32648Y-32431
X32657Y-13583
X32933Y-27835
X33056Y-26786
X34764Y-18819
X34882Y-14921
X35039Y-26870
X35157Y-23307
X36213Y-27972
X36220Y-13947
X36220Y-14980
X36220Y-29016
X36220Y-30000
X36220Y-31978
X36220Y-33002
X36220Y-33976
X36230Y-12972
X36230Y-16959
X36230Y-17746
X36230Y-31014
X36240Y-15945
X36772Y-26831
T3
X7047Y-9892
X7047Y-10892
X7047Y-11892
X7047Y-12892
X7047Y-13892
X7047Y-14892
X7047Y-15892
X7047Y-16892
X7047Y-17892
X7047Y-18892
X7047Y-19892
X7047Y-20892
X7047Y-21892
X7047Y-22892
X7047Y-23892
X7047Y-24892
X7047Y-25892
X7047Y-26892
X7047Y-27892
X7047Y-28892
X7047Y-29892
X7047Y-30892
X7047Y-31892
X7047Y-32892
X7047Y-33892
X7047Y-34892
X38248Y-10024
X38248Y-11024
X38248Y-12024
X38248Y-13024
X38248Y-14024
X38248Y-15024
X38248Y-16024
X38248Y-17024
X38248Y-18024
X38248Y-19024
X38248Y-20024
X38248Y-21024
X38248Y-22024
X38248Y-23024
X38248Y-24024
X38248Y-25024
X38248Y-26024
X38248Y-27024
X38248Y-28024
X38248Y-29024
X38248Y-30024
X38248Y-31024
X38248Y-32024
X38248Y-33024
X38248Y-34024
X38248Y-35024
T2
G00X20937Y-36031
M15
G01X20937Y-36465
M16
G05
G00X20937Y-37776
M15
G01X20937Y-38012
M16
G05
G00X24339Y-36031
M15
G01X24339Y-36465
M16
G05
G00X24339Y-37776
M15
G01X24339Y-38012
M16
G05
T0
M30
