%TF.GenerationSoftware,KiCad,Pcbnew,(6.0.7)*%
%TF.CreationDate,2022-08-29T18:43:20+02:00*%
%TF.ProjectId,UNIclicker,554e4963-6c69-4636-9b65-722e6b696361,rev?*%
%TF.SameCoordinates,Original*%
%TF.FileFunction,Paste,Top*%
%TF.FilePolarity,Positive*%
%FSLAX46Y46*%
G04 Gerber Fmt 4.6, Leading zero omitted, Abs format (unit mm)*
G04 Created by KiCad (PCBNEW (6.0.7)) date 2022-08-29 18:43:20*
%MOMM*%
%LPD*%
G01*
G04 APERTURE LIST*
G04 Aperture macros list*
%AMRoundRect*
0 Rectangle with rounded corners*
0 $1 Rounding radius*
0 $2 $3 $4 $5 $6 $7 $8 $9 X,Y pos of 4 corners*
0 Add a 4 corners polygon primitive as box body*
4,1,4,$2,$3,$4,$5,$6,$7,$8,$9,$2,$3,0*
0 Add four circle primitives for the rounded corners*
1,1,$1+$1,$2,$3*
1,1,$1+$1,$4,$5*
1,1,$1+$1,$6,$7*
1,1,$1+$1,$8,$9*
0 Add four rect primitives between the rounded corners*
20,1,$1+$1,$2,$3,$4,$5,0*
20,1,$1+$1,$4,$5,$6,$7,0*
20,1,$1+$1,$6,$7,$8,$9,0*
20,1,$1+$1,$8,$9,$2,$3,0*%
G04 Aperture macros list end*
%ADD10RoundRect,0.150000X0.150000X-0.587500X0.150000X0.587500X-0.150000X0.587500X-0.150000X-0.587500X0*%
%ADD11RoundRect,0.140000X0.170000X-0.140000X0.170000X0.140000X-0.170000X0.140000X-0.170000X-0.140000X0*%
%ADD12RoundRect,0.135000X-0.185000X0.135000X-0.185000X-0.135000X0.185000X-0.135000X0.185000X0.135000X0*%
%ADD13RoundRect,0.150000X0.587500X0.150000X-0.587500X0.150000X-0.587500X-0.150000X0.587500X-0.150000X0*%
%ADD14RoundRect,0.150000X-0.587500X-0.150000X0.587500X-0.150000X0.587500X0.150000X-0.587500X0.150000X0*%
%ADD15RoundRect,0.140000X-0.170000X0.140000X-0.170000X-0.140000X0.170000X-0.140000X0.170000X0.140000X0*%
%ADD16RoundRect,0.135000X0.185000X-0.135000X0.185000X0.135000X-0.185000X0.135000X-0.185000X-0.135000X0*%
%ADD17RoundRect,0.135000X-0.135000X-0.185000X0.135000X-0.185000X0.135000X0.185000X-0.135000X0.185000X0*%
%ADD18RoundRect,0.135000X0.135000X0.185000X-0.135000X0.185000X-0.135000X-0.185000X0.135000X-0.185000X0*%
%ADD19RoundRect,0.225000X-0.225000X-0.250000X0.225000X-0.250000X0.225000X0.250000X-0.225000X0.250000X0*%
%ADD20RoundRect,0.200000X0.275000X-0.200000X0.275000X0.200000X-0.275000X0.200000X-0.275000X-0.200000X0*%
%ADD21R,0.254000X0.508000*%
%ADD22RoundRect,0.140000X0.140000X0.170000X-0.140000X0.170000X-0.140000X-0.170000X0.140000X-0.170000X0*%
%ADD23R,1.200000X1.200000*%
%ADD24RoundRect,0.200000X-0.200000X-0.275000X0.200000X-0.275000X0.200000X0.275000X-0.200000X0.275000X0*%
%ADD25R,0.800000X0.800000*%
%ADD26R,0.650000X0.400000*%
%ADD27RoundRect,0.235000X-0.235000X0.300000X-0.235000X-0.300000X0.235000X-0.300000X0.235000X0.300000X0*%
%ADD28RoundRect,0.050000X-0.050000X0.375000X-0.050000X-0.375000X0.050000X-0.375000X0.050000X0.375000X0*%
%ADD29RoundRect,0.050000X-0.375000X0.050000X-0.375000X-0.050000X0.375000X-0.050000X0.375000X0.050000X0*%
%ADD30R,1.000000X3.150000*%
%ADD31R,3.100000X1.600000*%
%ADD32R,1.100000X0.300000*%
%ADD33R,0.600000X1.450000*%
%ADD34R,0.300000X1.450000*%
%ADD35R,0.600000X1.550000*%
%ADD36R,1.200000X1.800000*%
%ADD37R,1.600000X0.300000*%
%ADD38R,1.397000X3.810000*%
%ADD39R,1.120000X2.200000*%
%ADD40RoundRect,0.250000X-0.250000X-0.475000X0.250000X-0.475000X0.250000X0.475000X-0.250000X0.475000X0*%
%ADD41RoundRect,0.140000X-0.140000X-0.170000X0.140000X-0.170000X0.140000X0.170000X-0.140000X0.170000X0*%
%ADD42RoundRect,0.250000X-0.475000X0.250000X-0.475000X-0.250000X0.475000X-0.250000X0.475000X0.250000X0*%
%ADD43RoundRect,0.200000X-0.275000X0.200000X-0.275000X-0.200000X0.275000X-0.200000X0.275000X0.200000X0*%
%ADD44RoundRect,0.150000X-0.512500X-0.150000X0.512500X-0.150000X0.512500X0.150000X-0.512500X0.150000X0*%
%ADD45RoundRect,0.225000X-0.250000X0.225000X-0.250000X-0.225000X0.250000X-0.225000X0.250000X0.225000X0*%
%ADD46RoundRect,0.225000X0.250000X-0.225000X0.250000X0.225000X-0.250000X0.225000X-0.250000X-0.225000X0*%
%ADD47R,0.660000X0.180000*%
%ADD48R,0.180000X0.410000*%
%ADD49RoundRect,0.225000X0.225000X0.250000X-0.225000X0.250000X-0.225000X-0.250000X0.225000X-0.250000X0*%
%ADD50R,1.016000X1.651000*%
%ADD51R,3.810000X1.397000*%
G04 APERTURE END LIST*
D10*
%TO.C,M2*%
X63950000Y-80112500D03*
X65850000Y-80112500D03*
X64900000Y-78237500D03*
%TD*%
D11*
%TO.C,C28*%
X64525000Y-60730000D03*
X64525000Y-59770000D03*
%TD*%
D12*
%TO.C,R14*%
X72800000Y-58330000D03*
X72800000Y-59350000D03*
%TD*%
D13*
%TO.C,Q5*%
X55112500Y-49300000D03*
X55112500Y-47400000D03*
X53237500Y-48350000D03*
%TD*%
D14*
%TO.C,Q7*%
X43462500Y-76975000D03*
X43462500Y-78875000D03*
X45337500Y-77925000D03*
%TD*%
D15*
%TO.C,C33*%
X71575000Y-58335000D03*
X71575000Y-59295000D03*
%TD*%
D16*
%TO.C,R27*%
X56125000Y-68135000D03*
X56125000Y-67115000D03*
%TD*%
D15*
%TO.C,C19*%
X54275000Y-71995000D03*
X54275000Y-72955000D03*
%TD*%
D17*
%TO.C,R50*%
X61615000Y-45075000D03*
X62635000Y-45075000D03*
%TD*%
D18*
%TO.C,R33*%
X47735000Y-83725000D03*
X46715000Y-83725000D03*
%TD*%
D19*
%TO.C,C36*%
X64250000Y-82050000D03*
X65800000Y-82050000D03*
%TD*%
D20*
%TO.C,JP1*%
X39400000Y-30775000D03*
X39400000Y-29125000D03*
%TD*%
D11*
%TO.C,C55*%
X64475000Y-67580000D03*
X64475000Y-66620000D03*
%TD*%
D21*
%TO.C,D1*%
X56350000Y-86475000D03*
X56850000Y-86475000D03*
X57350000Y-86475000D03*
X57350000Y-84975000D03*
X56850000Y-84975000D03*
X56350000Y-84975000D03*
%TD*%
D22*
%TO.C,C29*%
X58360000Y-66775000D03*
X57400000Y-66775000D03*
%TD*%
D15*
%TO.C,C27*%
X64500000Y-61995000D03*
X64500000Y-62955000D03*
%TD*%
D16*
%TO.C,R22*%
X55025000Y-68810000D03*
X55025000Y-67790000D03*
%TD*%
D23*
%TO.C,D2*%
X66300000Y-49900000D03*
X66300000Y-47100000D03*
%TD*%
D18*
%TO.C,R26*%
X58315000Y-68200000D03*
X57295000Y-68200000D03*
%TD*%
D24*
%TO.C,JP6*%
X90650000Y-70000000D03*
X92300000Y-70000000D03*
%TD*%
D12*
%TO.C,R12*%
X75075000Y-58330000D03*
X75075000Y-59350000D03*
%TD*%
D23*
%TO.C,D3*%
X63175000Y-47125000D03*
X63175000Y-49925000D03*
%TD*%
D16*
%TO.C,R13*%
X73950000Y-59350000D03*
X73950000Y-58330000D03*
%TD*%
D25*
%TO.C,DZ2*%
X47250000Y-55000000D03*
X47250000Y-57250000D03*
%TD*%
D26*
%TO.C,Q2*%
X59000000Y-55100000D03*
X59000000Y-55750000D03*
X59000000Y-56400000D03*
X60900000Y-56400000D03*
X60900000Y-55750000D03*
X60900000Y-55100000D03*
%TD*%
%TO.C,Q3*%
X58575000Y-42050000D03*
X58575000Y-42700000D03*
X58575000Y-43350000D03*
X60475000Y-43350000D03*
X60475000Y-42700000D03*
X60475000Y-42050000D03*
%TD*%
D14*
%TO.C,Q8*%
X38612500Y-77000000D03*
X38612500Y-78900000D03*
X40487500Y-77950000D03*
%TD*%
%TO.C,M1*%
X72012500Y-52250000D03*
X72012500Y-54150000D03*
X73887500Y-53200000D03*
%TD*%
D12*
%TO.C,R49*%
X55875000Y-55240000D03*
X55875000Y-56260000D03*
%TD*%
D15*
%TO.C,C2*%
X48275000Y-34995000D03*
X48275000Y-35955000D03*
%TD*%
D27*
%TO.C,U2*%
X63440000Y-73385000D03*
X59960000Y-73385000D03*
X62280000Y-73385000D03*
X62280000Y-72065000D03*
X61120000Y-72065000D03*
X63440000Y-72065000D03*
X59960000Y-72065000D03*
X61120000Y-73385000D03*
D28*
X63900000Y-70775000D03*
X63500000Y-70775000D03*
X63100000Y-70775000D03*
X62700000Y-70775000D03*
X62300000Y-70775000D03*
X61900000Y-70775000D03*
X61500000Y-70775000D03*
X61100000Y-70775000D03*
X60700000Y-70775000D03*
X60300000Y-70775000D03*
X59900000Y-70775000D03*
X59500000Y-70775000D03*
D29*
X58750000Y-71525000D03*
X58750000Y-71925000D03*
X58750000Y-72325000D03*
X58750000Y-72725000D03*
X58750000Y-73125000D03*
X58750000Y-73525000D03*
X58750000Y-73925000D03*
D28*
X59500000Y-74675000D03*
X59900000Y-74675000D03*
X60300000Y-74675000D03*
X60700000Y-74675000D03*
X61100000Y-74675000D03*
X61500000Y-74675000D03*
X61900000Y-74675000D03*
X62300000Y-74675000D03*
X62700000Y-74675000D03*
X63100000Y-74675000D03*
X63500000Y-74675000D03*
X63900000Y-74675000D03*
D29*
X64650000Y-73925000D03*
X64650000Y-73525000D03*
X64650000Y-73125000D03*
X64650000Y-72725000D03*
X64650000Y-72325000D03*
X64650000Y-71925000D03*
X64650000Y-71525000D03*
%TD*%
D24*
%TO.C,JP4*%
X43650000Y-39125000D03*
X45300000Y-39125000D03*
X46950000Y-39125000D03*
%TD*%
D16*
%TO.C,R20*%
X65550000Y-67635000D03*
X65550000Y-66615000D03*
%TD*%
D14*
%TO.C,Q4*%
X51587500Y-42600000D03*
X51587500Y-44500000D03*
X53462500Y-43550000D03*
%TD*%
D30*
%TO.C,J10*%
X57470000Y-24825000D03*
X57470000Y-17325000D03*
X60010000Y-24825000D03*
X60010000Y-17325000D03*
X62550000Y-24825000D03*
X62550000Y-17325000D03*
X65090000Y-24825000D03*
X65090000Y-17325000D03*
X67630000Y-24825000D03*
X67630000Y-17325000D03*
%TD*%
D31*
%TO.C,CN1*%
X32053000Y-82200000D03*
X32053000Y-34300000D03*
D32*
X34653000Y-37500000D03*
X34653000Y-38000000D03*
X34653000Y-38500000D03*
X34653000Y-39000000D03*
X34653000Y-39500000D03*
X34653000Y-40000000D03*
X34653000Y-40500000D03*
X34653000Y-41000000D03*
X34653000Y-41500000D03*
X34653000Y-42000000D03*
X34653000Y-42500000D03*
X34653000Y-43000000D03*
X34653000Y-43500000D03*
X34653000Y-44000000D03*
X34653000Y-44500000D03*
X34653000Y-45000000D03*
X34653000Y-45500000D03*
X34653000Y-46000000D03*
X34653000Y-46500000D03*
X34653000Y-47000000D03*
X34653000Y-47500000D03*
X34653000Y-48000000D03*
X34653000Y-48500000D03*
X34653000Y-49000000D03*
X34653000Y-49500000D03*
X34653000Y-50000000D03*
X34653000Y-50500000D03*
X34653000Y-51000000D03*
X34653000Y-51500000D03*
X34653000Y-52000000D03*
X34653000Y-52500000D03*
X34653000Y-53000000D03*
X34653000Y-53500000D03*
X34653000Y-54000000D03*
X34653000Y-54500000D03*
X34653000Y-55000000D03*
X34653000Y-55500000D03*
X34653000Y-56000000D03*
X34653000Y-56500000D03*
X34653000Y-57000000D03*
X34653000Y-57500000D03*
X34653000Y-58000000D03*
X34653000Y-58500000D03*
X34653000Y-59000000D03*
X34653000Y-59500000D03*
X34653000Y-60000000D03*
X34653000Y-60500000D03*
X34653000Y-61000000D03*
X34653000Y-61500000D03*
X34653000Y-62000000D03*
X34653000Y-62500000D03*
X34653000Y-63000000D03*
X34653000Y-63500000D03*
X34653000Y-64000000D03*
X34653000Y-64500000D03*
X34653000Y-65000000D03*
X34653000Y-65500000D03*
X34653000Y-66000000D03*
X34653000Y-66500000D03*
X34653000Y-67000000D03*
X34653000Y-67500000D03*
X34653000Y-68000000D03*
X34653000Y-68500000D03*
X34653000Y-69000000D03*
X34653000Y-69500000D03*
X34653000Y-70000000D03*
X34653000Y-70500000D03*
X34653000Y-71000000D03*
X34653000Y-71500000D03*
X34653000Y-72000000D03*
X34653000Y-72500000D03*
X34653000Y-73000000D03*
X34653000Y-73500000D03*
X34653000Y-74000000D03*
X34653000Y-74500000D03*
X34653000Y-75000000D03*
X34653000Y-75500000D03*
X34653000Y-76000000D03*
X34653000Y-76500000D03*
X34653000Y-77000000D03*
X34653000Y-77500000D03*
X34653000Y-78000000D03*
X34653000Y-78500000D03*
X34653000Y-79000000D03*
X29453000Y-79000000D03*
X29453000Y-78500000D03*
X29453000Y-78000000D03*
X29453000Y-77500000D03*
X29453000Y-77000000D03*
X29453000Y-76500000D03*
X29453000Y-76000000D03*
X29453000Y-75500000D03*
X29453000Y-75000000D03*
X29453000Y-74500000D03*
X29453000Y-74000000D03*
X29453000Y-73500000D03*
X29453000Y-73000000D03*
X29453000Y-72500000D03*
X29453000Y-72000000D03*
X29453000Y-71500000D03*
X29453000Y-71000000D03*
X29453000Y-70500000D03*
X29453000Y-70000000D03*
X29453000Y-69500000D03*
X29453000Y-69000000D03*
X29453000Y-68500000D03*
X29453000Y-68000000D03*
X29453000Y-67500000D03*
X29453000Y-67000000D03*
X29453000Y-66500000D03*
X29453000Y-66000000D03*
X29453000Y-65500000D03*
X29453000Y-65000000D03*
X29453000Y-64500000D03*
X29453000Y-64000000D03*
X29453000Y-63500000D03*
X29453000Y-63000000D03*
X29453000Y-62500000D03*
X29453000Y-62000000D03*
X29453000Y-61500000D03*
X29453000Y-61000000D03*
X29453000Y-60500000D03*
X29453000Y-60000000D03*
X29453000Y-59500000D03*
X29453000Y-59000000D03*
X29453000Y-58500000D03*
X29453000Y-58000000D03*
X29453000Y-57500000D03*
X29453000Y-57000000D03*
X29453000Y-56500000D03*
X29453000Y-56000000D03*
X29453000Y-55500000D03*
X29453000Y-55000000D03*
X29453000Y-54500000D03*
X29453000Y-54000000D03*
X29453000Y-53500000D03*
X29453000Y-53000000D03*
X29453000Y-52500000D03*
X29453000Y-52000000D03*
X29453000Y-51500000D03*
X29453000Y-51000000D03*
X29453000Y-50500000D03*
X29453000Y-50000000D03*
X29453000Y-49500000D03*
X29453000Y-49000000D03*
X29453000Y-48500000D03*
X29453000Y-48000000D03*
X29453000Y-47500000D03*
X29453000Y-47000000D03*
X29453000Y-46500000D03*
X29453000Y-46000000D03*
X29453000Y-45500000D03*
X29453000Y-45000000D03*
X29453000Y-44500000D03*
X29453000Y-44000000D03*
X29453000Y-43500000D03*
X29453000Y-43000000D03*
X29453000Y-42500000D03*
X29453000Y-42000000D03*
X29453000Y-41500000D03*
X29453000Y-41000000D03*
X29453000Y-40500000D03*
X29453000Y-40000000D03*
X29453000Y-39500000D03*
X29453000Y-39000000D03*
X29453000Y-38500000D03*
X29453000Y-38000000D03*
X29453000Y-37500000D03*
%TD*%
D16*
%TO.C,R11*%
X69100000Y-59300000D03*
X69100000Y-58280000D03*
%TD*%
D12*
%TO.C,R16*%
X62475000Y-77690000D03*
X62475000Y-78710000D03*
%TD*%
%TO.C,R19*%
X53900000Y-67765000D03*
X53900000Y-68785000D03*
%TD*%
%TO.C,R40*%
X44875000Y-74040000D03*
X44875000Y-75060000D03*
%TD*%
D33*
%TO.C,CN3*%
X54250000Y-91155000D03*
X55050000Y-91155000D03*
D34*
X56250000Y-91155000D03*
X57250000Y-91155000D03*
X57750000Y-91155000D03*
X58750000Y-91155000D03*
D33*
X59950000Y-91155000D03*
X60750000Y-91155000D03*
X60750000Y-91155000D03*
X59950000Y-91155000D03*
D34*
X59250000Y-91155000D03*
X58250000Y-91155000D03*
X56750000Y-91155000D03*
X55750000Y-91155000D03*
D33*
X55050000Y-91155000D03*
X54250000Y-91155000D03*
%TD*%
D15*
%TO.C,C5*%
X49800000Y-64495000D03*
X49800000Y-65455000D03*
%TD*%
D35*
%TO.C,J1*%
X81325000Y-95775000D03*
X80325000Y-95775000D03*
D36*
X82625000Y-98300000D03*
X79025000Y-98300000D03*
%TD*%
D22*
%TO.C,C20*%
X59705000Y-77750000D03*
X58745000Y-77750000D03*
%TD*%
D31*
%TO.C,CN2*%
X82930000Y-82200000D03*
X82930000Y-34300000D03*
D37*
X79880000Y-37500000D03*
X79880000Y-38000000D03*
X79880000Y-38500000D03*
X79880000Y-39000000D03*
X79880000Y-39500000D03*
X79880000Y-40000000D03*
X79880000Y-40500000D03*
X79880000Y-41000000D03*
X79880000Y-41500000D03*
X79880000Y-42000000D03*
X79880000Y-42500000D03*
X79880000Y-43000000D03*
X79880000Y-43500000D03*
X79880000Y-44000000D03*
X79880000Y-44500000D03*
X79880000Y-45000000D03*
X79880000Y-45500000D03*
X79880000Y-46000000D03*
X79880000Y-46500000D03*
X79880000Y-47000000D03*
X79880000Y-47500000D03*
X79880000Y-48000000D03*
X79880000Y-48500000D03*
X79880000Y-49000000D03*
X79880000Y-49500000D03*
X79880000Y-50000000D03*
X79880000Y-50500000D03*
X79880000Y-51000000D03*
X79880000Y-51500000D03*
X79880000Y-52000000D03*
X79880000Y-52500000D03*
X79880000Y-53000000D03*
X79880000Y-53500000D03*
X79880000Y-54000000D03*
X79880000Y-54500000D03*
X79880000Y-55000000D03*
X79880000Y-55500000D03*
X79880000Y-56000000D03*
X79880000Y-56500000D03*
X79880000Y-57000000D03*
X79880000Y-57500000D03*
X79880000Y-58000000D03*
X79880000Y-58500000D03*
X79880000Y-59000000D03*
X79880000Y-59500000D03*
X79880000Y-60000000D03*
X79880000Y-60500000D03*
X79880000Y-61000000D03*
X79880000Y-61500000D03*
X79880000Y-62000000D03*
X79880000Y-62500000D03*
X79880000Y-63000000D03*
X79880000Y-63500000D03*
X79880000Y-64000000D03*
X79880000Y-64500000D03*
X79880000Y-65000000D03*
X79880000Y-65500000D03*
X79880000Y-66000000D03*
X79880000Y-66500000D03*
X79880000Y-67000000D03*
X79880000Y-67500000D03*
X79880000Y-68000000D03*
X79880000Y-68500000D03*
X79880000Y-69000000D03*
X79880000Y-69500000D03*
X79880000Y-70000000D03*
X79880000Y-70500000D03*
X79880000Y-71000000D03*
X79880000Y-71500000D03*
X79880000Y-72000000D03*
X79880000Y-72500000D03*
X79880000Y-73000000D03*
X79880000Y-73500000D03*
X79880000Y-74000000D03*
X79880000Y-74500000D03*
X79880000Y-75000000D03*
X79880000Y-75500000D03*
X79880000Y-76000000D03*
X79880000Y-76500000D03*
X79880000Y-77000000D03*
X79880000Y-77500000D03*
X79880000Y-78000000D03*
X79880000Y-78500000D03*
X79880000Y-79000000D03*
X85980000Y-79000000D03*
X85980000Y-78500000D03*
X85980000Y-78000000D03*
X85980000Y-77500000D03*
X85980000Y-77000000D03*
X85980000Y-76500000D03*
X85980000Y-76000000D03*
X85980000Y-75500000D03*
X85980000Y-75000000D03*
X85980000Y-74500000D03*
X85980000Y-74000000D03*
X85980000Y-73500000D03*
X85980000Y-73000000D03*
X85980000Y-72500000D03*
X85980000Y-72000000D03*
X85980000Y-71500000D03*
X85980000Y-71000000D03*
X85980000Y-70500000D03*
X85980000Y-70000000D03*
X85980000Y-69500000D03*
X85980000Y-69000000D03*
X85980000Y-68500000D03*
X85980000Y-68000000D03*
X85980000Y-67500000D03*
X85980000Y-67000000D03*
X85980000Y-66500000D03*
X85980000Y-66000000D03*
X85980000Y-65500000D03*
X85980000Y-65000000D03*
X85980000Y-64500000D03*
X85980000Y-64000000D03*
X85980000Y-63500000D03*
X85980000Y-63000000D03*
X85980000Y-62500000D03*
X85980000Y-62000000D03*
X85980000Y-61500000D03*
X85980000Y-61000000D03*
X85980000Y-60500000D03*
X85980000Y-60000000D03*
X85980000Y-59500000D03*
X85980000Y-59000000D03*
X85980000Y-58500000D03*
X85980000Y-58000000D03*
X85980000Y-57500000D03*
X85980000Y-57000000D03*
X85980000Y-56500000D03*
X85980000Y-56000000D03*
X85980000Y-55500000D03*
X85980000Y-55000000D03*
X85980000Y-54500000D03*
X85980000Y-54000000D03*
X85980000Y-53500000D03*
X85980000Y-53000000D03*
X85980000Y-52500000D03*
X85980000Y-52000000D03*
X85980000Y-51500000D03*
X85980000Y-51000000D03*
X85980000Y-50500000D03*
X85980000Y-50000000D03*
X85980000Y-49500000D03*
X85980000Y-49000000D03*
X85980000Y-48500000D03*
X85980000Y-48000000D03*
X85980000Y-47500000D03*
X85980000Y-47000000D03*
X85980000Y-46500000D03*
X85980000Y-46000000D03*
X85980000Y-45500000D03*
X85980000Y-45000000D03*
X85980000Y-44500000D03*
X85980000Y-44000000D03*
X85980000Y-43500000D03*
X85980000Y-43000000D03*
X85980000Y-42500000D03*
X85980000Y-42000000D03*
X85980000Y-41500000D03*
X85980000Y-41000000D03*
X85980000Y-40500000D03*
X85980000Y-40000000D03*
X85980000Y-39500000D03*
X85980000Y-39000000D03*
X85980000Y-38500000D03*
X85980000Y-38000000D03*
X85980000Y-37500000D03*
%TD*%
D15*
%TO.C,C16*%
X48075000Y-64520000D03*
X48075000Y-65480000D03*
%TD*%
D18*
%TO.C,R51*%
X57785000Y-45075000D03*
X56765000Y-45075000D03*
%TD*%
D38*
%TO.C,L3*%
X57725000Y-62900000D03*
X54525000Y-62900000D03*
%TD*%
D39*
%TO.C,SW1*%
X49475000Y-25375000D03*
X49475000Y-16575000D03*
%TD*%
D40*
%TO.C,C22*%
X68150000Y-75150000D03*
X70050000Y-75150000D03*
%TD*%
D12*
%TO.C,R10*%
X70325000Y-58280000D03*
X70325000Y-59300000D03*
%TD*%
D16*
%TO.C,R53*%
X47250000Y-52985000D03*
X47250000Y-51965000D03*
%TD*%
D20*
%TO.C,JP3*%
X43200000Y-30775000D03*
X43200000Y-29125000D03*
%TD*%
D41*
%TO.C,C24*%
X51795000Y-68700000D03*
X52755000Y-68700000D03*
%TD*%
D42*
%TO.C,C88*%
X64025000Y-54850000D03*
X64025000Y-56750000D03*
%TD*%
D43*
%TO.C,JP2*%
X41325000Y-29125000D03*
X41325000Y-30775000D03*
%TD*%
D44*
%TO.C,U3*%
X44462500Y-34775000D03*
X44462500Y-35725000D03*
X44462500Y-36675000D03*
X46737500Y-36675000D03*
X46737500Y-35725000D03*
X46737500Y-34775000D03*
%TD*%
D45*
%TO.C,C49*%
X49000000Y-67700000D03*
X49000000Y-69250000D03*
%TD*%
D46*
%TO.C,C40*%
X69075000Y-50425000D03*
X69075000Y-48875000D03*
%TD*%
D47*
%TO.C,U7*%
X51350000Y-84650000D03*
X51350000Y-84250000D03*
D48*
X51350000Y-83725000D03*
X50950000Y-83725000D03*
X50550000Y-83725000D03*
X50150000Y-83725000D03*
D47*
X50150000Y-84250000D03*
X50150000Y-84650000D03*
D48*
X50150000Y-85175000D03*
X50550000Y-85175000D03*
X50950000Y-85175000D03*
X51350000Y-85175000D03*
%TD*%
D16*
%TO.C,R17*%
X45050000Y-95785000D03*
X45050000Y-94765000D03*
%TD*%
D41*
%TO.C,C41*%
X51670000Y-86850000D03*
X52630000Y-86850000D03*
%TD*%
D38*
%TO.C,L1*%
X71475000Y-69575000D03*
X68275000Y-69575000D03*
%TD*%
D17*
%TO.C,R36*%
X46740000Y-85125000D03*
X47760000Y-85125000D03*
%TD*%
D24*
%TO.C,JP5*%
X90650000Y-64925000D03*
X92300000Y-64925000D03*
%TD*%
D41*
%TO.C,C23*%
X54220000Y-69975000D03*
X55180000Y-69975000D03*
%TD*%
D49*
%TO.C,C32*%
X51225000Y-61250000D03*
X49675000Y-61250000D03*
%TD*%
D15*
%TO.C,C25*%
X63400000Y-66620000D03*
X63400000Y-67580000D03*
%TD*%
D46*
%TO.C,C30*%
X62000000Y-62800000D03*
X62000000Y-61250000D03*
%TD*%
D15*
%TO.C,C1*%
X42975000Y-35095000D03*
X42975000Y-36055000D03*
%TD*%
D12*
%TO.C,R18*%
X61275000Y-77715000D03*
X61275000Y-78735000D03*
%TD*%
%TO.C,R41*%
X43675000Y-74065000D03*
X43675000Y-75085000D03*
%TD*%
D23*
%TO.C,D4*%
X60000000Y-49875000D03*
X60000000Y-47075000D03*
%TD*%
D18*
%TO.C,R52*%
X59085000Y-51875000D03*
X58065000Y-51875000D03*
%TD*%
D50*
%TO.C,SW2*%
X39190000Y-97875000D03*
X36650000Y-97875000D03*
X34110000Y-97875000D03*
X39190000Y-95475000D03*
X36650000Y-95475000D03*
X34110000Y-95475000D03*
%TD*%
D18*
%TO.C,R21*%
X52710000Y-69950000D03*
X51690000Y-69950000D03*
%TD*%
D11*
%TO.C,C18*%
X43800000Y-95755000D03*
X43800000Y-94795000D03*
%TD*%
D19*
%TO.C,C31*%
X68125000Y-73125000D03*
X69675000Y-73125000D03*
%TD*%
D51*
%TO.C,L2*%
X50600000Y-72475000D03*
X50600000Y-75675000D03*
%TD*%
D12*
%TO.C,R23*%
X62300000Y-66615000D03*
X62300000Y-67635000D03*
%TD*%
D14*
%TO.C,Q6*%
X50262500Y-52975000D03*
X50262500Y-54875000D03*
X52137500Y-53925000D03*
%TD*%
D41*
%TO.C,C21*%
X51670000Y-67450000D03*
X52630000Y-67450000D03*
%TD*%
M02*
