%TF.GenerationSoftware,KiCad,Pcbnew,(6.0.7)*%
%TF.CreationDate,2022-08-29T18:43:20+02:00*%
%TF.ProjectId,UNIclicker,554e4963-6c69-4636-9b65-722e6b696361,rev?*%
%TF.SameCoordinates,Original*%
%TF.FileFunction,Soldermask,Bot*%
%TF.FilePolarity,Negative*%
%FSLAX46Y46*%
G04 Gerber Fmt 4.6, Leading zero omitted, Abs format (unit mm)*
G04 Created by KiCad (PCBNEW (6.0.7)) date 2022-08-29 18:43:20*
%MOMM*%
%LPD*%
G01*
G04 APERTURE LIST*
G04 Aperture macros list*
%AMRoundRect*
0 Rectangle with rounded corners*
0 $1 Rounding radius*
0 $2 $3 $4 $5 $6 $7 $8 $9 X,Y pos of 4 corners*
0 Add a 4 corners polygon primitive as box body*
4,1,4,$2,$3,$4,$5,$6,$7,$8,$9,$2,$3,0*
0 Add four circle primitives for the rounded corners*
1,1,$1+$1,$2,$3*
1,1,$1+$1,$4,$5*
1,1,$1+$1,$6,$7*
1,1,$1+$1,$8,$9*
0 Add four rect primitives between the rounded corners*
20,1,$1+$1,$2,$3,$4,$5,0*
20,1,$1+$1,$4,$5,$6,$7,0*
20,1,$1+$1,$6,$7,$8,$9,0*
20,1,$1+$1,$8,$9,$2,$3,0*%
G04 Aperture macros list end*
%ADD10R,1.700000X1.700000*%
%ADD11O,1.700000X1.700000*%
%ADD12C,1.150000*%
%ADD13C,1.250000*%
%ADD14C,0.650000*%
%ADD15O,1.000000X1.600000*%
%ADD16O,1.000000X2.100000*%
%ADD17RoundRect,0.147500X0.172500X-0.147500X0.172500X0.147500X-0.172500X0.147500X-0.172500X-0.147500X0*%
%ADD18RoundRect,0.135000X0.135000X0.185000X-0.135000X0.185000X-0.135000X-0.185000X0.135000X-0.185000X0*%
%ADD19RoundRect,0.147500X0.147500X0.172500X-0.147500X0.172500X-0.147500X-0.172500X0.147500X-0.172500X0*%
%ADD20RoundRect,0.147500X-0.147500X-0.172500X0.147500X-0.172500X0.147500X0.172500X-0.147500X0.172500X0*%
%ADD21RoundRect,0.135000X0.185000X-0.135000X0.185000X0.135000X-0.185000X0.135000X-0.185000X-0.135000X0*%
%ADD22R,2.159000X1.016000*%
%ADD23R,1.016000X2.159000*%
%ADD24C,1.400000*%
%ADD25R,3.000000X1.300000*%
%ADD26RoundRect,0.135000X-0.135000X-0.185000X0.135000X-0.185000X0.135000X0.185000X-0.135000X0.185000X0*%
%ADD27RoundRect,0.135000X-0.185000X0.135000X-0.185000X-0.135000X0.185000X-0.135000X0.185000X0.135000X0*%
G04 APERTURE END LIST*
D10*
%TO.C,J3*%
X97150000Y-88960000D03*
D11*
X97150000Y-86420000D03*
X97150000Y-83880000D03*
X97150000Y-81340000D03*
X97150000Y-78800000D03*
X97150000Y-76260000D03*
X97150000Y-73720000D03*
X97150000Y-71180000D03*
X97150000Y-68640000D03*
X97150000Y-66100000D03*
X97150000Y-63560000D03*
X97150000Y-61020000D03*
X97150000Y-58480000D03*
X97150000Y-55940000D03*
X97150000Y-53400000D03*
X97150000Y-50860000D03*
X97150000Y-48320000D03*
X97150000Y-45780000D03*
X97150000Y-43240000D03*
X97150000Y-40700000D03*
X97150000Y-38160000D03*
X97150000Y-35620000D03*
X97150000Y-33080000D03*
X97150000Y-30540000D03*
X97150000Y-28000000D03*
X97150000Y-25460000D03*
%TD*%
D12*
%TO.C,CN1*%
X32053000Y-36050000D03*
D13*
X32053000Y-80450000D03*
%TD*%
D14*
%TO.C,CN3*%
X60390000Y-92600000D03*
X54610000Y-92600000D03*
D15*
X53180000Y-96250000D03*
D16*
X53180000Y-92070000D03*
X61820000Y-92070000D03*
D15*
X61820000Y-96250000D03*
%TD*%
D10*
%TO.C,J2*%
X17900000Y-88625000D03*
D11*
X17900000Y-86085000D03*
X17900000Y-83545000D03*
X17900000Y-81005000D03*
X17900000Y-78465000D03*
X17900000Y-75925000D03*
X17900000Y-73385000D03*
X17900000Y-70845000D03*
X17900000Y-68305000D03*
X17900000Y-65765000D03*
X17900000Y-63225000D03*
X17900000Y-60685000D03*
X17900000Y-58145000D03*
X17900000Y-55605000D03*
X17900000Y-53065000D03*
X17900000Y-50525000D03*
X17900000Y-47985000D03*
X17900000Y-45445000D03*
X17900000Y-42905000D03*
X17900000Y-40365000D03*
X17900000Y-37825000D03*
X17900000Y-35285000D03*
X17900000Y-32745000D03*
X17900000Y-30205000D03*
X17900000Y-27665000D03*
X17900000Y-25125000D03*
%TD*%
D13*
%TO.C,CN2*%
X82930000Y-36050000D03*
X82930000Y-80450000D03*
%TD*%
D17*
%TO.C,LED5*%
X81950000Y-57535000D03*
X81950000Y-56565000D03*
%TD*%
D18*
%TO.C,R29*%
X58535000Y-33375000D03*
X57515000Y-33375000D03*
%TD*%
D19*
%TO.C,LED4*%
X58585000Y-36600000D03*
X57615000Y-36600000D03*
%TD*%
D17*
%TO.C,LED1*%
X54525000Y-86335000D03*
X54525000Y-85365000D03*
%TD*%
D20*
%TO.C,LED6*%
X57690000Y-79075000D03*
X58660000Y-79075000D03*
%TD*%
D21*
%TO.C,R31*%
X84300000Y-57535000D03*
X84300000Y-56515000D03*
%TD*%
D22*
%TO.C,T2*%
X53150000Y-43875000D03*
X61650000Y-43875000D03*
X53150000Y-39375000D03*
X61650000Y-39375000D03*
%TD*%
D17*
%TO.C,LED2*%
X60575000Y-86310000D03*
X60575000Y-85340000D03*
%TD*%
D23*
%TO.C,T1*%
X43875000Y-61450000D03*
X43875000Y-52950000D03*
X39375000Y-61450000D03*
X39375000Y-52950000D03*
%TD*%
D24*
%TO.C,MIKROBUS4*%
X23850000Y-66675000D03*
X47050000Y-66675000D03*
D25*
X23170000Y-86115000D03*
X23170000Y-83575000D03*
X23170000Y-81035000D03*
X23170000Y-78495000D03*
X23170000Y-75955000D03*
X23170000Y-73415000D03*
X23170000Y-70875000D03*
X23170000Y-68335000D03*
X48930000Y-68335000D03*
X48930000Y-70875000D03*
X48930000Y-73415000D03*
X48930000Y-75955000D03*
X48930000Y-78495000D03*
X48930000Y-81035000D03*
X48930000Y-83575000D03*
X48930000Y-86115000D03*
%TD*%
D21*
%TO.C,R30*%
X32150000Y-57935000D03*
X32150000Y-56915000D03*
%TD*%
D26*
%TO.C,R32*%
X57665000Y-80425000D03*
X58685000Y-80425000D03*
%TD*%
D17*
%TO.C,LED3*%
X34085000Y-57935000D03*
X34085000Y-56965000D03*
%TD*%
D22*
%TO.C,T4*%
X61975000Y-69750000D03*
X53475000Y-69750000D03*
X61975000Y-74250000D03*
X53475000Y-74250000D03*
%TD*%
D23*
%TO.C,T3*%
X70850000Y-53025000D03*
X70850000Y-61525000D03*
X75350000Y-53025000D03*
X75350000Y-61525000D03*
%TD*%
D21*
%TO.C,R3*%
X62175000Y-86335000D03*
X62175000Y-85315000D03*
%TD*%
D27*
%TO.C,R15*%
X53125000Y-85315000D03*
X53125000Y-86335000D03*
%TD*%
D24*
%TO.C,MIKROBUS2*%
X48250000Y-47275000D03*
X25050000Y-47275000D03*
D25*
X48930000Y-27835000D03*
X48930000Y-30375000D03*
X48930000Y-32915000D03*
X48930000Y-35455000D03*
X48930000Y-37995000D03*
X48930000Y-40535000D03*
X48930000Y-43075000D03*
X48930000Y-45615000D03*
X23170000Y-45615000D03*
X23170000Y-43075000D03*
X23170000Y-40535000D03*
X23170000Y-37995000D03*
X23170000Y-35455000D03*
X23170000Y-32915000D03*
X23170000Y-30375000D03*
X23170000Y-27835000D03*
%TD*%
D24*
%TO.C,MIKROBUS3*%
X66900000Y-66850000D03*
X90100000Y-66850000D03*
D25*
X66220000Y-86290000D03*
X66220000Y-83750000D03*
X66220000Y-81210000D03*
X66220000Y-78670000D03*
X66220000Y-76130000D03*
X66220000Y-73590000D03*
X66220000Y-71050000D03*
X66220000Y-68510000D03*
X91980000Y-68510000D03*
X91980000Y-71050000D03*
X91980000Y-73590000D03*
X91980000Y-76130000D03*
X91980000Y-78670000D03*
X91980000Y-81210000D03*
X91980000Y-83750000D03*
X91980000Y-86290000D03*
%TD*%
D18*
%TO.C,R43*%
X62360000Y-29275000D03*
X61340000Y-29275000D03*
%TD*%
D24*
%TO.C,MIKROBUS1*%
X91300000Y-47275000D03*
X68100000Y-47275000D03*
D25*
X91980000Y-27835000D03*
X91980000Y-30375000D03*
X91980000Y-32915000D03*
X91980000Y-35455000D03*
X91980000Y-37995000D03*
X91980000Y-40535000D03*
X91980000Y-43075000D03*
X91980000Y-45615000D03*
X66220000Y-45615000D03*
X66220000Y-43075000D03*
X66220000Y-40535000D03*
X66220000Y-37995000D03*
X66220000Y-35455000D03*
X66220000Y-32915000D03*
X66220000Y-30375000D03*
X66220000Y-27835000D03*
%TD*%
D22*
%TO.C,T5*%
X61775000Y-21075000D03*
X53275000Y-21075000D03*
X61775000Y-25575000D03*
X53275000Y-25575000D03*
%TD*%
D26*
%TO.C,R42*%
X53440000Y-29325000D03*
X54460000Y-29325000D03*
%TD*%
M02*
