%TF.GenerationSoftware,KiCad,Pcbnew,(6.0.7)*%
%TF.CreationDate,2022-08-29T18:43:20+02:00*%
%TF.ProjectId,UNIclicker,554e4963-6c69-4636-9b65-722e6b696361,rev?*%
%TF.SameCoordinates,Original*%
%TF.FileFunction,Legend,Top*%
%TF.FilePolarity,Positive*%
%FSLAX46Y46*%
G04 Gerber Fmt 4.6, Leading zero omitted, Abs format (unit mm)*
G04 Created by KiCad (PCBNEW (6.0.7)) date 2022-08-29 18:43:20*
%MOMM*%
%LPD*%
G01*
G04 APERTURE LIST*
%ADD10C,0.150000*%
%ADD11C,0.100000*%
%ADD12C,0.400000*%
%ADD13C,0.075000*%
%ADD14C,0.120000*%
%ADD15C,0.200000*%
G04 APERTURE END LIST*
D10*
X77300000Y-95100000D02*
X76600000Y-95100000D01*
X24300000Y-69900000D02*
X24300000Y-89175000D01*
X43850000Y-40200000D02*
X45100000Y-40200000D01*
X84350000Y-95075000D02*
X85050000Y-95075000D01*
D11*
X87980000Y-29525000D02*
G75*
G03*
X85175000Y-26720000I-2805000J0D01*
G01*
D10*
X93050000Y-24775000D02*
X93050000Y-41425000D01*
X77300000Y-94400000D02*
X77300000Y-95800000D01*
D11*
X29825000Y-26720000D02*
G75*
G03*
X27020000Y-29525000I0J-2805000D01*
G01*
D10*
X93050000Y-42575000D02*
X93050000Y-54225000D01*
D11*
X27020000Y-84875000D02*
G75*
G03*
X29825000Y-87680000I2805000J0D01*
G01*
D10*
X84350000Y-95075000D02*
X83650000Y-95075000D01*
X91900000Y-70550000D02*
X91900000Y-90000000D01*
X90700000Y-55212500D02*
X90700000Y-64287500D01*
D11*
X29825000Y-87680000D02*
X85175000Y-87680000D01*
D10*
X21825000Y-24250000D02*
X21825000Y-36200000D01*
X23200000Y-49675000D02*
X23200000Y-58675000D01*
X45100000Y-40200000D02*
X45100000Y-39850000D01*
X43850000Y-39850000D02*
X43850000Y-40200000D01*
X46750000Y-40200000D02*
X46750000Y-39850000D01*
X45500000Y-40200000D02*
X46750000Y-40200000D01*
D11*
X87980000Y-29525000D02*
X87980000Y-84875000D01*
D10*
X77300000Y-95100000D02*
X78000000Y-95100000D01*
D11*
X29825000Y-26720000D02*
X85175000Y-26720000D01*
D10*
X22525000Y-37050000D02*
X22525000Y-48550000D01*
D11*
X85175000Y-87680000D02*
G75*
G03*
X87980000Y-84875000I0J2805000D01*
G01*
X27020000Y-29525000D02*
X27020000Y-84875000D01*
D10*
X45500000Y-39850000D02*
X45500000Y-40200000D01*
X24300000Y-59900000D02*
X24300000Y-68975000D01*
X93511904Y-25927380D02*
X93511904Y-24927380D01*
X93750000Y-24927380D01*
X93892857Y-24975000D01*
X93988095Y-25070238D01*
X94035714Y-25165476D01*
X94083333Y-25355952D01*
X94083333Y-25498809D01*
X94035714Y-25689285D01*
X93988095Y-25784523D01*
X93892857Y-25879761D01*
X93750000Y-25927380D01*
X93511904Y-25927380D01*
X94416666Y-24927380D02*
X95083333Y-24927380D01*
X94654761Y-25927380D01*
X91923809Y-80827380D02*
X92542857Y-80827380D01*
X92209523Y-81208333D01*
X92352380Y-81208333D01*
X92447619Y-81255952D01*
X92495238Y-81303571D01*
X92542857Y-81398809D01*
X92542857Y-81636904D01*
X92495238Y-81732142D01*
X92447619Y-81779761D01*
X92352380Y-81827380D01*
X92066666Y-81827380D01*
X91971428Y-81779761D01*
X91923809Y-81732142D01*
X92971428Y-81732142D02*
X93019047Y-81779761D01*
X92971428Y-81827380D01*
X92923809Y-81779761D01*
X92971428Y-81732142D01*
X92971428Y-81827380D01*
X93352380Y-80827380D02*
X93971428Y-80827380D01*
X93638095Y-81208333D01*
X93780952Y-81208333D01*
X93876190Y-81255952D01*
X93923809Y-81303571D01*
X93971428Y-81398809D01*
X93971428Y-81636904D01*
X93923809Y-81732142D01*
X93876190Y-81779761D01*
X93780952Y-81827380D01*
X93495238Y-81827380D01*
X93400000Y-81779761D01*
X93352380Y-81732142D01*
X94257142Y-80827380D02*
X94590476Y-81827380D01*
X94923809Y-80827380D01*
X93661904Y-36152380D02*
X93661904Y-35152380D01*
X93900000Y-35152380D01*
X94042857Y-35200000D01*
X94138095Y-35295238D01*
X94185714Y-35390476D01*
X94233333Y-35580952D01*
X94233333Y-35723809D01*
X94185714Y-35914285D01*
X94138095Y-36009523D01*
X94042857Y-36104761D01*
X93900000Y-36152380D01*
X93661904Y-36152380D01*
X94566666Y-35152380D02*
X95185714Y-35152380D01*
X94852380Y-35533333D01*
X94995238Y-35533333D01*
X95090476Y-35580952D01*
X95138095Y-35628571D01*
X95185714Y-35723809D01*
X95185714Y-35961904D01*
X95138095Y-36057142D01*
X95090476Y-36104761D01*
X94995238Y-36152380D01*
X94709523Y-36152380D01*
X94614285Y-36104761D01*
X94566666Y-36057142D01*
X91585714Y-85952380D02*
X91919047Y-86952380D01*
X92252380Y-85952380D01*
X92538095Y-86904761D02*
X92680952Y-86952380D01*
X92919047Y-86952380D01*
X93014285Y-86904761D01*
X93061904Y-86857142D01*
X93109523Y-86761904D01*
X93109523Y-86666666D01*
X93061904Y-86571428D01*
X93014285Y-86523809D01*
X92919047Y-86476190D01*
X92728571Y-86428571D01*
X92633333Y-86380952D01*
X92585714Y-86333333D01*
X92538095Y-86238095D01*
X92538095Y-86142857D01*
X92585714Y-86047619D01*
X92633333Y-86000000D01*
X92728571Y-85952380D01*
X92966666Y-85952380D01*
X93109523Y-86000000D01*
X93728571Y-86476190D02*
X93728571Y-86952380D01*
X93395238Y-85952380D02*
X93728571Y-86476190D01*
X94061904Y-85952380D01*
X94347619Y-86904761D02*
X94490476Y-86952380D01*
X94728571Y-86952380D01*
X94823809Y-86904761D01*
X94871428Y-86857142D01*
X94919047Y-86761904D01*
X94919047Y-86666666D01*
X94871428Y-86571428D01*
X94823809Y-86523809D01*
X94728571Y-86476190D01*
X94538095Y-86428571D01*
X94442857Y-86380952D01*
X94395238Y-86333333D01*
X94347619Y-86238095D01*
X94347619Y-86142857D01*
X94395238Y-86047619D01*
X94442857Y-86000000D01*
X94538095Y-85952380D01*
X94776190Y-85952380D01*
X94919047Y-86000000D01*
X20275000Y-86454761D02*
X20417857Y-86502380D01*
X20655952Y-86502380D01*
X20751190Y-86454761D01*
X20798809Y-86407142D01*
X20846428Y-86311904D01*
X20846428Y-86216666D01*
X20798809Y-86121428D01*
X20751190Y-86073809D01*
X20655952Y-86026190D01*
X20465476Y-85978571D01*
X20370238Y-85930952D01*
X20322619Y-85883333D01*
X20275000Y-85788095D01*
X20275000Y-85692857D01*
X20322619Y-85597619D01*
X20370238Y-85550000D01*
X20465476Y-85502380D01*
X20703571Y-85502380D01*
X20846428Y-85550000D01*
X21275000Y-86502380D02*
X21275000Y-85502380D01*
X21513095Y-85502380D01*
X21655952Y-85550000D01*
X21751190Y-85645238D01*
X21798809Y-85740476D01*
X21846428Y-85930952D01*
X21846428Y-86073809D01*
X21798809Y-86264285D01*
X21751190Y-86359523D01*
X21655952Y-86454761D01*
X21513095Y-86502380D01*
X21275000Y-86502380D01*
X22275000Y-86502380D02*
X22275000Y-85502380D01*
X23275000Y-86502380D02*
X22703571Y-86502380D01*
X22989285Y-86502380D02*
X22989285Y-85502380D01*
X22894047Y-85645238D01*
X22798809Y-85740476D01*
X22703571Y-85788095D01*
X93536904Y-28502380D02*
X93536904Y-27502380D01*
X93775000Y-27502380D01*
X93917857Y-27550000D01*
X94013095Y-27645238D01*
X94060714Y-27740476D01*
X94108333Y-27930952D01*
X94108333Y-28073809D01*
X94060714Y-28264285D01*
X94013095Y-28359523D01*
X93917857Y-28454761D01*
X93775000Y-28502380D01*
X93536904Y-28502380D01*
X94965476Y-27502380D02*
X94775000Y-27502380D01*
X94679761Y-27550000D01*
X94632142Y-27597619D01*
X94536904Y-27740476D01*
X94489285Y-27930952D01*
X94489285Y-28311904D01*
X94536904Y-28407142D01*
X94584523Y-28454761D01*
X94679761Y-28502380D01*
X94870238Y-28502380D01*
X94965476Y-28454761D01*
X95013095Y-28407142D01*
X95060714Y-28311904D01*
X95060714Y-28073809D01*
X95013095Y-27978571D01*
X94965476Y-27930952D01*
X94870238Y-27883333D01*
X94679761Y-27883333D01*
X94584523Y-27930952D01*
X94536904Y-27978571D01*
X94489285Y-28073809D01*
X93586904Y-38677380D02*
X93586904Y-37677380D01*
X93825000Y-37677380D01*
X93967857Y-37725000D01*
X94063095Y-37820238D01*
X94110714Y-37915476D01*
X94158333Y-38105952D01*
X94158333Y-38248809D01*
X94110714Y-38439285D01*
X94063095Y-38534523D01*
X93967857Y-38629761D01*
X93825000Y-38677380D01*
X93586904Y-38677380D01*
X94539285Y-37772619D02*
X94586904Y-37725000D01*
X94682142Y-37677380D01*
X94920238Y-37677380D01*
X95015476Y-37725000D01*
X95063095Y-37772619D01*
X95110714Y-37867857D01*
X95110714Y-37963095D01*
X95063095Y-38105952D01*
X94491666Y-38677380D01*
X95110714Y-38677380D01*
X92416666Y-51194047D02*
X92416666Y-50717857D01*
X92702380Y-51289285D02*
X91702380Y-50955952D01*
X92702380Y-50622619D01*
X92702380Y-50289285D02*
X91702380Y-50289285D01*
X92702380Y-49717857D01*
X91702380Y-49717857D01*
X92416666Y-49289285D02*
X92416666Y-48813095D01*
X92702380Y-49384523D02*
X91702380Y-49051190D01*
X92702380Y-48717857D01*
X92702380Y-47908333D02*
X92702380Y-48384523D01*
X91702380Y-48384523D01*
X91702380Y-47384523D02*
X91702380Y-47194047D01*
X91750000Y-47098809D01*
X91845238Y-47003571D01*
X92035714Y-46955952D01*
X92369047Y-46955952D01*
X92559523Y-47003571D01*
X92654761Y-47098809D01*
X92702380Y-47194047D01*
X92702380Y-47384523D01*
X92654761Y-47479761D01*
X92559523Y-47575000D01*
X92369047Y-47622619D01*
X92035714Y-47622619D01*
X91845238Y-47575000D01*
X91750000Y-47479761D01*
X91702380Y-47384523D01*
X91750000Y-46003571D02*
X91702380Y-46098809D01*
X91702380Y-46241666D01*
X91750000Y-46384523D01*
X91845238Y-46479761D01*
X91940476Y-46527380D01*
X92130952Y-46575000D01*
X92273809Y-46575000D01*
X92464285Y-46527380D01*
X92559523Y-46479761D01*
X92654761Y-46384523D01*
X92702380Y-46241666D01*
X92702380Y-46146428D01*
X92654761Y-46003571D01*
X92607142Y-45955952D01*
X92273809Y-45955952D01*
X92273809Y-46146428D01*
X20108333Y-63574761D02*
X20251190Y-63622380D01*
X20489285Y-63622380D01*
X20584523Y-63574761D01*
X20632142Y-63527142D01*
X20679761Y-63431904D01*
X20679761Y-63336666D01*
X20632142Y-63241428D01*
X20584523Y-63193809D01*
X20489285Y-63146190D01*
X20298809Y-63098571D01*
X20203571Y-63050952D01*
X20155952Y-63003333D01*
X20108333Y-62908095D01*
X20108333Y-62812857D01*
X20155952Y-62717619D01*
X20203571Y-62670000D01*
X20298809Y-62622380D01*
X20536904Y-62622380D01*
X20679761Y-62670000D01*
X21679761Y-63527142D02*
X21632142Y-63574761D01*
X21489285Y-63622380D01*
X21394047Y-63622380D01*
X21251190Y-63574761D01*
X21155952Y-63479523D01*
X21108333Y-63384285D01*
X21060714Y-63193809D01*
X21060714Y-63050952D01*
X21108333Y-62860476D01*
X21155952Y-62765238D01*
X21251190Y-62670000D01*
X21394047Y-62622380D01*
X21489285Y-62622380D01*
X21632142Y-62670000D01*
X21679761Y-62717619D01*
X22584523Y-63622380D02*
X22108333Y-63622380D01*
X22108333Y-62622380D01*
X22870238Y-62717619D02*
X22917857Y-62670000D01*
X23013095Y-62622380D01*
X23251190Y-62622380D01*
X23346428Y-62670000D01*
X23394047Y-62717619D01*
X23441666Y-62812857D01*
X23441666Y-62908095D01*
X23394047Y-63050952D01*
X22822619Y-63622380D01*
X23441666Y-63622380D01*
X20363095Y-83899761D02*
X20505952Y-83947380D01*
X20744047Y-83947380D01*
X20839285Y-83899761D01*
X20886904Y-83852142D01*
X20934523Y-83756904D01*
X20934523Y-83661666D01*
X20886904Y-83566428D01*
X20839285Y-83518809D01*
X20744047Y-83471190D01*
X20553571Y-83423571D01*
X20458333Y-83375952D01*
X20410714Y-83328333D01*
X20363095Y-83233095D01*
X20363095Y-83137857D01*
X20410714Y-83042619D01*
X20458333Y-82995000D01*
X20553571Y-82947380D01*
X20791666Y-82947380D01*
X20934523Y-82995000D01*
X21934523Y-83852142D02*
X21886904Y-83899761D01*
X21744047Y-83947380D01*
X21648809Y-83947380D01*
X21505952Y-83899761D01*
X21410714Y-83804523D01*
X21363095Y-83709285D01*
X21315476Y-83518809D01*
X21315476Y-83375952D01*
X21363095Y-83185476D01*
X21410714Y-83090238D01*
X21505952Y-82995000D01*
X21648809Y-82947380D01*
X21744047Y-82947380D01*
X21886904Y-82995000D01*
X21934523Y-83042619D01*
X22363095Y-83947380D02*
X22363095Y-82947380D01*
X22934523Y-83947380D02*
X22505952Y-83375952D01*
X22934523Y-82947380D02*
X22363095Y-83518809D01*
X23886904Y-83947380D02*
X23315476Y-83947380D01*
X23601190Y-83947380D02*
X23601190Y-82947380D01*
X23505952Y-83090238D01*
X23410714Y-83185476D01*
X23315476Y-83233095D01*
X91344047Y-55502380D02*
X91915476Y-55502380D01*
X91629761Y-56502380D02*
X91629761Y-55502380D01*
X92153571Y-55502380D02*
X92820238Y-56502380D01*
X92820238Y-55502380D02*
X92153571Y-56502380D01*
X93201190Y-56121428D02*
X93963095Y-56121428D01*
X94439285Y-56502380D02*
X94439285Y-55502380D01*
X94820238Y-55502380D01*
X94915476Y-55550000D01*
X94963095Y-55597619D01*
X95010714Y-55692857D01*
X95010714Y-55835714D01*
X94963095Y-55930952D01*
X94915476Y-55978571D01*
X94820238Y-56026190D01*
X94439285Y-56026190D01*
X22922619Y-41420238D02*
X23922619Y-41420238D01*
X23922619Y-41801190D01*
X23875000Y-41896428D01*
X23827380Y-41944047D01*
X23732142Y-41991666D01*
X23589285Y-41991666D01*
X23494047Y-41944047D01*
X23446428Y-41896428D01*
X23398809Y-41801190D01*
X23398809Y-41420238D01*
X23922619Y-42325000D02*
X22922619Y-42563095D01*
X23636904Y-42753571D01*
X22922619Y-42944047D01*
X23922619Y-43182142D01*
X22922619Y-43563095D02*
X23922619Y-43563095D01*
X23208333Y-43896428D01*
X23922619Y-44229761D01*
X22922619Y-44229761D01*
X91765476Y-64002380D02*
X91432142Y-63526190D01*
X91194047Y-64002380D02*
X91194047Y-63002380D01*
X91575000Y-63002380D01*
X91670238Y-63050000D01*
X91717857Y-63097619D01*
X91765476Y-63192857D01*
X91765476Y-63335714D01*
X91717857Y-63430952D01*
X91670238Y-63478571D01*
X91575000Y-63526190D01*
X91194047Y-63526190D01*
X92098809Y-63002380D02*
X92765476Y-64002380D01*
X92765476Y-63002380D02*
X92098809Y-64002380D01*
X93146428Y-63621428D02*
X93908333Y-63621428D01*
X94384523Y-64002380D02*
X94384523Y-63002380D01*
X94955952Y-64002380D01*
X94955952Y-63002380D01*
X93735714Y-51041666D02*
X94211904Y-51041666D01*
X93640476Y-51327380D02*
X93973809Y-50327380D01*
X94307142Y-51327380D01*
X94592857Y-50422619D02*
X94640476Y-50375000D01*
X94735714Y-50327380D01*
X94973809Y-50327380D01*
X95069047Y-50375000D01*
X95116666Y-50422619D01*
X95164285Y-50517857D01*
X95164285Y-50613095D01*
X95116666Y-50755952D01*
X94545238Y-51327380D01*
X95164285Y-51327380D01*
X19986904Y-48367380D02*
X19986904Y-47367380D01*
X20367857Y-47367380D01*
X20463095Y-47415000D01*
X20510714Y-47462619D01*
X20558333Y-47557857D01*
X20558333Y-47700714D01*
X20510714Y-47795952D01*
X20463095Y-47843571D01*
X20367857Y-47891190D01*
X19986904Y-47891190D01*
X21510714Y-48367380D02*
X20939285Y-48367380D01*
X21225000Y-48367380D02*
X21225000Y-47367380D01*
X21129761Y-47510238D01*
X21034523Y-47605476D01*
X20939285Y-47653095D01*
X92863095Y-78375000D02*
X92767857Y-78327380D01*
X92625000Y-78327380D01*
X92482142Y-78375000D01*
X92386904Y-78470238D01*
X92339285Y-78565476D01*
X92291666Y-78755952D01*
X92291666Y-78898809D01*
X92339285Y-79089285D01*
X92386904Y-79184523D01*
X92482142Y-79279761D01*
X92625000Y-79327380D01*
X92720238Y-79327380D01*
X92863095Y-79279761D01*
X92910714Y-79232142D01*
X92910714Y-78898809D01*
X92720238Y-78898809D01*
X93339285Y-79327380D02*
X93339285Y-78327380D01*
X93910714Y-79327380D01*
X93910714Y-78327380D01*
X94386904Y-79327380D02*
X94386904Y-78327380D01*
X94625000Y-78327380D01*
X94767857Y-78375000D01*
X94863095Y-78470238D01*
X94910714Y-78565476D01*
X94958333Y-78755952D01*
X94958333Y-78898809D01*
X94910714Y-79089285D01*
X94863095Y-79184523D01*
X94767857Y-79279761D01*
X94625000Y-79327380D01*
X94386904Y-79327380D01*
X20133333Y-68644761D02*
X20276190Y-68692380D01*
X20514285Y-68692380D01*
X20609523Y-68644761D01*
X20657142Y-68597142D01*
X20704761Y-68501904D01*
X20704761Y-68406666D01*
X20657142Y-68311428D01*
X20609523Y-68263809D01*
X20514285Y-68216190D01*
X20323809Y-68168571D01*
X20228571Y-68120952D01*
X20180952Y-68073333D01*
X20133333Y-67978095D01*
X20133333Y-67882857D01*
X20180952Y-67787619D01*
X20228571Y-67740000D01*
X20323809Y-67692380D01*
X20561904Y-67692380D01*
X20704761Y-67740000D01*
X21704761Y-68597142D02*
X21657142Y-68644761D01*
X21514285Y-68692380D01*
X21419047Y-68692380D01*
X21276190Y-68644761D01*
X21180952Y-68549523D01*
X21133333Y-68454285D01*
X21085714Y-68263809D01*
X21085714Y-68120952D01*
X21133333Y-67930476D01*
X21180952Y-67835238D01*
X21276190Y-67740000D01*
X21419047Y-67692380D01*
X21514285Y-67692380D01*
X21657142Y-67740000D01*
X21704761Y-67787619D01*
X22609523Y-68692380D02*
X22133333Y-68692380D01*
X22133333Y-67692380D01*
X23466666Y-68692380D02*
X22895238Y-68692380D01*
X23180952Y-68692380D02*
X23180952Y-67692380D01*
X23085714Y-67835238D01*
X22990476Y-67930476D01*
X22895238Y-67978095D01*
X24522619Y-52704761D02*
X23713095Y-52704761D01*
X23617857Y-52752380D01*
X23570238Y-52800000D01*
X23522619Y-52895238D01*
X23522619Y-53085714D01*
X23570238Y-53180952D01*
X23617857Y-53228571D01*
X23713095Y-53276190D01*
X24522619Y-53276190D01*
X23808333Y-53704761D02*
X23808333Y-54180952D01*
X23522619Y-53609523D02*
X24522619Y-53942857D01*
X23522619Y-54276190D01*
X23522619Y-55180952D02*
X23998809Y-54847619D01*
X23522619Y-54609523D02*
X24522619Y-54609523D01*
X24522619Y-54990476D01*
X24475000Y-55085714D01*
X24427380Y-55133333D01*
X24332142Y-55180952D01*
X24189285Y-55180952D01*
X24094047Y-55133333D01*
X24046428Y-55085714D01*
X23998809Y-54990476D01*
X23998809Y-54609523D01*
X24522619Y-55466666D02*
X24522619Y-56038095D01*
X23522619Y-55752380D02*
X24522619Y-55752380D01*
X92913095Y-70850000D02*
X92817857Y-70802380D01*
X92675000Y-70802380D01*
X92532142Y-70850000D01*
X92436904Y-70945238D01*
X92389285Y-71040476D01*
X92341666Y-71230952D01*
X92341666Y-71373809D01*
X92389285Y-71564285D01*
X92436904Y-71659523D01*
X92532142Y-71754761D01*
X92675000Y-71802380D01*
X92770238Y-71802380D01*
X92913095Y-71754761D01*
X92960714Y-71707142D01*
X92960714Y-71373809D01*
X92770238Y-71373809D01*
X93389285Y-71802380D02*
X93389285Y-70802380D01*
X93960714Y-71802380D01*
X93960714Y-70802380D01*
X94436904Y-71802380D02*
X94436904Y-70802380D01*
X94675000Y-70802380D01*
X94817857Y-70850000D01*
X94913095Y-70945238D01*
X94960714Y-71040476D01*
X95008333Y-71230952D01*
X95008333Y-71373809D01*
X94960714Y-71564285D01*
X94913095Y-71659523D01*
X94817857Y-71754761D01*
X94675000Y-71802380D01*
X94436904Y-71802380D01*
X20123809Y-35687380D02*
X20123809Y-34687380D01*
X21123809Y-35687380D02*
X20552380Y-35687380D01*
X20838095Y-35687380D02*
X20838095Y-34687380D01*
X20742857Y-34830238D01*
X20647619Y-34925476D01*
X20552380Y-34973095D01*
X20907142Y-81307142D02*
X20859523Y-81354761D01*
X20716666Y-81402380D01*
X20621428Y-81402380D01*
X20478571Y-81354761D01*
X20383333Y-81259523D01*
X20335714Y-81164285D01*
X20288095Y-80973809D01*
X20288095Y-80830952D01*
X20335714Y-80640476D01*
X20383333Y-80545238D01*
X20478571Y-80450000D01*
X20621428Y-80402380D01*
X20716666Y-80402380D01*
X20859523Y-80450000D01*
X20907142Y-80497619D01*
X21288095Y-81354761D02*
X21430952Y-81402380D01*
X21669047Y-81402380D01*
X21764285Y-81354761D01*
X21811904Y-81307142D01*
X21859523Y-81211904D01*
X21859523Y-81116666D01*
X21811904Y-81021428D01*
X21764285Y-80973809D01*
X21669047Y-80926190D01*
X21478571Y-80878571D01*
X21383333Y-80830952D01*
X21335714Y-80783333D01*
X21288095Y-80688095D01*
X21288095Y-80592857D01*
X21335714Y-80497619D01*
X21383333Y-80450000D01*
X21478571Y-80402380D01*
X21716666Y-80402380D01*
X21859523Y-80450000D01*
X22811904Y-81402380D02*
X22240476Y-81402380D01*
X22526190Y-81402380D02*
X22526190Y-80402380D01*
X22430952Y-80545238D01*
X22335714Y-80640476D01*
X22240476Y-80688095D01*
X93586904Y-31152380D02*
X93586904Y-30152380D01*
X93825000Y-30152380D01*
X93967857Y-30200000D01*
X94063095Y-30295238D01*
X94110714Y-30390476D01*
X94158333Y-30580952D01*
X94158333Y-30723809D01*
X94110714Y-30914285D01*
X94063095Y-31009523D01*
X93967857Y-31104761D01*
X93825000Y-31152380D01*
X93586904Y-31152380D01*
X95063095Y-30152380D02*
X94586904Y-30152380D01*
X94539285Y-30628571D01*
X94586904Y-30580952D01*
X94682142Y-30533333D01*
X94920238Y-30533333D01*
X95015476Y-30580952D01*
X95063095Y-30628571D01*
X95110714Y-30723809D01*
X95110714Y-30961904D01*
X95063095Y-31057142D01*
X95015476Y-31104761D01*
X94920238Y-31152380D01*
X94682142Y-31152380D01*
X94586904Y-31104761D01*
X94539285Y-31057142D01*
X93785714Y-53566666D02*
X94261904Y-53566666D01*
X93690476Y-53852380D02*
X94023809Y-52852380D01*
X94357142Y-53852380D01*
X95214285Y-53852380D02*
X94642857Y-53852380D01*
X94928571Y-53852380D02*
X94928571Y-52852380D01*
X94833333Y-52995238D01*
X94738095Y-53090476D01*
X94642857Y-53138095D01*
D12*
X50616666Y-35919761D02*
X50616666Y-33919761D01*
X51283333Y-35348333D01*
X51950000Y-33919761D01*
X51950000Y-35919761D01*
X54045238Y-35729285D02*
X53950000Y-35824523D01*
X53664285Y-35919761D01*
X53473809Y-35919761D01*
X53188095Y-35824523D01*
X52997619Y-35634047D01*
X52902380Y-35443571D01*
X52807142Y-35062619D01*
X52807142Y-34776904D01*
X52902380Y-34395952D01*
X52997619Y-34205476D01*
X53188095Y-34015000D01*
X53473809Y-33919761D01*
X53664285Y-33919761D01*
X53950000Y-34015000D01*
X54045238Y-34110238D01*
X54902380Y-33919761D02*
X54902380Y-35538809D01*
X54997619Y-35729285D01*
X55092857Y-35824523D01*
X55283333Y-35919761D01*
X55664285Y-35919761D01*
X55854761Y-35824523D01*
X55950000Y-35729285D01*
X56045238Y-35538809D01*
X56045238Y-33919761D01*
X59664285Y-35729285D02*
X59569047Y-35824523D01*
X59283333Y-35919761D01*
X59092857Y-35919761D01*
X58807142Y-35824523D01*
X58616666Y-35634047D01*
X58521428Y-35443571D01*
X58426190Y-35062619D01*
X58426190Y-34776904D01*
X58521428Y-34395952D01*
X58616666Y-34205476D01*
X58807142Y-34015000D01*
X59092857Y-33919761D01*
X59283333Y-33919761D01*
X59569047Y-34015000D01*
X59664285Y-34110238D01*
X60426190Y-35348333D02*
X61378571Y-35348333D01*
X60235714Y-35919761D02*
X60902380Y-33919761D01*
X61569047Y-35919761D01*
X63378571Y-35919761D02*
X62711904Y-34967380D01*
X62235714Y-35919761D02*
X62235714Y-33919761D01*
X62997619Y-33919761D01*
X63188095Y-34015000D01*
X63283333Y-34110238D01*
X63378571Y-34300714D01*
X63378571Y-34586428D01*
X63283333Y-34776904D01*
X63188095Y-34872142D01*
X62997619Y-34967380D01*
X62235714Y-34967380D01*
X64235714Y-35919761D02*
X64235714Y-33919761D01*
X64711904Y-33919761D01*
X64997619Y-34015000D01*
X65188095Y-34205476D01*
X65283333Y-34395952D01*
X65378571Y-34776904D01*
X65378571Y-35062619D01*
X65283333Y-35443571D01*
X65188095Y-35634047D01*
X64997619Y-35824523D01*
X64711904Y-35919761D01*
X64235714Y-35919761D01*
X52664285Y-39044523D02*
X52950000Y-39139761D01*
X53426190Y-39139761D01*
X53616666Y-39044523D01*
X53711904Y-38949285D01*
X53807142Y-38758809D01*
X53807142Y-38568333D01*
X53711904Y-38377857D01*
X53616666Y-38282619D01*
X53426190Y-38187380D01*
X53045238Y-38092142D01*
X52854761Y-37996904D01*
X52759523Y-37901666D01*
X52664285Y-37711190D01*
X52664285Y-37520714D01*
X52759523Y-37330238D01*
X52854761Y-37235000D01*
X53045238Y-37139761D01*
X53521428Y-37139761D01*
X53807142Y-37235000D01*
X55045238Y-37139761D02*
X55426190Y-37139761D01*
X55616666Y-37235000D01*
X55807142Y-37425476D01*
X55902380Y-37806428D01*
X55902380Y-38473095D01*
X55807142Y-38854047D01*
X55616666Y-39044523D01*
X55426190Y-39139761D01*
X55045238Y-39139761D01*
X54854761Y-39044523D01*
X54664285Y-38854047D01*
X54569047Y-38473095D01*
X54569047Y-37806428D01*
X54664285Y-37425476D01*
X54854761Y-37235000D01*
X55045238Y-37139761D01*
X57902380Y-38949285D02*
X57807142Y-39044523D01*
X57521428Y-39139761D01*
X57330952Y-39139761D01*
X57045238Y-39044523D01*
X56854761Y-38854047D01*
X56759523Y-38663571D01*
X56664285Y-38282619D01*
X56664285Y-37996904D01*
X56759523Y-37615952D01*
X56854761Y-37425476D01*
X57045238Y-37235000D01*
X57330952Y-37139761D01*
X57521428Y-37139761D01*
X57807142Y-37235000D01*
X57902380Y-37330238D01*
X58759523Y-39139761D02*
X58759523Y-37139761D01*
X59902380Y-39139761D02*
X59045238Y-37996904D01*
X59902380Y-37139761D02*
X58759523Y-38282619D01*
X60759523Y-38092142D02*
X61426190Y-38092142D01*
X61711904Y-39139761D02*
X60759523Y-39139761D01*
X60759523Y-37139761D01*
X61711904Y-37139761D01*
X62283333Y-37139761D02*
X63426190Y-37139761D01*
X62854761Y-39139761D02*
X62854761Y-37139761D01*
D10*
X20782142Y-58542380D02*
X20448809Y-58066190D01*
X20210714Y-58542380D02*
X20210714Y-57542380D01*
X20591666Y-57542380D01*
X20686904Y-57590000D01*
X20734523Y-57637619D01*
X20782142Y-57732857D01*
X20782142Y-57875714D01*
X20734523Y-57970952D01*
X20686904Y-58018571D01*
X20591666Y-58066190D01*
X20210714Y-58066190D01*
X21115476Y-57542380D02*
X21782142Y-58542380D01*
X21782142Y-57542380D02*
X21115476Y-58542380D01*
X22686904Y-58542380D02*
X22115476Y-58542380D01*
X22401190Y-58542380D02*
X22401190Y-57542380D01*
X22305952Y-57685238D01*
X22210714Y-57780476D01*
X22115476Y-57828095D01*
X93077380Y-89652380D02*
X92744047Y-89176190D01*
X92505952Y-89652380D02*
X92505952Y-88652380D01*
X92886904Y-88652380D01*
X92982142Y-88700000D01*
X93029761Y-88747619D01*
X93077380Y-88842857D01*
X93077380Y-88985714D01*
X93029761Y-89080952D01*
X92982142Y-89128571D01*
X92886904Y-89176190D01*
X92505952Y-89176190D01*
X93458333Y-89604761D02*
X93601190Y-89652380D01*
X93839285Y-89652380D01*
X93934523Y-89604761D01*
X93982142Y-89557142D01*
X94029761Y-89461904D01*
X94029761Y-89366666D01*
X93982142Y-89271428D01*
X93934523Y-89223809D01*
X93839285Y-89176190D01*
X93648809Y-89128571D01*
X93553571Y-89080952D01*
X93505952Y-89033333D01*
X93458333Y-88938095D01*
X93458333Y-88842857D01*
X93505952Y-88747619D01*
X93553571Y-88700000D01*
X93648809Y-88652380D01*
X93886904Y-88652380D01*
X94029761Y-88700000D01*
X94315476Y-88652380D02*
X94886904Y-88652380D01*
X94601190Y-89652380D02*
X94601190Y-88652380D01*
X20123809Y-30607380D02*
X20123809Y-29607380D01*
X20504761Y-29607380D02*
X21123809Y-29607380D01*
X20790476Y-29988333D01*
X20933333Y-29988333D01*
X21028571Y-30035952D01*
X21076190Y-30083571D01*
X21123809Y-30178809D01*
X21123809Y-30416904D01*
X21076190Y-30512142D01*
X21028571Y-30559761D01*
X20933333Y-30607380D01*
X20647619Y-30607380D01*
X20552380Y-30559761D01*
X20504761Y-30512142D01*
X20264285Y-89004761D02*
X20407142Y-89052380D01*
X20645238Y-89052380D01*
X20740476Y-89004761D01*
X20788095Y-88957142D01*
X20835714Y-88861904D01*
X20835714Y-88766666D01*
X20788095Y-88671428D01*
X20740476Y-88623809D01*
X20645238Y-88576190D01*
X20454761Y-88528571D01*
X20359523Y-88480952D01*
X20311904Y-88433333D01*
X20264285Y-88338095D01*
X20264285Y-88242857D01*
X20311904Y-88147619D01*
X20359523Y-88100000D01*
X20454761Y-88052380D01*
X20692857Y-88052380D01*
X20835714Y-88100000D01*
X21264285Y-89052380D02*
X21264285Y-88052380D01*
X21502380Y-88052380D01*
X21645238Y-88100000D01*
X21740476Y-88195238D01*
X21788095Y-88290476D01*
X21835714Y-88480952D01*
X21835714Y-88623809D01*
X21788095Y-88814285D01*
X21740476Y-88909523D01*
X21645238Y-89004761D01*
X21502380Y-89052380D01*
X21264285Y-89052380D01*
X22454761Y-88052380D02*
X22645238Y-88052380D01*
X22740476Y-88100000D01*
X22835714Y-88195238D01*
X22883333Y-88385714D01*
X22883333Y-88719047D01*
X22835714Y-88909523D01*
X22740476Y-89004761D01*
X22645238Y-89052380D01*
X22454761Y-89052380D01*
X22359523Y-89004761D01*
X22264285Y-88909523D01*
X22216666Y-88719047D01*
X22216666Y-88385714D01*
X22264285Y-88195238D01*
X22359523Y-88100000D01*
X22454761Y-88052380D01*
X23835714Y-89052380D02*
X23264285Y-89052380D01*
X23550000Y-89052380D02*
X23550000Y-88052380D01*
X23454761Y-88195238D01*
X23359523Y-88290476D01*
X23264285Y-88338095D01*
X89961904Y-69107142D02*
X89914285Y-69154761D01*
X89771428Y-69202380D01*
X89676190Y-69202380D01*
X89533333Y-69154761D01*
X89438095Y-69059523D01*
X89390476Y-68964285D01*
X89342857Y-68773809D01*
X89342857Y-68630952D01*
X89390476Y-68440476D01*
X89438095Y-68345238D01*
X89533333Y-68250000D01*
X89676190Y-68202380D01*
X89771428Y-68202380D01*
X89914285Y-68250000D01*
X89961904Y-68297619D01*
X90342857Y-68916666D02*
X90819047Y-68916666D01*
X90247619Y-69202380D02*
X90580952Y-68202380D01*
X90914285Y-69202380D01*
X91247619Y-69202380D02*
X91247619Y-68202380D01*
X91819047Y-69202380D01*
X91819047Y-68202380D01*
X92295238Y-68821428D02*
X93057142Y-68821428D01*
X94104761Y-69202380D02*
X93771428Y-68726190D01*
X93533333Y-69202380D02*
X93533333Y-68202380D01*
X93914285Y-68202380D01*
X94009523Y-68250000D01*
X94057142Y-68297619D01*
X94104761Y-68392857D01*
X94104761Y-68535714D01*
X94057142Y-68630952D01*
X94009523Y-68678571D01*
X93914285Y-68726190D01*
X93533333Y-68726190D01*
X94438095Y-68202380D02*
X95104761Y-69202380D01*
X95104761Y-68202380D02*
X94438095Y-69202380D01*
X92913095Y-73325000D02*
X92817857Y-73277380D01*
X92675000Y-73277380D01*
X92532142Y-73325000D01*
X92436904Y-73420238D01*
X92389285Y-73515476D01*
X92341666Y-73705952D01*
X92341666Y-73848809D01*
X92389285Y-74039285D01*
X92436904Y-74134523D01*
X92532142Y-74229761D01*
X92675000Y-74277380D01*
X92770238Y-74277380D01*
X92913095Y-74229761D01*
X92960714Y-74182142D01*
X92960714Y-73848809D01*
X92770238Y-73848809D01*
X93389285Y-74277380D02*
X93389285Y-73277380D01*
X93960714Y-74277380D01*
X93960714Y-73277380D01*
X94436904Y-74277380D02*
X94436904Y-73277380D01*
X94675000Y-73277380D01*
X94817857Y-73325000D01*
X94913095Y-73420238D01*
X94960714Y-73515476D01*
X95008333Y-73705952D01*
X95008333Y-73848809D01*
X94960714Y-74039285D01*
X94913095Y-74134523D01*
X94817857Y-74229761D01*
X94675000Y-74277380D01*
X94436904Y-74277380D01*
X20123809Y-28067380D02*
X20123809Y-27067380D01*
X21028571Y-27400714D02*
X21028571Y-28067380D01*
X20790476Y-27019761D02*
X20552380Y-27734047D01*
X21171428Y-27734047D01*
X19936904Y-45827380D02*
X19936904Y-44827380D01*
X20317857Y-44827380D01*
X20413095Y-44875000D01*
X20460714Y-44922619D01*
X20508333Y-45017857D01*
X20508333Y-45160714D01*
X20460714Y-45255952D01*
X20413095Y-45303571D01*
X20317857Y-45351190D01*
X19936904Y-45351190D01*
X20889285Y-44922619D02*
X20936904Y-44875000D01*
X21032142Y-44827380D01*
X21270238Y-44827380D01*
X21365476Y-44875000D01*
X21413095Y-44922619D01*
X21460714Y-45017857D01*
X21460714Y-45113095D01*
X21413095Y-45255952D01*
X20841666Y-45827380D01*
X21460714Y-45827380D01*
X93685714Y-43516666D02*
X94161904Y-43516666D01*
X93590476Y-43802380D02*
X93923809Y-42802380D01*
X94257142Y-43802380D01*
X95066666Y-42802380D02*
X94590476Y-42802380D01*
X94542857Y-43278571D01*
X94590476Y-43230952D01*
X94685714Y-43183333D01*
X94923809Y-43183333D01*
X95019047Y-43230952D01*
X95066666Y-43278571D01*
X95114285Y-43373809D01*
X95114285Y-43611904D01*
X95066666Y-43707142D01*
X95019047Y-43754761D01*
X94923809Y-43802380D01*
X94685714Y-43802380D01*
X94590476Y-43754761D01*
X94542857Y-43707142D01*
X24622619Y-63648809D02*
X25622619Y-63648809D01*
X25527380Y-64077380D02*
X25575000Y-64125000D01*
X25622619Y-64220238D01*
X25622619Y-64458333D01*
X25575000Y-64553571D01*
X25527380Y-64601190D01*
X25432142Y-64648809D01*
X25336904Y-64648809D01*
X25194047Y-64601190D01*
X24622619Y-64029761D01*
X24622619Y-64648809D01*
X24717857Y-65648809D02*
X24670238Y-65601190D01*
X24622619Y-65458333D01*
X24622619Y-65363095D01*
X24670238Y-65220238D01*
X24765476Y-65125000D01*
X24860714Y-65077380D01*
X25051190Y-65029761D01*
X25194047Y-65029761D01*
X25384523Y-65077380D01*
X25479761Y-65125000D01*
X25575000Y-65220238D01*
X25622619Y-65363095D01*
X25622619Y-65458333D01*
X25575000Y-65601190D01*
X25527380Y-65648809D01*
X20061904Y-55052380D02*
X20633333Y-55052380D01*
X20347619Y-56052380D02*
X20347619Y-55052380D01*
X20871428Y-55052380D02*
X21538095Y-56052380D01*
X21538095Y-55052380D02*
X20871428Y-56052380D01*
X22442857Y-56052380D02*
X21871428Y-56052380D01*
X22157142Y-56052380D02*
X22157142Y-55052380D01*
X22061904Y-55195238D01*
X21966666Y-55290476D01*
X21871428Y-55338095D01*
X20188095Y-73724761D02*
X20330952Y-73772380D01*
X20569047Y-73772380D01*
X20664285Y-73724761D01*
X20711904Y-73677142D01*
X20759523Y-73581904D01*
X20759523Y-73486666D01*
X20711904Y-73391428D01*
X20664285Y-73343809D01*
X20569047Y-73296190D01*
X20378571Y-73248571D01*
X20283333Y-73200952D01*
X20235714Y-73153333D01*
X20188095Y-73058095D01*
X20188095Y-72962857D01*
X20235714Y-72867619D01*
X20283333Y-72820000D01*
X20378571Y-72772380D01*
X20616666Y-72772380D01*
X20759523Y-72820000D01*
X21759523Y-73677142D02*
X21711904Y-73724761D01*
X21569047Y-73772380D01*
X21473809Y-73772380D01*
X21330952Y-73724761D01*
X21235714Y-73629523D01*
X21188095Y-73534285D01*
X21140476Y-73343809D01*
X21140476Y-73200952D01*
X21188095Y-73010476D01*
X21235714Y-72915238D01*
X21330952Y-72820000D01*
X21473809Y-72772380D01*
X21569047Y-72772380D01*
X21711904Y-72820000D01*
X21759523Y-72867619D01*
X22188095Y-73772380D02*
X22188095Y-72772380D01*
X22759523Y-73772380D02*
X22330952Y-73200952D01*
X22759523Y-72772380D02*
X22188095Y-73343809D01*
X23140476Y-72867619D02*
X23188095Y-72820000D01*
X23283333Y-72772380D01*
X23521428Y-72772380D01*
X23616666Y-72820000D01*
X23664285Y-72867619D01*
X23711904Y-72962857D01*
X23711904Y-73058095D01*
X23664285Y-73200952D01*
X23092857Y-73772380D01*
X23711904Y-73772380D01*
X93611904Y-33502380D02*
X93611904Y-32502380D01*
X93850000Y-32502380D01*
X93992857Y-32550000D01*
X94088095Y-32645238D01*
X94135714Y-32740476D01*
X94183333Y-32930952D01*
X94183333Y-33073809D01*
X94135714Y-33264285D01*
X94088095Y-33359523D01*
X93992857Y-33454761D01*
X93850000Y-33502380D01*
X93611904Y-33502380D01*
X95040476Y-32835714D02*
X95040476Y-33502380D01*
X94802380Y-32454761D02*
X94564285Y-33169047D01*
X95183333Y-33169047D01*
X20109523Y-66104761D02*
X20252380Y-66152380D01*
X20490476Y-66152380D01*
X20585714Y-66104761D01*
X20633333Y-66057142D01*
X20680952Y-65961904D01*
X20680952Y-65866666D01*
X20633333Y-65771428D01*
X20585714Y-65723809D01*
X20490476Y-65676190D01*
X20300000Y-65628571D01*
X20204761Y-65580952D01*
X20157142Y-65533333D01*
X20109523Y-65438095D01*
X20109523Y-65342857D01*
X20157142Y-65247619D01*
X20204761Y-65200000D01*
X20300000Y-65152380D01*
X20538095Y-65152380D01*
X20680952Y-65200000D01*
X21109523Y-66152380D02*
X21109523Y-65152380D01*
X21347619Y-65152380D01*
X21490476Y-65200000D01*
X21585714Y-65295238D01*
X21633333Y-65390476D01*
X21680952Y-65580952D01*
X21680952Y-65723809D01*
X21633333Y-65914285D01*
X21585714Y-66009523D01*
X21490476Y-66104761D01*
X21347619Y-66152380D01*
X21109523Y-66152380D01*
X22061904Y-65866666D02*
X22538095Y-65866666D01*
X21966666Y-66152380D02*
X22300000Y-65152380D01*
X22633333Y-66152380D01*
X23490476Y-66152380D02*
X22919047Y-66152380D01*
X23204761Y-66152380D02*
X23204761Y-65152380D01*
X23109523Y-65295238D01*
X23014285Y-65390476D01*
X22919047Y-65438095D01*
D13*
X44103571Y-40410714D02*
X44289285Y-40410714D01*
X44189285Y-40525000D01*
X44232142Y-40525000D01*
X44260714Y-40539285D01*
X44275000Y-40553571D01*
X44289285Y-40582142D01*
X44289285Y-40653571D01*
X44275000Y-40682142D01*
X44260714Y-40696428D01*
X44232142Y-40710714D01*
X44146428Y-40710714D01*
X44117857Y-40696428D01*
X44103571Y-40682142D01*
X44375000Y-40410714D02*
X44475000Y-40710714D01*
X44575000Y-40410714D01*
X44646428Y-40410714D02*
X44832142Y-40410714D01*
X44732142Y-40525000D01*
X44775000Y-40525000D01*
X44803571Y-40539285D01*
X44817857Y-40553571D01*
X44832142Y-40582142D01*
X44832142Y-40653571D01*
X44817857Y-40682142D01*
X44803571Y-40696428D01*
X44775000Y-40710714D01*
X44689285Y-40710714D01*
X44660714Y-40696428D01*
X44646428Y-40682142D01*
D10*
X93735714Y-45941666D02*
X94211904Y-45941666D01*
X93640476Y-46227380D02*
X93973809Y-45227380D01*
X94307142Y-46227380D01*
X95069047Y-45560714D02*
X95069047Y-46227380D01*
X94830952Y-45179761D02*
X94592857Y-45894047D01*
X95211904Y-45894047D01*
X19961904Y-49902380D02*
X20533333Y-49902380D01*
X20247619Y-50902380D02*
X20247619Y-49902380D01*
X20771428Y-49902380D02*
X21438095Y-50902380D01*
X21438095Y-49902380D02*
X20771428Y-50902380D01*
X21771428Y-49997619D02*
X21819047Y-49950000D01*
X21914285Y-49902380D01*
X22152380Y-49902380D01*
X22247619Y-49950000D01*
X22295238Y-49997619D01*
X22342857Y-50092857D01*
X22342857Y-50188095D01*
X22295238Y-50330952D01*
X21723809Y-50902380D01*
X22342857Y-50902380D01*
X93859523Y-83427380D02*
X93383333Y-83427380D01*
X93335714Y-83903571D01*
X93383333Y-83855952D01*
X93478571Y-83808333D01*
X93716666Y-83808333D01*
X93811904Y-83855952D01*
X93859523Y-83903571D01*
X93907142Y-83998809D01*
X93907142Y-84236904D01*
X93859523Y-84332142D01*
X93811904Y-84379761D01*
X93716666Y-84427380D01*
X93478571Y-84427380D01*
X93383333Y-84379761D01*
X93335714Y-84332142D01*
X94192857Y-83427380D02*
X94526190Y-84427380D01*
X94859523Y-83427380D01*
X20250000Y-76264761D02*
X20392857Y-76312380D01*
X20630952Y-76312380D01*
X20726190Y-76264761D01*
X20773809Y-76217142D01*
X20821428Y-76121904D01*
X20821428Y-76026666D01*
X20773809Y-75931428D01*
X20726190Y-75883809D01*
X20630952Y-75836190D01*
X20440476Y-75788571D01*
X20345238Y-75740952D01*
X20297619Y-75693333D01*
X20250000Y-75598095D01*
X20250000Y-75502857D01*
X20297619Y-75407619D01*
X20345238Y-75360000D01*
X20440476Y-75312380D01*
X20678571Y-75312380D01*
X20821428Y-75360000D01*
X21250000Y-76312380D02*
X21250000Y-75312380D01*
X21488095Y-75312380D01*
X21630952Y-75360000D01*
X21726190Y-75455238D01*
X21773809Y-75550476D01*
X21821428Y-75740952D01*
X21821428Y-75883809D01*
X21773809Y-76074285D01*
X21726190Y-76169523D01*
X21630952Y-76264761D01*
X21488095Y-76312380D01*
X21250000Y-76312380D01*
X22250000Y-76312380D02*
X22250000Y-75312380D01*
X22678571Y-75407619D02*
X22726190Y-75360000D01*
X22821428Y-75312380D01*
X23059523Y-75312380D01*
X23154761Y-75360000D01*
X23202380Y-75407619D01*
X23250000Y-75502857D01*
X23250000Y-75598095D01*
X23202380Y-75740952D01*
X22630952Y-76312380D01*
X23250000Y-76312380D01*
X22422619Y-26438095D02*
X23422619Y-26438095D01*
X22422619Y-26914285D02*
X23422619Y-26914285D01*
X22422619Y-27485714D01*
X23422619Y-27485714D01*
X23422619Y-27819047D02*
X23422619Y-28390476D01*
X22422619Y-28104761D02*
X23422619Y-28104761D01*
X22946428Y-28723809D02*
X22946428Y-29057142D01*
X22422619Y-29200000D02*
X22422619Y-28723809D01*
X23422619Y-28723809D01*
X23422619Y-29200000D01*
X22422619Y-30200000D02*
X22898809Y-29866666D01*
X22422619Y-29628571D02*
X23422619Y-29628571D01*
X23422619Y-30009523D01*
X23375000Y-30104761D01*
X23327380Y-30152380D01*
X23232142Y-30200000D01*
X23089285Y-30200000D01*
X22994047Y-30152380D01*
X22946428Y-30104761D01*
X22898809Y-30009523D01*
X22898809Y-29628571D01*
X22422619Y-31200000D02*
X22898809Y-30866666D01*
X22422619Y-30628571D02*
X23422619Y-30628571D01*
X23422619Y-31009523D01*
X23375000Y-31104761D01*
X23327380Y-31152380D01*
X23232142Y-31200000D01*
X23089285Y-31200000D01*
X22994047Y-31152380D01*
X22946428Y-31104761D01*
X22898809Y-31009523D01*
X22898809Y-30628571D01*
X23422619Y-31628571D02*
X22613095Y-31628571D01*
X22517857Y-31676190D01*
X22470238Y-31723809D01*
X22422619Y-31819047D01*
X22422619Y-32009523D01*
X22470238Y-32104761D01*
X22517857Y-32152380D01*
X22613095Y-32200000D01*
X23422619Y-32200000D01*
X22422619Y-32676190D02*
X23422619Y-32676190D01*
X23422619Y-33057142D01*
X23375000Y-33152380D01*
X23327380Y-33200000D01*
X23232142Y-33247619D01*
X23089285Y-33247619D01*
X22994047Y-33200000D01*
X22946428Y-33152380D01*
X22898809Y-33057142D01*
X22898809Y-32676190D01*
X23422619Y-33533333D02*
X23422619Y-34104761D01*
X22422619Y-33819047D02*
X23422619Y-33819047D01*
X20239285Y-78804761D02*
X20382142Y-78852380D01*
X20620238Y-78852380D01*
X20715476Y-78804761D01*
X20763095Y-78757142D01*
X20810714Y-78661904D01*
X20810714Y-78566666D01*
X20763095Y-78471428D01*
X20715476Y-78423809D01*
X20620238Y-78376190D01*
X20429761Y-78328571D01*
X20334523Y-78280952D01*
X20286904Y-78233333D01*
X20239285Y-78138095D01*
X20239285Y-78042857D01*
X20286904Y-77947619D01*
X20334523Y-77900000D01*
X20429761Y-77852380D01*
X20667857Y-77852380D01*
X20810714Y-77900000D01*
X21239285Y-78852380D02*
X21239285Y-77852380D01*
X21477380Y-77852380D01*
X21620238Y-77900000D01*
X21715476Y-77995238D01*
X21763095Y-78090476D01*
X21810714Y-78280952D01*
X21810714Y-78423809D01*
X21763095Y-78614285D01*
X21715476Y-78709523D01*
X21620238Y-78804761D01*
X21477380Y-78852380D01*
X21239285Y-78852380D01*
X22429761Y-77852380D02*
X22620238Y-77852380D01*
X22715476Y-77900000D01*
X22810714Y-77995238D01*
X22858333Y-78185714D01*
X22858333Y-78519047D01*
X22810714Y-78709523D01*
X22715476Y-78804761D01*
X22620238Y-78852380D01*
X22429761Y-78852380D01*
X22334523Y-78804761D01*
X22239285Y-78709523D01*
X22191666Y-78519047D01*
X22191666Y-78185714D01*
X22239285Y-77995238D01*
X22334523Y-77900000D01*
X22429761Y-77852380D01*
X23239285Y-77947619D02*
X23286904Y-77900000D01*
X23382142Y-77852380D01*
X23620238Y-77852380D01*
X23715476Y-77900000D01*
X23763095Y-77947619D01*
X23810714Y-78042857D01*
X23810714Y-78138095D01*
X23763095Y-78280952D01*
X23191666Y-78852380D01*
X23810714Y-78852380D01*
X20123809Y-25527380D02*
X20123809Y-24527380D01*
X21076190Y-24527380D02*
X20600000Y-24527380D01*
X20552380Y-25003571D01*
X20600000Y-24955952D01*
X20695238Y-24908333D01*
X20933333Y-24908333D01*
X21028571Y-24955952D01*
X21076190Y-25003571D01*
X21123809Y-25098809D01*
X21123809Y-25336904D01*
X21076190Y-25432142D01*
X21028571Y-25479761D01*
X20933333Y-25527380D01*
X20695238Y-25527380D01*
X20600000Y-25479761D01*
X20552380Y-25432142D01*
X89703571Y-61044047D02*
X89703571Y-60710714D01*
X90227380Y-60567857D02*
X90227380Y-61044047D01*
X89227380Y-61044047D01*
X89227380Y-60567857D01*
X89227380Y-60282142D02*
X89227380Y-59710714D01*
X90227380Y-59996428D02*
X89227380Y-59996428D01*
X90227380Y-59377380D02*
X89227380Y-59377380D01*
X89703571Y-59377380D02*
X89703571Y-58805952D01*
X90227380Y-58805952D02*
X89227380Y-58805952D01*
X92913095Y-75825000D02*
X92817857Y-75777380D01*
X92675000Y-75777380D01*
X92532142Y-75825000D01*
X92436904Y-75920238D01*
X92389285Y-76015476D01*
X92341666Y-76205952D01*
X92341666Y-76348809D01*
X92389285Y-76539285D01*
X92436904Y-76634523D01*
X92532142Y-76729761D01*
X92675000Y-76777380D01*
X92770238Y-76777380D01*
X92913095Y-76729761D01*
X92960714Y-76682142D01*
X92960714Y-76348809D01*
X92770238Y-76348809D01*
X93389285Y-76777380D02*
X93389285Y-75777380D01*
X93960714Y-76777380D01*
X93960714Y-75777380D01*
X94436904Y-76777380D02*
X94436904Y-75777380D01*
X94675000Y-75777380D01*
X94817857Y-75825000D01*
X94913095Y-75920238D01*
X94960714Y-76015476D01*
X95008333Y-76205952D01*
X95008333Y-76348809D01*
X94960714Y-76539285D01*
X94913095Y-76634523D01*
X94817857Y-76729761D01*
X94675000Y-76777380D01*
X94436904Y-76777380D01*
X20123809Y-33147380D02*
X20123809Y-32147380D01*
X20552380Y-32242619D02*
X20600000Y-32195000D01*
X20695238Y-32147380D01*
X20933333Y-32147380D01*
X21028571Y-32195000D01*
X21076190Y-32242619D01*
X21123809Y-32337857D01*
X21123809Y-32433095D01*
X21076190Y-32575952D01*
X20504761Y-33147380D01*
X21123809Y-33147380D01*
X93611904Y-41177380D02*
X93611904Y-40177380D01*
X93850000Y-40177380D01*
X93992857Y-40225000D01*
X94088095Y-40320238D01*
X94135714Y-40415476D01*
X94183333Y-40605952D01*
X94183333Y-40748809D01*
X94135714Y-40939285D01*
X94088095Y-41034523D01*
X93992857Y-41129761D01*
X93850000Y-41177380D01*
X93611904Y-41177380D01*
X95135714Y-41177380D02*
X94564285Y-41177380D01*
X94850000Y-41177380D02*
X94850000Y-40177380D01*
X94754761Y-40320238D01*
X94659523Y-40415476D01*
X94564285Y-40463095D01*
X20682142Y-53452380D02*
X20348809Y-52976190D01*
X20110714Y-53452380D02*
X20110714Y-52452380D01*
X20491666Y-52452380D01*
X20586904Y-52500000D01*
X20634523Y-52547619D01*
X20682142Y-52642857D01*
X20682142Y-52785714D01*
X20634523Y-52880952D01*
X20586904Y-52928571D01*
X20491666Y-52976190D01*
X20110714Y-52976190D01*
X21015476Y-52452380D02*
X21682142Y-53452380D01*
X21682142Y-52452380D02*
X21015476Y-53452380D01*
X22015476Y-52547619D02*
X22063095Y-52500000D01*
X22158333Y-52452380D01*
X22396428Y-52452380D01*
X22491666Y-52500000D01*
X22539285Y-52547619D01*
X22586904Y-52642857D01*
X22586904Y-52738095D01*
X22539285Y-52880952D01*
X21967857Y-53452380D01*
X22586904Y-53452380D01*
X38172619Y-92602380D02*
X38363095Y-92602380D01*
X38458333Y-92650000D01*
X38553571Y-92745238D01*
X38601190Y-92935714D01*
X38601190Y-93269047D01*
X38553571Y-93459523D01*
X38458333Y-93554761D01*
X38363095Y-93602380D01*
X38172619Y-93602380D01*
X38077380Y-93554761D01*
X37982142Y-93459523D01*
X37934523Y-93269047D01*
X37934523Y-92935714D01*
X37982142Y-92745238D01*
X38077380Y-92650000D01*
X38172619Y-92602380D01*
X39363095Y-93078571D02*
X39029761Y-93078571D01*
X39029761Y-93602380D02*
X39029761Y-92602380D01*
X39505952Y-92602380D01*
X40220238Y-93078571D02*
X39886904Y-93078571D01*
X39886904Y-93602380D02*
X39886904Y-92602380D01*
X40363095Y-92602380D01*
X90205952Y-66582142D02*
X90158333Y-66629761D01*
X90015476Y-66677380D01*
X89920238Y-66677380D01*
X89777380Y-66629761D01*
X89682142Y-66534523D01*
X89634523Y-66439285D01*
X89586904Y-66248809D01*
X89586904Y-66105952D01*
X89634523Y-65915476D01*
X89682142Y-65820238D01*
X89777380Y-65725000D01*
X89920238Y-65677380D01*
X90015476Y-65677380D01*
X90158333Y-65725000D01*
X90205952Y-65772619D01*
X90586904Y-66391666D02*
X91063095Y-66391666D01*
X90491666Y-66677380D02*
X90825000Y-65677380D01*
X91158333Y-66677380D01*
X91491666Y-66677380D02*
X91491666Y-65677380D01*
X92063095Y-66677380D01*
X92063095Y-65677380D01*
X92539285Y-66296428D02*
X93301190Y-66296428D01*
X93634523Y-65677380D02*
X94205952Y-65677380D01*
X93920238Y-66677380D02*
X93920238Y-65677380D01*
X94444047Y-65677380D02*
X95110714Y-66677380D01*
X95110714Y-65677380D02*
X94444047Y-66677380D01*
X91295238Y-57852380D02*
X91866666Y-57852380D01*
X91580952Y-58852380D02*
X91580952Y-57852380D01*
X92104761Y-57852380D02*
X92771428Y-58852380D01*
X92771428Y-57852380D02*
X92104761Y-58852380D01*
X93152380Y-58471428D02*
X93914285Y-58471428D01*
X94390476Y-58852380D02*
X94390476Y-57852380D01*
X94961904Y-58852380D01*
X94961904Y-57852380D01*
X20184523Y-61034761D02*
X20327380Y-61082380D01*
X20565476Y-61082380D01*
X20660714Y-61034761D01*
X20708333Y-60987142D01*
X20755952Y-60891904D01*
X20755952Y-60796666D01*
X20708333Y-60701428D01*
X20660714Y-60653809D01*
X20565476Y-60606190D01*
X20375000Y-60558571D01*
X20279761Y-60510952D01*
X20232142Y-60463333D01*
X20184523Y-60368095D01*
X20184523Y-60272857D01*
X20232142Y-60177619D01*
X20279761Y-60130000D01*
X20375000Y-60082380D01*
X20613095Y-60082380D01*
X20755952Y-60130000D01*
X21184523Y-61082380D02*
X21184523Y-60082380D01*
X21422619Y-60082380D01*
X21565476Y-60130000D01*
X21660714Y-60225238D01*
X21708333Y-60320476D01*
X21755952Y-60510952D01*
X21755952Y-60653809D01*
X21708333Y-60844285D01*
X21660714Y-60939523D01*
X21565476Y-61034761D01*
X21422619Y-61082380D01*
X21184523Y-61082380D01*
X22136904Y-60796666D02*
X22613095Y-60796666D01*
X22041666Y-61082380D02*
X22375000Y-60082380D01*
X22708333Y-61082380D01*
X22994047Y-60177619D02*
X23041666Y-60130000D01*
X23136904Y-60082380D01*
X23375000Y-60082380D01*
X23470238Y-60130000D01*
X23517857Y-60177619D01*
X23565476Y-60272857D01*
X23565476Y-60368095D01*
X23517857Y-60510952D01*
X22946428Y-61082380D01*
X23565476Y-61082380D01*
X93760714Y-48616666D02*
X94236904Y-48616666D01*
X93665476Y-48902380D02*
X93998809Y-47902380D01*
X94332142Y-48902380D01*
X94570238Y-47902380D02*
X95189285Y-47902380D01*
X94855952Y-48283333D01*
X94998809Y-48283333D01*
X95094047Y-48330952D01*
X95141666Y-48378571D01*
X95189285Y-48473809D01*
X95189285Y-48711904D01*
X95141666Y-48807142D01*
X95094047Y-48854761D01*
X94998809Y-48902380D01*
X94713095Y-48902380D01*
X94617857Y-48854761D01*
X94570238Y-48807142D01*
D13*
X45410714Y-40414285D02*
X45425000Y-40400000D01*
X45453571Y-40385714D01*
X45525000Y-40385714D01*
X45553571Y-40400000D01*
X45567857Y-40414285D01*
X45582142Y-40442857D01*
X45582142Y-40471428D01*
X45567857Y-40514285D01*
X45396428Y-40685714D01*
X45582142Y-40685714D01*
X45710714Y-40657142D02*
X45725000Y-40671428D01*
X45710714Y-40685714D01*
X45696428Y-40671428D01*
X45710714Y-40657142D01*
X45710714Y-40685714D01*
X45910714Y-40385714D02*
X45939285Y-40385714D01*
X45967857Y-40400000D01*
X45982142Y-40414285D01*
X45996428Y-40442857D01*
X46010714Y-40500000D01*
X46010714Y-40571428D01*
X45996428Y-40628571D01*
X45982142Y-40657142D01*
X45967857Y-40671428D01*
X45939285Y-40685714D01*
X45910714Y-40685714D01*
X45882142Y-40671428D01*
X45867857Y-40657142D01*
X45853571Y-40628571D01*
X45839285Y-40571428D01*
X45839285Y-40500000D01*
X45853571Y-40442857D01*
X45867857Y-40414285D01*
X45882142Y-40400000D01*
X45910714Y-40385714D01*
X46267857Y-40485714D02*
X46267857Y-40685714D01*
X46196428Y-40371428D02*
X46125000Y-40585714D01*
X46310714Y-40585714D01*
X46467857Y-40514285D02*
X46439285Y-40500000D01*
X46425000Y-40485714D01*
X46410714Y-40457142D01*
X46410714Y-40442857D01*
X46425000Y-40414285D01*
X46439285Y-40400000D01*
X46467857Y-40385714D01*
X46525000Y-40385714D01*
X46553571Y-40400000D01*
X46567857Y-40414285D01*
X46582142Y-40442857D01*
X46582142Y-40457142D01*
X46567857Y-40485714D01*
X46553571Y-40500000D01*
X46525000Y-40514285D01*
X46467857Y-40514285D01*
X46439285Y-40528571D01*
X46425000Y-40542857D01*
X46410714Y-40571428D01*
X46410714Y-40628571D01*
X46425000Y-40657142D01*
X46439285Y-40671428D01*
X46467857Y-40685714D01*
X46525000Y-40685714D01*
X46553571Y-40671428D01*
X46567857Y-40657142D01*
X46582142Y-40628571D01*
X46582142Y-40571428D01*
X46567857Y-40542857D01*
X46553571Y-40528571D01*
X46525000Y-40514285D01*
X46667857Y-40385714D02*
X46767857Y-40685714D01*
X46867857Y-40385714D01*
D10*
X91814285Y-61577380D02*
X91480952Y-61101190D01*
X91242857Y-61577380D02*
X91242857Y-60577380D01*
X91623809Y-60577380D01*
X91719047Y-60625000D01*
X91766666Y-60672619D01*
X91814285Y-60767857D01*
X91814285Y-60910714D01*
X91766666Y-61005952D01*
X91719047Y-61053571D01*
X91623809Y-61101190D01*
X91242857Y-61101190D01*
X92147619Y-60577380D02*
X92814285Y-61577380D01*
X92814285Y-60577380D02*
X92147619Y-61577380D01*
X93195238Y-61196428D02*
X93957142Y-61196428D01*
X94433333Y-61577380D02*
X94433333Y-60577380D01*
X94814285Y-60577380D01*
X94909523Y-60625000D01*
X94957142Y-60672619D01*
X95004761Y-60767857D01*
X95004761Y-60910714D01*
X94957142Y-61005952D01*
X94909523Y-61053571D01*
X94814285Y-61101190D01*
X94433333Y-61101190D01*
X92602380Y-35527380D02*
X91602380Y-35527380D01*
X91602380Y-35289285D01*
X91650000Y-35146428D01*
X91745238Y-35051190D01*
X91840476Y-35003571D01*
X92030952Y-34955952D01*
X92173809Y-34955952D01*
X92364285Y-35003571D01*
X92459523Y-35051190D01*
X92554761Y-35146428D01*
X92602380Y-35289285D01*
X92602380Y-35527380D01*
X92602380Y-34527380D02*
X91602380Y-34527380D01*
X91650000Y-33527380D02*
X91602380Y-33622619D01*
X91602380Y-33765476D01*
X91650000Y-33908333D01*
X91745238Y-34003571D01*
X91840476Y-34051190D01*
X92030952Y-34098809D01*
X92173809Y-34098809D01*
X92364285Y-34051190D01*
X92459523Y-34003571D01*
X92554761Y-33908333D01*
X92602380Y-33765476D01*
X92602380Y-33670238D01*
X92554761Y-33527380D01*
X92507142Y-33479761D01*
X92173809Y-33479761D01*
X92173809Y-33670238D01*
X92602380Y-33051190D02*
X91602380Y-33051190D01*
X91602380Y-32717857D02*
X91602380Y-32146428D01*
X92602380Y-32432142D02*
X91602380Y-32432142D01*
X92316666Y-31860714D02*
X92316666Y-31384523D01*
X92602380Y-31955952D02*
X91602380Y-31622619D01*
X92602380Y-31289285D01*
X92602380Y-30479761D02*
X92602380Y-30955952D01*
X91602380Y-30955952D01*
X20807142Y-71132142D02*
X20759523Y-71179761D01*
X20616666Y-71227380D01*
X20521428Y-71227380D01*
X20378571Y-71179761D01*
X20283333Y-71084523D01*
X20235714Y-70989285D01*
X20188095Y-70798809D01*
X20188095Y-70655952D01*
X20235714Y-70465476D01*
X20283333Y-70370238D01*
X20378571Y-70275000D01*
X20521428Y-70227380D01*
X20616666Y-70227380D01*
X20759523Y-70275000D01*
X20807142Y-70322619D01*
X21188095Y-71179761D02*
X21330952Y-71227380D01*
X21569047Y-71227380D01*
X21664285Y-71179761D01*
X21711904Y-71132142D01*
X21759523Y-71036904D01*
X21759523Y-70941666D01*
X21711904Y-70846428D01*
X21664285Y-70798809D01*
X21569047Y-70751190D01*
X21378571Y-70703571D01*
X21283333Y-70655952D01*
X21235714Y-70608333D01*
X21188095Y-70513095D01*
X21188095Y-70417857D01*
X21235714Y-70322619D01*
X21283333Y-70275000D01*
X21378571Y-70227380D01*
X21616666Y-70227380D01*
X21759523Y-70275000D01*
X22140476Y-70322619D02*
X22188095Y-70275000D01*
X22283333Y-70227380D01*
X22521428Y-70227380D01*
X22616666Y-70275000D01*
X22664285Y-70322619D01*
X22711904Y-70417857D01*
X22711904Y-70513095D01*
X22664285Y-70655952D01*
X22092857Y-71227380D01*
X22711904Y-71227380D01*
X20061904Y-38227380D02*
X20061904Y-37227380D01*
X20442857Y-37227380D01*
X20538095Y-37275000D01*
X20585714Y-37322619D01*
X20633333Y-37417857D01*
X20633333Y-37560714D01*
X20585714Y-37655952D01*
X20538095Y-37703571D01*
X20442857Y-37751190D01*
X20061904Y-37751190D01*
X21538095Y-37227380D02*
X21061904Y-37227380D01*
X21014285Y-37703571D01*
X21061904Y-37655952D01*
X21157142Y-37608333D01*
X21395238Y-37608333D01*
X21490476Y-37655952D01*
X21538095Y-37703571D01*
X21585714Y-37798809D01*
X21585714Y-38036904D01*
X21538095Y-38132142D01*
X21490476Y-38179761D01*
X21395238Y-38227380D01*
X21157142Y-38227380D01*
X21061904Y-38179761D01*
X21014285Y-38132142D01*
X20061904Y-40752380D02*
X20061904Y-39752380D01*
X20442857Y-39752380D01*
X20538095Y-39800000D01*
X20585714Y-39847619D01*
X20633333Y-39942857D01*
X20633333Y-40085714D01*
X20585714Y-40180952D01*
X20538095Y-40228571D01*
X20442857Y-40276190D01*
X20061904Y-40276190D01*
X21490476Y-40085714D02*
X21490476Y-40752380D01*
X21252380Y-39704761D02*
X21014285Y-40419047D01*
X21633333Y-40419047D01*
X19986904Y-43297380D02*
X19986904Y-42297380D01*
X20367857Y-42297380D01*
X20463095Y-42345000D01*
X20510714Y-42392619D01*
X20558333Y-42487857D01*
X20558333Y-42630714D01*
X20510714Y-42725952D01*
X20463095Y-42773571D01*
X20367857Y-42821190D01*
X19986904Y-42821190D01*
X20891666Y-42297380D02*
X21510714Y-42297380D01*
X21177380Y-42678333D01*
X21320238Y-42678333D01*
X21415476Y-42725952D01*
X21463095Y-42773571D01*
X21510714Y-42868809D01*
X21510714Y-43106904D01*
X21463095Y-43202142D01*
X21415476Y-43249761D01*
X21320238Y-43297380D01*
X21034523Y-43297380D01*
X20939285Y-43249761D01*
X20891666Y-43202142D01*
X91527380Y-81383333D02*
X90527380Y-81383333D01*
X90527380Y-81002380D01*
X90575000Y-80907142D01*
X90622619Y-80859523D01*
X90717857Y-80811904D01*
X90860714Y-80811904D01*
X90955952Y-80859523D01*
X91003571Y-80907142D01*
X91051190Y-81002380D01*
X91051190Y-81383333D01*
X90527380Y-80478571D02*
X91527380Y-80240476D01*
X90813095Y-80050000D01*
X91527380Y-79859523D01*
X90527380Y-79621428D01*
X91527380Y-78669047D02*
X91051190Y-79002380D01*
X91527380Y-79240476D02*
X90527380Y-79240476D01*
X90527380Y-78859523D01*
X90575000Y-78764285D01*
X90622619Y-78716666D01*
X90717857Y-78669047D01*
X90860714Y-78669047D01*
X90955952Y-78716666D01*
X91003571Y-78764285D01*
X91051190Y-78859523D01*
X91051190Y-79240476D01*
X33530952Y-92602380D02*
X33721428Y-92602380D01*
X33816666Y-92650000D01*
X33911904Y-92745238D01*
X33959523Y-92935714D01*
X33959523Y-93269047D01*
X33911904Y-93459523D01*
X33816666Y-93554761D01*
X33721428Y-93602380D01*
X33530952Y-93602380D01*
X33435714Y-93554761D01*
X33340476Y-93459523D01*
X33292857Y-93269047D01*
X33292857Y-92935714D01*
X33340476Y-92745238D01*
X33435714Y-92650000D01*
X33530952Y-92602380D01*
X34388095Y-93602380D02*
X34388095Y-92602380D01*
X34959523Y-93602380D01*
X34959523Y-92602380D01*
X24720238Y-78676190D02*
X24672619Y-78819047D01*
X24672619Y-79057142D01*
X24720238Y-79152380D01*
X24767857Y-79200000D01*
X24863095Y-79247619D01*
X24958333Y-79247619D01*
X25053571Y-79200000D01*
X25101190Y-79152380D01*
X25148809Y-79057142D01*
X25196428Y-78866666D01*
X25244047Y-78771428D01*
X25291666Y-78723809D01*
X25386904Y-78676190D01*
X25482142Y-78676190D01*
X25577380Y-78723809D01*
X25625000Y-78771428D01*
X25672619Y-78866666D01*
X25672619Y-79104761D01*
X25625000Y-79247619D01*
X24672619Y-79676190D02*
X25672619Y-79676190D01*
X25672619Y-80057142D01*
X25625000Y-80152380D01*
X25577380Y-80200000D01*
X25482142Y-80247619D01*
X25339285Y-80247619D01*
X25244047Y-80200000D01*
X25196428Y-80152380D01*
X25148809Y-80057142D01*
X25148809Y-79676190D01*
X24672619Y-80676190D02*
X25672619Y-80676190D01*
%TO.C,M2*%
X65565476Y-77127380D02*
X65565476Y-76127380D01*
X65898809Y-76841666D01*
X66232142Y-76127380D01*
X66232142Y-77127380D01*
X66660714Y-76222619D02*
X66708333Y-76175000D01*
X66803571Y-76127380D01*
X67041666Y-76127380D01*
X67136904Y-76175000D01*
X67184523Y-76222619D01*
X67232142Y-76317857D01*
X67232142Y-76413095D01*
X67184523Y-76555952D01*
X66613095Y-77127380D01*
X67232142Y-77127380D01*
%TO.C,C28*%
X65807142Y-60607142D02*
X65759523Y-60654761D01*
X65616666Y-60702380D01*
X65521428Y-60702380D01*
X65378571Y-60654761D01*
X65283333Y-60559523D01*
X65235714Y-60464285D01*
X65188095Y-60273809D01*
X65188095Y-60130952D01*
X65235714Y-59940476D01*
X65283333Y-59845238D01*
X65378571Y-59750000D01*
X65521428Y-59702380D01*
X65616666Y-59702380D01*
X65759523Y-59750000D01*
X65807142Y-59797619D01*
X66188095Y-59797619D02*
X66235714Y-59750000D01*
X66330952Y-59702380D01*
X66569047Y-59702380D01*
X66664285Y-59750000D01*
X66711904Y-59797619D01*
X66759523Y-59892857D01*
X66759523Y-59988095D01*
X66711904Y-60130952D01*
X66140476Y-60702380D01*
X66759523Y-60702380D01*
X67330952Y-60130952D02*
X67235714Y-60083333D01*
X67188095Y-60035714D01*
X67140476Y-59940476D01*
X67140476Y-59892857D01*
X67188095Y-59797619D01*
X67235714Y-59750000D01*
X67330952Y-59702380D01*
X67521428Y-59702380D01*
X67616666Y-59750000D01*
X67664285Y-59797619D01*
X67711904Y-59892857D01*
X67711904Y-59940476D01*
X67664285Y-60035714D01*
X67616666Y-60083333D01*
X67521428Y-60130952D01*
X67330952Y-60130952D01*
X67235714Y-60178571D01*
X67188095Y-60226190D01*
X67140476Y-60321428D01*
X67140476Y-60511904D01*
X67188095Y-60607142D01*
X67235714Y-60654761D01*
X67330952Y-60702380D01*
X67521428Y-60702380D01*
X67616666Y-60654761D01*
X67664285Y-60607142D01*
X67711904Y-60511904D01*
X67711904Y-60321428D01*
X67664285Y-60226190D01*
X67616666Y-60178571D01*
X67521428Y-60130952D01*
%TO.C,R14*%
X73202380Y-61792857D02*
X72726190Y-62126190D01*
X73202380Y-62364285D02*
X72202380Y-62364285D01*
X72202380Y-61983333D01*
X72250000Y-61888095D01*
X72297619Y-61840476D01*
X72392857Y-61792857D01*
X72535714Y-61792857D01*
X72630952Y-61840476D01*
X72678571Y-61888095D01*
X72726190Y-61983333D01*
X72726190Y-62364285D01*
X73202380Y-60840476D02*
X73202380Y-61411904D01*
X73202380Y-61126190D02*
X72202380Y-61126190D01*
X72345238Y-61221428D01*
X72440476Y-61316666D01*
X72488095Y-61411904D01*
X72535714Y-59983333D02*
X73202380Y-59983333D01*
X72154761Y-60221428D02*
X72869047Y-60459523D01*
X72869047Y-59840476D01*
%TO.C,Q5*%
X51104761Y-48897619D02*
X51009523Y-48850000D01*
X50914285Y-48754761D01*
X50771428Y-48611904D01*
X50676190Y-48564285D01*
X50580952Y-48564285D01*
X50628571Y-48802380D02*
X50533333Y-48754761D01*
X50438095Y-48659523D01*
X50390476Y-48469047D01*
X50390476Y-48135714D01*
X50438095Y-47945238D01*
X50533333Y-47850000D01*
X50628571Y-47802380D01*
X50819047Y-47802380D01*
X50914285Y-47850000D01*
X51009523Y-47945238D01*
X51057142Y-48135714D01*
X51057142Y-48469047D01*
X51009523Y-48659523D01*
X50914285Y-48754761D01*
X50819047Y-48802380D01*
X50628571Y-48802380D01*
X51961904Y-47802380D02*
X51485714Y-47802380D01*
X51438095Y-48278571D01*
X51485714Y-48230952D01*
X51580952Y-48183333D01*
X51819047Y-48183333D01*
X51914285Y-48230952D01*
X51961904Y-48278571D01*
X52009523Y-48373809D01*
X52009523Y-48611904D01*
X51961904Y-48707142D01*
X51914285Y-48754761D01*
X51819047Y-48802380D01*
X51580952Y-48802380D01*
X51485714Y-48754761D01*
X51438095Y-48707142D01*
%TO.C,Q7*%
X46279761Y-76147619D02*
X46184523Y-76100000D01*
X46089285Y-76004761D01*
X45946428Y-75861904D01*
X45851190Y-75814285D01*
X45755952Y-75814285D01*
X45803571Y-76052380D02*
X45708333Y-76004761D01*
X45613095Y-75909523D01*
X45565476Y-75719047D01*
X45565476Y-75385714D01*
X45613095Y-75195238D01*
X45708333Y-75100000D01*
X45803571Y-75052380D01*
X45994047Y-75052380D01*
X46089285Y-75100000D01*
X46184523Y-75195238D01*
X46232142Y-75385714D01*
X46232142Y-75719047D01*
X46184523Y-75909523D01*
X46089285Y-76004761D01*
X45994047Y-76052380D01*
X45803571Y-76052380D01*
X46565476Y-75052380D02*
X47232142Y-75052380D01*
X46803571Y-76052380D01*
%TO.C,C33*%
X71932142Y-61817857D02*
X71979761Y-61865476D01*
X72027380Y-62008333D01*
X72027380Y-62103571D01*
X71979761Y-62246428D01*
X71884523Y-62341666D01*
X71789285Y-62389285D01*
X71598809Y-62436904D01*
X71455952Y-62436904D01*
X71265476Y-62389285D01*
X71170238Y-62341666D01*
X71075000Y-62246428D01*
X71027380Y-62103571D01*
X71027380Y-62008333D01*
X71075000Y-61865476D01*
X71122619Y-61817857D01*
X71027380Y-61484523D02*
X71027380Y-60865476D01*
X71408333Y-61198809D01*
X71408333Y-61055952D01*
X71455952Y-60960714D01*
X71503571Y-60913095D01*
X71598809Y-60865476D01*
X71836904Y-60865476D01*
X71932142Y-60913095D01*
X71979761Y-60960714D01*
X72027380Y-61055952D01*
X72027380Y-61341666D01*
X71979761Y-61436904D01*
X71932142Y-61484523D01*
X71027380Y-60532142D02*
X71027380Y-59913095D01*
X71408333Y-60246428D01*
X71408333Y-60103571D01*
X71455952Y-60008333D01*
X71503571Y-59960714D01*
X71598809Y-59913095D01*
X71836904Y-59913095D01*
X71932142Y-59960714D01*
X71979761Y-60008333D01*
X72027380Y-60103571D01*
X72027380Y-60389285D01*
X71979761Y-60484523D01*
X71932142Y-60532142D01*
%TO.C,C19*%
X53932142Y-74432142D02*
X53884523Y-74479761D01*
X53741666Y-74527380D01*
X53646428Y-74527380D01*
X53503571Y-74479761D01*
X53408333Y-74384523D01*
X53360714Y-74289285D01*
X53313095Y-74098809D01*
X53313095Y-73955952D01*
X53360714Y-73765476D01*
X53408333Y-73670238D01*
X53503571Y-73575000D01*
X53646428Y-73527380D01*
X53741666Y-73527380D01*
X53884523Y-73575000D01*
X53932142Y-73622619D01*
X54884523Y-74527380D02*
X54313095Y-74527380D01*
X54598809Y-74527380D02*
X54598809Y-73527380D01*
X54503571Y-73670238D01*
X54408333Y-73765476D01*
X54313095Y-73813095D01*
X55360714Y-74527380D02*
X55551190Y-74527380D01*
X55646428Y-74479761D01*
X55694047Y-74432142D01*
X55789285Y-74289285D01*
X55836904Y-74098809D01*
X55836904Y-73717857D01*
X55789285Y-73622619D01*
X55741666Y-73575000D01*
X55646428Y-73527380D01*
X55455952Y-73527380D01*
X55360714Y-73575000D01*
X55313095Y-73622619D01*
X55265476Y-73717857D01*
X55265476Y-73955952D01*
X55313095Y-74051190D01*
X55360714Y-74098809D01*
X55455952Y-74146428D01*
X55646428Y-74146428D01*
X55741666Y-74098809D01*
X55789285Y-74051190D01*
X55836904Y-73955952D01*
%TO.C,R50*%
X63882142Y-45527380D02*
X63548809Y-45051190D01*
X63310714Y-45527380D02*
X63310714Y-44527380D01*
X63691666Y-44527380D01*
X63786904Y-44575000D01*
X63834523Y-44622619D01*
X63882142Y-44717857D01*
X63882142Y-44860714D01*
X63834523Y-44955952D01*
X63786904Y-45003571D01*
X63691666Y-45051190D01*
X63310714Y-45051190D01*
X64786904Y-44527380D02*
X64310714Y-44527380D01*
X64263095Y-45003571D01*
X64310714Y-44955952D01*
X64405952Y-44908333D01*
X64644047Y-44908333D01*
X64739285Y-44955952D01*
X64786904Y-45003571D01*
X64834523Y-45098809D01*
X64834523Y-45336904D01*
X64786904Y-45432142D01*
X64739285Y-45479761D01*
X64644047Y-45527380D01*
X64405952Y-45527380D01*
X64310714Y-45479761D01*
X64263095Y-45432142D01*
X65453571Y-44527380D02*
X65548809Y-44527380D01*
X65644047Y-44575000D01*
X65691666Y-44622619D01*
X65739285Y-44717857D01*
X65786904Y-44908333D01*
X65786904Y-45146428D01*
X65739285Y-45336904D01*
X65691666Y-45432142D01*
X65644047Y-45479761D01*
X65548809Y-45527380D01*
X65453571Y-45527380D01*
X65358333Y-45479761D01*
X65310714Y-45432142D01*
X65263095Y-45336904D01*
X65215476Y-45146428D01*
X65215476Y-44908333D01*
X65263095Y-44717857D01*
X65310714Y-44622619D01*
X65358333Y-44575000D01*
X65453571Y-44527380D01*
%TO.C,J3*%
X96816666Y-22352380D02*
X96816666Y-23066666D01*
X96769047Y-23209523D01*
X96673809Y-23304761D01*
X96530952Y-23352380D01*
X96435714Y-23352380D01*
X97197619Y-22352380D02*
X97816666Y-22352380D01*
X97483333Y-22733333D01*
X97626190Y-22733333D01*
X97721428Y-22780952D01*
X97769047Y-22828571D01*
X97816666Y-22923809D01*
X97816666Y-23161904D01*
X97769047Y-23257142D01*
X97721428Y-23304761D01*
X97626190Y-23352380D01*
X97340476Y-23352380D01*
X97245238Y-23304761D01*
X97197619Y-23257142D01*
%TO.C,R33*%
X46582142Y-82952380D02*
X46248809Y-82476190D01*
X46010714Y-82952380D02*
X46010714Y-81952380D01*
X46391666Y-81952380D01*
X46486904Y-82000000D01*
X46534523Y-82047619D01*
X46582142Y-82142857D01*
X46582142Y-82285714D01*
X46534523Y-82380952D01*
X46486904Y-82428571D01*
X46391666Y-82476190D01*
X46010714Y-82476190D01*
X46915476Y-81952380D02*
X47534523Y-81952380D01*
X47201190Y-82333333D01*
X47344047Y-82333333D01*
X47439285Y-82380952D01*
X47486904Y-82428571D01*
X47534523Y-82523809D01*
X47534523Y-82761904D01*
X47486904Y-82857142D01*
X47439285Y-82904761D01*
X47344047Y-82952380D01*
X47058333Y-82952380D01*
X46963095Y-82904761D01*
X46915476Y-82857142D01*
X47867857Y-81952380D02*
X48486904Y-81952380D01*
X48153571Y-82333333D01*
X48296428Y-82333333D01*
X48391666Y-82380952D01*
X48439285Y-82428571D01*
X48486904Y-82523809D01*
X48486904Y-82761904D01*
X48439285Y-82857142D01*
X48391666Y-82904761D01*
X48296428Y-82952380D01*
X48010714Y-82952380D01*
X47915476Y-82904761D01*
X47867857Y-82857142D01*
%TO.C,C36*%
X64382142Y-83982142D02*
X64334523Y-84029761D01*
X64191666Y-84077380D01*
X64096428Y-84077380D01*
X63953571Y-84029761D01*
X63858333Y-83934523D01*
X63810714Y-83839285D01*
X63763095Y-83648809D01*
X63763095Y-83505952D01*
X63810714Y-83315476D01*
X63858333Y-83220238D01*
X63953571Y-83125000D01*
X64096428Y-83077380D01*
X64191666Y-83077380D01*
X64334523Y-83125000D01*
X64382142Y-83172619D01*
X64715476Y-83077380D02*
X65334523Y-83077380D01*
X65001190Y-83458333D01*
X65144047Y-83458333D01*
X65239285Y-83505952D01*
X65286904Y-83553571D01*
X65334523Y-83648809D01*
X65334523Y-83886904D01*
X65286904Y-83982142D01*
X65239285Y-84029761D01*
X65144047Y-84077380D01*
X64858333Y-84077380D01*
X64763095Y-84029761D01*
X64715476Y-83982142D01*
X66191666Y-83077380D02*
X66001190Y-83077380D01*
X65905952Y-83125000D01*
X65858333Y-83172619D01*
X65763095Y-83315476D01*
X65715476Y-83505952D01*
X65715476Y-83886904D01*
X65763095Y-83982142D01*
X65810714Y-84029761D01*
X65905952Y-84077380D01*
X66096428Y-84077380D01*
X66191666Y-84029761D01*
X66239285Y-83982142D01*
X66286904Y-83886904D01*
X66286904Y-83648809D01*
X66239285Y-83553571D01*
X66191666Y-83505952D01*
X66096428Y-83458333D01*
X65905952Y-83458333D01*
X65810714Y-83505952D01*
X65763095Y-83553571D01*
X65715476Y-83648809D01*
%TO.C,JP1*%
X38852380Y-33633333D02*
X39566666Y-33633333D01*
X39709523Y-33680952D01*
X39804761Y-33776190D01*
X39852380Y-33919047D01*
X39852380Y-34014285D01*
X39852380Y-33157142D02*
X38852380Y-33157142D01*
X38852380Y-32776190D01*
X38900000Y-32680952D01*
X38947619Y-32633333D01*
X39042857Y-32585714D01*
X39185714Y-32585714D01*
X39280952Y-32633333D01*
X39328571Y-32680952D01*
X39376190Y-32776190D01*
X39376190Y-33157142D01*
X39852380Y-31633333D02*
X39852380Y-32204761D01*
X39852380Y-31919047D02*
X38852380Y-31919047D01*
X38995238Y-32014285D01*
X39090476Y-32109523D01*
X39138095Y-32204761D01*
%TO.C,C55*%
X64882142Y-65442857D02*
X64929761Y-65490476D01*
X64977380Y-65633333D01*
X64977380Y-65728571D01*
X64929761Y-65871428D01*
X64834523Y-65966666D01*
X64739285Y-66014285D01*
X64548809Y-66061904D01*
X64405952Y-66061904D01*
X64215476Y-66014285D01*
X64120238Y-65966666D01*
X64025000Y-65871428D01*
X63977380Y-65728571D01*
X63977380Y-65633333D01*
X64025000Y-65490476D01*
X64072619Y-65442857D01*
X63977380Y-64538095D02*
X63977380Y-65014285D01*
X64453571Y-65061904D01*
X64405952Y-65014285D01*
X64358333Y-64919047D01*
X64358333Y-64680952D01*
X64405952Y-64585714D01*
X64453571Y-64538095D01*
X64548809Y-64490476D01*
X64786904Y-64490476D01*
X64882142Y-64538095D01*
X64929761Y-64585714D01*
X64977380Y-64680952D01*
X64977380Y-64919047D01*
X64929761Y-65014285D01*
X64882142Y-65061904D01*
X63977380Y-63585714D02*
X63977380Y-64061904D01*
X64453571Y-64109523D01*
X64405952Y-64061904D01*
X64358333Y-63966666D01*
X64358333Y-63728571D01*
X64405952Y-63633333D01*
X64453571Y-63585714D01*
X64548809Y-63538095D01*
X64786904Y-63538095D01*
X64882142Y-63585714D01*
X64929761Y-63633333D01*
X64977380Y-63728571D01*
X64977380Y-63966666D01*
X64929761Y-64061904D01*
X64882142Y-64109523D01*
%TO.C,D1*%
X56111904Y-84202380D02*
X56111904Y-83202380D01*
X56350000Y-83202380D01*
X56492857Y-83250000D01*
X56588095Y-83345238D01*
X56635714Y-83440476D01*
X56683333Y-83630952D01*
X56683333Y-83773809D01*
X56635714Y-83964285D01*
X56588095Y-84059523D01*
X56492857Y-84154761D01*
X56350000Y-84202380D01*
X56111904Y-84202380D01*
X57635714Y-84202380D02*
X57064285Y-84202380D01*
X57350000Y-84202380D02*
X57350000Y-83202380D01*
X57254761Y-83345238D01*
X57159523Y-83440476D01*
X57064285Y-83488095D01*
%TO.C,D2*%
X65511904Y-51977380D02*
X65511904Y-50977380D01*
X65750000Y-50977380D01*
X65892857Y-51025000D01*
X65988095Y-51120238D01*
X66035714Y-51215476D01*
X66083333Y-51405952D01*
X66083333Y-51548809D01*
X66035714Y-51739285D01*
X65988095Y-51834523D01*
X65892857Y-51929761D01*
X65750000Y-51977380D01*
X65511904Y-51977380D01*
X66464285Y-51072619D02*
X66511904Y-51025000D01*
X66607142Y-50977380D01*
X66845238Y-50977380D01*
X66940476Y-51025000D01*
X66988095Y-51072619D01*
X67035714Y-51167857D01*
X67035714Y-51263095D01*
X66988095Y-51405952D01*
X66416666Y-51977380D01*
X67035714Y-51977380D01*
%TO.C,R26*%
X57162142Y-69822380D02*
X56828809Y-69346190D01*
X56590714Y-69822380D02*
X56590714Y-68822380D01*
X56971666Y-68822380D01*
X57066904Y-68870000D01*
X57114523Y-68917619D01*
X57162142Y-69012857D01*
X57162142Y-69155714D01*
X57114523Y-69250952D01*
X57066904Y-69298571D01*
X56971666Y-69346190D01*
X56590714Y-69346190D01*
X57543095Y-68917619D02*
X57590714Y-68870000D01*
X57685952Y-68822380D01*
X57924047Y-68822380D01*
X58019285Y-68870000D01*
X58066904Y-68917619D01*
X58114523Y-69012857D01*
X58114523Y-69108095D01*
X58066904Y-69250952D01*
X57495476Y-69822380D01*
X58114523Y-69822380D01*
X58971666Y-68822380D02*
X58781190Y-68822380D01*
X58685952Y-68870000D01*
X58638333Y-68917619D01*
X58543095Y-69060476D01*
X58495476Y-69250952D01*
X58495476Y-69631904D01*
X58543095Y-69727142D01*
X58590714Y-69774761D01*
X58685952Y-69822380D01*
X58876428Y-69822380D01*
X58971666Y-69774761D01*
X59019285Y-69727142D01*
X59066904Y-69631904D01*
X59066904Y-69393809D01*
X59019285Y-69298571D01*
X58971666Y-69250952D01*
X58876428Y-69203333D01*
X58685952Y-69203333D01*
X58590714Y-69250952D01*
X58543095Y-69298571D01*
X58495476Y-69393809D01*
%TO.C,JP6*%
X88777380Y-71558333D02*
X89491666Y-71558333D01*
X89634523Y-71605952D01*
X89729761Y-71701190D01*
X89777380Y-71844047D01*
X89777380Y-71939285D01*
X89777380Y-71082142D02*
X88777380Y-71082142D01*
X88777380Y-70701190D01*
X88825000Y-70605952D01*
X88872619Y-70558333D01*
X88967857Y-70510714D01*
X89110714Y-70510714D01*
X89205952Y-70558333D01*
X89253571Y-70605952D01*
X89301190Y-70701190D01*
X89301190Y-71082142D01*
X88777380Y-69653571D02*
X88777380Y-69844047D01*
X88825000Y-69939285D01*
X88872619Y-69986904D01*
X89015476Y-70082142D01*
X89205952Y-70129761D01*
X89586904Y-70129761D01*
X89682142Y-70082142D01*
X89729761Y-70034523D01*
X89777380Y-69939285D01*
X89777380Y-69748809D01*
X89729761Y-69653571D01*
X89682142Y-69605952D01*
X89586904Y-69558333D01*
X89348809Y-69558333D01*
X89253571Y-69605952D01*
X89205952Y-69653571D01*
X89158333Y-69748809D01*
X89158333Y-69939285D01*
X89205952Y-70034523D01*
X89253571Y-70082142D01*
X89348809Y-70129761D01*
%TO.C,R12*%
X75527380Y-61817857D02*
X75051190Y-62151190D01*
X75527380Y-62389285D02*
X74527380Y-62389285D01*
X74527380Y-62008333D01*
X74575000Y-61913095D01*
X74622619Y-61865476D01*
X74717857Y-61817857D01*
X74860714Y-61817857D01*
X74955952Y-61865476D01*
X75003571Y-61913095D01*
X75051190Y-62008333D01*
X75051190Y-62389285D01*
X75527380Y-60865476D02*
X75527380Y-61436904D01*
X75527380Y-61151190D02*
X74527380Y-61151190D01*
X74670238Y-61246428D01*
X74765476Y-61341666D01*
X74813095Y-61436904D01*
X74622619Y-60484523D02*
X74575000Y-60436904D01*
X74527380Y-60341666D01*
X74527380Y-60103571D01*
X74575000Y-60008333D01*
X74622619Y-59960714D01*
X74717857Y-59913095D01*
X74813095Y-59913095D01*
X74955952Y-59960714D01*
X75527380Y-60532142D01*
X75527380Y-59913095D01*
%TO.C,D3*%
X62461904Y-51952380D02*
X62461904Y-50952380D01*
X62700000Y-50952380D01*
X62842857Y-51000000D01*
X62938095Y-51095238D01*
X62985714Y-51190476D01*
X63033333Y-51380952D01*
X63033333Y-51523809D01*
X62985714Y-51714285D01*
X62938095Y-51809523D01*
X62842857Y-51904761D01*
X62700000Y-51952380D01*
X62461904Y-51952380D01*
X63366666Y-50952380D02*
X63985714Y-50952380D01*
X63652380Y-51333333D01*
X63795238Y-51333333D01*
X63890476Y-51380952D01*
X63938095Y-51428571D01*
X63985714Y-51523809D01*
X63985714Y-51761904D01*
X63938095Y-51857142D01*
X63890476Y-51904761D01*
X63795238Y-51952380D01*
X63509523Y-51952380D01*
X63414285Y-51904761D01*
X63366666Y-51857142D01*
%TO.C,R13*%
X74352380Y-61817857D02*
X73876190Y-62151190D01*
X74352380Y-62389285D02*
X73352380Y-62389285D01*
X73352380Y-62008333D01*
X73400000Y-61913095D01*
X73447619Y-61865476D01*
X73542857Y-61817857D01*
X73685714Y-61817857D01*
X73780952Y-61865476D01*
X73828571Y-61913095D01*
X73876190Y-62008333D01*
X73876190Y-62389285D01*
X74352380Y-60865476D02*
X74352380Y-61436904D01*
X74352380Y-61151190D02*
X73352380Y-61151190D01*
X73495238Y-61246428D01*
X73590476Y-61341666D01*
X73638095Y-61436904D01*
X73352380Y-60532142D02*
X73352380Y-59913095D01*
X73733333Y-60246428D01*
X73733333Y-60103571D01*
X73780952Y-60008333D01*
X73828571Y-59960714D01*
X73923809Y-59913095D01*
X74161904Y-59913095D01*
X74257142Y-59960714D01*
X74304761Y-60008333D01*
X74352380Y-60103571D01*
X74352380Y-60389285D01*
X74304761Y-60484523D01*
X74257142Y-60532142D01*
%TO.C,DZ2*%
X43485714Y-56577380D02*
X43485714Y-55577380D01*
X43723809Y-55577380D01*
X43866666Y-55625000D01*
X43961904Y-55720238D01*
X44009523Y-55815476D01*
X44057142Y-56005952D01*
X44057142Y-56148809D01*
X44009523Y-56339285D01*
X43961904Y-56434523D01*
X43866666Y-56529761D01*
X43723809Y-56577380D01*
X43485714Y-56577380D01*
X44390476Y-55577380D02*
X45057142Y-55577380D01*
X44390476Y-56577380D01*
X45057142Y-56577380D01*
X45390476Y-55672619D02*
X45438095Y-55625000D01*
X45533333Y-55577380D01*
X45771428Y-55577380D01*
X45866666Y-55625000D01*
X45914285Y-55672619D01*
X45961904Y-55767857D01*
X45961904Y-55863095D01*
X45914285Y-56005952D01*
X45342857Y-56577380D01*
X45961904Y-56577380D01*
%TO.C,Q2*%
X59854761Y-54297619D02*
X59759523Y-54250000D01*
X59664285Y-54154761D01*
X59521428Y-54011904D01*
X59426190Y-53964285D01*
X59330952Y-53964285D01*
X59378571Y-54202380D02*
X59283333Y-54154761D01*
X59188095Y-54059523D01*
X59140476Y-53869047D01*
X59140476Y-53535714D01*
X59188095Y-53345238D01*
X59283333Y-53250000D01*
X59378571Y-53202380D01*
X59569047Y-53202380D01*
X59664285Y-53250000D01*
X59759523Y-53345238D01*
X59807142Y-53535714D01*
X59807142Y-53869047D01*
X59759523Y-54059523D01*
X59664285Y-54154761D01*
X59569047Y-54202380D01*
X59378571Y-54202380D01*
X60188095Y-53297619D02*
X60235714Y-53250000D01*
X60330952Y-53202380D01*
X60569047Y-53202380D01*
X60664285Y-53250000D01*
X60711904Y-53297619D01*
X60759523Y-53392857D01*
X60759523Y-53488095D01*
X60711904Y-53630952D01*
X60140476Y-54202380D01*
X60759523Y-54202380D01*
%TO.C,Q3*%
X59429761Y-41247619D02*
X59334523Y-41200000D01*
X59239285Y-41104761D01*
X59096428Y-40961904D01*
X59001190Y-40914285D01*
X58905952Y-40914285D01*
X58953571Y-41152380D02*
X58858333Y-41104761D01*
X58763095Y-41009523D01*
X58715476Y-40819047D01*
X58715476Y-40485714D01*
X58763095Y-40295238D01*
X58858333Y-40200000D01*
X58953571Y-40152380D01*
X59144047Y-40152380D01*
X59239285Y-40200000D01*
X59334523Y-40295238D01*
X59382142Y-40485714D01*
X59382142Y-40819047D01*
X59334523Y-41009523D01*
X59239285Y-41104761D01*
X59144047Y-41152380D01*
X58953571Y-41152380D01*
X59715476Y-40152380D02*
X60334523Y-40152380D01*
X60001190Y-40533333D01*
X60144047Y-40533333D01*
X60239285Y-40580952D01*
X60286904Y-40628571D01*
X60334523Y-40723809D01*
X60334523Y-40961904D01*
X60286904Y-41057142D01*
X60239285Y-41104761D01*
X60144047Y-41152380D01*
X59858333Y-41152380D01*
X59763095Y-41104761D01*
X59715476Y-41057142D01*
%TO.C,Q8*%
X39454761Y-76097619D02*
X39359523Y-76050000D01*
X39264285Y-75954761D01*
X39121428Y-75811904D01*
X39026190Y-75764285D01*
X38930952Y-75764285D01*
X38978571Y-76002380D02*
X38883333Y-75954761D01*
X38788095Y-75859523D01*
X38740476Y-75669047D01*
X38740476Y-75335714D01*
X38788095Y-75145238D01*
X38883333Y-75050000D01*
X38978571Y-75002380D01*
X39169047Y-75002380D01*
X39264285Y-75050000D01*
X39359523Y-75145238D01*
X39407142Y-75335714D01*
X39407142Y-75669047D01*
X39359523Y-75859523D01*
X39264285Y-75954761D01*
X39169047Y-76002380D01*
X38978571Y-76002380D01*
X39978571Y-75430952D02*
X39883333Y-75383333D01*
X39835714Y-75335714D01*
X39788095Y-75240476D01*
X39788095Y-75192857D01*
X39835714Y-75097619D01*
X39883333Y-75050000D01*
X39978571Y-75002380D01*
X40169047Y-75002380D01*
X40264285Y-75050000D01*
X40311904Y-75097619D01*
X40359523Y-75192857D01*
X40359523Y-75240476D01*
X40311904Y-75335714D01*
X40264285Y-75383333D01*
X40169047Y-75430952D01*
X39978571Y-75430952D01*
X39883333Y-75478571D01*
X39835714Y-75526190D01*
X39788095Y-75621428D01*
X39788095Y-75811904D01*
X39835714Y-75907142D01*
X39883333Y-75954761D01*
X39978571Y-76002380D01*
X40169047Y-76002380D01*
X40264285Y-75954761D01*
X40311904Y-75907142D01*
X40359523Y-75811904D01*
X40359523Y-75621428D01*
X40311904Y-75526190D01*
X40264285Y-75478571D01*
X40169047Y-75430952D01*
%TO.C,M1*%
X72140476Y-51252380D02*
X72140476Y-50252380D01*
X72473809Y-50966666D01*
X72807142Y-50252380D01*
X72807142Y-51252380D01*
X73807142Y-51252380D02*
X73235714Y-51252380D01*
X73521428Y-51252380D02*
X73521428Y-50252380D01*
X73426190Y-50395238D01*
X73330952Y-50490476D01*
X73235714Y-50538095D01*
%TO.C,R49*%
X55232142Y-57927380D02*
X54898809Y-57451190D01*
X54660714Y-57927380D02*
X54660714Y-56927380D01*
X55041666Y-56927380D01*
X55136904Y-56975000D01*
X55184523Y-57022619D01*
X55232142Y-57117857D01*
X55232142Y-57260714D01*
X55184523Y-57355952D01*
X55136904Y-57403571D01*
X55041666Y-57451190D01*
X54660714Y-57451190D01*
X56089285Y-57260714D02*
X56089285Y-57927380D01*
X55851190Y-56879761D02*
X55613095Y-57594047D01*
X56232142Y-57594047D01*
X56660714Y-57927380D02*
X56851190Y-57927380D01*
X56946428Y-57879761D01*
X56994047Y-57832142D01*
X57089285Y-57689285D01*
X57136904Y-57498809D01*
X57136904Y-57117857D01*
X57089285Y-57022619D01*
X57041666Y-56975000D01*
X56946428Y-56927380D01*
X56755952Y-56927380D01*
X56660714Y-56975000D01*
X56613095Y-57022619D01*
X56565476Y-57117857D01*
X56565476Y-57355952D01*
X56613095Y-57451190D01*
X56660714Y-57498809D01*
X56755952Y-57546428D01*
X56946428Y-57546428D01*
X57041666Y-57498809D01*
X57089285Y-57451190D01*
X57136904Y-57355952D01*
%TO.C,C2*%
X48083333Y-34357142D02*
X48035714Y-34404761D01*
X47892857Y-34452380D01*
X47797619Y-34452380D01*
X47654761Y-34404761D01*
X47559523Y-34309523D01*
X47511904Y-34214285D01*
X47464285Y-34023809D01*
X47464285Y-33880952D01*
X47511904Y-33690476D01*
X47559523Y-33595238D01*
X47654761Y-33500000D01*
X47797619Y-33452380D01*
X47892857Y-33452380D01*
X48035714Y-33500000D01*
X48083333Y-33547619D01*
X48464285Y-33547619D02*
X48511904Y-33500000D01*
X48607142Y-33452380D01*
X48845238Y-33452380D01*
X48940476Y-33500000D01*
X48988095Y-33547619D01*
X49035714Y-33642857D01*
X49035714Y-33738095D01*
X48988095Y-33880952D01*
X48416666Y-34452380D01*
X49035714Y-34452380D01*
%TO.C,U2*%
X64663095Y-69802380D02*
X64663095Y-70611904D01*
X64710714Y-70707142D01*
X64758333Y-70754761D01*
X64853571Y-70802380D01*
X65044047Y-70802380D01*
X65139285Y-70754761D01*
X65186904Y-70707142D01*
X65234523Y-70611904D01*
X65234523Y-69802380D01*
X65663095Y-69897619D02*
X65710714Y-69850000D01*
X65805952Y-69802380D01*
X66044047Y-69802380D01*
X66139285Y-69850000D01*
X66186904Y-69897619D01*
X66234523Y-69992857D01*
X66234523Y-70088095D01*
X66186904Y-70230952D01*
X65615476Y-70802380D01*
X66234523Y-70802380D01*
%TO.C,JP4*%
X43164285Y-38127380D02*
X42830952Y-37651190D01*
X42592857Y-38127380D02*
X42592857Y-37127380D01*
X42973809Y-37127380D01*
X43069047Y-37175000D01*
X43116666Y-37222619D01*
X43164285Y-37317857D01*
X43164285Y-37460714D01*
X43116666Y-37555952D01*
X43069047Y-37603571D01*
X42973809Y-37651190D01*
X42592857Y-37651190D01*
X43592857Y-37603571D02*
X43926190Y-37603571D01*
X44069047Y-38127380D02*
X43592857Y-38127380D01*
X43592857Y-37127380D01*
X44069047Y-37127380D01*
X44830952Y-37603571D02*
X44497619Y-37603571D01*
X44497619Y-38127380D02*
X44497619Y-37127380D01*
X44973809Y-37127380D01*
X46069047Y-38079761D02*
X46211904Y-38127380D01*
X46450000Y-38127380D01*
X46545238Y-38079761D01*
X46592857Y-38032142D01*
X46640476Y-37936904D01*
X46640476Y-37841666D01*
X46592857Y-37746428D01*
X46545238Y-37698809D01*
X46450000Y-37651190D01*
X46259523Y-37603571D01*
X46164285Y-37555952D01*
X46116666Y-37508333D01*
X46069047Y-37413095D01*
X46069047Y-37317857D01*
X46116666Y-37222619D01*
X46164285Y-37175000D01*
X46259523Y-37127380D01*
X46497619Y-37127380D01*
X46640476Y-37175000D01*
X47069047Y-37603571D02*
X47402380Y-37603571D01*
X47545238Y-38127380D02*
X47069047Y-38127380D01*
X47069047Y-37127380D01*
X47545238Y-37127380D01*
X48450000Y-38127380D02*
X47973809Y-38127380D01*
X47973809Y-37127380D01*
%TO.C,R20*%
X66252380Y-65467857D02*
X65776190Y-65801190D01*
X66252380Y-66039285D02*
X65252380Y-66039285D01*
X65252380Y-65658333D01*
X65300000Y-65563095D01*
X65347619Y-65515476D01*
X65442857Y-65467857D01*
X65585714Y-65467857D01*
X65680952Y-65515476D01*
X65728571Y-65563095D01*
X65776190Y-65658333D01*
X65776190Y-66039285D01*
X65347619Y-65086904D02*
X65300000Y-65039285D01*
X65252380Y-64944047D01*
X65252380Y-64705952D01*
X65300000Y-64610714D01*
X65347619Y-64563095D01*
X65442857Y-64515476D01*
X65538095Y-64515476D01*
X65680952Y-64563095D01*
X66252380Y-65134523D01*
X66252380Y-64515476D01*
X65252380Y-63896428D02*
X65252380Y-63801190D01*
X65300000Y-63705952D01*
X65347619Y-63658333D01*
X65442857Y-63610714D01*
X65633333Y-63563095D01*
X65871428Y-63563095D01*
X66061904Y-63610714D01*
X66157142Y-63658333D01*
X66204761Y-63705952D01*
X66252380Y-63801190D01*
X66252380Y-63896428D01*
X66204761Y-63991666D01*
X66157142Y-64039285D01*
X66061904Y-64086904D01*
X65871428Y-64134523D01*
X65633333Y-64134523D01*
X65442857Y-64086904D01*
X65347619Y-64039285D01*
X65300000Y-63991666D01*
X65252380Y-63896428D01*
%TO.C,Q4*%
X49554761Y-44122619D02*
X49459523Y-44075000D01*
X49364285Y-43979761D01*
X49221428Y-43836904D01*
X49126190Y-43789285D01*
X49030952Y-43789285D01*
X49078571Y-44027380D02*
X48983333Y-43979761D01*
X48888095Y-43884523D01*
X48840476Y-43694047D01*
X48840476Y-43360714D01*
X48888095Y-43170238D01*
X48983333Y-43075000D01*
X49078571Y-43027380D01*
X49269047Y-43027380D01*
X49364285Y-43075000D01*
X49459523Y-43170238D01*
X49507142Y-43360714D01*
X49507142Y-43694047D01*
X49459523Y-43884523D01*
X49364285Y-43979761D01*
X49269047Y-44027380D01*
X49078571Y-44027380D01*
X50364285Y-43360714D02*
X50364285Y-44027380D01*
X50126190Y-42979761D02*
X49888095Y-43694047D01*
X50507142Y-43694047D01*
%TO.C,CN1*%
X31309523Y-84382142D02*
X31261904Y-84429761D01*
X31119047Y-84477380D01*
X31023809Y-84477380D01*
X30880952Y-84429761D01*
X30785714Y-84334523D01*
X30738095Y-84239285D01*
X30690476Y-84048809D01*
X30690476Y-83905952D01*
X30738095Y-83715476D01*
X30785714Y-83620238D01*
X30880952Y-83525000D01*
X31023809Y-83477380D01*
X31119047Y-83477380D01*
X31261904Y-83525000D01*
X31309523Y-83572619D01*
X31738095Y-84477380D02*
X31738095Y-83477380D01*
X32309523Y-84477380D01*
X32309523Y-83477380D01*
X33309523Y-84477380D02*
X32738095Y-84477380D01*
X33023809Y-84477380D02*
X33023809Y-83477380D01*
X32928571Y-83620238D01*
X32833333Y-83715476D01*
X32738095Y-83763095D01*
%TO.C,R11*%
X69552380Y-61792857D02*
X69076190Y-62126190D01*
X69552380Y-62364285D02*
X68552380Y-62364285D01*
X68552380Y-61983333D01*
X68600000Y-61888095D01*
X68647619Y-61840476D01*
X68742857Y-61792857D01*
X68885714Y-61792857D01*
X68980952Y-61840476D01*
X69028571Y-61888095D01*
X69076190Y-61983333D01*
X69076190Y-62364285D01*
X69552380Y-60840476D02*
X69552380Y-61411904D01*
X69552380Y-61126190D02*
X68552380Y-61126190D01*
X68695238Y-61221428D01*
X68790476Y-61316666D01*
X68838095Y-61411904D01*
X69552380Y-59888095D02*
X69552380Y-60459523D01*
X69552380Y-60173809D02*
X68552380Y-60173809D01*
X68695238Y-60269047D01*
X68790476Y-60364285D01*
X68838095Y-60459523D01*
%TO.C,R16*%
X62927380Y-81217857D02*
X62451190Y-81551190D01*
X62927380Y-81789285D02*
X61927380Y-81789285D01*
X61927380Y-81408333D01*
X61975000Y-81313095D01*
X62022619Y-81265476D01*
X62117857Y-81217857D01*
X62260714Y-81217857D01*
X62355952Y-81265476D01*
X62403571Y-81313095D01*
X62451190Y-81408333D01*
X62451190Y-81789285D01*
X62927380Y-80265476D02*
X62927380Y-80836904D01*
X62927380Y-80551190D02*
X61927380Y-80551190D01*
X62070238Y-80646428D01*
X62165476Y-80741666D01*
X62213095Y-80836904D01*
X61927380Y-79408333D02*
X61927380Y-79598809D01*
X61975000Y-79694047D01*
X62022619Y-79741666D01*
X62165476Y-79836904D01*
X62355952Y-79884523D01*
X62736904Y-79884523D01*
X62832142Y-79836904D01*
X62879761Y-79789285D01*
X62927380Y-79694047D01*
X62927380Y-79503571D01*
X62879761Y-79408333D01*
X62832142Y-79360714D01*
X62736904Y-79313095D01*
X62498809Y-79313095D01*
X62403571Y-79360714D01*
X62355952Y-79408333D01*
X62308333Y-79503571D01*
X62308333Y-79694047D01*
X62355952Y-79789285D01*
X62403571Y-79836904D01*
X62498809Y-79884523D01*
%TO.C,CN3*%
X64282142Y-94465476D02*
X64329761Y-94513095D01*
X64377380Y-94655952D01*
X64377380Y-94751190D01*
X64329761Y-94894047D01*
X64234523Y-94989285D01*
X64139285Y-95036904D01*
X63948809Y-95084523D01*
X63805952Y-95084523D01*
X63615476Y-95036904D01*
X63520238Y-94989285D01*
X63425000Y-94894047D01*
X63377380Y-94751190D01*
X63377380Y-94655952D01*
X63425000Y-94513095D01*
X63472619Y-94465476D01*
X64377380Y-94036904D02*
X63377380Y-94036904D01*
X64377380Y-93465476D01*
X63377380Y-93465476D01*
X63377380Y-93084523D02*
X63377380Y-92465476D01*
X63758333Y-92798809D01*
X63758333Y-92655952D01*
X63805952Y-92560714D01*
X63853571Y-92513095D01*
X63948809Y-92465476D01*
X64186904Y-92465476D01*
X64282142Y-92513095D01*
X64329761Y-92560714D01*
X64377380Y-92655952D01*
X64377380Y-92941666D01*
X64329761Y-93036904D01*
X64282142Y-93084523D01*
%TO.C,C5*%
X51317142Y-65141666D02*
X51364761Y-65189285D01*
X51412380Y-65332142D01*
X51412380Y-65427380D01*
X51364761Y-65570238D01*
X51269523Y-65665476D01*
X51174285Y-65713095D01*
X50983809Y-65760714D01*
X50840952Y-65760714D01*
X50650476Y-65713095D01*
X50555238Y-65665476D01*
X50460000Y-65570238D01*
X50412380Y-65427380D01*
X50412380Y-65332142D01*
X50460000Y-65189285D01*
X50507619Y-65141666D01*
X50412380Y-64236904D02*
X50412380Y-64713095D01*
X50888571Y-64760714D01*
X50840952Y-64713095D01*
X50793333Y-64617857D01*
X50793333Y-64379761D01*
X50840952Y-64284523D01*
X50888571Y-64236904D01*
X50983809Y-64189285D01*
X51221904Y-64189285D01*
X51317142Y-64236904D01*
X51364761Y-64284523D01*
X51412380Y-64379761D01*
X51412380Y-64617857D01*
X51364761Y-64713095D01*
X51317142Y-64760714D01*
%TO.C,J2*%
X17566666Y-22027380D02*
X17566666Y-22741666D01*
X17519047Y-22884523D01*
X17423809Y-22979761D01*
X17280952Y-23027380D01*
X17185714Y-23027380D01*
X17995238Y-22122619D02*
X18042857Y-22075000D01*
X18138095Y-22027380D01*
X18376190Y-22027380D01*
X18471428Y-22075000D01*
X18519047Y-22122619D01*
X18566666Y-22217857D01*
X18566666Y-22313095D01*
X18519047Y-22455952D01*
X17947619Y-23027380D01*
X18566666Y-23027380D01*
%TO.C,C20*%
X58582142Y-77007142D02*
X58534523Y-77054761D01*
X58391666Y-77102380D01*
X58296428Y-77102380D01*
X58153571Y-77054761D01*
X58058333Y-76959523D01*
X58010714Y-76864285D01*
X57963095Y-76673809D01*
X57963095Y-76530952D01*
X58010714Y-76340476D01*
X58058333Y-76245238D01*
X58153571Y-76150000D01*
X58296428Y-76102380D01*
X58391666Y-76102380D01*
X58534523Y-76150000D01*
X58582142Y-76197619D01*
X58963095Y-76197619D02*
X59010714Y-76150000D01*
X59105952Y-76102380D01*
X59344047Y-76102380D01*
X59439285Y-76150000D01*
X59486904Y-76197619D01*
X59534523Y-76292857D01*
X59534523Y-76388095D01*
X59486904Y-76530952D01*
X58915476Y-77102380D01*
X59534523Y-77102380D01*
X60153571Y-76102380D02*
X60248809Y-76102380D01*
X60344047Y-76150000D01*
X60391666Y-76197619D01*
X60439285Y-76292857D01*
X60486904Y-76483333D01*
X60486904Y-76721428D01*
X60439285Y-76911904D01*
X60391666Y-77007142D01*
X60344047Y-77054761D01*
X60248809Y-77102380D01*
X60153571Y-77102380D01*
X60058333Y-77054761D01*
X60010714Y-77007142D01*
X59963095Y-76911904D01*
X59915476Y-76721428D01*
X59915476Y-76483333D01*
X59963095Y-76292857D01*
X60010714Y-76197619D01*
X60058333Y-76150000D01*
X60153571Y-76102380D01*
%TO.C,CN2*%
X82259523Y-84332142D02*
X82211904Y-84379761D01*
X82069047Y-84427380D01*
X81973809Y-84427380D01*
X81830952Y-84379761D01*
X81735714Y-84284523D01*
X81688095Y-84189285D01*
X81640476Y-83998809D01*
X81640476Y-83855952D01*
X81688095Y-83665476D01*
X81735714Y-83570238D01*
X81830952Y-83475000D01*
X81973809Y-83427380D01*
X82069047Y-83427380D01*
X82211904Y-83475000D01*
X82259523Y-83522619D01*
X82688095Y-84427380D02*
X82688095Y-83427380D01*
X83259523Y-84427380D01*
X83259523Y-83427380D01*
X83688095Y-83522619D02*
X83735714Y-83475000D01*
X83830952Y-83427380D01*
X84069047Y-83427380D01*
X84164285Y-83475000D01*
X84211904Y-83522619D01*
X84259523Y-83617857D01*
X84259523Y-83713095D01*
X84211904Y-83855952D01*
X83640476Y-84427380D01*
X84259523Y-84427380D01*
%TO.C,C16*%
X45532142Y-65357142D02*
X45484523Y-65404761D01*
X45341666Y-65452380D01*
X45246428Y-65452380D01*
X45103571Y-65404761D01*
X45008333Y-65309523D01*
X44960714Y-65214285D01*
X44913095Y-65023809D01*
X44913095Y-64880952D01*
X44960714Y-64690476D01*
X45008333Y-64595238D01*
X45103571Y-64500000D01*
X45246428Y-64452380D01*
X45341666Y-64452380D01*
X45484523Y-64500000D01*
X45532142Y-64547619D01*
X46484523Y-65452380D02*
X45913095Y-65452380D01*
X46198809Y-65452380D02*
X46198809Y-64452380D01*
X46103571Y-64595238D01*
X46008333Y-64690476D01*
X45913095Y-64738095D01*
X47341666Y-64452380D02*
X47151190Y-64452380D01*
X47055952Y-64500000D01*
X47008333Y-64547619D01*
X46913095Y-64690476D01*
X46865476Y-64880952D01*
X46865476Y-65261904D01*
X46913095Y-65357142D01*
X46960714Y-65404761D01*
X47055952Y-65452380D01*
X47246428Y-65452380D01*
X47341666Y-65404761D01*
X47389285Y-65357142D01*
X47436904Y-65261904D01*
X47436904Y-65023809D01*
X47389285Y-64928571D01*
X47341666Y-64880952D01*
X47246428Y-64833333D01*
X47055952Y-64833333D01*
X46960714Y-64880952D01*
X46913095Y-64928571D01*
X46865476Y-65023809D01*
%TO.C,R51*%
X57702380Y-43817857D02*
X57226190Y-44151190D01*
X57702380Y-44389285D02*
X56702380Y-44389285D01*
X56702380Y-44008333D01*
X56750000Y-43913095D01*
X56797619Y-43865476D01*
X56892857Y-43817857D01*
X57035714Y-43817857D01*
X57130952Y-43865476D01*
X57178571Y-43913095D01*
X57226190Y-44008333D01*
X57226190Y-44389285D01*
X56702380Y-42913095D02*
X56702380Y-43389285D01*
X57178571Y-43436904D01*
X57130952Y-43389285D01*
X57083333Y-43294047D01*
X57083333Y-43055952D01*
X57130952Y-42960714D01*
X57178571Y-42913095D01*
X57273809Y-42865476D01*
X57511904Y-42865476D01*
X57607142Y-42913095D01*
X57654761Y-42960714D01*
X57702380Y-43055952D01*
X57702380Y-43294047D01*
X57654761Y-43389285D01*
X57607142Y-43436904D01*
X57702380Y-41913095D02*
X57702380Y-42484523D01*
X57702380Y-42198809D02*
X56702380Y-42198809D01*
X56845238Y-42294047D01*
X56940476Y-42389285D01*
X56988095Y-42484523D01*
%TO.C,L3*%
X55958333Y-60277380D02*
X55482142Y-60277380D01*
X55482142Y-59277380D01*
X56196428Y-59277380D02*
X56815476Y-59277380D01*
X56482142Y-59658333D01*
X56625000Y-59658333D01*
X56720238Y-59705952D01*
X56767857Y-59753571D01*
X56815476Y-59848809D01*
X56815476Y-60086904D01*
X56767857Y-60182142D01*
X56720238Y-60229761D01*
X56625000Y-60277380D01*
X56339285Y-60277380D01*
X56244047Y-60229761D01*
X56196428Y-60182142D01*
%TO.C,SW1*%
X46769761Y-22308333D02*
X46817380Y-22165476D01*
X46817380Y-21927380D01*
X46769761Y-21832142D01*
X46722142Y-21784523D01*
X46626904Y-21736904D01*
X46531666Y-21736904D01*
X46436428Y-21784523D01*
X46388809Y-21832142D01*
X46341190Y-21927380D01*
X46293571Y-22117857D01*
X46245952Y-22213095D01*
X46198333Y-22260714D01*
X46103095Y-22308333D01*
X46007857Y-22308333D01*
X45912619Y-22260714D01*
X45865000Y-22213095D01*
X45817380Y-22117857D01*
X45817380Y-21879761D01*
X45865000Y-21736904D01*
X45817380Y-21403571D02*
X46817380Y-21165476D01*
X46103095Y-20975000D01*
X46817380Y-20784523D01*
X45817380Y-20546428D01*
X46817380Y-19641666D02*
X46817380Y-20213095D01*
X46817380Y-19927380D02*
X45817380Y-19927380D01*
X45960238Y-20022619D01*
X46055476Y-20117857D01*
X46103095Y-20213095D01*
%TO.C,C22*%
X68457142Y-77257142D02*
X68409523Y-77304761D01*
X68266666Y-77352380D01*
X68171428Y-77352380D01*
X68028571Y-77304761D01*
X67933333Y-77209523D01*
X67885714Y-77114285D01*
X67838095Y-76923809D01*
X67838095Y-76780952D01*
X67885714Y-76590476D01*
X67933333Y-76495238D01*
X68028571Y-76400000D01*
X68171428Y-76352380D01*
X68266666Y-76352380D01*
X68409523Y-76400000D01*
X68457142Y-76447619D01*
X68838095Y-76447619D02*
X68885714Y-76400000D01*
X68980952Y-76352380D01*
X69219047Y-76352380D01*
X69314285Y-76400000D01*
X69361904Y-76447619D01*
X69409523Y-76542857D01*
X69409523Y-76638095D01*
X69361904Y-76780952D01*
X68790476Y-77352380D01*
X69409523Y-77352380D01*
X69790476Y-76447619D02*
X69838095Y-76400000D01*
X69933333Y-76352380D01*
X70171428Y-76352380D01*
X70266666Y-76400000D01*
X70314285Y-76447619D01*
X70361904Y-76542857D01*
X70361904Y-76638095D01*
X70314285Y-76780952D01*
X69742857Y-77352380D01*
X70361904Y-77352380D01*
%TO.C,R10*%
X70777380Y-61817857D02*
X70301190Y-62151190D01*
X70777380Y-62389285D02*
X69777380Y-62389285D01*
X69777380Y-62008333D01*
X69825000Y-61913095D01*
X69872619Y-61865476D01*
X69967857Y-61817857D01*
X70110714Y-61817857D01*
X70205952Y-61865476D01*
X70253571Y-61913095D01*
X70301190Y-62008333D01*
X70301190Y-62389285D01*
X70777380Y-60865476D02*
X70777380Y-61436904D01*
X70777380Y-61151190D02*
X69777380Y-61151190D01*
X69920238Y-61246428D01*
X70015476Y-61341666D01*
X70063095Y-61436904D01*
X69777380Y-60246428D02*
X69777380Y-60151190D01*
X69825000Y-60055952D01*
X69872619Y-60008333D01*
X69967857Y-59960714D01*
X70158333Y-59913095D01*
X70396428Y-59913095D01*
X70586904Y-59960714D01*
X70682142Y-60008333D01*
X70729761Y-60055952D01*
X70777380Y-60151190D01*
X70777380Y-60246428D01*
X70729761Y-60341666D01*
X70682142Y-60389285D01*
X70586904Y-60436904D01*
X70396428Y-60484523D01*
X70158333Y-60484523D01*
X69967857Y-60436904D01*
X69872619Y-60389285D01*
X69825000Y-60341666D01*
X69777380Y-60246428D01*
%TO.C,R53*%
X44557142Y-52927380D02*
X44223809Y-52451190D01*
X43985714Y-52927380D02*
X43985714Y-51927380D01*
X44366666Y-51927380D01*
X44461904Y-51975000D01*
X44509523Y-52022619D01*
X44557142Y-52117857D01*
X44557142Y-52260714D01*
X44509523Y-52355952D01*
X44461904Y-52403571D01*
X44366666Y-52451190D01*
X43985714Y-52451190D01*
X45461904Y-51927380D02*
X44985714Y-51927380D01*
X44938095Y-52403571D01*
X44985714Y-52355952D01*
X45080952Y-52308333D01*
X45319047Y-52308333D01*
X45414285Y-52355952D01*
X45461904Y-52403571D01*
X45509523Y-52498809D01*
X45509523Y-52736904D01*
X45461904Y-52832142D01*
X45414285Y-52879761D01*
X45319047Y-52927380D01*
X45080952Y-52927380D01*
X44985714Y-52879761D01*
X44938095Y-52832142D01*
X45842857Y-51927380D02*
X46461904Y-51927380D01*
X46128571Y-52308333D01*
X46271428Y-52308333D01*
X46366666Y-52355952D01*
X46414285Y-52403571D01*
X46461904Y-52498809D01*
X46461904Y-52736904D01*
X46414285Y-52832142D01*
X46366666Y-52879761D01*
X46271428Y-52927380D01*
X45985714Y-52927380D01*
X45890476Y-52879761D01*
X45842857Y-52832142D01*
%TO.C,JP3*%
X42652380Y-33658333D02*
X43366666Y-33658333D01*
X43509523Y-33705952D01*
X43604761Y-33801190D01*
X43652380Y-33944047D01*
X43652380Y-34039285D01*
X43652380Y-33182142D02*
X42652380Y-33182142D01*
X42652380Y-32801190D01*
X42700000Y-32705952D01*
X42747619Y-32658333D01*
X42842857Y-32610714D01*
X42985714Y-32610714D01*
X43080952Y-32658333D01*
X43128571Y-32705952D01*
X43176190Y-32801190D01*
X43176190Y-33182142D01*
X42652380Y-32277380D02*
X42652380Y-31658333D01*
X43033333Y-31991666D01*
X43033333Y-31848809D01*
X43080952Y-31753571D01*
X43128571Y-31705952D01*
X43223809Y-31658333D01*
X43461904Y-31658333D01*
X43557142Y-31705952D01*
X43604761Y-31753571D01*
X43652380Y-31848809D01*
X43652380Y-32134523D01*
X43604761Y-32229761D01*
X43557142Y-32277380D01*
%TO.C,C88*%
X63382142Y-58532142D02*
X63334523Y-58579761D01*
X63191666Y-58627380D01*
X63096428Y-58627380D01*
X62953571Y-58579761D01*
X62858333Y-58484523D01*
X62810714Y-58389285D01*
X62763095Y-58198809D01*
X62763095Y-58055952D01*
X62810714Y-57865476D01*
X62858333Y-57770238D01*
X62953571Y-57675000D01*
X63096428Y-57627380D01*
X63191666Y-57627380D01*
X63334523Y-57675000D01*
X63382142Y-57722619D01*
X63953571Y-58055952D02*
X63858333Y-58008333D01*
X63810714Y-57960714D01*
X63763095Y-57865476D01*
X63763095Y-57817857D01*
X63810714Y-57722619D01*
X63858333Y-57675000D01*
X63953571Y-57627380D01*
X64144047Y-57627380D01*
X64239285Y-57675000D01*
X64286904Y-57722619D01*
X64334523Y-57817857D01*
X64334523Y-57865476D01*
X64286904Y-57960714D01*
X64239285Y-58008333D01*
X64144047Y-58055952D01*
X63953571Y-58055952D01*
X63858333Y-58103571D01*
X63810714Y-58151190D01*
X63763095Y-58246428D01*
X63763095Y-58436904D01*
X63810714Y-58532142D01*
X63858333Y-58579761D01*
X63953571Y-58627380D01*
X64144047Y-58627380D01*
X64239285Y-58579761D01*
X64286904Y-58532142D01*
X64334523Y-58436904D01*
X64334523Y-58246428D01*
X64286904Y-58151190D01*
X64239285Y-58103571D01*
X64144047Y-58055952D01*
X64905952Y-58055952D02*
X64810714Y-58008333D01*
X64763095Y-57960714D01*
X64715476Y-57865476D01*
X64715476Y-57817857D01*
X64763095Y-57722619D01*
X64810714Y-57675000D01*
X64905952Y-57627380D01*
X65096428Y-57627380D01*
X65191666Y-57675000D01*
X65239285Y-57722619D01*
X65286904Y-57817857D01*
X65286904Y-57865476D01*
X65239285Y-57960714D01*
X65191666Y-58008333D01*
X65096428Y-58055952D01*
X64905952Y-58055952D01*
X64810714Y-58103571D01*
X64763095Y-58151190D01*
X64715476Y-58246428D01*
X64715476Y-58436904D01*
X64763095Y-58532142D01*
X64810714Y-58579761D01*
X64905952Y-58627380D01*
X65096428Y-58627380D01*
X65191666Y-58579761D01*
X65239285Y-58532142D01*
X65286904Y-58436904D01*
X65286904Y-58246428D01*
X65239285Y-58151190D01*
X65191666Y-58103571D01*
X65096428Y-58055952D01*
%TO.C,JP2*%
X40777380Y-33683333D02*
X41491666Y-33683333D01*
X41634523Y-33730952D01*
X41729761Y-33826190D01*
X41777380Y-33969047D01*
X41777380Y-34064285D01*
X41777380Y-33207142D02*
X40777380Y-33207142D01*
X40777380Y-32826190D01*
X40825000Y-32730952D01*
X40872619Y-32683333D01*
X40967857Y-32635714D01*
X41110714Y-32635714D01*
X41205952Y-32683333D01*
X41253571Y-32730952D01*
X41301190Y-32826190D01*
X41301190Y-33207142D01*
X40872619Y-32254761D02*
X40825000Y-32207142D01*
X40777380Y-32111904D01*
X40777380Y-31873809D01*
X40825000Y-31778571D01*
X40872619Y-31730952D01*
X40967857Y-31683333D01*
X41063095Y-31683333D01*
X41205952Y-31730952D01*
X41777380Y-32302380D01*
X41777380Y-31683333D01*
%TO.C,U3*%
X44838095Y-32777380D02*
X44838095Y-33586904D01*
X44885714Y-33682142D01*
X44933333Y-33729761D01*
X45028571Y-33777380D01*
X45219047Y-33777380D01*
X45314285Y-33729761D01*
X45361904Y-33682142D01*
X45409523Y-33586904D01*
X45409523Y-32777380D01*
X45790476Y-32777380D02*
X46409523Y-32777380D01*
X46076190Y-33158333D01*
X46219047Y-33158333D01*
X46314285Y-33205952D01*
X46361904Y-33253571D01*
X46409523Y-33348809D01*
X46409523Y-33586904D01*
X46361904Y-33682142D01*
X46314285Y-33729761D01*
X46219047Y-33777380D01*
X45933333Y-33777380D01*
X45838095Y-33729761D01*
X45790476Y-33682142D01*
%TO.C,C49*%
X46132142Y-68832142D02*
X46084523Y-68879761D01*
X45941666Y-68927380D01*
X45846428Y-68927380D01*
X45703571Y-68879761D01*
X45608333Y-68784523D01*
X45560714Y-68689285D01*
X45513095Y-68498809D01*
X45513095Y-68355952D01*
X45560714Y-68165476D01*
X45608333Y-68070238D01*
X45703571Y-67975000D01*
X45846428Y-67927380D01*
X45941666Y-67927380D01*
X46084523Y-67975000D01*
X46132142Y-68022619D01*
X46989285Y-68260714D02*
X46989285Y-68927380D01*
X46751190Y-67879761D02*
X46513095Y-68594047D01*
X47132142Y-68594047D01*
X47560714Y-68927380D02*
X47751190Y-68927380D01*
X47846428Y-68879761D01*
X47894047Y-68832142D01*
X47989285Y-68689285D01*
X48036904Y-68498809D01*
X48036904Y-68117857D01*
X47989285Y-68022619D01*
X47941666Y-67975000D01*
X47846428Y-67927380D01*
X47655952Y-67927380D01*
X47560714Y-67975000D01*
X47513095Y-68022619D01*
X47465476Y-68117857D01*
X47465476Y-68355952D01*
X47513095Y-68451190D01*
X47560714Y-68498809D01*
X47655952Y-68546428D01*
X47846428Y-68546428D01*
X47941666Y-68498809D01*
X47989285Y-68451190D01*
X48036904Y-68355952D01*
%TO.C,C40*%
X70657142Y-49482142D02*
X70609523Y-49529761D01*
X70466666Y-49577380D01*
X70371428Y-49577380D01*
X70228571Y-49529761D01*
X70133333Y-49434523D01*
X70085714Y-49339285D01*
X70038095Y-49148809D01*
X70038095Y-49005952D01*
X70085714Y-48815476D01*
X70133333Y-48720238D01*
X70228571Y-48625000D01*
X70371428Y-48577380D01*
X70466666Y-48577380D01*
X70609523Y-48625000D01*
X70657142Y-48672619D01*
X71514285Y-48910714D02*
X71514285Y-49577380D01*
X71276190Y-48529761D02*
X71038095Y-49244047D01*
X71657142Y-49244047D01*
X72228571Y-48577380D02*
X72323809Y-48577380D01*
X72419047Y-48625000D01*
X72466666Y-48672619D01*
X72514285Y-48767857D01*
X72561904Y-48958333D01*
X72561904Y-49196428D01*
X72514285Y-49386904D01*
X72466666Y-49482142D01*
X72419047Y-49529761D01*
X72323809Y-49577380D01*
X72228571Y-49577380D01*
X72133333Y-49529761D01*
X72085714Y-49482142D01*
X72038095Y-49386904D01*
X71990476Y-49196428D01*
X71990476Y-48958333D01*
X72038095Y-48767857D01*
X72085714Y-48672619D01*
X72133333Y-48625000D01*
X72228571Y-48577380D01*
%TO.C,U7*%
X49988095Y-81727380D02*
X49988095Y-82536904D01*
X50035714Y-82632142D01*
X50083333Y-82679761D01*
X50178571Y-82727380D01*
X50369047Y-82727380D01*
X50464285Y-82679761D01*
X50511904Y-82632142D01*
X50559523Y-82536904D01*
X50559523Y-81727380D01*
X50940476Y-81727380D02*
X51607142Y-81727380D01*
X51178571Y-82727380D01*
%TO.C,R17*%
X45477380Y-93467857D02*
X45001190Y-93801190D01*
X45477380Y-94039285D02*
X44477380Y-94039285D01*
X44477380Y-93658333D01*
X44525000Y-93563095D01*
X44572619Y-93515476D01*
X44667857Y-93467857D01*
X44810714Y-93467857D01*
X44905952Y-93515476D01*
X44953571Y-93563095D01*
X45001190Y-93658333D01*
X45001190Y-94039285D01*
X45477380Y-92515476D02*
X45477380Y-93086904D01*
X45477380Y-92801190D02*
X44477380Y-92801190D01*
X44620238Y-92896428D01*
X44715476Y-92991666D01*
X44763095Y-93086904D01*
X44477380Y-92182142D02*
X44477380Y-91515476D01*
X45477380Y-91944047D01*
%TO.C,C41*%
X53832142Y-87207142D02*
X53784523Y-87254761D01*
X53641666Y-87302380D01*
X53546428Y-87302380D01*
X53403571Y-87254761D01*
X53308333Y-87159523D01*
X53260714Y-87064285D01*
X53213095Y-86873809D01*
X53213095Y-86730952D01*
X53260714Y-86540476D01*
X53308333Y-86445238D01*
X53403571Y-86350000D01*
X53546428Y-86302380D01*
X53641666Y-86302380D01*
X53784523Y-86350000D01*
X53832142Y-86397619D01*
X54689285Y-86635714D02*
X54689285Y-87302380D01*
X54451190Y-86254761D02*
X54213095Y-86969047D01*
X54832142Y-86969047D01*
X55736904Y-87302380D02*
X55165476Y-87302380D01*
X55451190Y-87302380D02*
X55451190Y-86302380D01*
X55355952Y-86445238D01*
X55260714Y-86540476D01*
X55165476Y-86588095D01*
%TO.C,L1*%
X69708333Y-66902380D02*
X69232142Y-66902380D01*
X69232142Y-65902380D01*
X70565476Y-66902380D02*
X69994047Y-66902380D01*
X70279761Y-66902380D02*
X70279761Y-65902380D01*
X70184523Y-66045238D01*
X70089285Y-66140476D01*
X69994047Y-66188095D01*
%TO.C,R36*%
X46607142Y-86802380D02*
X46273809Y-86326190D01*
X46035714Y-86802380D02*
X46035714Y-85802380D01*
X46416666Y-85802380D01*
X46511904Y-85850000D01*
X46559523Y-85897619D01*
X46607142Y-85992857D01*
X46607142Y-86135714D01*
X46559523Y-86230952D01*
X46511904Y-86278571D01*
X46416666Y-86326190D01*
X46035714Y-86326190D01*
X46940476Y-85802380D02*
X47559523Y-85802380D01*
X47226190Y-86183333D01*
X47369047Y-86183333D01*
X47464285Y-86230952D01*
X47511904Y-86278571D01*
X47559523Y-86373809D01*
X47559523Y-86611904D01*
X47511904Y-86707142D01*
X47464285Y-86754761D01*
X47369047Y-86802380D01*
X47083333Y-86802380D01*
X46988095Y-86754761D01*
X46940476Y-86707142D01*
X48416666Y-85802380D02*
X48226190Y-85802380D01*
X48130952Y-85850000D01*
X48083333Y-85897619D01*
X47988095Y-86040476D01*
X47940476Y-86230952D01*
X47940476Y-86611904D01*
X47988095Y-86707142D01*
X48035714Y-86754761D01*
X48130952Y-86802380D01*
X48321428Y-86802380D01*
X48416666Y-86754761D01*
X48464285Y-86707142D01*
X48511904Y-86611904D01*
X48511904Y-86373809D01*
X48464285Y-86278571D01*
X48416666Y-86230952D01*
X48321428Y-86183333D01*
X48130952Y-86183333D01*
X48035714Y-86230952D01*
X47988095Y-86278571D01*
X47940476Y-86373809D01*
%TO.C,JP5*%
X88777380Y-64783333D02*
X89491666Y-64783333D01*
X89634523Y-64830952D01*
X89729761Y-64926190D01*
X89777380Y-65069047D01*
X89777380Y-65164285D01*
X89777380Y-64307142D02*
X88777380Y-64307142D01*
X88777380Y-63926190D01*
X88825000Y-63830952D01*
X88872619Y-63783333D01*
X88967857Y-63735714D01*
X89110714Y-63735714D01*
X89205952Y-63783333D01*
X89253571Y-63830952D01*
X89301190Y-63926190D01*
X89301190Y-64307142D01*
X88777380Y-62830952D02*
X88777380Y-63307142D01*
X89253571Y-63354761D01*
X89205952Y-63307142D01*
X89158333Y-63211904D01*
X89158333Y-62973809D01*
X89205952Y-62878571D01*
X89253571Y-62830952D01*
X89348809Y-62783333D01*
X89586904Y-62783333D01*
X89682142Y-62830952D01*
X89729761Y-62878571D01*
X89777380Y-62973809D01*
X89777380Y-63211904D01*
X89729761Y-63307142D01*
X89682142Y-63354761D01*
%TO.C,C23*%
X54032142Y-71382142D02*
X53984523Y-71429761D01*
X53841666Y-71477380D01*
X53746428Y-71477380D01*
X53603571Y-71429761D01*
X53508333Y-71334523D01*
X53460714Y-71239285D01*
X53413095Y-71048809D01*
X53413095Y-70905952D01*
X53460714Y-70715476D01*
X53508333Y-70620238D01*
X53603571Y-70525000D01*
X53746428Y-70477380D01*
X53841666Y-70477380D01*
X53984523Y-70525000D01*
X54032142Y-70572619D01*
X54413095Y-70572619D02*
X54460714Y-70525000D01*
X54555952Y-70477380D01*
X54794047Y-70477380D01*
X54889285Y-70525000D01*
X54936904Y-70572619D01*
X54984523Y-70667857D01*
X54984523Y-70763095D01*
X54936904Y-70905952D01*
X54365476Y-71477380D01*
X54984523Y-71477380D01*
X55317857Y-70477380D02*
X55936904Y-70477380D01*
X55603571Y-70858333D01*
X55746428Y-70858333D01*
X55841666Y-70905952D01*
X55889285Y-70953571D01*
X55936904Y-71048809D01*
X55936904Y-71286904D01*
X55889285Y-71382142D01*
X55841666Y-71429761D01*
X55746428Y-71477380D01*
X55460714Y-71477380D01*
X55365476Y-71429761D01*
X55317857Y-71382142D01*
%TO.C,C32*%
X49807142Y-60057142D02*
X49759523Y-60104761D01*
X49616666Y-60152380D01*
X49521428Y-60152380D01*
X49378571Y-60104761D01*
X49283333Y-60009523D01*
X49235714Y-59914285D01*
X49188095Y-59723809D01*
X49188095Y-59580952D01*
X49235714Y-59390476D01*
X49283333Y-59295238D01*
X49378571Y-59200000D01*
X49521428Y-59152380D01*
X49616666Y-59152380D01*
X49759523Y-59200000D01*
X49807142Y-59247619D01*
X50140476Y-59152380D02*
X50759523Y-59152380D01*
X50426190Y-59533333D01*
X50569047Y-59533333D01*
X50664285Y-59580952D01*
X50711904Y-59628571D01*
X50759523Y-59723809D01*
X50759523Y-59961904D01*
X50711904Y-60057142D01*
X50664285Y-60104761D01*
X50569047Y-60152380D01*
X50283333Y-60152380D01*
X50188095Y-60104761D01*
X50140476Y-60057142D01*
X51140476Y-59247619D02*
X51188095Y-59200000D01*
X51283333Y-59152380D01*
X51521428Y-59152380D01*
X51616666Y-59200000D01*
X51664285Y-59247619D01*
X51711904Y-59342857D01*
X51711904Y-59438095D01*
X51664285Y-59580952D01*
X51092857Y-60152380D01*
X51711904Y-60152380D01*
%TO.C,C25*%
X63657142Y-65417857D02*
X63704761Y-65465476D01*
X63752380Y-65608333D01*
X63752380Y-65703571D01*
X63704761Y-65846428D01*
X63609523Y-65941666D01*
X63514285Y-65989285D01*
X63323809Y-66036904D01*
X63180952Y-66036904D01*
X62990476Y-65989285D01*
X62895238Y-65941666D01*
X62800000Y-65846428D01*
X62752380Y-65703571D01*
X62752380Y-65608333D01*
X62800000Y-65465476D01*
X62847619Y-65417857D01*
X62847619Y-65036904D02*
X62800000Y-64989285D01*
X62752380Y-64894047D01*
X62752380Y-64655952D01*
X62800000Y-64560714D01*
X62847619Y-64513095D01*
X62942857Y-64465476D01*
X63038095Y-64465476D01*
X63180952Y-64513095D01*
X63752380Y-65084523D01*
X63752380Y-64465476D01*
X62752380Y-63560714D02*
X62752380Y-64036904D01*
X63228571Y-64084523D01*
X63180952Y-64036904D01*
X63133333Y-63941666D01*
X63133333Y-63703571D01*
X63180952Y-63608333D01*
X63228571Y-63560714D01*
X63323809Y-63513095D01*
X63561904Y-63513095D01*
X63657142Y-63560714D01*
X63704761Y-63608333D01*
X63752380Y-63703571D01*
X63752380Y-63941666D01*
X63704761Y-64036904D01*
X63657142Y-64084523D01*
%TO.C,C30*%
X61357142Y-60282142D02*
X61309523Y-60329761D01*
X61166666Y-60377380D01*
X61071428Y-60377380D01*
X60928571Y-60329761D01*
X60833333Y-60234523D01*
X60785714Y-60139285D01*
X60738095Y-59948809D01*
X60738095Y-59805952D01*
X60785714Y-59615476D01*
X60833333Y-59520238D01*
X60928571Y-59425000D01*
X61071428Y-59377380D01*
X61166666Y-59377380D01*
X61309523Y-59425000D01*
X61357142Y-59472619D01*
X61690476Y-59377380D02*
X62309523Y-59377380D01*
X61976190Y-59758333D01*
X62119047Y-59758333D01*
X62214285Y-59805952D01*
X62261904Y-59853571D01*
X62309523Y-59948809D01*
X62309523Y-60186904D01*
X62261904Y-60282142D01*
X62214285Y-60329761D01*
X62119047Y-60377380D01*
X61833333Y-60377380D01*
X61738095Y-60329761D01*
X61690476Y-60282142D01*
X62928571Y-59377380D02*
X63023809Y-59377380D01*
X63119047Y-59425000D01*
X63166666Y-59472619D01*
X63214285Y-59567857D01*
X63261904Y-59758333D01*
X63261904Y-59996428D01*
X63214285Y-60186904D01*
X63166666Y-60282142D01*
X63119047Y-60329761D01*
X63023809Y-60377380D01*
X62928571Y-60377380D01*
X62833333Y-60329761D01*
X62785714Y-60282142D01*
X62738095Y-60186904D01*
X62690476Y-59996428D01*
X62690476Y-59758333D01*
X62738095Y-59567857D01*
X62785714Y-59472619D01*
X62833333Y-59425000D01*
X62928571Y-59377380D01*
%TO.C,C1*%
X41433333Y-35057142D02*
X41385714Y-35104761D01*
X41242857Y-35152380D01*
X41147619Y-35152380D01*
X41004761Y-35104761D01*
X40909523Y-35009523D01*
X40861904Y-34914285D01*
X40814285Y-34723809D01*
X40814285Y-34580952D01*
X40861904Y-34390476D01*
X40909523Y-34295238D01*
X41004761Y-34200000D01*
X41147619Y-34152380D01*
X41242857Y-34152380D01*
X41385714Y-34200000D01*
X41433333Y-34247619D01*
X42385714Y-35152380D02*
X41814285Y-35152380D01*
X42100000Y-35152380D02*
X42100000Y-34152380D01*
X42004761Y-34295238D01*
X41909523Y-34390476D01*
X41814285Y-34438095D01*
%TO.C,R18*%
X61727380Y-81192857D02*
X61251190Y-81526190D01*
X61727380Y-81764285D02*
X60727380Y-81764285D01*
X60727380Y-81383333D01*
X60775000Y-81288095D01*
X60822619Y-81240476D01*
X60917857Y-81192857D01*
X61060714Y-81192857D01*
X61155952Y-81240476D01*
X61203571Y-81288095D01*
X61251190Y-81383333D01*
X61251190Y-81764285D01*
X61727380Y-80240476D02*
X61727380Y-80811904D01*
X61727380Y-80526190D02*
X60727380Y-80526190D01*
X60870238Y-80621428D01*
X60965476Y-80716666D01*
X61013095Y-80811904D01*
X61155952Y-79669047D02*
X61108333Y-79764285D01*
X61060714Y-79811904D01*
X60965476Y-79859523D01*
X60917857Y-79859523D01*
X60822619Y-79811904D01*
X60775000Y-79764285D01*
X60727380Y-79669047D01*
X60727380Y-79478571D01*
X60775000Y-79383333D01*
X60822619Y-79335714D01*
X60917857Y-79288095D01*
X60965476Y-79288095D01*
X61060714Y-79335714D01*
X61108333Y-79383333D01*
X61155952Y-79478571D01*
X61155952Y-79669047D01*
X61203571Y-79764285D01*
X61251190Y-79811904D01*
X61346428Y-79859523D01*
X61536904Y-79859523D01*
X61632142Y-79811904D01*
X61679761Y-79764285D01*
X61727380Y-79669047D01*
X61727380Y-79478571D01*
X61679761Y-79383333D01*
X61632142Y-79335714D01*
X61536904Y-79288095D01*
X61346428Y-79288095D01*
X61251190Y-79335714D01*
X61203571Y-79383333D01*
X61155952Y-79478571D01*
%TO.C,R52*%
X56957142Y-53502380D02*
X56623809Y-53026190D01*
X56385714Y-53502380D02*
X56385714Y-52502380D01*
X56766666Y-52502380D01*
X56861904Y-52550000D01*
X56909523Y-52597619D01*
X56957142Y-52692857D01*
X56957142Y-52835714D01*
X56909523Y-52930952D01*
X56861904Y-52978571D01*
X56766666Y-53026190D01*
X56385714Y-53026190D01*
X57861904Y-52502380D02*
X57385714Y-52502380D01*
X57338095Y-52978571D01*
X57385714Y-52930952D01*
X57480952Y-52883333D01*
X57719047Y-52883333D01*
X57814285Y-52930952D01*
X57861904Y-52978571D01*
X57909523Y-53073809D01*
X57909523Y-53311904D01*
X57861904Y-53407142D01*
X57814285Y-53454761D01*
X57719047Y-53502380D01*
X57480952Y-53502380D01*
X57385714Y-53454761D01*
X57338095Y-53407142D01*
X58290476Y-52597619D02*
X58338095Y-52550000D01*
X58433333Y-52502380D01*
X58671428Y-52502380D01*
X58766666Y-52550000D01*
X58814285Y-52597619D01*
X58861904Y-52692857D01*
X58861904Y-52788095D01*
X58814285Y-52930952D01*
X58242857Y-53502380D01*
X58861904Y-53502380D01*
%TO.C,C18*%
X44182142Y-93592857D02*
X44229761Y-93640476D01*
X44277380Y-93783333D01*
X44277380Y-93878571D01*
X44229761Y-94021428D01*
X44134523Y-94116666D01*
X44039285Y-94164285D01*
X43848809Y-94211904D01*
X43705952Y-94211904D01*
X43515476Y-94164285D01*
X43420238Y-94116666D01*
X43325000Y-94021428D01*
X43277380Y-93878571D01*
X43277380Y-93783333D01*
X43325000Y-93640476D01*
X43372619Y-93592857D01*
X44277380Y-92640476D02*
X44277380Y-93211904D01*
X44277380Y-92926190D02*
X43277380Y-92926190D01*
X43420238Y-93021428D01*
X43515476Y-93116666D01*
X43563095Y-93211904D01*
X43705952Y-92069047D02*
X43658333Y-92164285D01*
X43610714Y-92211904D01*
X43515476Y-92259523D01*
X43467857Y-92259523D01*
X43372619Y-92211904D01*
X43325000Y-92164285D01*
X43277380Y-92069047D01*
X43277380Y-91878571D01*
X43325000Y-91783333D01*
X43372619Y-91735714D01*
X43467857Y-91688095D01*
X43515476Y-91688095D01*
X43610714Y-91735714D01*
X43658333Y-91783333D01*
X43705952Y-91878571D01*
X43705952Y-92069047D01*
X43753571Y-92164285D01*
X43801190Y-92211904D01*
X43896428Y-92259523D01*
X44086904Y-92259523D01*
X44182142Y-92211904D01*
X44229761Y-92164285D01*
X44277380Y-92069047D01*
X44277380Y-91878571D01*
X44229761Y-91783333D01*
X44182142Y-91735714D01*
X44086904Y-91688095D01*
X43896428Y-91688095D01*
X43801190Y-91735714D01*
X43753571Y-91783333D01*
X43705952Y-91878571D01*
%TO.C,C31*%
X71157142Y-73482142D02*
X71109523Y-73529761D01*
X70966666Y-73577380D01*
X70871428Y-73577380D01*
X70728571Y-73529761D01*
X70633333Y-73434523D01*
X70585714Y-73339285D01*
X70538095Y-73148809D01*
X70538095Y-73005952D01*
X70585714Y-72815476D01*
X70633333Y-72720238D01*
X70728571Y-72625000D01*
X70871428Y-72577380D01*
X70966666Y-72577380D01*
X71109523Y-72625000D01*
X71157142Y-72672619D01*
X71490476Y-72577380D02*
X72109523Y-72577380D01*
X71776190Y-72958333D01*
X71919047Y-72958333D01*
X72014285Y-73005952D01*
X72061904Y-73053571D01*
X72109523Y-73148809D01*
X72109523Y-73386904D01*
X72061904Y-73482142D01*
X72014285Y-73529761D01*
X71919047Y-73577380D01*
X71633333Y-73577380D01*
X71538095Y-73529761D01*
X71490476Y-73482142D01*
X73061904Y-73577380D02*
X72490476Y-73577380D01*
X72776190Y-73577380D02*
X72776190Y-72577380D01*
X72680952Y-72720238D01*
X72585714Y-72815476D01*
X72490476Y-72863095D01*
%TO.C,L2*%
X50433333Y-78227380D02*
X49957142Y-78227380D01*
X49957142Y-77227380D01*
X50719047Y-77322619D02*
X50766666Y-77275000D01*
X50861904Y-77227380D01*
X51100000Y-77227380D01*
X51195238Y-77275000D01*
X51242857Y-77322619D01*
X51290476Y-77417857D01*
X51290476Y-77513095D01*
X51242857Y-77655952D01*
X50671428Y-78227380D01*
X51290476Y-78227380D01*
%TO.C,R23*%
X62502380Y-65442857D02*
X62026190Y-65776190D01*
X62502380Y-66014285D02*
X61502380Y-66014285D01*
X61502380Y-65633333D01*
X61550000Y-65538095D01*
X61597619Y-65490476D01*
X61692857Y-65442857D01*
X61835714Y-65442857D01*
X61930952Y-65490476D01*
X61978571Y-65538095D01*
X62026190Y-65633333D01*
X62026190Y-66014285D01*
X61597619Y-65061904D02*
X61550000Y-65014285D01*
X61502380Y-64919047D01*
X61502380Y-64680952D01*
X61550000Y-64585714D01*
X61597619Y-64538095D01*
X61692857Y-64490476D01*
X61788095Y-64490476D01*
X61930952Y-64538095D01*
X62502380Y-65109523D01*
X62502380Y-64490476D01*
X61502380Y-64157142D02*
X61502380Y-63538095D01*
X61883333Y-63871428D01*
X61883333Y-63728571D01*
X61930952Y-63633333D01*
X61978571Y-63585714D01*
X62073809Y-63538095D01*
X62311904Y-63538095D01*
X62407142Y-63585714D01*
X62454761Y-63633333D01*
X62502380Y-63728571D01*
X62502380Y-64014285D01*
X62454761Y-64109523D01*
X62407142Y-64157142D01*
%TO.C,Q6*%
X51104761Y-56897619D02*
X51009523Y-56850000D01*
X50914285Y-56754761D01*
X50771428Y-56611904D01*
X50676190Y-56564285D01*
X50580952Y-56564285D01*
X50628571Y-56802380D02*
X50533333Y-56754761D01*
X50438095Y-56659523D01*
X50390476Y-56469047D01*
X50390476Y-56135714D01*
X50438095Y-55945238D01*
X50533333Y-55850000D01*
X50628571Y-55802380D01*
X50819047Y-55802380D01*
X50914285Y-55850000D01*
X51009523Y-55945238D01*
X51057142Y-56135714D01*
X51057142Y-56469047D01*
X51009523Y-56659523D01*
X50914285Y-56754761D01*
X50819047Y-56802380D01*
X50628571Y-56802380D01*
X51914285Y-55802380D02*
X51723809Y-55802380D01*
X51628571Y-55850000D01*
X51580952Y-55897619D01*
X51485714Y-56040476D01*
X51438095Y-56230952D01*
X51438095Y-56611904D01*
X51485714Y-56707142D01*
X51533333Y-56754761D01*
X51628571Y-56802380D01*
X51819047Y-56802380D01*
X51914285Y-56754761D01*
X51961904Y-56707142D01*
X52009523Y-56611904D01*
X52009523Y-56373809D01*
X51961904Y-56278571D01*
X51914285Y-56230952D01*
X51819047Y-56183333D01*
X51628571Y-56183333D01*
X51533333Y-56230952D01*
X51485714Y-56278571D01*
X51438095Y-56373809D01*
D14*
%TO.C,M2*%
X63340000Y-79175000D02*
X63340000Y-78525000D01*
X66460000Y-79175000D02*
X66460000Y-78525000D01*
X63340000Y-79175000D02*
X63340000Y-80850000D01*
X66460000Y-79175000D02*
X66460000Y-79825000D01*
%TO.C,C28*%
X64885000Y-60357836D02*
X64885000Y-60142164D01*
X64165000Y-60357836D02*
X64165000Y-60142164D01*
%TO.C,R14*%
X73180000Y-58686359D02*
X73180000Y-58993641D01*
X72420000Y-58686359D02*
X72420000Y-58993641D01*
%TO.C,Q5*%
X54175000Y-49910000D02*
X53525000Y-49910000D01*
X54175000Y-46790000D02*
X53525000Y-46790000D01*
X54175000Y-49910000D02*
X55850000Y-49910000D01*
X54175000Y-46790000D02*
X54825000Y-46790000D01*
%TO.C,Q7*%
X44400000Y-76365000D02*
X45050000Y-76365000D01*
X44400000Y-79485000D02*
X45050000Y-79485000D01*
X44400000Y-76365000D02*
X42725000Y-76365000D01*
X44400000Y-79485000D02*
X43750000Y-79485000D01*
%TO.C,C33*%
X71215000Y-58707164D02*
X71215000Y-58922836D01*
X71935000Y-58707164D02*
X71935000Y-58922836D01*
%TO.C,R27*%
X55745000Y-67778641D02*
X55745000Y-67471359D01*
X56505000Y-67778641D02*
X56505000Y-67471359D01*
%TO.C,C19*%
X53915000Y-72367164D02*
X53915000Y-72582836D01*
X54635000Y-72367164D02*
X54635000Y-72582836D01*
%TO.C,R50*%
X61971359Y-44695000D02*
X62278641Y-44695000D01*
X61971359Y-45455000D02*
X62278641Y-45455000D01*
%TO.C,J3*%
X98480000Y-88960000D02*
X98480000Y-90290000D01*
X95820000Y-87690000D02*
X95820000Y-24130000D01*
X98480000Y-24130000D02*
X95820000Y-24130000D01*
X98480000Y-90290000D02*
X97150000Y-90290000D01*
X98480000Y-87690000D02*
X95820000Y-87690000D01*
X98480000Y-87690000D02*
X98480000Y-24130000D01*
%TO.C,R33*%
X47378641Y-84105000D02*
X47071359Y-84105000D01*
X47378641Y-83345000D02*
X47071359Y-83345000D01*
%TO.C,C36*%
X64884420Y-82560000D02*
X65165580Y-82560000D01*
X64884420Y-81540000D02*
X65165580Y-81540000D01*
%TO.C,JP1*%
X39922500Y-30187258D02*
X39922500Y-29712742D01*
X38877500Y-30187258D02*
X38877500Y-29712742D01*
%TO.C,C55*%
X64835000Y-67207836D02*
X64835000Y-66992164D01*
X64115000Y-67207836D02*
X64115000Y-66992164D01*
%TO.C,D1*%
X55950000Y-84775000D02*
X55950000Y-86675000D01*
X57750000Y-86525000D02*
X57750000Y-84925000D01*
%TO.C,C29*%
X57987836Y-66415000D02*
X57772164Y-66415000D01*
X57987836Y-67135000D02*
X57772164Y-67135000D01*
%TO.C,C27*%
X64140000Y-62367164D02*
X64140000Y-62582836D01*
X64860000Y-62367164D02*
X64860000Y-62582836D01*
%TO.C,R22*%
X54645000Y-68453641D02*
X54645000Y-68146359D01*
X55405000Y-68453641D02*
X55405000Y-68146359D01*
%TO.C,D2*%
X65350000Y-50760000D02*
X65350000Y-47100000D01*
X67250000Y-50760000D02*
X67250000Y-47100000D01*
X65350000Y-50760000D02*
X67250000Y-50760000D01*
%TO.C,R26*%
X57958641Y-68580000D02*
X57651359Y-68580000D01*
X57958641Y-67820000D02*
X57651359Y-67820000D01*
%TO.C,JP6*%
X91237742Y-70522500D02*
X91712258Y-70522500D01*
X91237742Y-69477500D02*
X91712258Y-69477500D01*
%TO.C,R12*%
X75455000Y-58686359D02*
X75455000Y-58993641D01*
X74695000Y-58686359D02*
X74695000Y-58993641D01*
%TO.C,D3*%
X64125000Y-46265000D02*
X64125000Y-49925000D01*
X62225000Y-46265000D02*
X62225000Y-49925000D01*
X64125000Y-46265000D02*
X62225000Y-46265000D01*
%TO.C,R13*%
X73570000Y-58993641D02*
X73570000Y-58686359D01*
X74330000Y-58993641D02*
X74330000Y-58686359D01*
%TO.C,DZ2*%
X46400000Y-54425000D02*
X46400000Y-57175000D01*
X48100000Y-54425000D02*
X48100000Y-57175000D01*
X48100000Y-54425000D02*
X46400000Y-54425000D01*
%TO.C,Q2*%
X59250000Y-56910000D02*
X60650000Y-56910000D01*
X60650000Y-54590000D02*
X58750000Y-54590000D01*
%TO.C,Q3*%
X58825000Y-43860000D02*
X60225000Y-43860000D01*
X60225000Y-41540000D02*
X58325000Y-41540000D01*
%TO.C,Q8*%
X39550000Y-76390000D02*
X40200000Y-76390000D01*
X39550000Y-79510000D02*
X40200000Y-79510000D01*
X39550000Y-76390000D02*
X37875000Y-76390000D01*
X39550000Y-79510000D02*
X38900000Y-79510000D01*
%TO.C,M1*%
X72950000Y-51640000D02*
X73600000Y-51640000D01*
X72950000Y-54760000D02*
X73600000Y-54760000D01*
X72950000Y-51640000D02*
X71275000Y-51640000D01*
X72950000Y-54760000D02*
X72300000Y-54760000D01*
%TO.C,R49*%
X56255000Y-55596359D02*
X56255000Y-55903641D01*
X55495000Y-55596359D02*
X55495000Y-55903641D01*
%TO.C,C2*%
X47915000Y-35367164D02*
X47915000Y-35582836D01*
X48635000Y-35367164D02*
X48635000Y-35582836D01*
%TO.C,U2*%
X58590000Y-74285000D02*
X58590000Y-74835000D01*
X64810000Y-74835000D02*
X64260000Y-74835000D01*
X58590000Y-74835000D02*
X59140000Y-74835000D01*
X58590000Y-70615000D02*
X59140000Y-70615000D01*
X64810000Y-71165000D02*
X64810000Y-70615000D01*
X58590000Y-71165000D02*
X58590000Y-70615000D01*
X64810000Y-74285000D02*
X64810000Y-74835000D01*
%TO.C,JP4*%
X45862742Y-39625000D02*
X46337258Y-39625000D01*
X45862742Y-38602500D02*
X46337258Y-38602500D01*
%TO.C,R20*%
X65170000Y-67278641D02*
X65170000Y-66971359D01*
X65930000Y-67278641D02*
X65930000Y-66971359D01*
%TO.C,Q4*%
X52525000Y-41990000D02*
X53175000Y-41990000D01*
X52525000Y-45110000D02*
X53175000Y-45110000D01*
X52525000Y-41990000D02*
X50850000Y-41990000D01*
X52525000Y-45110000D02*
X51875000Y-45110000D01*
%TO.C,J10*%
X63310000Y-18475000D02*
X64330000Y-18475000D01*
X65850000Y-23675000D02*
X66870000Y-23675000D01*
X68390000Y-23675000D02*
X68960000Y-23675000D01*
X63310000Y-23675000D02*
X64330000Y-23675000D01*
X60770000Y-18475000D02*
X61790000Y-18475000D01*
X68960000Y-23675000D02*
X68960000Y-18475000D01*
X68390000Y-18475000D02*
X68960000Y-18475000D01*
X60770000Y-23675000D02*
X61790000Y-23675000D01*
X56710000Y-25115000D02*
X56710000Y-23675000D01*
X58230000Y-23675000D02*
X59250000Y-23675000D01*
X56140000Y-18475000D02*
X56710000Y-18475000D01*
X56140000Y-23675000D02*
X56140000Y-18475000D01*
X58230000Y-18475000D02*
X59250000Y-18475000D01*
X65850000Y-18475000D02*
X66870000Y-18475000D01*
X56140000Y-23675000D02*
X56710000Y-23675000D01*
D11*
%TO.C,CN1*%
X29103000Y-33700000D02*
X30205000Y-33700000D01*
X29103000Y-82800000D02*
X30205000Y-82800000D01*
X35003000Y-33700000D02*
X33901000Y-33700000D01*
X29103000Y-82800000D02*
X29103000Y-79493000D01*
X29103000Y-33700000D02*
X29103000Y-37007000D01*
X35003000Y-82800000D02*
X33901000Y-82800000D01*
X35003000Y-82800000D02*
X35003000Y-79493000D01*
X35003000Y-33700000D02*
X35003000Y-37007000D01*
D14*
%TO.C,R11*%
X68720000Y-58943641D02*
X68720000Y-58636359D01*
X69480000Y-58943641D02*
X69480000Y-58636359D01*
%TO.C,R16*%
X62855000Y-78046359D02*
X62855000Y-78353641D01*
X62095000Y-78046359D02*
X62095000Y-78353641D01*
%TO.C,R19*%
X54280000Y-68121359D02*
X54280000Y-68428641D01*
X53520000Y-68121359D02*
X53520000Y-68428641D01*
%TO.C,R40*%
X45255000Y-74396359D02*
X45255000Y-74703641D01*
X44495000Y-74396359D02*
X44495000Y-74703641D01*
%TO.C,CN3*%
X62200000Y-93300000D02*
X62200000Y-95300000D01*
X52800000Y-97200000D02*
X52800000Y-99100000D01*
X52800000Y-93300000D02*
X52800000Y-95300000D01*
X62200000Y-97200000D02*
X62200000Y-99100000D01*
X52800000Y-99100000D02*
X62200000Y-99100000D01*
%TO.C,C5*%
X49440000Y-64867164D02*
X49440000Y-65082836D01*
X50160000Y-64867164D02*
X50160000Y-65082836D01*
%TO.C,J2*%
X19230000Y-88625000D02*
X19230000Y-89955000D01*
X16570000Y-87355000D02*
X16570000Y-23795000D01*
X19230000Y-23795000D02*
X16570000Y-23795000D01*
X19230000Y-89955000D02*
X17900000Y-89955000D01*
X19230000Y-87355000D02*
X16570000Y-87355000D01*
X19230000Y-87355000D02*
X19230000Y-23795000D01*
%TO.C,C20*%
X59332836Y-77390000D02*
X59117164Y-77390000D01*
X59332836Y-78110000D02*
X59117164Y-78110000D01*
D15*
%TO.C,CN2*%
X87295000Y-37468000D02*
G75*
G03*
X87295000Y-37468000I-10000J0D01*
G01*
X79280000Y-82800000D02*
X79280000Y-79586000D01*
X79280000Y-33700000D02*
X79280000Y-36914000D01*
X86580000Y-82800000D02*
X86580000Y-79586000D01*
X86580000Y-33700000D02*
X86580000Y-36914000D01*
D14*
%TO.C,C16*%
X47715000Y-64892164D02*
X47715000Y-65107836D01*
X48435000Y-64892164D02*
X48435000Y-65107836D01*
%TO.C,R51*%
X57428641Y-45455000D02*
X57121359Y-45455000D01*
X57428641Y-44695000D02*
X57121359Y-44695000D01*
%TO.C,L3*%
X58177064Y-65200000D02*
X54072936Y-65200000D01*
X58177064Y-60600000D02*
X54072936Y-60600000D01*
%TO.C,SW1*%
X50275000Y-24385000D02*
X51585000Y-24385000D01*
X50040000Y-22785000D02*
X50040000Y-21578333D01*
X47125000Y-24625000D02*
X47125000Y-23242000D01*
X49680000Y-22785000D02*
X49680000Y-21578333D01*
X49320000Y-22785000D02*
X49320000Y-21578333D01*
X50110000Y-22785000D02*
X50110000Y-19165000D01*
X48840000Y-22785000D02*
X50110000Y-22785000D01*
X49200000Y-22785000D02*
X49200000Y-21578333D01*
X47365000Y-24385000D02*
X47365000Y-17565000D01*
X49440000Y-22785000D02*
X49440000Y-21578333D01*
X49080000Y-22785000D02*
X49080000Y-21578333D01*
X49800000Y-22785000D02*
X49800000Y-21578333D01*
X47125000Y-24625000D02*
X48508000Y-24625000D01*
X47365000Y-24385000D02*
X48675000Y-24385000D01*
X47365000Y-17565000D02*
X48675000Y-17565000D01*
X48960000Y-22785000D02*
X48960000Y-21578333D01*
X49560000Y-22785000D02*
X49560000Y-21578333D01*
X48840000Y-21578333D02*
X50110000Y-21578333D01*
X50110000Y-19165000D02*
X48840000Y-19165000D01*
X51585000Y-24385000D02*
X51585000Y-17565000D01*
X48840000Y-19165000D02*
X48840000Y-22785000D01*
X49920000Y-22785000D02*
X49920000Y-21578333D01*
X50275000Y-17565000D02*
X51585000Y-17565000D01*
%TO.C,C22*%
X68838748Y-75885000D02*
X69361252Y-75885000D01*
X68838748Y-74415000D02*
X69361252Y-74415000D01*
%TO.C,R10*%
X70705000Y-58636359D02*
X70705000Y-58943641D01*
X69945000Y-58636359D02*
X69945000Y-58943641D01*
%TO.C,R53*%
X46870000Y-52628641D02*
X46870000Y-52321359D01*
X47630000Y-52628641D02*
X47630000Y-52321359D01*
%TO.C,JP3*%
X43722500Y-30187258D02*
X43722500Y-29712742D01*
X42677500Y-30187258D02*
X42677500Y-29712742D01*
%TO.C,C24*%
X52167164Y-69060000D02*
X52382836Y-69060000D01*
X52167164Y-68340000D02*
X52382836Y-68340000D01*
%TO.C,C88*%
X63290000Y-55538748D02*
X63290000Y-56061252D01*
X64760000Y-55538748D02*
X64760000Y-56061252D01*
%TO.C,JP2*%
X40802500Y-29712742D02*
X40802500Y-30187258D01*
X41847500Y-29712742D02*
X41847500Y-30187258D01*
%TO.C,U3*%
X45600000Y-37285000D02*
X44800000Y-37285000D01*
X45600000Y-34165000D02*
X46400000Y-34165000D01*
X45600000Y-37285000D02*
X46400000Y-37285000D01*
X45600000Y-34165000D02*
X43800000Y-34165000D01*
%TO.C,C49*%
X48490000Y-68334420D02*
X48490000Y-68615580D01*
X49510000Y-68334420D02*
X49510000Y-68615580D01*
%TO.C,C40*%
X69585000Y-49790580D02*
X69585000Y-49509420D01*
X68565000Y-49790580D02*
X68565000Y-49509420D01*
%TO.C,U7*%
X51650000Y-85650000D02*
X49850000Y-85650000D01*
X51950000Y-85350000D02*
X51950000Y-83550000D01*
X51650000Y-83250000D02*
X49850000Y-83250000D01*
X49550000Y-85350000D02*
X49550000Y-83550000D01*
%TO.C,R17*%
X44670000Y-95428641D02*
X44670000Y-95121359D01*
X45430000Y-95428641D02*
X45430000Y-95121359D01*
%TO.C,C41*%
X52042164Y-87210000D02*
X52257836Y-87210000D01*
X52042164Y-86490000D02*
X52257836Y-86490000D01*
%TO.C,L1*%
X71927064Y-71875000D02*
X67822936Y-71875000D01*
X71927064Y-67275000D02*
X67822936Y-67275000D01*
%TO.C,R36*%
X47096359Y-84745000D02*
X47403641Y-84745000D01*
X47096359Y-85505000D02*
X47403641Y-85505000D01*
%TO.C,JP5*%
X91237742Y-65447500D02*
X91712258Y-65447500D01*
X91237742Y-64402500D02*
X91712258Y-64402500D01*
%TO.C,C23*%
X54592164Y-70335000D02*
X54807836Y-70335000D01*
X54592164Y-69615000D02*
X54807836Y-69615000D01*
%TO.C,C32*%
X50590580Y-60740000D02*
X50309420Y-60740000D01*
X50590580Y-61760000D02*
X50309420Y-61760000D01*
%TO.C,C25*%
X63040000Y-66992164D02*
X63040000Y-67207836D01*
X63760000Y-66992164D02*
X63760000Y-67207836D01*
%TO.C,C30*%
X62510000Y-62165580D02*
X62510000Y-61884420D01*
X61490000Y-62165580D02*
X61490000Y-61884420D01*
%TO.C,C1*%
X42615000Y-35467164D02*
X42615000Y-35682836D01*
X43335000Y-35467164D02*
X43335000Y-35682836D01*
%TO.C,R18*%
X61655000Y-78071359D02*
X61655000Y-78378641D01*
X60895000Y-78071359D02*
X60895000Y-78378641D01*
%TO.C,R41*%
X44055000Y-74421359D02*
X44055000Y-74728641D01*
X43295000Y-74421359D02*
X43295000Y-74728641D01*
%TO.C,D4*%
X59050000Y-50735000D02*
X59050000Y-47075000D01*
X60950000Y-50735000D02*
X60950000Y-47075000D01*
X59050000Y-50735000D02*
X60950000Y-50735000D01*
%TO.C,R52*%
X58728641Y-52255000D02*
X58421359Y-52255000D01*
X58728641Y-51495000D02*
X58421359Y-51495000D01*
%TO.C,SW2*%
X38680000Y-96110000D02*
X37326667Y-96110000D01*
X38680000Y-96470000D02*
X37326667Y-96470000D01*
X41600000Y-95875000D02*
X41600000Y-94255000D01*
X38680000Y-96710000D02*
X37326667Y-96710000D01*
X41600000Y-94255000D02*
X31700000Y-94255000D01*
X38680000Y-96590000D02*
X37326667Y-96590000D01*
X38680000Y-96830000D02*
X37326667Y-96830000D01*
X37326667Y-97310000D02*
X37326667Y-96040000D01*
X31700000Y-95875000D02*
X31700000Y-94255000D01*
X31700000Y-99095000D02*
X31700000Y-97475000D01*
X41600000Y-99095000D02*
X41600000Y-97475000D01*
X38680000Y-97310000D02*
X38680000Y-96040000D01*
X38680000Y-96350000D02*
X37326667Y-96350000D01*
X38680000Y-96040000D02*
X34620000Y-96040000D01*
X38680000Y-96950000D02*
X37326667Y-96950000D01*
X34620000Y-97310000D02*
X38680000Y-97310000D01*
X38680000Y-97190000D02*
X37326667Y-97190000D01*
X38680000Y-97070000D02*
X37326667Y-97070000D01*
X41840000Y-99335000D02*
X41840000Y-97952000D01*
X41600000Y-99095000D02*
X31700000Y-99095000D01*
X34620000Y-96040000D02*
X34620000Y-97310000D01*
X38680000Y-96230000D02*
X37326667Y-96230000D01*
X41840000Y-99335000D02*
X40456000Y-99335000D01*
%TO.C,R21*%
X52353641Y-70330000D02*
X52046359Y-70330000D01*
X52353641Y-69570000D02*
X52046359Y-69570000D01*
%TO.C,C18*%
X44160000Y-95382836D02*
X44160000Y-95167164D01*
X43440000Y-95382836D02*
X43440000Y-95167164D01*
%TO.C,C31*%
X68759420Y-73635000D02*
X69040580Y-73635000D01*
X68759420Y-72615000D02*
X69040580Y-72615000D01*
%TO.C,L2*%
X52900000Y-72022936D02*
X52900000Y-76127064D01*
X48300000Y-72022936D02*
X48300000Y-76127064D01*
%TO.C,R23*%
X62680000Y-66971359D02*
X62680000Y-67278641D01*
X61920000Y-66971359D02*
X61920000Y-67278641D01*
%TO.C,Q6*%
X51200000Y-52365000D02*
X51850000Y-52365000D01*
X51200000Y-55485000D02*
X51850000Y-55485000D01*
X51200000Y-52365000D02*
X49525000Y-52365000D01*
X51200000Y-55485000D02*
X50550000Y-55485000D01*
%TO.C,C21*%
X52042164Y-67810000D02*
X52257836Y-67810000D01*
X52042164Y-67090000D02*
X52257836Y-67090000D01*
%TD*%
M02*
