%TF.GenerationSoftware,KiCad,Pcbnew,(6.0.7)*%
%TF.CreationDate,2022-08-29T18:43:20+02:00*%
%TF.ProjectId,UNIclicker,554e4963-6c69-4636-9b65-722e6b696361,rev?*%
%TF.SameCoordinates,Original*%
%TF.FileFunction,Legend,Bot*%
%TF.FilePolarity,Positive*%
%FSLAX46Y46*%
G04 Gerber Fmt 4.6, Leading zero omitted, Abs format (unit mm)*
G04 Created by KiCad (PCBNEW (6.0.7)) date 2022-08-29 18:43:20*
%MOMM*%
%LPD*%
G01*
G04 APERTURE LIST*
%ADD10C,0.150000*%
%ADD11C,0.300000*%
%ADD12C,0.100000*%
%ADD13C,0.120000*%
%ADD14C,0.420555*%
G04 APERTURE END LIST*
D10*
X20535714Y-37485714D02*
X20535714Y-38152380D01*
X20773809Y-37104761D02*
X21011904Y-37819047D01*
X20392857Y-37819047D01*
X20107142Y-37152380D02*
X19440476Y-37152380D01*
X19869047Y-38152380D01*
X95286904Y-40222619D02*
X95239285Y-40175000D01*
X95144047Y-40127380D01*
X94905952Y-40127380D01*
X94810714Y-40175000D01*
X94763095Y-40222619D01*
X94715476Y-40317857D01*
X94715476Y-40413095D01*
X94763095Y-40555952D01*
X95334523Y-41127380D01*
X94715476Y-41127380D01*
X94096428Y-40127380D02*
X94001190Y-40127380D01*
X93905952Y-40175000D01*
X93858333Y-40222619D01*
X93810714Y-40317857D01*
X93763095Y-40508333D01*
X93763095Y-40746428D01*
X93810714Y-40936904D01*
X93858333Y-41032142D01*
X93905952Y-41079761D01*
X94001190Y-41127380D01*
X94096428Y-41127380D01*
X94191666Y-41079761D01*
X94239285Y-41032142D01*
X94286904Y-40936904D01*
X94334523Y-40746428D01*
X94334523Y-40508333D01*
X94286904Y-40317857D01*
X94239285Y-40222619D01*
X94191666Y-40175000D01*
X94096428Y-40127380D01*
X68128571Y-75647619D02*
X68128571Y-76647619D01*
X68461904Y-75933333D01*
X68795238Y-76647619D01*
X68795238Y-75647619D01*
X69271428Y-75647619D02*
X69271428Y-76647619D01*
X69700000Y-75695238D02*
X69842857Y-75647619D01*
X70080952Y-75647619D01*
X70176190Y-75695238D01*
X70223809Y-75742857D01*
X70271428Y-75838095D01*
X70271428Y-75933333D01*
X70223809Y-76028571D01*
X70176190Y-76076190D01*
X70080952Y-76123809D01*
X69890476Y-76171428D01*
X69795238Y-76219047D01*
X69747619Y-76266666D01*
X69700000Y-76361904D01*
X69700000Y-76457142D01*
X69747619Y-76552380D01*
X69795238Y-76600000D01*
X69890476Y-76647619D01*
X70128571Y-76647619D01*
X70271428Y-76600000D01*
X70890476Y-76647619D02*
X71080952Y-76647619D01*
X71176190Y-76600000D01*
X71271428Y-76504761D01*
X71319047Y-76314285D01*
X71319047Y-75980952D01*
X71271428Y-75790476D01*
X71176190Y-75695238D01*
X71080952Y-75647619D01*
X70890476Y-75647619D01*
X70795238Y-75695238D01*
X70700000Y-75790476D01*
X70652380Y-75980952D01*
X70652380Y-76314285D01*
X70700000Y-76504761D01*
X70795238Y-76600000D01*
X70890476Y-76647619D01*
X46861904Y-28066666D02*
X46385714Y-28066666D01*
X46957142Y-28352380D02*
X46623809Y-27352380D01*
X46290476Y-28352380D01*
X45957142Y-28352380D02*
X45957142Y-27352380D01*
X45385714Y-28352380D01*
X45385714Y-27352380D01*
X87334523Y-75820238D02*
X87477380Y-75772619D01*
X87715476Y-75772619D01*
X87810714Y-75820238D01*
X87858333Y-75867857D01*
X87905952Y-75963095D01*
X87905952Y-76058333D01*
X87858333Y-76153571D01*
X87810714Y-76201190D01*
X87715476Y-76248809D01*
X87525000Y-76296428D01*
X87429761Y-76344047D01*
X87382142Y-76391666D01*
X87334523Y-76486904D01*
X87334523Y-76582142D01*
X87382142Y-76677380D01*
X87429761Y-76725000D01*
X87525000Y-76772619D01*
X87763095Y-76772619D01*
X87905952Y-76725000D01*
X88905952Y-75867857D02*
X88858333Y-75820238D01*
X88715476Y-75772619D01*
X88620238Y-75772619D01*
X88477380Y-75820238D01*
X88382142Y-75915476D01*
X88334523Y-76010714D01*
X88286904Y-76201190D01*
X88286904Y-76344047D01*
X88334523Y-76534523D01*
X88382142Y-76629761D01*
X88477380Y-76725000D01*
X88620238Y-76772619D01*
X88715476Y-76772619D01*
X88858333Y-76725000D01*
X88905952Y-76677380D01*
X89810714Y-75772619D02*
X89334523Y-75772619D01*
X89334523Y-76772619D01*
X21459523Y-77827380D02*
X20840476Y-77827380D01*
X21173809Y-78208333D01*
X21030952Y-78208333D01*
X20935714Y-78255952D01*
X20888095Y-78303571D01*
X20840476Y-78398809D01*
X20840476Y-78636904D01*
X20888095Y-78732142D01*
X20935714Y-78779761D01*
X21030952Y-78827380D01*
X21316666Y-78827380D01*
X21411904Y-78779761D01*
X21459523Y-78732142D01*
X19888095Y-78827380D02*
X20459523Y-78827380D01*
X20173809Y-78827380D02*
X20173809Y-77827380D01*
X20269047Y-77970238D01*
X20364285Y-78065476D01*
X20459523Y-78113095D01*
X69366666Y-33427380D02*
X69700000Y-32951190D01*
X69938095Y-33427380D02*
X69938095Y-32427380D01*
X69557142Y-32427380D01*
X69461904Y-32475000D01*
X69414285Y-32522619D01*
X69366666Y-32617857D01*
X69366666Y-32760714D01*
X69414285Y-32855952D01*
X69461904Y-32903571D01*
X69557142Y-32951190D01*
X69938095Y-32951190D01*
X69033333Y-32427380D02*
X68366666Y-33427380D01*
X68366666Y-32427380D02*
X69033333Y-33427380D01*
X44185714Y-73070238D02*
X44328571Y-73022619D01*
X44566666Y-73022619D01*
X44661904Y-73070238D01*
X44709523Y-73117857D01*
X44757142Y-73213095D01*
X44757142Y-73308333D01*
X44709523Y-73403571D01*
X44661904Y-73451190D01*
X44566666Y-73498809D01*
X44376190Y-73546428D01*
X44280952Y-73594047D01*
X44233333Y-73641666D01*
X44185714Y-73736904D01*
X44185714Y-73832142D01*
X44233333Y-73927380D01*
X44280952Y-73975000D01*
X44376190Y-74022619D01*
X44614285Y-74022619D01*
X44757142Y-73975000D01*
X45185714Y-73022619D02*
X45185714Y-74022619D01*
X45423809Y-74022619D01*
X45566666Y-73975000D01*
X45661904Y-73879761D01*
X45709523Y-73784523D01*
X45757142Y-73594047D01*
X45757142Y-73451190D01*
X45709523Y-73260714D01*
X45661904Y-73165476D01*
X45566666Y-73070238D01*
X45423809Y-73022619D01*
X45185714Y-73022619D01*
X46138095Y-73308333D02*
X46614285Y-73308333D01*
X46042857Y-73022619D02*
X46376190Y-74022619D01*
X46709523Y-73022619D01*
X25877380Y-82997619D02*
X25544047Y-83473809D01*
X25305952Y-82997619D02*
X25305952Y-83997619D01*
X25686904Y-83997619D01*
X25782142Y-83950000D01*
X25829761Y-83902380D01*
X25877380Y-83807142D01*
X25877380Y-83664285D01*
X25829761Y-83569047D01*
X25782142Y-83521428D01*
X25686904Y-83473809D01*
X25305952Y-83473809D01*
X26258333Y-83045238D02*
X26401190Y-82997619D01*
X26639285Y-82997619D01*
X26734523Y-83045238D01*
X26782142Y-83092857D01*
X26829761Y-83188095D01*
X26829761Y-83283333D01*
X26782142Y-83378571D01*
X26734523Y-83426190D01*
X26639285Y-83473809D01*
X26448809Y-83521428D01*
X26353571Y-83569047D01*
X26305952Y-83616666D01*
X26258333Y-83711904D01*
X26258333Y-83807142D01*
X26305952Y-83902380D01*
X26353571Y-83950000D01*
X26448809Y-83997619D01*
X26686904Y-83997619D01*
X26829761Y-83950000D01*
X27115476Y-83997619D02*
X27686904Y-83997619D01*
X27401190Y-82997619D02*
X27401190Y-83997619D01*
X25139285Y-78120238D02*
X25282142Y-78072619D01*
X25520238Y-78072619D01*
X25615476Y-78120238D01*
X25663095Y-78167857D01*
X25710714Y-78263095D01*
X25710714Y-78358333D01*
X25663095Y-78453571D01*
X25615476Y-78501190D01*
X25520238Y-78548809D01*
X25329761Y-78596428D01*
X25234523Y-78644047D01*
X25186904Y-78691666D01*
X25139285Y-78786904D01*
X25139285Y-78882142D01*
X25186904Y-78977380D01*
X25234523Y-79025000D01*
X25329761Y-79072619D01*
X25567857Y-79072619D01*
X25710714Y-79025000D01*
X26710714Y-78167857D02*
X26663095Y-78120238D01*
X26520238Y-78072619D01*
X26425000Y-78072619D01*
X26282142Y-78120238D01*
X26186904Y-78215476D01*
X26139285Y-78310714D01*
X26091666Y-78501190D01*
X26091666Y-78644047D01*
X26139285Y-78834523D01*
X26186904Y-78929761D01*
X26282142Y-79025000D01*
X26425000Y-79072619D01*
X26520238Y-79072619D01*
X26663095Y-79025000D01*
X26710714Y-78977380D01*
X27139285Y-78072619D02*
X27139285Y-79072619D01*
X27710714Y-78072619D02*
X27282142Y-78644047D01*
X27710714Y-79072619D02*
X27139285Y-78501190D01*
X21134523Y-59902380D02*
X20515476Y-59902380D01*
X20848809Y-60283333D01*
X20705952Y-60283333D01*
X20610714Y-60330952D01*
X20563095Y-60378571D01*
X20515476Y-60473809D01*
X20515476Y-60711904D01*
X20563095Y-60807142D01*
X20610714Y-60854761D01*
X20705952Y-60902380D01*
X20991666Y-60902380D01*
X21086904Y-60854761D01*
X21134523Y-60807142D01*
X19944047Y-60330952D02*
X20039285Y-60283333D01*
X20086904Y-60235714D01*
X20134523Y-60140476D01*
X20134523Y-60092857D01*
X20086904Y-59997619D01*
X20039285Y-59950000D01*
X19944047Y-59902380D01*
X19753571Y-59902380D01*
X19658333Y-59950000D01*
X19610714Y-59997619D01*
X19563095Y-60092857D01*
X19563095Y-60140476D01*
X19610714Y-60235714D01*
X19658333Y-60283333D01*
X19753571Y-60330952D01*
X19944047Y-60330952D01*
X20039285Y-60378571D01*
X20086904Y-60426190D01*
X20134523Y-60521428D01*
X20134523Y-60711904D01*
X20086904Y-60807142D01*
X20039285Y-60854761D01*
X19944047Y-60902380D01*
X19753571Y-60902380D01*
X19658333Y-60854761D01*
X19610714Y-60807142D01*
X19563095Y-60711904D01*
X19563095Y-60521428D01*
X19610714Y-60426190D01*
X19658333Y-60378571D01*
X19753571Y-60330952D01*
X25808333Y-80592857D02*
X25760714Y-80545238D01*
X25617857Y-80497619D01*
X25522619Y-80497619D01*
X25379761Y-80545238D01*
X25284523Y-80640476D01*
X25236904Y-80735714D01*
X25189285Y-80926190D01*
X25189285Y-81069047D01*
X25236904Y-81259523D01*
X25284523Y-81354761D01*
X25379761Y-81450000D01*
X25522619Y-81497619D01*
X25617857Y-81497619D01*
X25760714Y-81450000D01*
X25808333Y-81402380D01*
X26189285Y-80545238D02*
X26332142Y-80497619D01*
X26570238Y-80497619D01*
X26665476Y-80545238D01*
X26713095Y-80592857D01*
X26760714Y-80688095D01*
X26760714Y-80783333D01*
X26713095Y-80878571D01*
X26665476Y-80926190D01*
X26570238Y-80973809D01*
X26379761Y-81021428D01*
X26284523Y-81069047D01*
X26236904Y-81116666D01*
X26189285Y-81211904D01*
X26189285Y-81307142D01*
X26236904Y-81402380D01*
X26284523Y-81450000D01*
X26379761Y-81497619D01*
X26617857Y-81497619D01*
X26760714Y-81450000D01*
X21184523Y-64952380D02*
X20565476Y-64952380D01*
X20898809Y-65333333D01*
X20755952Y-65333333D01*
X20660714Y-65380952D01*
X20613095Y-65428571D01*
X20565476Y-65523809D01*
X20565476Y-65761904D01*
X20613095Y-65857142D01*
X20660714Y-65904761D01*
X20755952Y-65952380D01*
X21041666Y-65952380D01*
X21136904Y-65904761D01*
X21184523Y-65857142D01*
X19708333Y-64952380D02*
X19898809Y-64952380D01*
X19994047Y-65000000D01*
X20041666Y-65047619D01*
X20136904Y-65190476D01*
X20184523Y-65380952D01*
X20184523Y-65761904D01*
X20136904Y-65857142D01*
X20089285Y-65904761D01*
X19994047Y-65952380D01*
X19803571Y-65952380D01*
X19708333Y-65904761D01*
X19660714Y-65857142D01*
X19613095Y-65761904D01*
X19613095Y-65523809D01*
X19660714Y-65428571D01*
X19708333Y-65380952D01*
X19803571Y-65333333D01*
X19994047Y-65333333D01*
X20089285Y-65380952D01*
X20136904Y-65428571D01*
X20184523Y-65523809D01*
X95286904Y-27572619D02*
X95239285Y-27525000D01*
X95144047Y-27477380D01*
X94905952Y-27477380D01*
X94810714Y-27525000D01*
X94763095Y-27572619D01*
X94715476Y-27667857D01*
X94715476Y-27763095D01*
X94763095Y-27905952D01*
X95334523Y-28477380D01*
X94715476Y-28477380D01*
X93810714Y-27477380D02*
X94286904Y-27477380D01*
X94334523Y-27953571D01*
X94286904Y-27905952D01*
X94191666Y-27858333D01*
X93953571Y-27858333D01*
X93858333Y-27905952D01*
X93810714Y-27953571D01*
X93763095Y-28048809D01*
X93763095Y-28286904D01*
X93810714Y-28382142D01*
X93858333Y-28429761D01*
X93953571Y-28477380D01*
X94191666Y-28477380D01*
X94286904Y-28429761D01*
X94334523Y-28382142D01*
X68927380Y-83172619D02*
X68594047Y-83648809D01*
X68355952Y-83172619D02*
X68355952Y-84172619D01*
X68736904Y-84172619D01*
X68832142Y-84125000D01*
X68879761Y-84077380D01*
X68927380Y-83982142D01*
X68927380Y-83839285D01*
X68879761Y-83744047D01*
X68832142Y-83696428D01*
X68736904Y-83648809D01*
X68355952Y-83648809D01*
X69308333Y-83220238D02*
X69451190Y-83172619D01*
X69689285Y-83172619D01*
X69784523Y-83220238D01*
X69832142Y-83267857D01*
X69879761Y-83363095D01*
X69879761Y-83458333D01*
X69832142Y-83553571D01*
X69784523Y-83601190D01*
X69689285Y-83648809D01*
X69498809Y-83696428D01*
X69403571Y-83744047D01*
X69355952Y-83791666D01*
X69308333Y-83886904D01*
X69308333Y-83982142D01*
X69355952Y-84077380D01*
X69403571Y-84125000D01*
X69498809Y-84172619D01*
X69736904Y-84172619D01*
X69879761Y-84125000D01*
X70165476Y-84172619D02*
X70736904Y-84172619D01*
X70451190Y-83172619D02*
X70451190Y-84172619D01*
X87235714Y-73245238D02*
X87378571Y-73197619D01*
X87616666Y-73197619D01*
X87711904Y-73245238D01*
X87759523Y-73292857D01*
X87807142Y-73388095D01*
X87807142Y-73483333D01*
X87759523Y-73578571D01*
X87711904Y-73626190D01*
X87616666Y-73673809D01*
X87426190Y-73721428D01*
X87330952Y-73769047D01*
X87283333Y-73816666D01*
X87235714Y-73911904D01*
X87235714Y-74007142D01*
X87283333Y-74102380D01*
X87330952Y-74150000D01*
X87426190Y-74197619D01*
X87664285Y-74197619D01*
X87807142Y-74150000D01*
X88235714Y-73197619D02*
X88235714Y-74197619D01*
X88473809Y-74197619D01*
X88616666Y-74150000D01*
X88711904Y-74054761D01*
X88759523Y-73959523D01*
X88807142Y-73769047D01*
X88807142Y-73626190D01*
X88759523Y-73435714D01*
X88711904Y-73340476D01*
X88616666Y-73245238D01*
X88473809Y-73197619D01*
X88235714Y-73197619D01*
X89188095Y-73483333D02*
X89664285Y-73483333D01*
X89092857Y-73197619D02*
X89426190Y-74197619D01*
X89759523Y-73197619D01*
X47035714Y-35879761D02*
X46892857Y-35927380D01*
X46654761Y-35927380D01*
X46559523Y-35879761D01*
X46511904Y-35832142D01*
X46464285Y-35736904D01*
X46464285Y-35641666D01*
X46511904Y-35546428D01*
X46559523Y-35498809D01*
X46654761Y-35451190D01*
X46845238Y-35403571D01*
X46940476Y-35355952D01*
X46988095Y-35308333D01*
X47035714Y-35213095D01*
X47035714Y-35117857D01*
X46988095Y-35022619D01*
X46940476Y-34975000D01*
X46845238Y-34927380D01*
X46607142Y-34927380D01*
X46464285Y-34975000D01*
X45464285Y-35832142D02*
X45511904Y-35879761D01*
X45654761Y-35927380D01*
X45750000Y-35927380D01*
X45892857Y-35879761D01*
X45988095Y-35784523D01*
X46035714Y-35689285D01*
X46083333Y-35498809D01*
X46083333Y-35355952D01*
X46035714Y-35165476D01*
X45988095Y-35070238D01*
X45892857Y-34975000D01*
X45750000Y-34927380D01*
X45654761Y-34927380D01*
X45511904Y-34975000D01*
X45464285Y-35022619D01*
X45035714Y-35927380D02*
X45035714Y-34927380D01*
X44464285Y-35927380D02*
X44892857Y-35355952D01*
X44464285Y-34927380D02*
X45035714Y-35498809D01*
X25053571Y-72947619D02*
X25053571Y-73947619D01*
X25386904Y-73233333D01*
X25720238Y-73947619D01*
X25720238Y-72947619D01*
X26386904Y-73947619D02*
X26577380Y-73947619D01*
X26672619Y-73900000D01*
X26767857Y-73804761D01*
X26815476Y-73614285D01*
X26815476Y-73280952D01*
X26767857Y-73090476D01*
X26672619Y-72995238D01*
X26577380Y-72947619D01*
X26386904Y-72947619D01*
X26291666Y-72995238D01*
X26196428Y-73090476D01*
X26148809Y-73280952D01*
X26148809Y-73614285D01*
X26196428Y-73804761D01*
X26291666Y-73900000D01*
X26386904Y-73947619D01*
X27196428Y-72995238D02*
X27339285Y-72947619D01*
X27577380Y-72947619D01*
X27672619Y-72995238D01*
X27720238Y-73042857D01*
X27767857Y-73138095D01*
X27767857Y-73233333D01*
X27720238Y-73328571D01*
X27672619Y-73376190D01*
X27577380Y-73423809D01*
X27386904Y-73471428D01*
X27291666Y-73519047D01*
X27244047Y-73566666D01*
X27196428Y-73661904D01*
X27196428Y-73757142D01*
X27244047Y-73852380D01*
X27291666Y-73900000D01*
X27386904Y-73947619D01*
X27625000Y-73947619D01*
X27767857Y-73900000D01*
X28196428Y-72947619D02*
X28196428Y-73947619D01*
X20538095Y-24552380D02*
X21014285Y-24552380D01*
X21061904Y-25028571D01*
X21014285Y-24980952D01*
X20919047Y-24933333D01*
X20680952Y-24933333D01*
X20585714Y-24980952D01*
X20538095Y-25028571D01*
X20490476Y-25123809D01*
X20490476Y-25361904D01*
X20538095Y-25457142D01*
X20585714Y-25504761D01*
X20680952Y-25552380D01*
X20919047Y-25552380D01*
X21014285Y-25504761D01*
X21061904Y-25457142D01*
X20109523Y-24647619D02*
X20061904Y-24600000D01*
X19966666Y-24552380D01*
X19728571Y-24552380D01*
X19633333Y-24600000D01*
X19585714Y-24647619D01*
X19538095Y-24742857D01*
X19538095Y-24838095D01*
X19585714Y-24980952D01*
X20157142Y-25552380D01*
X19538095Y-25552380D01*
X26516666Y-33402380D02*
X26850000Y-32926190D01*
X27088095Y-33402380D02*
X27088095Y-32402380D01*
X26707142Y-32402380D01*
X26611904Y-32450000D01*
X26564285Y-32497619D01*
X26516666Y-32592857D01*
X26516666Y-32735714D01*
X26564285Y-32830952D01*
X26611904Y-32878571D01*
X26707142Y-32926190D01*
X27088095Y-32926190D01*
X26183333Y-32402380D02*
X25516666Y-33402380D01*
X25516666Y-32402380D02*
X26183333Y-33402380D01*
X60729761Y-17232142D02*
X60777380Y-17279761D01*
X60920238Y-17327380D01*
X61015476Y-17327380D01*
X61158333Y-17279761D01*
X61253571Y-17184523D01*
X61301190Y-17089285D01*
X61348809Y-16898809D01*
X61348809Y-16755952D01*
X61301190Y-16565476D01*
X61253571Y-16470238D01*
X61158333Y-16375000D01*
X61015476Y-16327380D01*
X60920238Y-16327380D01*
X60777380Y-16375000D01*
X60729761Y-16422619D01*
X60110714Y-16327380D02*
X59920238Y-16327380D01*
X59825000Y-16375000D01*
X59729761Y-16470238D01*
X59682142Y-16660714D01*
X59682142Y-16994047D01*
X59729761Y-17184523D01*
X59825000Y-17279761D01*
X59920238Y-17327380D01*
X60110714Y-17327380D01*
X60205952Y-17279761D01*
X60301190Y-17184523D01*
X60348809Y-16994047D01*
X60348809Y-16660714D01*
X60301190Y-16470238D01*
X60205952Y-16375000D01*
X60110714Y-16327380D01*
X59253571Y-17327380D02*
X59253571Y-16327380D01*
X59015476Y-16327380D01*
X58872619Y-16375000D01*
X58777380Y-16470238D01*
X58729761Y-16565476D01*
X58682142Y-16755952D01*
X58682142Y-16898809D01*
X58729761Y-17089285D01*
X58777380Y-17184523D01*
X58872619Y-17279761D01*
X59015476Y-17327380D01*
X59253571Y-17327380D01*
X58253571Y-16803571D02*
X57920238Y-16803571D01*
X57777380Y-17327380D02*
X58253571Y-17327380D01*
X58253571Y-16327380D01*
X57777380Y-16327380D01*
X56825000Y-16375000D02*
X56920238Y-16327380D01*
X57063095Y-16327380D01*
X57205952Y-16375000D01*
X57301190Y-16470238D01*
X57348809Y-16565476D01*
X57396428Y-16755952D01*
X57396428Y-16898809D01*
X57348809Y-17089285D01*
X57301190Y-17184523D01*
X57205952Y-17279761D01*
X57063095Y-17327380D01*
X56967857Y-17327380D01*
X56825000Y-17279761D01*
X56777380Y-17232142D01*
X56777380Y-16898809D01*
X56967857Y-16898809D01*
X55777380Y-17327380D02*
X56110714Y-16851190D01*
X56348809Y-17327380D02*
X56348809Y-16327380D01*
X55967857Y-16327380D01*
X55872619Y-16375000D01*
X55825000Y-16422619D01*
X55777380Y-16517857D01*
X55777380Y-16660714D01*
X55825000Y-16755952D01*
X55872619Y-16803571D01*
X55967857Y-16851190D01*
X56348809Y-16851190D01*
X55348809Y-17327380D02*
X55348809Y-16327380D01*
X54872619Y-17327380D02*
X54872619Y-16327380D01*
X54491666Y-16327380D01*
X54396428Y-16375000D01*
X54348809Y-16422619D01*
X54301190Y-16517857D01*
X54301190Y-16660714D01*
X54348809Y-16755952D01*
X54396428Y-16803571D01*
X54491666Y-16851190D01*
X54872619Y-16851190D01*
X27561904Y-45100000D02*
X27657142Y-45052380D01*
X27800000Y-45052380D01*
X27942857Y-45100000D01*
X28038095Y-45195238D01*
X28085714Y-45290476D01*
X28133333Y-45480952D01*
X28133333Y-45623809D01*
X28085714Y-45814285D01*
X28038095Y-45909523D01*
X27942857Y-46004761D01*
X27800000Y-46052380D01*
X27704761Y-46052380D01*
X27561904Y-46004761D01*
X27514285Y-45957142D01*
X27514285Y-45623809D01*
X27704761Y-45623809D01*
X27085714Y-46052380D02*
X27085714Y-45052380D01*
X26514285Y-46052380D01*
X26514285Y-45052380D01*
X26038095Y-46052380D02*
X26038095Y-45052380D01*
X25800000Y-45052380D01*
X25657142Y-45100000D01*
X25561904Y-45195238D01*
X25514285Y-45290476D01*
X25466666Y-45480952D01*
X25466666Y-45623809D01*
X25514285Y-45814285D01*
X25561904Y-45909523D01*
X25657142Y-46004761D01*
X25800000Y-46052380D01*
X26038095Y-46052380D01*
X95040476Y-69152380D02*
X94850000Y-69152380D01*
X94754761Y-69104761D01*
X94707142Y-69057142D01*
X94611904Y-68914285D01*
X94564285Y-68723809D01*
X94564285Y-68342857D01*
X94611904Y-68247619D01*
X94659523Y-68200000D01*
X94754761Y-68152380D01*
X94945238Y-68152380D01*
X95040476Y-68200000D01*
X95088095Y-68247619D01*
X95135714Y-68342857D01*
X95135714Y-68580952D01*
X95088095Y-68676190D01*
X95040476Y-68723809D01*
X94945238Y-68771428D01*
X94754761Y-68771428D01*
X94659523Y-68723809D01*
X94611904Y-68676190D01*
X94564285Y-68580952D01*
X70411904Y-45125000D02*
X70507142Y-45077380D01*
X70650000Y-45077380D01*
X70792857Y-45125000D01*
X70888095Y-45220238D01*
X70935714Y-45315476D01*
X70983333Y-45505952D01*
X70983333Y-45648809D01*
X70935714Y-45839285D01*
X70888095Y-45934523D01*
X70792857Y-46029761D01*
X70650000Y-46077380D01*
X70554761Y-46077380D01*
X70411904Y-46029761D01*
X70364285Y-45982142D01*
X70364285Y-45648809D01*
X70554761Y-45648809D01*
X69935714Y-46077380D02*
X69935714Y-45077380D01*
X69364285Y-46077380D01*
X69364285Y-45077380D01*
X68888095Y-46077380D02*
X68888095Y-45077380D01*
X68650000Y-45077380D01*
X68507142Y-45125000D01*
X68411904Y-45220238D01*
X68364285Y-45315476D01*
X68316666Y-45505952D01*
X68316666Y-45648809D01*
X68364285Y-45839285D01*
X68411904Y-45934523D01*
X68507142Y-46029761D01*
X68650000Y-46077380D01*
X68888095Y-46077380D01*
X95208333Y-73302380D02*
X94541666Y-73302380D01*
X94970238Y-74302380D01*
X95208333Y-83302380D02*
X94589285Y-83302380D01*
X94922619Y-83683333D01*
X94779761Y-83683333D01*
X94684523Y-83730952D01*
X94636904Y-83778571D01*
X94589285Y-83873809D01*
X94589285Y-84111904D01*
X94636904Y-84207142D01*
X94684523Y-84254761D01*
X94779761Y-84302380D01*
X95065476Y-84302380D01*
X95160714Y-84254761D01*
X95208333Y-84207142D01*
X58372619Y-19877380D02*
X58705952Y-19401190D01*
X58944047Y-19877380D02*
X58944047Y-18877380D01*
X58563095Y-18877380D01*
X58467857Y-18925000D01*
X58420238Y-18972619D01*
X58372619Y-19067857D01*
X58372619Y-19210714D01*
X58420238Y-19305952D01*
X58467857Y-19353571D01*
X58563095Y-19401190D01*
X58944047Y-19401190D01*
X57991666Y-19829761D02*
X57848809Y-19877380D01*
X57610714Y-19877380D01*
X57515476Y-19829761D01*
X57467857Y-19782142D01*
X57420238Y-19686904D01*
X57420238Y-19591666D01*
X57467857Y-19496428D01*
X57515476Y-19448809D01*
X57610714Y-19401190D01*
X57801190Y-19353571D01*
X57896428Y-19305952D01*
X57944047Y-19258333D01*
X57991666Y-19163095D01*
X57991666Y-19067857D01*
X57944047Y-18972619D01*
X57896428Y-18925000D01*
X57801190Y-18877380D01*
X57563095Y-18877380D01*
X57420238Y-18925000D01*
X57134523Y-18877380D02*
X56563095Y-18877380D01*
X56848809Y-19877380D02*
X56848809Y-18877380D01*
X94740476Y-53877380D02*
X95311904Y-53877380D01*
X95026190Y-53877380D02*
X95026190Y-52877380D01*
X95121428Y-53020238D01*
X95216666Y-53115476D01*
X95311904Y-53163095D01*
X93835714Y-52877380D02*
X94311904Y-52877380D01*
X94359523Y-53353571D01*
X94311904Y-53305952D01*
X94216666Y-53258333D01*
X93978571Y-53258333D01*
X93883333Y-53305952D01*
X93835714Y-53353571D01*
X93788095Y-53448809D01*
X93788095Y-53686904D01*
X93835714Y-53782142D01*
X93883333Y-53829761D01*
X93978571Y-53877380D01*
X94216666Y-53877380D01*
X94311904Y-53829761D01*
X94359523Y-53782142D01*
X21386904Y-88047619D02*
X21339285Y-88000000D01*
X21244047Y-87952380D01*
X21005952Y-87952380D01*
X20910714Y-88000000D01*
X20863095Y-88047619D01*
X20815476Y-88142857D01*
X20815476Y-88238095D01*
X20863095Y-88380952D01*
X21434523Y-88952380D01*
X20815476Y-88952380D01*
X20482142Y-87952380D02*
X19815476Y-87952380D01*
X20244047Y-88952380D01*
X87089285Y-70953571D02*
X87851190Y-70953571D01*
X87470238Y-70572619D02*
X87470238Y-71334523D01*
X88803571Y-71572619D02*
X88327380Y-71572619D01*
X88279761Y-71096428D01*
X88327380Y-71144047D01*
X88422619Y-71191666D01*
X88660714Y-71191666D01*
X88755952Y-71144047D01*
X88803571Y-71096428D01*
X88851190Y-71001190D01*
X88851190Y-70763095D01*
X88803571Y-70667857D01*
X88755952Y-70620238D01*
X88660714Y-70572619D01*
X88422619Y-70572619D01*
X88327380Y-70620238D01*
X88279761Y-70667857D01*
X89136904Y-71572619D02*
X89470238Y-70572619D01*
X89803571Y-71572619D01*
X47096428Y-38527380D02*
X47096428Y-37527380D01*
X46763095Y-38241666D01*
X46429761Y-37527380D01*
X46429761Y-38527380D01*
X45953571Y-38527380D02*
X45953571Y-37527380D01*
X45525000Y-38479761D02*
X45382142Y-38527380D01*
X45144047Y-38527380D01*
X45048809Y-38479761D01*
X45001190Y-38432142D01*
X44953571Y-38336904D01*
X44953571Y-38241666D01*
X45001190Y-38146428D01*
X45048809Y-38098809D01*
X45144047Y-38051190D01*
X45334523Y-38003571D01*
X45429761Y-37955952D01*
X45477380Y-37908333D01*
X45525000Y-37813095D01*
X45525000Y-37717857D01*
X45477380Y-37622619D01*
X45429761Y-37575000D01*
X45334523Y-37527380D01*
X45096428Y-37527380D01*
X44953571Y-37575000D01*
X44334523Y-37527380D02*
X44144047Y-37527380D01*
X44048809Y-37575000D01*
X43953571Y-37670238D01*
X43905952Y-37860714D01*
X43905952Y-38194047D01*
X43953571Y-38384523D01*
X44048809Y-38479761D01*
X44144047Y-38527380D01*
X44334523Y-38527380D01*
X44429761Y-38479761D01*
X44525000Y-38384523D01*
X44572619Y-38194047D01*
X44572619Y-37860714D01*
X44525000Y-37670238D01*
X44429761Y-37575000D01*
X44334523Y-37527380D01*
X68858333Y-80767857D02*
X68810714Y-80720238D01*
X68667857Y-80672619D01*
X68572619Y-80672619D01*
X68429761Y-80720238D01*
X68334523Y-80815476D01*
X68286904Y-80910714D01*
X68239285Y-81101190D01*
X68239285Y-81244047D01*
X68286904Y-81434523D01*
X68334523Y-81529761D01*
X68429761Y-81625000D01*
X68572619Y-81672619D01*
X68667857Y-81672619D01*
X68810714Y-81625000D01*
X68858333Y-81577380D01*
X69239285Y-80720238D02*
X69382142Y-80672619D01*
X69620238Y-80672619D01*
X69715476Y-80720238D01*
X69763095Y-80767857D01*
X69810714Y-80863095D01*
X69810714Y-80958333D01*
X69763095Y-81053571D01*
X69715476Y-81101190D01*
X69620238Y-81148809D01*
X69429761Y-81196428D01*
X69334523Y-81244047D01*
X69286904Y-81291666D01*
X69239285Y-81386904D01*
X69239285Y-81482142D01*
X69286904Y-81577380D01*
X69334523Y-81625000D01*
X69429761Y-81672619D01*
X69667857Y-81672619D01*
X69810714Y-81625000D01*
X20538095Y-26952380D02*
X21014285Y-26952380D01*
X21061904Y-27428571D01*
X21014285Y-27380952D01*
X20919047Y-27333333D01*
X20680952Y-27333333D01*
X20585714Y-27380952D01*
X20538095Y-27428571D01*
X20490476Y-27523809D01*
X20490476Y-27761904D01*
X20538095Y-27857142D01*
X20585714Y-27904761D01*
X20680952Y-27952380D01*
X20919047Y-27952380D01*
X21014285Y-27904761D01*
X21061904Y-27857142D01*
X19538095Y-27952380D02*
X20109523Y-27952380D01*
X19823809Y-27952380D02*
X19823809Y-26952380D01*
X19919047Y-27095238D01*
X20014285Y-27190476D01*
X20109523Y-27238095D01*
X27354761Y-30827380D02*
X27354761Y-29827380D01*
X26878571Y-30827380D02*
X26878571Y-29827380D01*
X26307142Y-30827380D01*
X26307142Y-29827380D01*
X25973809Y-29827380D02*
X25402380Y-29827380D01*
X25688095Y-30827380D02*
X25688095Y-29827380D01*
X95236904Y-30072619D02*
X95189285Y-30025000D01*
X95094047Y-29977380D01*
X94855952Y-29977380D01*
X94760714Y-30025000D01*
X94713095Y-30072619D01*
X94665476Y-30167857D01*
X94665476Y-30263095D01*
X94713095Y-30405952D01*
X95284523Y-30977380D01*
X94665476Y-30977380D01*
X93808333Y-30310714D02*
X93808333Y-30977380D01*
X94046428Y-29929761D02*
X94284523Y-30644047D01*
X93665476Y-30644047D01*
X20585714Y-42435714D02*
X20585714Y-43102380D01*
X20823809Y-42054761D02*
X21061904Y-42769047D01*
X20442857Y-42769047D01*
X19585714Y-42102380D02*
X20061904Y-42102380D01*
X20109523Y-42578571D01*
X20061904Y-42530952D01*
X19966666Y-42483333D01*
X19728571Y-42483333D01*
X19633333Y-42530952D01*
X19585714Y-42578571D01*
X19538095Y-42673809D01*
X19538095Y-42911904D01*
X19585714Y-43007142D01*
X19633333Y-43054761D01*
X19728571Y-43102380D01*
X19966666Y-43102380D01*
X20061904Y-43054761D01*
X20109523Y-43007142D01*
X95236904Y-35147619D02*
X95189285Y-35100000D01*
X95094047Y-35052380D01*
X94855952Y-35052380D01*
X94760714Y-35100000D01*
X94713095Y-35147619D01*
X94665476Y-35242857D01*
X94665476Y-35338095D01*
X94713095Y-35480952D01*
X95284523Y-36052380D01*
X94665476Y-36052380D01*
X94284523Y-35147619D02*
X94236904Y-35100000D01*
X94141666Y-35052380D01*
X93903571Y-35052380D01*
X93808333Y-35100000D01*
X93760714Y-35147619D01*
X93713095Y-35242857D01*
X93713095Y-35338095D01*
X93760714Y-35480952D01*
X94332142Y-36052380D01*
X93713095Y-36052380D01*
X89216666Y-33432142D02*
X89264285Y-33479761D01*
X89407142Y-33527380D01*
X89502380Y-33527380D01*
X89645238Y-33479761D01*
X89740476Y-33384523D01*
X89788095Y-33289285D01*
X89835714Y-33098809D01*
X89835714Y-32955952D01*
X89788095Y-32765476D01*
X89740476Y-32670238D01*
X89645238Y-32575000D01*
X89502380Y-32527380D01*
X89407142Y-32527380D01*
X89264285Y-32575000D01*
X89216666Y-32622619D01*
X88835714Y-33479761D02*
X88692857Y-33527380D01*
X88454761Y-33527380D01*
X88359523Y-33479761D01*
X88311904Y-33432142D01*
X88264285Y-33336904D01*
X88264285Y-33241666D01*
X88311904Y-33146428D01*
X88359523Y-33098809D01*
X88454761Y-33051190D01*
X88645238Y-33003571D01*
X88740476Y-32955952D01*
X88788095Y-32908333D01*
X88835714Y-32813095D01*
X88835714Y-32717857D01*
X88788095Y-32622619D01*
X88740476Y-32575000D01*
X88645238Y-32527380D01*
X88407142Y-32527380D01*
X88264285Y-32575000D01*
X95286904Y-25172619D02*
X95239285Y-25125000D01*
X95144047Y-25077380D01*
X94905952Y-25077380D01*
X94810714Y-25125000D01*
X94763095Y-25172619D01*
X94715476Y-25267857D01*
X94715476Y-25363095D01*
X94763095Y-25505952D01*
X95334523Y-26077380D01*
X94715476Y-26077380D01*
X93858333Y-25077380D02*
X94048809Y-25077380D01*
X94144047Y-25125000D01*
X94191666Y-25172619D01*
X94286904Y-25315476D01*
X94334523Y-25505952D01*
X94334523Y-25886904D01*
X94286904Y-25982142D01*
X94239285Y-26029761D01*
X94144047Y-26077380D01*
X93953571Y-26077380D01*
X93858333Y-26029761D01*
X93810714Y-25982142D01*
X93763095Y-25886904D01*
X93763095Y-25648809D01*
X93810714Y-25553571D01*
X93858333Y-25505952D01*
X93953571Y-25458333D01*
X94144047Y-25458333D01*
X94239285Y-25505952D01*
X94286904Y-25553571D01*
X94334523Y-25648809D01*
X20585714Y-39935714D02*
X20585714Y-40602380D01*
X20823809Y-39554761D02*
X21061904Y-40269047D01*
X20442857Y-40269047D01*
X19633333Y-39602380D02*
X19823809Y-39602380D01*
X19919047Y-39650000D01*
X19966666Y-39697619D01*
X20061904Y-39840476D01*
X20109523Y-40030952D01*
X20109523Y-40411904D01*
X20061904Y-40507142D01*
X20014285Y-40554761D01*
X19919047Y-40602380D01*
X19728571Y-40602380D01*
X19633333Y-40554761D01*
X19585714Y-40507142D01*
X19538095Y-40411904D01*
X19538095Y-40173809D01*
X19585714Y-40078571D01*
X19633333Y-40030952D01*
X19728571Y-39983333D01*
X19919047Y-39983333D01*
X20014285Y-40030952D01*
X20061904Y-40078571D01*
X20109523Y-40173809D01*
X44613095Y-68900000D02*
X44517857Y-68947619D01*
X44375000Y-68947619D01*
X44232142Y-68900000D01*
X44136904Y-68804761D01*
X44089285Y-68709523D01*
X44041666Y-68519047D01*
X44041666Y-68376190D01*
X44089285Y-68185714D01*
X44136904Y-68090476D01*
X44232142Y-67995238D01*
X44375000Y-67947619D01*
X44470238Y-67947619D01*
X44613095Y-67995238D01*
X44660714Y-68042857D01*
X44660714Y-68376190D01*
X44470238Y-68376190D01*
X45089285Y-67947619D02*
X45089285Y-68947619D01*
X45660714Y-67947619D01*
X45660714Y-68947619D01*
X46136904Y-67947619D02*
X46136904Y-68947619D01*
X46375000Y-68947619D01*
X46517857Y-68900000D01*
X46613095Y-68804761D01*
X46660714Y-68709523D01*
X46708333Y-68519047D01*
X46708333Y-68376190D01*
X46660714Y-68185714D01*
X46613095Y-68090476D01*
X46517857Y-67995238D01*
X46375000Y-67947619D01*
X46136904Y-67947619D01*
D11*
X60120238Y-54869761D02*
X60120238Y-56488809D01*
X60025000Y-56679285D01*
X59929761Y-56774523D01*
X59739285Y-56869761D01*
X59358333Y-56869761D01*
X59167857Y-56774523D01*
X59072619Y-56679285D01*
X58977380Y-56488809D01*
X58977380Y-54869761D01*
X58025000Y-56869761D02*
X58025000Y-54869761D01*
X56882142Y-56869761D01*
X56882142Y-54869761D01*
X55929761Y-56869761D02*
X55929761Y-54869761D01*
X62596428Y-59899285D02*
X62691666Y-59994523D01*
X62977380Y-60089761D01*
X63167857Y-60089761D01*
X63453571Y-59994523D01*
X63644047Y-59804047D01*
X63739285Y-59613571D01*
X63834523Y-59232619D01*
X63834523Y-58946904D01*
X63739285Y-58565952D01*
X63644047Y-58375476D01*
X63453571Y-58185000D01*
X63167857Y-58089761D01*
X62977380Y-58089761D01*
X62691666Y-58185000D01*
X62596428Y-58280238D01*
X60786904Y-60089761D02*
X61739285Y-60089761D01*
X61739285Y-58089761D01*
X60120238Y-60089761D02*
X60120238Y-58089761D01*
X58025000Y-59899285D02*
X58120238Y-59994523D01*
X58405952Y-60089761D01*
X58596428Y-60089761D01*
X58882142Y-59994523D01*
X59072619Y-59804047D01*
X59167857Y-59613571D01*
X59263095Y-59232619D01*
X59263095Y-58946904D01*
X59167857Y-58565952D01*
X59072619Y-58375476D01*
X58882142Y-58185000D01*
X58596428Y-58089761D01*
X58405952Y-58089761D01*
X58120238Y-58185000D01*
X58025000Y-58280238D01*
X57167857Y-60089761D02*
X57167857Y-58089761D01*
X56025000Y-60089761D02*
X56882142Y-58946904D01*
X56025000Y-58089761D02*
X57167857Y-59232619D01*
X55167857Y-59042142D02*
X54501190Y-59042142D01*
X54215476Y-60089761D02*
X55167857Y-60089761D01*
X55167857Y-58089761D01*
X54215476Y-58089761D01*
X52215476Y-60089761D02*
X52882142Y-59137380D01*
X53358333Y-60089761D02*
X53358333Y-58089761D01*
X52596428Y-58089761D01*
X52405952Y-58185000D01*
X52310714Y-58280238D01*
X52215476Y-58470714D01*
X52215476Y-58756428D01*
X52310714Y-58946904D01*
X52405952Y-59042142D01*
X52596428Y-59137380D01*
X53358333Y-59137380D01*
D10*
X68189285Y-78295238D02*
X68332142Y-78247619D01*
X68570238Y-78247619D01*
X68665476Y-78295238D01*
X68713095Y-78342857D01*
X68760714Y-78438095D01*
X68760714Y-78533333D01*
X68713095Y-78628571D01*
X68665476Y-78676190D01*
X68570238Y-78723809D01*
X68379761Y-78771428D01*
X68284523Y-78819047D01*
X68236904Y-78866666D01*
X68189285Y-78961904D01*
X68189285Y-79057142D01*
X68236904Y-79152380D01*
X68284523Y-79200000D01*
X68379761Y-79247619D01*
X68617857Y-79247619D01*
X68760714Y-79200000D01*
X69760714Y-78342857D02*
X69713095Y-78295238D01*
X69570238Y-78247619D01*
X69475000Y-78247619D01*
X69332142Y-78295238D01*
X69236904Y-78390476D01*
X69189285Y-78485714D01*
X69141666Y-78676190D01*
X69141666Y-78819047D01*
X69189285Y-79009523D01*
X69236904Y-79104761D01*
X69332142Y-79200000D01*
X69475000Y-79247619D01*
X69570238Y-79247619D01*
X69713095Y-79200000D01*
X69760714Y-79152380D01*
X70189285Y-78247619D02*
X70189285Y-79247619D01*
X70760714Y-78247619D02*
X70332142Y-78819047D01*
X70760714Y-79247619D02*
X70189285Y-78676190D01*
X20610714Y-52685714D02*
X20610714Y-53352380D01*
X20848809Y-52304761D02*
X21086904Y-53019047D01*
X20467857Y-53019047D01*
X19563095Y-53352380D02*
X20134523Y-53352380D01*
X19848809Y-53352380D02*
X19848809Y-52352380D01*
X19944047Y-52495238D01*
X20039285Y-52590476D01*
X20134523Y-52638095D01*
X89461904Y-45200000D02*
X89557142Y-45152380D01*
X89700000Y-45152380D01*
X89842857Y-45200000D01*
X89938095Y-45295238D01*
X89985714Y-45390476D01*
X90033333Y-45580952D01*
X90033333Y-45723809D01*
X89985714Y-45914285D01*
X89938095Y-46009523D01*
X89842857Y-46104761D01*
X89700000Y-46152380D01*
X89604761Y-46152380D01*
X89461904Y-46104761D01*
X89414285Y-46057142D01*
X89414285Y-45723809D01*
X89604761Y-45723809D01*
X88985714Y-46152380D02*
X88985714Y-45152380D01*
X88414285Y-46152380D01*
X88414285Y-45152380D01*
X87938095Y-46152380D02*
X87938095Y-45152380D01*
X87700000Y-45152380D01*
X87557142Y-45200000D01*
X87461904Y-45295238D01*
X87414285Y-45390476D01*
X87366666Y-45580952D01*
X87366666Y-45723809D01*
X87414285Y-45914285D01*
X87461904Y-46009523D01*
X87557142Y-46104761D01*
X87700000Y-46152380D01*
X87938095Y-46152380D01*
X44284523Y-75645238D02*
X44427380Y-75597619D01*
X44665476Y-75597619D01*
X44760714Y-75645238D01*
X44808333Y-75692857D01*
X44855952Y-75788095D01*
X44855952Y-75883333D01*
X44808333Y-75978571D01*
X44760714Y-76026190D01*
X44665476Y-76073809D01*
X44475000Y-76121428D01*
X44379761Y-76169047D01*
X44332142Y-76216666D01*
X44284523Y-76311904D01*
X44284523Y-76407142D01*
X44332142Y-76502380D01*
X44379761Y-76550000D01*
X44475000Y-76597619D01*
X44713095Y-76597619D01*
X44855952Y-76550000D01*
X45855952Y-75692857D02*
X45808333Y-75645238D01*
X45665476Y-75597619D01*
X45570238Y-75597619D01*
X45427380Y-75645238D01*
X45332142Y-75740476D01*
X45284523Y-75835714D01*
X45236904Y-76026190D01*
X45236904Y-76169047D01*
X45284523Y-76359523D01*
X45332142Y-76454761D01*
X45427380Y-76550000D01*
X45570238Y-76597619D01*
X45665476Y-76597619D01*
X45808333Y-76550000D01*
X45855952Y-76502380D01*
X46760714Y-75597619D02*
X46284523Y-75597619D01*
X46284523Y-76597619D01*
X68363095Y-86108333D02*
X68839285Y-86108333D01*
X68267857Y-85822619D02*
X68601190Y-86822619D01*
X68934523Y-85822619D01*
X69267857Y-85822619D02*
X69267857Y-86822619D01*
X69839285Y-85822619D01*
X69839285Y-86822619D01*
X28135714Y-43221428D02*
X27373809Y-43221428D01*
X27754761Y-43602380D02*
X27754761Y-42840476D01*
X26421428Y-42602380D02*
X26897619Y-42602380D01*
X26945238Y-43078571D01*
X26897619Y-43030952D01*
X26802380Y-42983333D01*
X26564285Y-42983333D01*
X26469047Y-43030952D01*
X26421428Y-43078571D01*
X26373809Y-43173809D01*
X26373809Y-43411904D01*
X26421428Y-43507142D01*
X26469047Y-43554761D01*
X26564285Y-43602380D01*
X26802380Y-43602380D01*
X26897619Y-43554761D01*
X26945238Y-43507142D01*
X26088095Y-42602380D02*
X25754761Y-43602380D01*
X25421428Y-42602380D01*
X47121428Y-41052380D02*
X47121428Y-40052380D01*
X46788095Y-40766666D01*
X46454761Y-40052380D01*
X46454761Y-41052380D01*
X45788095Y-40052380D02*
X45597619Y-40052380D01*
X45502380Y-40100000D01*
X45407142Y-40195238D01*
X45359523Y-40385714D01*
X45359523Y-40719047D01*
X45407142Y-40909523D01*
X45502380Y-41004761D01*
X45597619Y-41052380D01*
X45788095Y-41052380D01*
X45883333Y-41004761D01*
X45978571Y-40909523D01*
X46026190Y-40719047D01*
X46026190Y-40385714D01*
X45978571Y-40195238D01*
X45883333Y-40100000D01*
X45788095Y-40052380D01*
X44978571Y-41004761D02*
X44835714Y-41052380D01*
X44597619Y-41052380D01*
X44502380Y-41004761D01*
X44454761Y-40957142D01*
X44407142Y-40861904D01*
X44407142Y-40766666D01*
X44454761Y-40671428D01*
X44502380Y-40623809D01*
X44597619Y-40576190D01*
X44788095Y-40528571D01*
X44883333Y-40480952D01*
X44930952Y-40433333D01*
X44978571Y-40338095D01*
X44978571Y-40242857D01*
X44930952Y-40147619D01*
X44883333Y-40100000D01*
X44788095Y-40052380D01*
X44550000Y-40052380D01*
X44407142Y-40100000D01*
X43978571Y-41052380D02*
X43978571Y-40052380D01*
X21459523Y-72777380D02*
X20840476Y-72777380D01*
X21173809Y-73158333D01*
X21030952Y-73158333D01*
X20935714Y-73205952D01*
X20888095Y-73253571D01*
X20840476Y-73348809D01*
X20840476Y-73586904D01*
X20888095Y-73682142D01*
X20935714Y-73729761D01*
X21030952Y-73777380D01*
X21316666Y-73777380D01*
X21411904Y-73729761D01*
X21459523Y-73682142D01*
X20507142Y-72777380D02*
X19888095Y-72777380D01*
X20221428Y-73158333D01*
X20078571Y-73158333D01*
X19983333Y-73205952D01*
X19935714Y-73253571D01*
X19888095Y-73348809D01*
X19888095Y-73586904D01*
X19935714Y-73682142D01*
X19983333Y-73729761D01*
X20078571Y-73777380D01*
X20364285Y-73777380D01*
X20459523Y-73729761D01*
X20507142Y-73682142D01*
X21159523Y-57352380D02*
X20540476Y-57352380D01*
X20873809Y-57733333D01*
X20730952Y-57733333D01*
X20635714Y-57780952D01*
X20588095Y-57828571D01*
X20540476Y-57923809D01*
X20540476Y-58161904D01*
X20588095Y-58257142D01*
X20635714Y-58304761D01*
X20730952Y-58352380D01*
X21016666Y-58352380D01*
X21111904Y-58304761D01*
X21159523Y-58257142D01*
X20064285Y-58352380D02*
X19873809Y-58352380D01*
X19778571Y-58304761D01*
X19730952Y-58257142D01*
X19635714Y-58114285D01*
X19588095Y-57923809D01*
X19588095Y-57542857D01*
X19635714Y-57447619D01*
X19683333Y-57400000D01*
X19778571Y-57352380D01*
X19969047Y-57352380D01*
X20064285Y-57400000D01*
X20111904Y-57447619D01*
X20159523Y-57542857D01*
X20159523Y-57780952D01*
X20111904Y-57876190D01*
X20064285Y-57923809D01*
X19969047Y-57971428D01*
X19778571Y-57971428D01*
X19683333Y-57923809D01*
X19635714Y-57876190D01*
X19588095Y-57780952D01*
X94740476Y-61427380D02*
X95311904Y-61427380D01*
X95026190Y-61427380D02*
X95026190Y-60427380D01*
X95121428Y-60570238D01*
X95216666Y-60665476D01*
X95311904Y-60713095D01*
X94359523Y-60522619D02*
X94311904Y-60475000D01*
X94216666Y-60427380D01*
X93978571Y-60427380D01*
X93883333Y-60475000D01*
X93835714Y-60522619D01*
X93788095Y-60617857D01*
X93788095Y-60713095D01*
X93835714Y-60855952D01*
X94407142Y-61427380D01*
X93788095Y-61427380D01*
X21159523Y-62402380D02*
X20540476Y-62402380D01*
X20873809Y-62783333D01*
X20730952Y-62783333D01*
X20635714Y-62830952D01*
X20588095Y-62878571D01*
X20540476Y-62973809D01*
X20540476Y-63211904D01*
X20588095Y-63307142D01*
X20635714Y-63354761D01*
X20730952Y-63402380D01*
X21016666Y-63402380D01*
X21111904Y-63354761D01*
X21159523Y-63307142D01*
X20207142Y-62402380D02*
X19540476Y-62402380D01*
X19969047Y-63402380D01*
X94740476Y-56402380D02*
X95311904Y-56402380D01*
X95026190Y-56402380D02*
X95026190Y-55402380D01*
X95121428Y-55545238D01*
X95216666Y-55640476D01*
X95311904Y-55688095D01*
X93883333Y-55735714D02*
X93883333Y-56402380D01*
X94121428Y-55354761D02*
X94359523Y-56069047D01*
X93740476Y-56069047D01*
X94684523Y-75752380D02*
X94875000Y-75752380D01*
X94970238Y-75800000D01*
X95017857Y-75847619D01*
X95113095Y-75990476D01*
X95160714Y-76180952D01*
X95160714Y-76561904D01*
X95113095Y-76657142D01*
X95065476Y-76704761D01*
X94970238Y-76752380D01*
X94779761Y-76752380D01*
X94684523Y-76704761D01*
X94636904Y-76657142D01*
X94589285Y-76561904D01*
X94589285Y-76323809D01*
X94636904Y-76228571D01*
X94684523Y-76180952D01*
X94779761Y-76133333D01*
X94970238Y-76133333D01*
X95065476Y-76180952D01*
X95113095Y-76228571D01*
X95160714Y-76323809D01*
X89946428Y-38552380D02*
X89946428Y-37552380D01*
X89613095Y-38266666D01*
X89279761Y-37552380D01*
X89279761Y-38552380D01*
X88803571Y-38552380D02*
X88803571Y-37552380D01*
X88375000Y-38504761D02*
X88232142Y-38552380D01*
X87994047Y-38552380D01*
X87898809Y-38504761D01*
X87851190Y-38457142D01*
X87803571Y-38361904D01*
X87803571Y-38266666D01*
X87851190Y-38171428D01*
X87898809Y-38123809D01*
X87994047Y-38076190D01*
X88184523Y-38028571D01*
X88279761Y-37980952D01*
X88327380Y-37933333D01*
X88375000Y-37838095D01*
X88375000Y-37742857D01*
X88327380Y-37647619D01*
X88279761Y-37600000D01*
X88184523Y-37552380D01*
X87946428Y-37552380D01*
X87803571Y-37600000D01*
X87184523Y-37552380D02*
X86994047Y-37552380D01*
X86898809Y-37600000D01*
X86803571Y-37695238D01*
X86755952Y-37885714D01*
X86755952Y-38219047D01*
X86803571Y-38409523D01*
X86898809Y-38504761D01*
X86994047Y-38552380D01*
X87184523Y-38552380D01*
X87279761Y-38504761D01*
X87375000Y-38409523D01*
X87422619Y-38219047D01*
X87422619Y-37885714D01*
X87375000Y-37695238D01*
X87279761Y-37600000D01*
X87184523Y-37552380D01*
X87020238Y-85822619D02*
X87020238Y-86822619D01*
X87401190Y-86822619D01*
X87496428Y-86775000D01*
X87544047Y-86727380D01*
X87591666Y-86632142D01*
X87591666Y-86489285D01*
X87544047Y-86394047D01*
X87496428Y-86346428D01*
X87401190Y-86298809D01*
X87020238Y-86298809D01*
X87925000Y-86822619D02*
X88163095Y-85822619D01*
X88353571Y-86536904D01*
X88544047Y-85822619D01*
X88782142Y-86822619D01*
X89163095Y-85822619D02*
X89163095Y-86822619D01*
X89496428Y-86108333D01*
X89829761Y-86822619D01*
X89829761Y-85822619D01*
X95236904Y-32597619D02*
X95189285Y-32550000D01*
X95094047Y-32502380D01*
X94855952Y-32502380D01*
X94760714Y-32550000D01*
X94713095Y-32597619D01*
X94665476Y-32692857D01*
X94665476Y-32788095D01*
X94713095Y-32930952D01*
X95284523Y-33502380D01*
X94665476Y-33502380D01*
X94332142Y-32502380D02*
X93713095Y-32502380D01*
X94046428Y-32883333D01*
X93903571Y-32883333D01*
X93808333Y-32930952D01*
X93760714Y-32978571D01*
X93713095Y-33073809D01*
X93713095Y-33311904D01*
X93760714Y-33407142D01*
X93808333Y-33454761D01*
X93903571Y-33502380D01*
X94189285Y-33502380D01*
X94284523Y-33454761D01*
X94332142Y-33407142D01*
D11*
X77558333Y-70070238D02*
X78796428Y-70070238D01*
X78129761Y-69308333D01*
X78415476Y-69308333D01*
X78605952Y-69213095D01*
X78701190Y-69117857D01*
X78796428Y-68927380D01*
X78796428Y-68451190D01*
X78701190Y-68260714D01*
X78605952Y-68165476D01*
X78415476Y-68070238D01*
X77844047Y-68070238D01*
X77653571Y-68165476D01*
X77558333Y-68260714D01*
D10*
X89711904Y-28091666D02*
X89235714Y-28091666D01*
X89807142Y-28377380D02*
X89473809Y-27377380D01*
X89140476Y-28377380D01*
X88807142Y-28377380D02*
X88807142Y-27377380D01*
X88235714Y-28377380D01*
X88235714Y-27377380D01*
X20635714Y-50085714D02*
X20635714Y-50752380D01*
X20873809Y-49704761D02*
X21111904Y-50419047D01*
X20492857Y-50419047D01*
X20159523Y-49847619D02*
X20111904Y-49800000D01*
X20016666Y-49752380D01*
X19778571Y-49752380D01*
X19683333Y-49800000D01*
X19635714Y-49847619D01*
X19588095Y-49942857D01*
X19588095Y-50038095D01*
X19635714Y-50180952D01*
X20207142Y-50752380D01*
X19588095Y-50752380D01*
X68103571Y-73122619D02*
X68103571Y-74122619D01*
X68436904Y-73408333D01*
X68770238Y-74122619D01*
X68770238Y-73122619D01*
X69436904Y-74122619D02*
X69627380Y-74122619D01*
X69722619Y-74075000D01*
X69817857Y-73979761D01*
X69865476Y-73789285D01*
X69865476Y-73455952D01*
X69817857Y-73265476D01*
X69722619Y-73170238D01*
X69627380Y-73122619D01*
X69436904Y-73122619D01*
X69341666Y-73170238D01*
X69246428Y-73265476D01*
X69198809Y-73455952D01*
X69198809Y-73789285D01*
X69246428Y-73979761D01*
X69341666Y-74075000D01*
X69436904Y-74122619D01*
X70246428Y-73170238D02*
X70389285Y-73122619D01*
X70627380Y-73122619D01*
X70722619Y-73170238D01*
X70770238Y-73217857D01*
X70817857Y-73313095D01*
X70817857Y-73408333D01*
X70770238Y-73503571D01*
X70722619Y-73551190D01*
X70627380Y-73598809D01*
X70436904Y-73646428D01*
X70341666Y-73694047D01*
X70294047Y-73741666D01*
X70246428Y-73836904D01*
X70246428Y-73932142D01*
X70294047Y-74027380D01*
X70341666Y-74075000D01*
X70436904Y-74122619D01*
X70675000Y-74122619D01*
X70817857Y-74075000D01*
X71246428Y-73122619D02*
X71246428Y-74122619D01*
X89885714Y-35904761D02*
X89742857Y-35952380D01*
X89504761Y-35952380D01*
X89409523Y-35904761D01*
X89361904Y-35857142D01*
X89314285Y-35761904D01*
X89314285Y-35666666D01*
X89361904Y-35571428D01*
X89409523Y-35523809D01*
X89504761Y-35476190D01*
X89695238Y-35428571D01*
X89790476Y-35380952D01*
X89838095Y-35333333D01*
X89885714Y-35238095D01*
X89885714Y-35142857D01*
X89838095Y-35047619D01*
X89790476Y-35000000D01*
X89695238Y-34952380D01*
X89457142Y-34952380D01*
X89314285Y-35000000D01*
X88314285Y-35857142D02*
X88361904Y-35904761D01*
X88504761Y-35952380D01*
X88600000Y-35952380D01*
X88742857Y-35904761D01*
X88838095Y-35809523D01*
X88885714Y-35714285D01*
X88933333Y-35523809D01*
X88933333Y-35380952D01*
X88885714Y-35190476D01*
X88838095Y-35095238D01*
X88742857Y-35000000D01*
X88600000Y-34952380D01*
X88504761Y-34952380D01*
X88361904Y-35000000D01*
X88314285Y-35047619D01*
X87885714Y-35952380D02*
X87885714Y-34952380D01*
X87314285Y-35952380D02*
X87742857Y-35380952D01*
X87314285Y-34952380D02*
X87885714Y-35523809D01*
X94564285Y-89477380D02*
X95135714Y-89477380D01*
X94850000Y-89477380D02*
X94850000Y-88477380D01*
X94945238Y-88620238D01*
X95040476Y-88715476D01*
X95135714Y-88763095D01*
X94740476Y-46127380D02*
X95311904Y-46127380D01*
X95026190Y-46127380D02*
X95026190Y-45127380D01*
X95121428Y-45270238D01*
X95216666Y-45365476D01*
X95311904Y-45413095D01*
X94169047Y-45555952D02*
X94264285Y-45508333D01*
X94311904Y-45460714D01*
X94359523Y-45365476D01*
X94359523Y-45317857D01*
X94311904Y-45222619D01*
X94264285Y-45175000D01*
X94169047Y-45127380D01*
X93978571Y-45127380D01*
X93883333Y-45175000D01*
X93835714Y-45222619D01*
X93788095Y-45317857D01*
X93788095Y-45365476D01*
X93835714Y-45460714D01*
X93883333Y-45508333D01*
X93978571Y-45555952D01*
X94169047Y-45555952D01*
X94264285Y-45603571D01*
X94311904Y-45651190D01*
X94359523Y-45746428D01*
X94359523Y-45936904D01*
X94311904Y-46032142D01*
X94264285Y-46079761D01*
X94169047Y-46127380D01*
X93978571Y-46127380D01*
X93883333Y-46079761D01*
X93835714Y-46032142D01*
X93788095Y-45936904D01*
X93788095Y-45746428D01*
X93835714Y-45651190D01*
X93883333Y-45603571D01*
X93978571Y-45555952D01*
X70985714Y-43246428D02*
X70223809Y-43246428D01*
X70604761Y-43627380D02*
X70604761Y-42865476D01*
X69271428Y-42627380D02*
X69747619Y-42627380D01*
X69795238Y-43103571D01*
X69747619Y-43055952D01*
X69652380Y-43008333D01*
X69414285Y-43008333D01*
X69319047Y-43055952D01*
X69271428Y-43103571D01*
X69223809Y-43198809D01*
X69223809Y-43436904D01*
X69271428Y-43532142D01*
X69319047Y-43579761D01*
X69414285Y-43627380D01*
X69652380Y-43627380D01*
X69747619Y-43579761D01*
X69795238Y-43532142D01*
X68938095Y-42627380D02*
X68604761Y-43627380D01*
X68271428Y-42627380D01*
X25313095Y-85933333D02*
X25789285Y-85933333D01*
X25217857Y-85647619D02*
X25551190Y-86647619D01*
X25884523Y-85647619D01*
X26217857Y-85647619D02*
X26217857Y-86647619D01*
X26789285Y-85647619D01*
X26789285Y-86647619D01*
X21411904Y-82872619D02*
X21364285Y-82825000D01*
X21269047Y-82777380D01*
X21030952Y-82777380D01*
X20935714Y-82825000D01*
X20888095Y-82872619D01*
X20840476Y-82967857D01*
X20840476Y-83063095D01*
X20888095Y-83205952D01*
X21459523Y-83777380D01*
X20840476Y-83777380D01*
X20364285Y-83777380D02*
X20173809Y-83777380D01*
X20078571Y-83729761D01*
X20030952Y-83682142D01*
X19935714Y-83539285D01*
X19888095Y-83348809D01*
X19888095Y-82967857D01*
X19935714Y-82872619D01*
X19983333Y-82825000D01*
X20078571Y-82777380D01*
X20269047Y-82777380D01*
X20364285Y-82825000D01*
X20411904Y-82872619D01*
X20459523Y-82967857D01*
X20459523Y-83205952D01*
X20411904Y-83301190D01*
X20364285Y-83348809D01*
X20269047Y-83396428D01*
X20078571Y-83396428D01*
X19983333Y-83348809D01*
X19935714Y-83301190D01*
X19888095Y-83205952D01*
X94970238Y-71080952D02*
X95065476Y-71033333D01*
X95113095Y-70985714D01*
X95160714Y-70890476D01*
X95160714Y-70842857D01*
X95113095Y-70747619D01*
X95065476Y-70700000D01*
X94970238Y-70652380D01*
X94779761Y-70652380D01*
X94684523Y-70700000D01*
X94636904Y-70747619D01*
X94589285Y-70842857D01*
X94589285Y-70890476D01*
X94636904Y-70985714D01*
X94684523Y-71033333D01*
X94779761Y-71080952D01*
X94970238Y-71080952D01*
X95065476Y-71128571D01*
X95113095Y-71176190D01*
X95160714Y-71271428D01*
X95160714Y-71461904D01*
X95113095Y-71557142D01*
X95065476Y-71604761D01*
X94970238Y-71652380D01*
X94779761Y-71652380D01*
X94684523Y-71604761D01*
X94636904Y-71557142D01*
X94589285Y-71461904D01*
X94589285Y-71271428D01*
X94636904Y-71176190D01*
X94684523Y-71128571D01*
X94779761Y-71080952D01*
X71054761Y-28377380D02*
X71054761Y-27377380D01*
X70673809Y-27377380D01*
X70578571Y-27425000D01*
X70530952Y-27472619D01*
X70483333Y-27567857D01*
X70483333Y-27710714D01*
X70530952Y-27805952D01*
X70578571Y-27853571D01*
X70673809Y-27901190D01*
X71054761Y-27901190D01*
X70150000Y-27377380D02*
X69911904Y-28377380D01*
X69721428Y-27663095D01*
X69530952Y-28377380D01*
X69292857Y-27377380D01*
X68911904Y-28377380D02*
X68911904Y-27377380D01*
X68578571Y-28091666D01*
X68245238Y-27377380D01*
X68245238Y-28377380D01*
X70204761Y-30852380D02*
X70204761Y-29852380D01*
X69728571Y-30852380D02*
X69728571Y-29852380D01*
X69157142Y-30852380D01*
X69157142Y-29852380D01*
X68823809Y-29852380D02*
X68252380Y-29852380D01*
X68538095Y-30852380D02*
X68538095Y-29852380D01*
X20535714Y-32310714D02*
X20535714Y-32977380D01*
X20773809Y-31929761D02*
X21011904Y-32644047D01*
X20392857Y-32644047D01*
X19964285Y-32977380D02*
X19773809Y-32977380D01*
X19678571Y-32929761D01*
X19630952Y-32882142D01*
X19535714Y-32739285D01*
X19488095Y-32548809D01*
X19488095Y-32167857D01*
X19535714Y-32072619D01*
X19583333Y-32025000D01*
X19678571Y-31977380D01*
X19869047Y-31977380D01*
X19964285Y-32025000D01*
X20011904Y-32072619D01*
X20059523Y-32167857D01*
X20059523Y-32405952D01*
X20011904Y-32501190D01*
X19964285Y-32548809D01*
X19869047Y-32596428D01*
X19678571Y-32596428D01*
X19583333Y-32548809D01*
X19535714Y-32501190D01*
X19488095Y-32405952D01*
X88238095Y-79272619D02*
X88809523Y-79272619D01*
X88523809Y-78272619D02*
X88523809Y-79272619D01*
X89047619Y-79272619D02*
X89714285Y-78272619D01*
X89714285Y-79272619D02*
X89047619Y-78272619D01*
D11*
X79278571Y-46029761D02*
X80421428Y-46029761D01*
X79850000Y-46029761D02*
X79850000Y-44029761D01*
X80040476Y-44315476D01*
X80230952Y-44505952D01*
X80421428Y-44601190D01*
D10*
X88708333Y-80772619D02*
X88375000Y-81248809D01*
X88136904Y-80772619D02*
X88136904Y-81772619D01*
X88517857Y-81772619D01*
X88613095Y-81725000D01*
X88660714Y-81677380D01*
X88708333Y-81582142D01*
X88708333Y-81439285D01*
X88660714Y-81344047D01*
X88613095Y-81296428D01*
X88517857Y-81248809D01*
X88136904Y-81248809D01*
X89041666Y-81772619D02*
X89708333Y-80772619D01*
X89708333Y-81772619D02*
X89041666Y-80772619D01*
X20610714Y-44935714D02*
X20610714Y-45602380D01*
X20848809Y-44554761D02*
X21086904Y-45269047D01*
X20467857Y-45269047D01*
X19658333Y-44935714D02*
X19658333Y-45602380D01*
X19896428Y-44554761D02*
X20134523Y-45269047D01*
X19515476Y-45269047D01*
X68000000Y-71078571D02*
X68761904Y-71078571D01*
X68380952Y-70697619D02*
X68380952Y-71459523D01*
X69142857Y-71697619D02*
X69761904Y-71697619D01*
X69428571Y-71316666D01*
X69571428Y-71316666D01*
X69666666Y-71269047D01*
X69714285Y-71221428D01*
X69761904Y-71126190D01*
X69761904Y-70888095D01*
X69714285Y-70792857D01*
X69666666Y-70745238D01*
X69571428Y-70697619D01*
X69285714Y-70697619D01*
X69190476Y-70745238D01*
X69142857Y-70792857D01*
X70190476Y-70792857D02*
X70238095Y-70745238D01*
X70190476Y-70697619D01*
X70142857Y-70745238D01*
X70190476Y-70792857D01*
X70190476Y-70697619D01*
X70571428Y-71697619D02*
X71190476Y-71697619D01*
X70857142Y-71316666D01*
X71000000Y-71316666D01*
X71095238Y-71269047D01*
X71142857Y-71221428D01*
X71190476Y-71126190D01*
X71190476Y-70888095D01*
X71142857Y-70792857D01*
X71095238Y-70745238D01*
X71000000Y-70697619D01*
X70714285Y-70697619D01*
X70619047Y-70745238D01*
X70571428Y-70792857D01*
X71476190Y-71697619D02*
X71809523Y-70697619D01*
X72142857Y-71697619D01*
X21411904Y-85497619D02*
X21364285Y-85450000D01*
X21269047Y-85402380D01*
X21030952Y-85402380D01*
X20935714Y-85450000D01*
X20888095Y-85497619D01*
X20840476Y-85592857D01*
X20840476Y-85688095D01*
X20888095Y-85830952D01*
X21459523Y-86402380D01*
X20840476Y-86402380D01*
X20269047Y-85830952D02*
X20364285Y-85783333D01*
X20411904Y-85735714D01*
X20459523Y-85640476D01*
X20459523Y-85592857D01*
X20411904Y-85497619D01*
X20364285Y-85450000D01*
X20269047Y-85402380D01*
X20078571Y-85402380D01*
X19983333Y-85450000D01*
X19935714Y-85497619D01*
X19888095Y-85592857D01*
X19888095Y-85640476D01*
X19935714Y-85735714D01*
X19983333Y-85783333D01*
X20078571Y-85830952D01*
X20269047Y-85830952D01*
X20364285Y-85878571D01*
X20411904Y-85926190D01*
X20459523Y-86021428D01*
X20459523Y-86211904D01*
X20411904Y-86307142D01*
X20364285Y-86354761D01*
X20269047Y-86402380D01*
X20078571Y-86402380D01*
X19983333Y-86354761D01*
X19935714Y-86307142D01*
X19888095Y-86211904D01*
X19888095Y-86021428D01*
X19935714Y-85926190D01*
X19983333Y-85878571D01*
X20078571Y-85830952D01*
X20610714Y-47685714D02*
X20610714Y-48352380D01*
X20848809Y-47304761D02*
X21086904Y-48019047D01*
X20467857Y-48019047D01*
X20182142Y-47352380D02*
X19563095Y-47352380D01*
X19896428Y-47733333D01*
X19753571Y-47733333D01*
X19658333Y-47780952D01*
X19610714Y-47828571D01*
X19563095Y-47923809D01*
X19563095Y-48161904D01*
X19610714Y-48257142D01*
X19658333Y-48304761D01*
X19753571Y-48352380D01*
X20039285Y-48352380D01*
X20134523Y-48304761D01*
X20182142Y-48257142D01*
X27890476Y-38354761D02*
X27747619Y-38402380D01*
X27509523Y-38402380D01*
X27414285Y-38354761D01*
X27366666Y-38307142D01*
X27319047Y-38211904D01*
X27319047Y-38116666D01*
X27366666Y-38021428D01*
X27414285Y-37973809D01*
X27509523Y-37926190D01*
X27700000Y-37878571D01*
X27795238Y-37830952D01*
X27842857Y-37783333D01*
X27890476Y-37688095D01*
X27890476Y-37592857D01*
X27842857Y-37497619D01*
X27795238Y-37450000D01*
X27700000Y-37402380D01*
X27461904Y-37402380D01*
X27319047Y-37450000D01*
X26319047Y-38307142D02*
X26366666Y-38354761D01*
X26509523Y-38402380D01*
X26604761Y-38402380D01*
X26747619Y-38354761D01*
X26842857Y-38259523D01*
X26890476Y-38164285D01*
X26938095Y-37973809D01*
X26938095Y-37830952D01*
X26890476Y-37640476D01*
X26842857Y-37545238D01*
X26747619Y-37450000D01*
X26604761Y-37402380D01*
X26509523Y-37402380D01*
X26366666Y-37450000D01*
X26319047Y-37497619D01*
X25414285Y-38402380D02*
X25890476Y-38402380D01*
X25890476Y-37402380D01*
X94715476Y-43627380D02*
X95286904Y-43627380D01*
X95001190Y-43627380D02*
X95001190Y-42627380D01*
X95096428Y-42770238D01*
X95191666Y-42865476D01*
X95286904Y-42913095D01*
X94239285Y-43627380D02*
X94048809Y-43627380D01*
X93953571Y-43579761D01*
X93905952Y-43532142D01*
X93810714Y-43389285D01*
X93763095Y-43198809D01*
X93763095Y-42817857D01*
X93810714Y-42722619D01*
X93858333Y-42675000D01*
X93953571Y-42627380D01*
X94144047Y-42627380D01*
X94239285Y-42675000D01*
X94286904Y-42722619D01*
X94334523Y-42817857D01*
X94334523Y-43055952D01*
X94286904Y-43151190D01*
X94239285Y-43198809D01*
X94144047Y-43246428D01*
X93953571Y-43246428D01*
X93858333Y-43198809D01*
X93810714Y-43151190D01*
X93763095Y-43055952D01*
X21459523Y-75227380D02*
X20840476Y-75227380D01*
X21173809Y-75608333D01*
X21030952Y-75608333D01*
X20935714Y-75655952D01*
X20888095Y-75703571D01*
X20840476Y-75798809D01*
X20840476Y-76036904D01*
X20888095Y-76132142D01*
X20935714Y-76179761D01*
X21030952Y-76227380D01*
X21316666Y-76227380D01*
X21411904Y-76179761D01*
X21459523Y-76132142D01*
X20459523Y-75322619D02*
X20411904Y-75275000D01*
X20316666Y-75227380D01*
X20078571Y-75227380D01*
X19983333Y-75275000D01*
X19935714Y-75322619D01*
X19888095Y-75417857D01*
X19888095Y-75513095D01*
X19935714Y-75655952D01*
X20507142Y-76227380D01*
X19888095Y-76227380D01*
X45658333Y-80597619D02*
X45325000Y-81073809D01*
X45086904Y-80597619D02*
X45086904Y-81597619D01*
X45467857Y-81597619D01*
X45563095Y-81550000D01*
X45610714Y-81502380D01*
X45658333Y-81407142D01*
X45658333Y-81264285D01*
X45610714Y-81169047D01*
X45563095Y-81121428D01*
X45467857Y-81073809D01*
X45086904Y-81073809D01*
X45991666Y-81597619D02*
X46658333Y-80597619D01*
X46658333Y-81597619D02*
X45991666Y-80597619D01*
X94709523Y-81135714D02*
X94709523Y-81802380D01*
X94947619Y-80754761D02*
X95185714Y-81469047D01*
X94566666Y-81469047D01*
X43970238Y-85647619D02*
X43970238Y-86647619D01*
X44351190Y-86647619D01*
X44446428Y-86600000D01*
X44494047Y-86552380D01*
X44541666Y-86457142D01*
X44541666Y-86314285D01*
X44494047Y-86219047D01*
X44446428Y-86171428D01*
X44351190Y-86123809D01*
X43970238Y-86123809D01*
X44875000Y-86647619D02*
X45113095Y-85647619D01*
X45303571Y-86361904D01*
X45494047Y-85647619D01*
X45732142Y-86647619D01*
X46113095Y-85647619D02*
X46113095Y-86647619D01*
X46446428Y-85933333D01*
X46779761Y-86647619D01*
X46779761Y-85647619D01*
X87870238Y-83347619D02*
X87870238Y-84347619D01*
X88346428Y-83347619D02*
X88346428Y-84347619D01*
X88917857Y-83347619D01*
X88917857Y-84347619D01*
X89251190Y-84347619D02*
X89822619Y-84347619D01*
X89536904Y-83347619D02*
X89536904Y-84347619D01*
X70740476Y-38379761D02*
X70597619Y-38427380D01*
X70359523Y-38427380D01*
X70264285Y-38379761D01*
X70216666Y-38332142D01*
X70169047Y-38236904D01*
X70169047Y-38141666D01*
X70216666Y-38046428D01*
X70264285Y-37998809D01*
X70359523Y-37951190D01*
X70550000Y-37903571D01*
X70645238Y-37855952D01*
X70692857Y-37808333D01*
X70740476Y-37713095D01*
X70740476Y-37617857D01*
X70692857Y-37522619D01*
X70645238Y-37475000D01*
X70550000Y-37427380D01*
X70311904Y-37427380D01*
X70169047Y-37475000D01*
X69169047Y-38332142D02*
X69216666Y-38379761D01*
X69359523Y-38427380D01*
X69454761Y-38427380D01*
X69597619Y-38379761D01*
X69692857Y-38284523D01*
X69740476Y-38189285D01*
X69788095Y-37998809D01*
X69788095Y-37855952D01*
X69740476Y-37665476D01*
X69692857Y-37570238D01*
X69597619Y-37475000D01*
X69454761Y-37427380D01*
X69359523Y-37427380D01*
X69216666Y-37475000D01*
X69169047Y-37522619D01*
X68264285Y-38427380D02*
X68740476Y-38427380D01*
X68740476Y-37427380D01*
X94636904Y-78352380D02*
X95113095Y-78352380D01*
X95160714Y-78828571D01*
X95113095Y-78780952D01*
X95017857Y-78733333D01*
X94779761Y-78733333D01*
X94684523Y-78780952D01*
X94636904Y-78828571D01*
X94589285Y-78923809D01*
X94589285Y-79161904D01*
X94636904Y-79257142D01*
X94684523Y-79304761D01*
X94779761Y-79352380D01*
X95017857Y-79352380D01*
X95113095Y-79304761D01*
X95160714Y-79257142D01*
X89147619Y-31027380D02*
X89480952Y-30551190D01*
X89719047Y-31027380D02*
X89719047Y-30027380D01*
X89338095Y-30027380D01*
X89242857Y-30075000D01*
X89195238Y-30122619D01*
X89147619Y-30217857D01*
X89147619Y-30360714D01*
X89195238Y-30455952D01*
X89242857Y-30503571D01*
X89338095Y-30551190D01*
X89719047Y-30551190D01*
X88766666Y-30979761D02*
X88623809Y-31027380D01*
X88385714Y-31027380D01*
X88290476Y-30979761D01*
X88242857Y-30932142D01*
X88195238Y-30836904D01*
X88195238Y-30741666D01*
X88242857Y-30646428D01*
X88290476Y-30598809D01*
X88385714Y-30551190D01*
X88576190Y-30503571D01*
X88671428Y-30455952D01*
X88719047Y-30408333D01*
X88766666Y-30313095D01*
X88766666Y-30217857D01*
X88719047Y-30122619D01*
X88671428Y-30075000D01*
X88576190Y-30027380D01*
X88338095Y-30027380D01*
X88195238Y-30075000D01*
X87909523Y-30027380D02*
X87338095Y-30027380D01*
X87623809Y-31027380D02*
X87623809Y-30027380D01*
X94765476Y-63927380D02*
X95336904Y-63927380D01*
X95051190Y-63927380D02*
X95051190Y-62927380D01*
X95146428Y-63070238D01*
X95241666Y-63165476D01*
X95336904Y-63213095D01*
X93813095Y-63927380D02*
X94384523Y-63927380D01*
X94098809Y-63927380D02*
X94098809Y-62927380D01*
X94194047Y-63070238D01*
X94289285Y-63165476D01*
X94384523Y-63213095D01*
X90075000Y-43121428D02*
X89313095Y-43121428D01*
X89694047Y-43502380D02*
X89694047Y-42740476D01*
X88932142Y-42502380D02*
X88313095Y-42502380D01*
X88646428Y-42883333D01*
X88503571Y-42883333D01*
X88408333Y-42930952D01*
X88360714Y-42978571D01*
X88313095Y-43073809D01*
X88313095Y-43311904D01*
X88360714Y-43407142D01*
X88408333Y-43454761D01*
X88503571Y-43502380D01*
X88789285Y-43502380D01*
X88884523Y-43454761D01*
X88932142Y-43407142D01*
X87884523Y-43407142D02*
X87836904Y-43454761D01*
X87884523Y-43502380D01*
X87932142Y-43454761D01*
X87884523Y-43407142D01*
X87884523Y-43502380D01*
X87503571Y-42502380D02*
X86884523Y-42502380D01*
X87217857Y-42883333D01*
X87075000Y-42883333D01*
X86979761Y-42930952D01*
X86932142Y-42978571D01*
X86884523Y-43073809D01*
X86884523Y-43311904D01*
X86932142Y-43407142D01*
X86979761Y-43454761D01*
X87075000Y-43502380D01*
X87360714Y-43502380D01*
X87455952Y-43454761D01*
X87503571Y-43407142D01*
X86598809Y-42502380D02*
X86265476Y-43502380D01*
X85932142Y-42502380D01*
X44820238Y-83172619D02*
X44820238Y-84172619D01*
X45296428Y-83172619D02*
X45296428Y-84172619D01*
X45867857Y-83172619D01*
X45867857Y-84172619D01*
X46201190Y-84172619D02*
X46772619Y-84172619D01*
X46486904Y-83172619D02*
X46486904Y-84172619D01*
X87663095Y-69075000D02*
X87567857Y-69122619D01*
X87425000Y-69122619D01*
X87282142Y-69075000D01*
X87186904Y-68979761D01*
X87139285Y-68884523D01*
X87091666Y-68694047D01*
X87091666Y-68551190D01*
X87139285Y-68360714D01*
X87186904Y-68265476D01*
X87282142Y-68170238D01*
X87425000Y-68122619D01*
X87520238Y-68122619D01*
X87663095Y-68170238D01*
X87710714Y-68217857D01*
X87710714Y-68551190D01*
X87520238Y-68551190D01*
X88139285Y-68122619D02*
X88139285Y-69122619D01*
X88710714Y-68122619D01*
X88710714Y-69122619D01*
X89186904Y-68122619D02*
X89186904Y-69122619D01*
X89425000Y-69122619D01*
X89567857Y-69075000D01*
X89663095Y-68979761D01*
X89710714Y-68884523D01*
X89758333Y-68694047D01*
X89758333Y-68551190D01*
X89710714Y-68360714D01*
X89663095Y-68265476D01*
X89567857Y-68170238D01*
X89425000Y-68122619D01*
X89186904Y-68122619D01*
D11*
X35630952Y-69153571D02*
X35630952Y-67820238D01*
X35154761Y-69915476D02*
X34678571Y-68486904D01*
X35916666Y-68486904D01*
D10*
X25563095Y-68825000D02*
X25467857Y-68872619D01*
X25325000Y-68872619D01*
X25182142Y-68825000D01*
X25086904Y-68729761D01*
X25039285Y-68634523D01*
X24991666Y-68444047D01*
X24991666Y-68301190D01*
X25039285Y-68110714D01*
X25086904Y-68015476D01*
X25182142Y-67920238D01*
X25325000Y-67872619D01*
X25420238Y-67872619D01*
X25563095Y-67920238D01*
X25610714Y-67967857D01*
X25610714Y-68301190D01*
X25420238Y-68301190D01*
X26039285Y-67872619D02*
X26039285Y-68872619D01*
X26610714Y-67872619D01*
X26610714Y-68872619D01*
X27086904Y-67872619D02*
X27086904Y-68872619D01*
X27325000Y-68872619D01*
X27467857Y-68825000D01*
X27563095Y-68729761D01*
X27610714Y-68634523D01*
X27658333Y-68444047D01*
X27658333Y-68301190D01*
X27610714Y-68110714D01*
X27563095Y-68015476D01*
X27467857Y-67920238D01*
X27325000Y-67872619D01*
X27086904Y-67872619D01*
X20488095Y-29452380D02*
X20964285Y-29452380D01*
X21011904Y-29928571D01*
X20964285Y-29880952D01*
X20869047Y-29833333D01*
X20630952Y-29833333D01*
X20535714Y-29880952D01*
X20488095Y-29928571D01*
X20440476Y-30023809D01*
X20440476Y-30261904D01*
X20488095Y-30357142D01*
X20535714Y-30404761D01*
X20630952Y-30452380D01*
X20869047Y-30452380D01*
X20964285Y-30404761D01*
X21011904Y-30357142D01*
X19821428Y-29452380D02*
X19726190Y-29452380D01*
X19630952Y-29500000D01*
X19583333Y-29547619D01*
X19535714Y-29642857D01*
X19488095Y-29833333D01*
X19488095Y-30071428D01*
X19535714Y-30261904D01*
X19583333Y-30357142D01*
X19630952Y-30404761D01*
X19726190Y-30452380D01*
X19821428Y-30452380D01*
X19916666Y-30404761D01*
X19964285Y-30357142D01*
X20011904Y-30261904D01*
X20059523Y-30071428D01*
X20059523Y-29833333D01*
X20011904Y-29642857D01*
X19964285Y-29547619D01*
X19916666Y-29500000D01*
X19821428Y-29452380D01*
X69836904Y-34927380D02*
X69265476Y-34927380D01*
X69551190Y-35927380D02*
X69551190Y-34927380D01*
X69027380Y-34927380D02*
X68360714Y-35927380D01*
X68360714Y-34927380D02*
X69027380Y-35927380D01*
X94765476Y-51277380D02*
X95336904Y-51277380D01*
X95051190Y-51277380D02*
X95051190Y-50277380D01*
X95146428Y-50420238D01*
X95241666Y-50515476D01*
X95336904Y-50563095D01*
X93908333Y-50277380D02*
X94098809Y-50277380D01*
X94194047Y-50325000D01*
X94241666Y-50372619D01*
X94336904Y-50515476D01*
X94384523Y-50705952D01*
X94384523Y-51086904D01*
X94336904Y-51182142D01*
X94289285Y-51229761D01*
X94194047Y-51277380D01*
X94003571Y-51277380D01*
X93908333Y-51229761D01*
X93860714Y-51182142D01*
X93813095Y-51086904D01*
X93813095Y-50848809D01*
X93860714Y-50753571D01*
X93908333Y-50705952D01*
X94003571Y-50658333D01*
X94194047Y-50658333D01*
X94289285Y-50705952D01*
X94336904Y-50753571D01*
X94384523Y-50848809D01*
X94765476Y-58877380D02*
X95336904Y-58877380D01*
X95051190Y-58877380D02*
X95051190Y-57877380D01*
X95146428Y-58020238D01*
X95241666Y-58115476D01*
X95336904Y-58163095D01*
X94432142Y-57877380D02*
X93813095Y-57877380D01*
X94146428Y-58258333D01*
X94003571Y-58258333D01*
X93908333Y-58305952D01*
X93860714Y-58353571D01*
X93813095Y-58448809D01*
X93813095Y-58686904D01*
X93860714Y-58782142D01*
X93908333Y-58829761D01*
X94003571Y-58877380D01*
X94289285Y-58877380D01*
X94384523Y-58829761D01*
X94432142Y-58782142D01*
X21434523Y-67627380D02*
X20815476Y-67627380D01*
X21148809Y-68008333D01*
X21005952Y-68008333D01*
X20910714Y-68055952D01*
X20863095Y-68103571D01*
X20815476Y-68198809D01*
X20815476Y-68436904D01*
X20863095Y-68532142D01*
X20910714Y-68579761D01*
X21005952Y-68627380D01*
X21291666Y-68627380D01*
X21386904Y-68579761D01*
X21434523Y-68532142D01*
X19910714Y-67627380D02*
X20386904Y-67627380D01*
X20434523Y-68103571D01*
X20386904Y-68055952D01*
X20291666Y-68008333D01*
X20053571Y-68008333D01*
X19958333Y-68055952D01*
X19910714Y-68103571D01*
X19863095Y-68198809D01*
X19863095Y-68436904D01*
X19910714Y-68532142D01*
X19958333Y-68579761D01*
X20053571Y-68627380D01*
X20291666Y-68627380D01*
X20386904Y-68579761D01*
X20434523Y-68532142D01*
X27989285Y-40929761D02*
X27846428Y-40977380D01*
X27608333Y-40977380D01*
X27513095Y-40929761D01*
X27465476Y-40882142D01*
X27417857Y-40786904D01*
X27417857Y-40691666D01*
X27465476Y-40596428D01*
X27513095Y-40548809D01*
X27608333Y-40501190D01*
X27798809Y-40453571D01*
X27894047Y-40405952D01*
X27941666Y-40358333D01*
X27989285Y-40263095D01*
X27989285Y-40167857D01*
X27941666Y-40072619D01*
X27894047Y-40025000D01*
X27798809Y-39977380D01*
X27560714Y-39977380D01*
X27417857Y-40025000D01*
X26989285Y-40977380D02*
X26989285Y-39977380D01*
X26751190Y-39977380D01*
X26608333Y-40025000D01*
X26513095Y-40120238D01*
X26465476Y-40215476D01*
X26417857Y-40405952D01*
X26417857Y-40548809D01*
X26465476Y-40739285D01*
X26513095Y-40834523D01*
X26608333Y-40929761D01*
X26751190Y-40977380D01*
X26989285Y-40977380D01*
X26036904Y-40691666D02*
X25560714Y-40691666D01*
X26132142Y-40977380D02*
X25798809Y-39977380D01*
X25465476Y-40977380D01*
X94740476Y-48877380D02*
X95311904Y-48877380D01*
X95026190Y-48877380D02*
X95026190Y-47877380D01*
X95121428Y-48020238D01*
X95216666Y-48115476D01*
X95311904Y-48163095D01*
X94407142Y-47877380D02*
X93740476Y-47877380D01*
X94169047Y-48877380D01*
X46611904Y-45175000D02*
X46707142Y-45127380D01*
X46850000Y-45127380D01*
X46992857Y-45175000D01*
X47088095Y-45270238D01*
X47135714Y-45365476D01*
X47183333Y-45555952D01*
X47183333Y-45698809D01*
X47135714Y-45889285D01*
X47088095Y-45984523D01*
X46992857Y-46079761D01*
X46850000Y-46127380D01*
X46754761Y-46127380D01*
X46611904Y-46079761D01*
X46564285Y-46032142D01*
X46564285Y-45698809D01*
X46754761Y-45698809D01*
X46135714Y-46127380D02*
X46135714Y-45127380D01*
X45564285Y-46127380D01*
X45564285Y-45127380D01*
X45088095Y-46127380D02*
X45088095Y-45127380D01*
X44850000Y-45127380D01*
X44707142Y-45175000D01*
X44611904Y-45270238D01*
X44564285Y-45365476D01*
X44516666Y-45555952D01*
X44516666Y-45698809D01*
X44564285Y-45889285D01*
X44611904Y-45984523D01*
X44707142Y-46079761D01*
X44850000Y-46127380D01*
X45088095Y-46127380D01*
X45188095Y-79097619D02*
X45759523Y-79097619D01*
X45473809Y-78097619D02*
X45473809Y-79097619D01*
X45997619Y-79097619D02*
X46664285Y-78097619D01*
X46664285Y-79097619D02*
X45997619Y-78097619D01*
X68613095Y-69000000D02*
X68517857Y-69047619D01*
X68375000Y-69047619D01*
X68232142Y-69000000D01*
X68136904Y-68904761D01*
X68089285Y-68809523D01*
X68041666Y-68619047D01*
X68041666Y-68476190D01*
X68089285Y-68285714D01*
X68136904Y-68190476D01*
X68232142Y-68095238D01*
X68375000Y-68047619D01*
X68470238Y-68047619D01*
X68613095Y-68095238D01*
X68660714Y-68142857D01*
X68660714Y-68476190D01*
X68470238Y-68476190D01*
X69089285Y-68047619D02*
X69089285Y-69047619D01*
X69660714Y-68047619D01*
X69660714Y-69047619D01*
X70136904Y-68047619D02*
X70136904Y-69047619D01*
X70375000Y-69047619D01*
X70517857Y-69000000D01*
X70613095Y-68904761D01*
X70660714Y-68809523D01*
X70708333Y-68619047D01*
X70708333Y-68476190D01*
X70660714Y-68285714D01*
X70613095Y-68190476D01*
X70517857Y-68095238D01*
X70375000Y-68047619D01*
X70136904Y-68047619D01*
X46297619Y-31002380D02*
X46630952Y-30526190D01*
X46869047Y-31002380D02*
X46869047Y-30002380D01*
X46488095Y-30002380D01*
X46392857Y-30050000D01*
X46345238Y-30097619D01*
X46297619Y-30192857D01*
X46297619Y-30335714D01*
X46345238Y-30430952D01*
X46392857Y-30478571D01*
X46488095Y-30526190D01*
X46869047Y-30526190D01*
X45916666Y-30954761D02*
X45773809Y-31002380D01*
X45535714Y-31002380D01*
X45440476Y-30954761D01*
X45392857Y-30907142D01*
X45345238Y-30811904D01*
X45345238Y-30716666D01*
X45392857Y-30621428D01*
X45440476Y-30573809D01*
X45535714Y-30526190D01*
X45726190Y-30478571D01*
X45821428Y-30430952D01*
X45869047Y-30383333D01*
X45916666Y-30288095D01*
X45916666Y-30192857D01*
X45869047Y-30097619D01*
X45821428Y-30050000D01*
X45726190Y-30002380D01*
X45488095Y-30002380D01*
X45345238Y-30050000D01*
X45059523Y-30002380D02*
X44488095Y-30002380D01*
X44773809Y-31002380D02*
X44773809Y-30002380D01*
X25078571Y-75472619D02*
X25078571Y-76472619D01*
X25411904Y-75758333D01*
X25745238Y-76472619D01*
X25745238Y-75472619D01*
X26221428Y-75472619D02*
X26221428Y-76472619D01*
X26650000Y-75520238D02*
X26792857Y-75472619D01*
X27030952Y-75472619D01*
X27126190Y-75520238D01*
X27173809Y-75567857D01*
X27221428Y-75663095D01*
X27221428Y-75758333D01*
X27173809Y-75853571D01*
X27126190Y-75901190D01*
X27030952Y-75948809D01*
X26840476Y-75996428D01*
X26745238Y-76044047D01*
X26697619Y-76091666D01*
X26650000Y-76186904D01*
X26650000Y-76282142D01*
X26697619Y-76377380D01*
X26745238Y-76425000D01*
X26840476Y-76472619D01*
X27078571Y-76472619D01*
X27221428Y-76425000D01*
X27840476Y-76472619D02*
X28030952Y-76472619D01*
X28126190Y-76425000D01*
X28221428Y-76329761D01*
X28269047Y-76139285D01*
X28269047Y-75805952D01*
X28221428Y-75615476D01*
X28126190Y-75520238D01*
X28030952Y-75472619D01*
X27840476Y-75472619D01*
X27745238Y-75520238D01*
X27650000Y-75615476D01*
X27602380Y-75805952D01*
X27602380Y-76139285D01*
X27650000Y-76329761D01*
X27745238Y-76425000D01*
X27840476Y-76472619D01*
X20535714Y-34860714D02*
X20535714Y-35527380D01*
X20773809Y-34479761D02*
X21011904Y-35194047D01*
X20392857Y-35194047D01*
X19869047Y-34955952D02*
X19964285Y-34908333D01*
X20011904Y-34860714D01*
X20059523Y-34765476D01*
X20059523Y-34717857D01*
X20011904Y-34622619D01*
X19964285Y-34575000D01*
X19869047Y-34527380D01*
X19678571Y-34527380D01*
X19583333Y-34575000D01*
X19535714Y-34622619D01*
X19488095Y-34717857D01*
X19488095Y-34765476D01*
X19535714Y-34860714D01*
X19583333Y-34908333D01*
X19678571Y-34955952D01*
X19869047Y-34955952D01*
X19964285Y-35003571D01*
X20011904Y-35051190D01*
X20059523Y-35146428D01*
X20059523Y-35336904D01*
X20011904Y-35432142D01*
X19964285Y-35479761D01*
X19869047Y-35527380D01*
X19678571Y-35527380D01*
X19583333Y-35479761D01*
X19535714Y-35432142D01*
X19488095Y-35336904D01*
X19488095Y-35146428D01*
X19535714Y-35051190D01*
X19583333Y-35003571D01*
X19678571Y-34955952D01*
D11*
X37721428Y-44245238D02*
X37626190Y-44150000D01*
X37435714Y-44054761D01*
X36959523Y-44054761D01*
X36769047Y-44150000D01*
X36673809Y-44245238D01*
X36578571Y-44435714D01*
X36578571Y-44626190D01*
X36673809Y-44911904D01*
X37816666Y-46054761D01*
X36578571Y-46054761D01*
D10*
X95160714Y-86022619D02*
X95113095Y-85975000D01*
X95017857Y-85927380D01*
X94779761Y-85927380D01*
X94684523Y-85975000D01*
X94636904Y-86022619D01*
X94589285Y-86117857D01*
X94589285Y-86213095D01*
X94636904Y-86355952D01*
X95208333Y-86927380D01*
X94589285Y-86927380D01*
X20610714Y-55210714D02*
X20610714Y-55877380D01*
X20848809Y-54829761D02*
X21086904Y-55544047D01*
X20467857Y-55544047D01*
X19896428Y-54877380D02*
X19801190Y-54877380D01*
X19705952Y-54925000D01*
X19658333Y-54972619D01*
X19610714Y-55067857D01*
X19563095Y-55258333D01*
X19563095Y-55496428D01*
X19610714Y-55686904D01*
X19658333Y-55782142D01*
X19705952Y-55829761D01*
X19801190Y-55877380D01*
X19896428Y-55877380D01*
X19991666Y-55829761D01*
X20039285Y-55782142D01*
X20086904Y-55686904D01*
X20134523Y-55496428D01*
X20134523Y-55258333D01*
X20086904Y-55067857D01*
X20039285Y-54972619D01*
X19991666Y-54925000D01*
X19896428Y-54877380D01*
X24950000Y-70903571D02*
X25711904Y-70903571D01*
X25330952Y-70522619D02*
X25330952Y-71284523D01*
X26092857Y-71522619D02*
X26711904Y-71522619D01*
X26378571Y-71141666D01*
X26521428Y-71141666D01*
X26616666Y-71094047D01*
X26664285Y-71046428D01*
X26711904Y-70951190D01*
X26711904Y-70713095D01*
X26664285Y-70617857D01*
X26616666Y-70570238D01*
X26521428Y-70522619D01*
X26235714Y-70522619D01*
X26140476Y-70570238D01*
X26092857Y-70617857D01*
X27140476Y-70617857D02*
X27188095Y-70570238D01*
X27140476Y-70522619D01*
X27092857Y-70570238D01*
X27140476Y-70617857D01*
X27140476Y-70522619D01*
X27521428Y-71522619D02*
X28140476Y-71522619D01*
X27807142Y-71141666D01*
X27950000Y-71141666D01*
X28045238Y-71094047D01*
X28092857Y-71046428D01*
X28140476Y-70951190D01*
X28140476Y-70713095D01*
X28092857Y-70617857D01*
X28045238Y-70570238D01*
X27950000Y-70522619D01*
X27664285Y-70522619D01*
X27569047Y-70570238D01*
X27521428Y-70617857D01*
X28426190Y-71522619D02*
X28759523Y-70522619D01*
X29092857Y-71522619D01*
X46366666Y-33407142D02*
X46414285Y-33454761D01*
X46557142Y-33502380D01*
X46652380Y-33502380D01*
X46795238Y-33454761D01*
X46890476Y-33359523D01*
X46938095Y-33264285D01*
X46985714Y-33073809D01*
X46985714Y-32930952D01*
X46938095Y-32740476D01*
X46890476Y-32645238D01*
X46795238Y-32550000D01*
X46652380Y-32502380D01*
X46557142Y-32502380D01*
X46414285Y-32550000D01*
X46366666Y-32597619D01*
X45985714Y-33454761D02*
X45842857Y-33502380D01*
X45604761Y-33502380D01*
X45509523Y-33454761D01*
X45461904Y-33407142D01*
X45414285Y-33311904D01*
X45414285Y-33216666D01*
X45461904Y-33121428D01*
X45509523Y-33073809D01*
X45604761Y-33026190D01*
X45795238Y-32978571D01*
X45890476Y-32930952D01*
X45938095Y-32883333D01*
X45985714Y-32788095D01*
X45985714Y-32692857D01*
X45938095Y-32597619D01*
X45890476Y-32550000D01*
X45795238Y-32502380D01*
X45557142Y-32502380D01*
X45414285Y-32550000D01*
X26986904Y-34902380D02*
X26415476Y-34902380D01*
X26701190Y-35902380D02*
X26701190Y-34902380D01*
X26177380Y-34902380D02*
X25510714Y-35902380D01*
X25510714Y-34902380D02*
X26177380Y-35902380D01*
X21459523Y-70127380D02*
X20840476Y-70127380D01*
X21173809Y-70508333D01*
X21030952Y-70508333D01*
X20935714Y-70555952D01*
X20888095Y-70603571D01*
X20840476Y-70698809D01*
X20840476Y-70936904D01*
X20888095Y-71032142D01*
X20935714Y-71079761D01*
X21030952Y-71127380D01*
X21316666Y-71127380D01*
X21411904Y-71079761D01*
X21459523Y-71032142D01*
X19983333Y-70460714D02*
X19983333Y-71127380D01*
X20221428Y-70079761D02*
X20459523Y-70794047D01*
X19840476Y-70794047D01*
X70839285Y-40954761D02*
X70696428Y-41002380D01*
X70458333Y-41002380D01*
X70363095Y-40954761D01*
X70315476Y-40907142D01*
X70267857Y-40811904D01*
X70267857Y-40716666D01*
X70315476Y-40621428D01*
X70363095Y-40573809D01*
X70458333Y-40526190D01*
X70648809Y-40478571D01*
X70744047Y-40430952D01*
X70791666Y-40383333D01*
X70839285Y-40288095D01*
X70839285Y-40192857D01*
X70791666Y-40097619D01*
X70744047Y-40050000D01*
X70648809Y-40002380D01*
X70410714Y-40002380D01*
X70267857Y-40050000D01*
X69839285Y-41002380D02*
X69839285Y-40002380D01*
X69601190Y-40002380D01*
X69458333Y-40050000D01*
X69363095Y-40145238D01*
X69315476Y-40240476D01*
X69267857Y-40430952D01*
X69267857Y-40573809D01*
X69315476Y-40764285D01*
X69363095Y-40859523D01*
X69458333Y-40954761D01*
X69601190Y-41002380D01*
X69839285Y-41002380D01*
X68886904Y-40716666D02*
X68410714Y-40716666D01*
X68982142Y-41002380D02*
X68648809Y-40002380D01*
X68315476Y-41002380D01*
X44039285Y-70778571D02*
X44801190Y-70778571D01*
X44420238Y-70397619D02*
X44420238Y-71159523D01*
X45753571Y-71397619D02*
X45277380Y-71397619D01*
X45229761Y-70921428D01*
X45277380Y-70969047D01*
X45372619Y-71016666D01*
X45610714Y-71016666D01*
X45705952Y-70969047D01*
X45753571Y-70921428D01*
X45801190Y-70826190D01*
X45801190Y-70588095D01*
X45753571Y-70492857D01*
X45705952Y-70445238D01*
X45610714Y-70397619D01*
X45372619Y-70397619D01*
X45277380Y-70445238D01*
X45229761Y-70492857D01*
X46086904Y-71397619D02*
X46420238Y-70397619D01*
X46753571Y-71397619D01*
X95236904Y-37772619D02*
X95189285Y-37725000D01*
X95094047Y-37677380D01*
X94855952Y-37677380D01*
X94760714Y-37725000D01*
X94713095Y-37772619D01*
X94665476Y-37867857D01*
X94665476Y-37963095D01*
X94713095Y-38105952D01*
X95284523Y-38677380D01*
X94665476Y-38677380D01*
X93713095Y-38677380D02*
X94284523Y-38677380D01*
X93998809Y-38677380D02*
X93998809Y-37677380D01*
X94094047Y-37820238D01*
X94189285Y-37915476D01*
X94284523Y-37963095D01*
X94790476Y-66477380D02*
X95361904Y-66477380D01*
X95076190Y-66477380D02*
X95076190Y-65477380D01*
X95171428Y-65620238D01*
X95266666Y-65715476D01*
X95361904Y-65763095D01*
X94171428Y-65477380D02*
X94076190Y-65477380D01*
X93980952Y-65525000D01*
X93933333Y-65572619D01*
X93885714Y-65667857D01*
X93838095Y-65858333D01*
X93838095Y-66096428D01*
X93885714Y-66286904D01*
X93933333Y-66382142D01*
X93980952Y-66429761D01*
X94076190Y-66477380D01*
X94171428Y-66477380D01*
X94266666Y-66429761D01*
X94314285Y-66382142D01*
X94361904Y-66286904D01*
X94409523Y-66096428D01*
X94409523Y-65858333D01*
X94361904Y-65667857D01*
X94314285Y-65572619D01*
X94266666Y-65525000D01*
X94171428Y-65477380D01*
X21484523Y-80277380D02*
X20865476Y-80277380D01*
X21198809Y-80658333D01*
X21055952Y-80658333D01*
X20960714Y-80705952D01*
X20913095Y-80753571D01*
X20865476Y-80848809D01*
X20865476Y-81086904D01*
X20913095Y-81182142D01*
X20960714Y-81229761D01*
X21055952Y-81277380D01*
X21341666Y-81277380D01*
X21436904Y-81229761D01*
X21484523Y-81182142D01*
X20246428Y-80277380D02*
X20151190Y-80277380D01*
X20055952Y-80325000D01*
X20008333Y-80372619D01*
X19960714Y-80467857D01*
X19913095Y-80658333D01*
X19913095Y-80896428D01*
X19960714Y-81086904D01*
X20008333Y-81182142D01*
X20055952Y-81229761D01*
X20151190Y-81277380D01*
X20246428Y-81277380D01*
X20341666Y-81229761D01*
X20389285Y-81182142D01*
X20436904Y-81086904D01*
X20484523Y-80896428D01*
X20484523Y-80658333D01*
X20436904Y-80467857D01*
X20389285Y-80372619D01*
X20341666Y-80325000D01*
X20246428Y-80277380D01*
X28204761Y-28352380D02*
X28204761Y-27352380D01*
X27823809Y-27352380D01*
X27728571Y-27400000D01*
X27680952Y-27447619D01*
X27633333Y-27542857D01*
X27633333Y-27685714D01*
X27680952Y-27780952D01*
X27728571Y-27828571D01*
X27823809Y-27876190D01*
X28204761Y-27876190D01*
X27300000Y-27352380D02*
X27061904Y-28352380D01*
X26871428Y-27638095D01*
X26680952Y-28352380D01*
X26442857Y-27352380D01*
X26061904Y-28352380D02*
X26061904Y-27352380D01*
X25728571Y-28066666D01*
X25395238Y-27352380D01*
X25395238Y-28352380D01*
X89971428Y-41077380D02*
X89971428Y-40077380D01*
X89638095Y-40791666D01*
X89304761Y-40077380D01*
X89304761Y-41077380D01*
X88638095Y-40077380D02*
X88447619Y-40077380D01*
X88352380Y-40125000D01*
X88257142Y-40220238D01*
X88209523Y-40410714D01*
X88209523Y-40744047D01*
X88257142Y-40934523D01*
X88352380Y-41029761D01*
X88447619Y-41077380D01*
X88638095Y-41077380D01*
X88733333Y-41029761D01*
X88828571Y-40934523D01*
X88876190Y-40744047D01*
X88876190Y-40410714D01*
X88828571Y-40220238D01*
X88733333Y-40125000D01*
X88638095Y-40077380D01*
X87828571Y-41029761D02*
X87685714Y-41077380D01*
X87447619Y-41077380D01*
X87352380Y-41029761D01*
X87304761Y-40982142D01*
X87257142Y-40886904D01*
X87257142Y-40791666D01*
X87304761Y-40696428D01*
X87352380Y-40648809D01*
X87447619Y-40601190D01*
X87638095Y-40553571D01*
X87733333Y-40505952D01*
X87780952Y-40458333D01*
X87828571Y-40363095D01*
X87828571Y-40267857D01*
X87780952Y-40172619D01*
X87733333Y-40125000D01*
X87638095Y-40077380D01*
X87400000Y-40077380D01*
X87257142Y-40125000D01*
X86828571Y-41077380D02*
X86828571Y-40077380D01*
X47225000Y-43096428D02*
X46463095Y-43096428D01*
X46844047Y-43477380D02*
X46844047Y-42715476D01*
X46082142Y-42477380D02*
X45463095Y-42477380D01*
X45796428Y-42858333D01*
X45653571Y-42858333D01*
X45558333Y-42905952D01*
X45510714Y-42953571D01*
X45463095Y-43048809D01*
X45463095Y-43286904D01*
X45510714Y-43382142D01*
X45558333Y-43429761D01*
X45653571Y-43477380D01*
X45939285Y-43477380D01*
X46034523Y-43429761D01*
X46082142Y-43382142D01*
X45034523Y-43382142D02*
X44986904Y-43429761D01*
X45034523Y-43477380D01*
X45082142Y-43429761D01*
X45034523Y-43382142D01*
X45034523Y-43477380D01*
X44653571Y-42477380D02*
X44034523Y-42477380D01*
X44367857Y-42858333D01*
X44225000Y-42858333D01*
X44129761Y-42905952D01*
X44082142Y-42953571D01*
X44034523Y-43048809D01*
X44034523Y-43286904D01*
X44082142Y-43382142D01*
X44129761Y-43429761D01*
X44225000Y-43477380D01*
X44510714Y-43477380D01*
X44605952Y-43429761D01*
X44653571Y-43382142D01*
X43748809Y-42477380D02*
X43415476Y-43477380D01*
X43082142Y-42477380D01*
%TO.C,LED5*%
X81640476Y-55807142D02*
X81688095Y-55854761D01*
X81830952Y-55902380D01*
X81926190Y-55902380D01*
X82069047Y-55854761D01*
X82164285Y-55759523D01*
X82211904Y-55664285D01*
X82259523Y-55473809D01*
X82259523Y-55330952D01*
X82211904Y-55140476D01*
X82164285Y-55045238D01*
X82069047Y-54950000D01*
X81926190Y-54902380D01*
X81830952Y-54902380D01*
X81688095Y-54950000D01*
X81640476Y-54997619D01*
%TO.C,R29*%
X58667857Y-32657380D02*
X59001190Y-32181190D01*
X59239285Y-32657380D02*
X59239285Y-31657380D01*
X58858333Y-31657380D01*
X58763095Y-31705000D01*
X58715476Y-31752619D01*
X58667857Y-31847857D01*
X58667857Y-31990714D01*
X58715476Y-32085952D01*
X58763095Y-32133571D01*
X58858333Y-32181190D01*
X59239285Y-32181190D01*
X58286904Y-31752619D02*
X58239285Y-31705000D01*
X58144047Y-31657380D01*
X57905952Y-31657380D01*
X57810714Y-31705000D01*
X57763095Y-31752619D01*
X57715476Y-31847857D01*
X57715476Y-31943095D01*
X57763095Y-32085952D01*
X58334523Y-32657380D01*
X57715476Y-32657380D01*
X57239285Y-32657380D02*
X57048809Y-32657380D01*
X56953571Y-32609761D01*
X56905952Y-32562142D01*
X56810714Y-32419285D01*
X56763095Y-32228809D01*
X56763095Y-31847857D01*
X56810714Y-31752619D01*
X56858333Y-31705000D01*
X56953571Y-31657380D01*
X57144047Y-31657380D01*
X57239285Y-31705000D01*
X57286904Y-31752619D01*
X57334523Y-31847857D01*
X57334523Y-32085952D01*
X57286904Y-32181190D01*
X57239285Y-32228809D01*
X57144047Y-32276428D01*
X56953571Y-32276428D01*
X56858333Y-32228809D01*
X56810714Y-32181190D01*
X56763095Y-32085952D01*
%TO.C,LED4*%
X58028571Y-35328571D02*
X57885714Y-35376190D01*
X57838095Y-35423809D01*
X57790476Y-35519047D01*
X57790476Y-35661904D01*
X57838095Y-35757142D01*
X57885714Y-35804761D01*
X57980952Y-35852380D01*
X58361904Y-35852380D01*
X58361904Y-34852380D01*
X58028571Y-34852380D01*
X57933333Y-34900000D01*
X57885714Y-34947619D01*
X57838095Y-35042857D01*
X57838095Y-35138095D01*
X57885714Y-35233333D01*
X57933333Y-35280952D01*
X58028571Y-35328571D01*
X58361904Y-35328571D01*
%TO.C,LED1*%
X55239285Y-84682142D02*
X55286904Y-84729761D01*
X55429761Y-84777380D01*
X55525000Y-84777380D01*
X55667857Y-84729761D01*
X55763095Y-84634523D01*
X55810714Y-84539285D01*
X55858333Y-84348809D01*
X55858333Y-84205952D01*
X55810714Y-84015476D01*
X55763095Y-83920238D01*
X55667857Y-83825000D01*
X55525000Y-83777380D01*
X55429761Y-83777380D01*
X55286904Y-83825000D01*
X55239285Y-83872619D01*
X54810714Y-84777380D02*
X54810714Y-83777380D01*
X54810714Y-84253571D02*
X54239285Y-84253571D01*
X54239285Y-84777380D02*
X54239285Y-83777380D01*
X53239285Y-83825000D02*
X53334523Y-83777380D01*
X53477380Y-83777380D01*
X53620238Y-83825000D01*
X53715476Y-83920238D01*
X53763095Y-84015476D01*
X53810714Y-84205952D01*
X53810714Y-84348809D01*
X53763095Y-84539285D01*
X53715476Y-84634523D01*
X53620238Y-84729761D01*
X53477380Y-84777380D01*
X53382142Y-84777380D01*
X53239285Y-84729761D01*
X53191666Y-84682142D01*
X53191666Y-84348809D01*
X53382142Y-84348809D01*
%TO.C,LED6*%
X58436904Y-78357380D02*
X58436904Y-77357380D01*
X58198809Y-77357380D01*
X58055952Y-77405000D01*
X57960714Y-77500238D01*
X57913095Y-77595476D01*
X57865476Y-77785952D01*
X57865476Y-77928809D01*
X57913095Y-78119285D01*
X57960714Y-78214523D01*
X58055952Y-78309761D01*
X58198809Y-78357380D01*
X58436904Y-78357380D01*
%TO.C,R31*%
X84942857Y-55877380D02*
X85276190Y-55401190D01*
X85514285Y-55877380D02*
X85514285Y-54877380D01*
X85133333Y-54877380D01*
X85038095Y-54925000D01*
X84990476Y-54972619D01*
X84942857Y-55067857D01*
X84942857Y-55210714D01*
X84990476Y-55305952D01*
X85038095Y-55353571D01*
X85133333Y-55401190D01*
X85514285Y-55401190D01*
X84609523Y-54877380D02*
X83990476Y-54877380D01*
X84323809Y-55258333D01*
X84180952Y-55258333D01*
X84085714Y-55305952D01*
X84038095Y-55353571D01*
X83990476Y-55448809D01*
X83990476Y-55686904D01*
X84038095Y-55782142D01*
X84085714Y-55829761D01*
X84180952Y-55877380D01*
X84466666Y-55877380D01*
X84561904Y-55829761D01*
X84609523Y-55782142D01*
X83038095Y-55877380D02*
X83609523Y-55877380D01*
X83323809Y-55877380D02*
X83323809Y-54877380D01*
X83419047Y-55020238D01*
X83514285Y-55115476D01*
X83609523Y-55163095D01*
%TO.C,T2*%
X58136904Y-37152380D02*
X57565476Y-37152380D01*
X57851190Y-38152380D02*
X57851190Y-37152380D01*
X57279761Y-37247619D02*
X57232142Y-37200000D01*
X57136904Y-37152380D01*
X56898809Y-37152380D01*
X56803571Y-37200000D01*
X56755952Y-37247619D01*
X56708333Y-37342857D01*
X56708333Y-37438095D01*
X56755952Y-37580952D01*
X57327380Y-38152380D01*
X56708333Y-38152380D01*
%TO.C,LED2*%
X61883333Y-84752380D02*
X61883333Y-83752380D01*
X61502380Y-83752380D01*
X61407142Y-83800000D01*
X61359523Y-83847619D01*
X61311904Y-83942857D01*
X61311904Y-84085714D01*
X61359523Y-84180952D01*
X61407142Y-84228571D01*
X61502380Y-84276190D01*
X61883333Y-84276190D01*
X60978571Y-83752380D02*
X60740476Y-84752380D01*
X60550000Y-84038095D01*
X60359523Y-84752380D01*
X60121428Y-83752380D01*
X59169047Y-84752380D02*
X59502380Y-84276190D01*
X59740476Y-84752380D02*
X59740476Y-83752380D01*
X59359523Y-83752380D01*
X59264285Y-83800000D01*
X59216666Y-83847619D01*
X59169047Y-83942857D01*
X59169047Y-84085714D01*
X59216666Y-84180952D01*
X59264285Y-84228571D01*
X59359523Y-84276190D01*
X59740476Y-84276190D01*
%TO.C,T1*%
X42411904Y-50527380D02*
X41840476Y-50527380D01*
X42126190Y-51527380D02*
X42126190Y-50527380D01*
X40983333Y-51527380D02*
X41554761Y-51527380D01*
X41269047Y-51527380D02*
X41269047Y-50527380D01*
X41364285Y-50670238D01*
X41459523Y-50765476D01*
X41554761Y-50813095D01*
%TO.C,MIKROBUS4*%
X36742857Y-88696428D02*
X36928571Y-88648809D01*
X36990476Y-88601190D01*
X37052380Y-88505952D01*
X37052380Y-88363095D01*
X36990476Y-88267857D01*
X36928571Y-88220238D01*
X36804761Y-88172619D01*
X36309523Y-88172619D01*
X36309523Y-89172619D01*
X36742857Y-89172619D01*
X36866666Y-89125000D01*
X36928571Y-89077380D01*
X36990476Y-88982142D01*
X36990476Y-88886904D01*
X36928571Y-88791666D01*
X36866666Y-88744047D01*
X36742857Y-88696428D01*
X36309523Y-88696428D01*
X37609523Y-89172619D02*
X37609523Y-88363095D01*
X37671428Y-88267857D01*
X37733333Y-88220238D01*
X37857142Y-88172619D01*
X38104761Y-88172619D01*
X38228571Y-88220238D01*
X38290476Y-88267857D01*
X38352380Y-88363095D01*
X38352380Y-89172619D01*
X38909523Y-88220238D02*
X39095238Y-88172619D01*
X39404761Y-88172619D01*
X39528571Y-88220238D01*
X39590476Y-88267857D01*
X39652380Y-88363095D01*
X39652380Y-88458333D01*
X39590476Y-88553571D01*
X39528571Y-88601190D01*
X39404761Y-88648809D01*
X39157142Y-88696428D01*
X39033333Y-88744047D01*
X38971428Y-88791666D01*
X38909523Y-88886904D01*
X38909523Y-88982142D01*
X38971428Y-89077380D01*
X39033333Y-89125000D01*
X39157142Y-89172619D01*
X39466666Y-89172619D01*
X39652380Y-89125000D01*
X36300000Y-89517857D02*
X36300000Y-90117857D01*
X36300000Y-90032142D02*
X36342857Y-90075000D01*
X36428571Y-90117857D01*
X36557142Y-90117857D01*
X36642857Y-90075000D01*
X36685714Y-89989285D01*
X36685714Y-89517857D01*
X36685714Y-89989285D02*
X36728571Y-90075000D01*
X36814285Y-90117857D01*
X36942857Y-90117857D01*
X37028571Y-90075000D01*
X37071428Y-89989285D01*
X37071428Y-89517857D01*
X37500000Y-89517857D02*
X37500000Y-90117857D01*
X37500000Y-90417857D02*
X37457142Y-90375000D01*
X37500000Y-90332142D01*
X37542857Y-90375000D01*
X37500000Y-90417857D01*
X37500000Y-90332142D01*
X37928571Y-89517857D02*
X37928571Y-90417857D01*
X38014285Y-89860714D02*
X38271428Y-89517857D01*
X38271428Y-90117857D02*
X37928571Y-89775000D01*
X38657142Y-89517857D02*
X38657142Y-90117857D01*
X38657142Y-89946428D02*
X38700000Y-90032142D01*
X38742857Y-90075000D01*
X38828571Y-90117857D01*
X38914285Y-90117857D01*
X39342857Y-89517857D02*
X39257142Y-89560714D01*
X39214285Y-89603571D01*
X39171428Y-89689285D01*
X39171428Y-89946428D01*
X39214285Y-90032142D01*
X39257142Y-90075000D01*
X39342857Y-90117857D01*
X39471428Y-90117857D01*
X39557142Y-90075000D01*
X39600000Y-90032142D01*
X39642857Y-89946428D01*
X39642857Y-89689285D01*
X39600000Y-89603571D01*
X39557142Y-89560714D01*
X39471428Y-89517857D01*
X39342857Y-89517857D01*
%TO.C,R30*%
X32192857Y-56302380D02*
X32526190Y-55826190D01*
X32764285Y-56302380D02*
X32764285Y-55302380D01*
X32383333Y-55302380D01*
X32288095Y-55350000D01*
X32240476Y-55397619D01*
X32192857Y-55492857D01*
X32192857Y-55635714D01*
X32240476Y-55730952D01*
X32288095Y-55778571D01*
X32383333Y-55826190D01*
X32764285Y-55826190D01*
X31859523Y-55302380D02*
X31240476Y-55302380D01*
X31573809Y-55683333D01*
X31430952Y-55683333D01*
X31335714Y-55730952D01*
X31288095Y-55778571D01*
X31240476Y-55873809D01*
X31240476Y-56111904D01*
X31288095Y-56207142D01*
X31335714Y-56254761D01*
X31430952Y-56302380D01*
X31716666Y-56302380D01*
X31811904Y-56254761D01*
X31859523Y-56207142D01*
X30621428Y-55302380D02*
X30526190Y-55302380D01*
X30430952Y-55350000D01*
X30383333Y-55397619D01*
X30335714Y-55492857D01*
X30288095Y-55683333D01*
X30288095Y-55921428D01*
X30335714Y-56111904D01*
X30383333Y-56207142D01*
X30430952Y-56254761D01*
X30526190Y-56302380D01*
X30621428Y-56302380D01*
X30716666Y-56254761D01*
X30764285Y-56207142D01*
X30811904Y-56111904D01*
X30859523Y-55921428D01*
X30859523Y-55683333D01*
X30811904Y-55492857D01*
X30764285Y-55397619D01*
X30716666Y-55350000D01*
X30621428Y-55302380D01*
%TO.C,R32*%
X58817857Y-82047380D02*
X59151190Y-81571190D01*
X59389285Y-82047380D02*
X59389285Y-81047380D01*
X59008333Y-81047380D01*
X58913095Y-81095000D01*
X58865476Y-81142619D01*
X58817857Y-81237857D01*
X58817857Y-81380714D01*
X58865476Y-81475952D01*
X58913095Y-81523571D01*
X59008333Y-81571190D01*
X59389285Y-81571190D01*
X58484523Y-81047380D02*
X57865476Y-81047380D01*
X58198809Y-81428333D01*
X58055952Y-81428333D01*
X57960714Y-81475952D01*
X57913095Y-81523571D01*
X57865476Y-81618809D01*
X57865476Y-81856904D01*
X57913095Y-81952142D01*
X57960714Y-81999761D01*
X58055952Y-82047380D01*
X58341666Y-82047380D01*
X58436904Y-81999761D01*
X58484523Y-81952142D01*
X57484523Y-81142619D02*
X57436904Y-81095000D01*
X57341666Y-81047380D01*
X57103571Y-81047380D01*
X57008333Y-81095000D01*
X56960714Y-81142619D01*
X56913095Y-81237857D01*
X56913095Y-81333095D01*
X56960714Y-81475952D01*
X57532142Y-82047380D01*
X56913095Y-82047380D01*
%TO.C,LED3*%
X34338095Y-56066666D02*
X33861904Y-56066666D01*
X34433333Y-56352380D02*
X34100000Y-55352380D01*
X33766666Y-56352380D01*
%TO.C,T4*%
X58486904Y-67402380D02*
X57915476Y-67402380D01*
X58201190Y-68402380D02*
X58201190Y-67402380D01*
X57153571Y-67735714D02*
X57153571Y-68402380D01*
X57391666Y-67354761D02*
X57629761Y-68069047D01*
X57010714Y-68069047D01*
%TO.C,T3*%
X73911904Y-50552380D02*
X73340476Y-50552380D01*
X73626190Y-51552380D02*
X73626190Y-50552380D01*
X73102380Y-50552380D02*
X72483333Y-50552380D01*
X72816666Y-50933333D01*
X72673809Y-50933333D01*
X72578571Y-50980952D01*
X72530952Y-51028571D01*
X72483333Y-51123809D01*
X72483333Y-51361904D01*
X72530952Y-51457142D01*
X72578571Y-51504761D01*
X72673809Y-51552380D01*
X72959523Y-51552380D01*
X73054761Y-51504761D01*
X73102380Y-51457142D01*
%TO.C,R3*%
X62366666Y-88177380D02*
X62700000Y-87701190D01*
X62938095Y-88177380D02*
X62938095Y-87177380D01*
X62557142Y-87177380D01*
X62461904Y-87225000D01*
X62414285Y-87272619D01*
X62366666Y-87367857D01*
X62366666Y-87510714D01*
X62414285Y-87605952D01*
X62461904Y-87653571D01*
X62557142Y-87701190D01*
X62938095Y-87701190D01*
X62033333Y-87177380D02*
X61414285Y-87177380D01*
X61747619Y-87558333D01*
X61604761Y-87558333D01*
X61509523Y-87605952D01*
X61461904Y-87653571D01*
X61414285Y-87748809D01*
X61414285Y-87986904D01*
X61461904Y-88082142D01*
X61509523Y-88129761D01*
X61604761Y-88177380D01*
X61890476Y-88177380D01*
X61985714Y-88129761D01*
X62033333Y-88082142D01*
%TO.C,R15*%
X53217857Y-88077380D02*
X53551190Y-87601190D01*
X53789285Y-88077380D02*
X53789285Y-87077380D01*
X53408333Y-87077380D01*
X53313095Y-87125000D01*
X53265476Y-87172619D01*
X53217857Y-87267857D01*
X53217857Y-87410714D01*
X53265476Y-87505952D01*
X53313095Y-87553571D01*
X53408333Y-87601190D01*
X53789285Y-87601190D01*
X52265476Y-88077380D02*
X52836904Y-88077380D01*
X52551190Y-88077380D02*
X52551190Y-87077380D01*
X52646428Y-87220238D01*
X52741666Y-87315476D01*
X52836904Y-87363095D01*
X51360714Y-87077380D02*
X51836904Y-87077380D01*
X51884523Y-87553571D01*
X51836904Y-87505952D01*
X51741666Y-87458333D01*
X51503571Y-87458333D01*
X51408333Y-87505952D01*
X51360714Y-87553571D01*
X51313095Y-87648809D01*
X51313095Y-87886904D01*
X51360714Y-87982142D01*
X51408333Y-88029761D01*
X51503571Y-88077380D01*
X51741666Y-88077380D01*
X51836904Y-88029761D01*
X51884523Y-87982142D01*
%TO.C,MIKROBUS2*%
X35357142Y-25253571D02*
X35171428Y-25301190D01*
X35109523Y-25348809D01*
X35047619Y-25444047D01*
X35047619Y-25586904D01*
X35109523Y-25682142D01*
X35171428Y-25729761D01*
X35295238Y-25777380D01*
X35790476Y-25777380D01*
X35790476Y-24777380D01*
X35357142Y-24777380D01*
X35233333Y-24825000D01*
X35171428Y-24872619D01*
X35109523Y-24967857D01*
X35109523Y-25063095D01*
X35171428Y-25158333D01*
X35233333Y-25205952D01*
X35357142Y-25253571D01*
X35790476Y-25253571D01*
X34490476Y-24777380D02*
X34490476Y-25586904D01*
X34428571Y-25682142D01*
X34366666Y-25729761D01*
X34242857Y-25777380D01*
X33995238Y-25777380D01*
X33871428Y-25729761D01*
X33809523Y-25682142D01*
X33747619Y-25586904D01*
X33747619Y-24777380D01*
X33190476Y-25729761D02*
X33004761Y-25777380D01*
X32695238Y-25777380D01*
X32571428Y-25729761D01*
X32509523Y-25682142D01*
X32447619Y-25586904D01*
X32447619Y-25491666D01*
X32509523Y-25396428D01*
X32571428Y-25348809D01*
X32695238Y-25301190D01*
X32942857Y-25253571D01*
X33066666Y-25205952D01*
X33128571Y-25158333D01*
X33190476Y-25063095D01*
X33190476Y-24967857D01*
X33128571Y-24872619D01*
X33066666Y-24825000D01*
X32942857Y-24777380D01*
X32633333Y-24777380D01*
X32447619Y-24825000D01*
X35800000Y-24432142D02*
X35800000Y-23832142D01*
X35800000Y-23917857D02*
X35757142Y-23875000D01*
X35671428Y-23832142D01*
X35542857Y-23832142D01*
X35457142Y-23875000D01*
X35414285Y-23960714D01*
X35414285Y-24432142D01*
X35414285Y-23960714D02*
X35371428Y-23875000D01*
X35285714Y-23832142D01*
X35157142Y-23832142D01*
X35071428Y-23875000D01*
X35028571Y-23960714D01*
X35028571Y-24432142D01*
X34600000Y-24432142D02*
X34600000Y-23832142D01*
X34600000Y-23532142D02*
X34642857Y-23575000D01*
X34600000Y-23617857D01*
X34557142Y-23575000D01*
X34600000Y-23532142D01*
X34600000Y-23617857D01*
X34171428Y-24432142D02*
X34171428Y-23532142D01*
X34085714Y-24089285D02*
X33828571Y-24432142D01*
X33828571Y-23832142D02*
X34171428Y-24175000D01*
X33442857Y-24432142D02*
X33442857Y-23832142D01*
X33442857Y-24003571D02*
X33400000Y-23917857D01*
X33357142Y-23875000D01*
X33271428Y-23832142D01*
X33185714Y-23832142D01*
X32757142Y-24432142D02*
X32842857Y-24389285D01*
X32885714Y-24346428D01*
X32928571Y-24260714D01*
X32928571Y-24003571D01*
X32885714Y-23917857D01*
X32842857Y-23875000D01*
X32757142Y-23832142D01*
X32628571Y-23832142D01*
X32542857Y-23875000D01*
X32500000Y-23917857D01*
X32457142Y-24003571D01*
X32457142Y-24260714D01*
X32500000Y-24346428D01*
X32542857Y-24389285D01*
X32628571Y-24432142D01*
X32757142Y-24432142D01*
%TO.C,MIKROBUS3*%
X79792857Y-88871428D02*
X79978571Y-88823809D01*
X80040476Y-88776190D01*
X80102380Y-88680952D01*
X80102380Y-88538095D01*
X80040476Y-88442857D01*
X79978571Y-88395238D01*
X79854761Y-88347619D01*
X79359523Y-88347619D01*
X79359523Y-89347619D01*
X79792857Y-89347619D01*
X79916666Y-89300000D01*
X79978571Y-89252380D01*
X80040476Y-89157142D01*
X80040476Y-89061904D01*
X79978571Y-88966666D01*
X79916666Y-88919047D01*
X79792857Y-88871428D01*
X79359523Y-88871428D01*
X80659523Y-89347619D02*
X80659523Y-88538095D01*
X80721428Y-88442857D01*
X80783333Y-88395238D01*
X80907142Y-88347619D01*
X81154761Y-88347619D01*
X81278571Y-88395238D01*
X81340476Y-88442857D01*
X81402380Y-88538095D01*
X81402380Y-89347619D01*
X81959523Y-88395238D02*
X82145238Y-88347619D01*
X82454761Y-88347619D01*
X82578571Y-88395238D01*
X82640476Y-88442857D01*
X82702380Y-88538095D01*
X82702380Y-88633333D01*
X82640476Y-88728571D01*
X82578571Y-88776190D01*
X82454761Y-88823809D01*
X82207142Y-88871428D01*
X82083333Y-88919047D01*
X82021428Y-88966666D01*
X81959523Y-89061904D01*
X81959523Y-89157142D01*
X82021428Y-89252380D01*
X82083333Y-89300000D01*
X82207142Y-89347619D01*
X82516666Y-89347619D01*
X82702380Y-89300000D01*
X79350000Y-89692857D02*
X79350000Y-90292857D01*
X79350000Y-90207142D02*
X79392857Y-90250000D01*
X79478571Y-90292857D01*
X79607142Y-90292857D01*
X79692857Y-90250000D01*
X79735714Y-90164285D01*
X79735714Y-89692857D01*
X79735714Y-90164285D02*
X79778571Y-90250000D01*
X79864285Y-90292857D01*
X79992857Y-90292857D01*
X80078571Y-90250000D01*
X80121428Y-90164285D01*
X80121428Y-89692857D01*
X80550000Y-89692857D02*
X80550000Y-90292857D01*
X80550000Y-90592857D02*
X80507142Y-90550000D01*
X80550000Y-90507142D01*
X80592857Y-90550000D01*
X80550000Y-90592857D01*
X80550000Y-90507142D01*
X80978571Y-89692857D02*
X80978571Y-90592857D01*
X81064285Y-90035714D02*
X81321428Y-89692857D01*
X81321428Y-90292857D02*
X80978571Y-89950000D01*
X81707142Y-89692857D02*
X81707142Y-90292857D01*
X81707142Y-90121428D02*
X81750000Y-90207142D01*
X81792857Y-90250000D01*
X81878571Y-90292857D01*
X81964285Y-90292857D01*
X82392857Y-89692857D02*
X82307142Y-89735714D01*
X82264285Y-89778571D01*
X82221428Y-89864285D01*
X82221428Y-90121428D01*
X82264285Y-90207142D01*
X82307142Y-90250000D01*
X82392857Y-90292857D01*
X82521428Y-90292857D01*
X82607142Y-90250000D01*
X82650000Y-90207142D01*
X82692857Y-90121428D01*
X82692857Y-89864285D01*
X82650000Y-89778571D01*
X82607142Y-89735714D01*
X82521428Y-89692857D01*
X82392857Y-89692857D01*
%TO.C,R43*%
X62492857Y-31127380D02*
X62826190Y-30651190D01*
X63064285Y-31127380D02*
X63064285Y-30127380D01*
X62683333Y-30127380D01*
X62588095Y-30175000D01*
X62540476Y-30222619D01*
X62492857Y-30317857D01*
X62492857Y-30460714D01*
X62540476Y-30555952D01*
X62588095Y-30603571D01*
X62683333Y-30651190D01*
X63064285Y-30651190D01*
X61635714Y-30460714D02*
X61635714Y-31127380D01*
X61873809Y-30079761D02*
X62111904Y-30794047D01*
X61492857Y-30794047D01*
X61207142Y-30127380D02*
X60588095Y-30127380D01*
X60921428Y-30508333D01*
X60778571Y-30508333D01*
X60683333Y-30555952D01*
X60635714Y-30603571D01*
X60588095Y-30698809D01*
X60588095Y-30936904D01*
X60635714Y-31032142D01*
X60683333Y-31079761D01*
X60778571Y-31127380D01*
X61064285Y-31127380D01*
X61159523Y-31079761D01*
X61207142Y-31032142D01*
%TO.C,MIKROBUS1*%
X78407142Y-25253571D02*
X78221428Y-25301190D01*
X78159523Y-25348809D01*
X78097619Y-25444047D01*
X78097619Y-25586904D01*
X78159523Y-25682142D01*
X78221428Y-25729761D01*
X78345238Y-25777380D01*
X78840476Y-25777380D01*
X78840476Y-24777380D01*
X78407142Y-24777380D01*
X78283333Y-24825000D01*
X78221428Y-24872619D01*
X78159523Y-24967857D01*
X78159523Y-25063095D01*
X78221428Y-25158333D01*
X78283333Y-25205952D01*
X78407142Y-25253571D01*
X78840476Y-25253571D01*
X77540476Y-24777380D02*
X77540476Y-25586904D01*
X77478571Y-25682142D01*
X77416666Y-25729761D01*
X77292857Y-25777380D01*
X77045238Y-25777380D01*
X76921428Y-25729761D01*
X76859523Y-25682142D01*
X76797619Y-25586904D01*
X76797619Y-24777380D01*
X76240476Y-25729761D02*
X76054761Y-25777380D01*
X75745238Y-25777380D01*
X75621428Y-25729761D01*
X75559523Y-25682142D01*
X75497619Y-25586904D01*
X75497619Y-25491666D01*
X75559523Y-25396428D01*
X75621428Y-25348809D01*
X75745238Y-25301190D01*
X75992857Y-25253571D01*
X76116666Y-25205952D01*
X76178571Y-25158333D01*
X76240476Y-25063095D01*
X76240476Y-24967857D01*
X76178571Y-24872619D01*
X76116666Y-24825000D01*
X75992857Y-24777380D01*
X75683333Y-24777380D01*
X75497619Y-24825000D01*
X78850000Y-24432142D02*
X78850000Y-23832142D01*
X78850000Y-23917857D02*
X78807142Y-23875000D01*
X78721428Y-23832142D01*
X78592857Y-23832142D01*
X78507142Y-23875000D01*
X78464285Y-23960714D01*
X78464285Y-24432142D01*
X78464285Y-23960714D02*
X78421428Y-23875000D01*
X78335714Y-23832142D01*
X78207142Y-23832142D01*
X78121428Y-23875000D01*
X78078571Y-23960714D01*
X78078571Y-24432142D01*
X77650000Y-24432142D02*
X77650000Y-23832142D01*
X77650000Y-23532142D02*
X77692857Y-23575000D01*
X77650000Y-23617857D01*
X77607142Y-23575000D01*
X77650000Y-23532142D01*
X77650000Y-23617857D01*
X77221428Y-24432142D02*
X77221428Y-23532142D01*
X77135714Y-24089285D02*
X76878571Y-24432142D01*
X76878571Y-23832142D02*
X77221428Y-24175000D01*
X76492857Y-24432142D02*
X76492857Y-23832142D01*
X76492857Y-24003571D02*
X76450000Y-23917857D01*
X76407142Y-23875000D01*
X76321428Y-23832142D01*
X76235714Y-23832142D01*
X75807142Y-24432142D02*
X75892857Y-24389285D01*
X75935714Y-24346428D01*
X75978571Y-24260714D01*
X75978571Y-24003571D01*
X75935714Y-23917857D01*
X75892857Y-23875000D01*
X75807142Y-23832142D01*
X75678571Y-23832142D01*
X75592857Y-23875000D01*
X75550000Y-23917857D01*
X75507142Y-24003571D01*
X75507142Y-24260714D01*
X75550000Y-24346428D01*
X75592857Y-24389285D01*
X75678571Y-24432142D01*
X75807142Y-24432142D01*
%TO.C,R42*%
X54592857Y-31202380D02*
X54926190Y-30726190D01*
X55164285Y-31202380D02*
X55164285Y-30202380D01*
X54783333Y-30202380D01*
X54688095Y-30250000D01*
X54640476Y-30297619D01*
X54592857Y-30392857D01*
X54592857Y-30535714D01*
X54640476Y-30630952D01*
X54688095Y-30678571D01*
X54783333Y-30726190D01*
X55164285Y-30726190D01*
X53735714Y-30535714D02*
X53735714Y-31202380D01*
X53973809Y-30154761D02*
X54211904Y-30869047D01*
X53592857Y-30869047D01*
X53259523Y-30297619D02*
X53211904Y-30250000D01*
X53116666Y-30202380D01*
X52878571Y-30202380D01*
X52783333Y-30250000D01*
X52735714Y-30297619D01*
X52688095Y-30392857D01*
X52688095Y-30488095D01*
X52735714Y-30630952D01*
X53307142Y-31202380D01*
X52688095Y-31202380D01*
D12*
%TO.C,LED5*%
X82000000Y-58140000D02*
G75*
G03*
X82000000Y-58140000I-50000J0D01*
G01*
D13*
%TO.C,R29*%
X58178641Y-32995000D02*
X57871359Y-32995000D01*
X58178641Y-33755000D02*
X57871359Y-33755000D01*
D12*
%TO.C,LED4*%
X59240000Y-36600000D02*
G75*
G03*
X59240000Y-36600000I-50000J0D01*
G01*
%TO.C,LED1*%
X54575000Y-86940000D02*
G75*
G03*
X54575000Y-86940000I-50000J0D01*
G01*
%TO.C,LED6*%
X57135000Y-79075000D02*
G75*
G03*
X57135000Y-79075000I-50000J0D01*
G01*
D13*
%TO.C,R31*%
X84680000Y-57178641D02*
X84680000Y-56871359D01*
X83920000Y-57178641D02*
X83920000Y-56871359D01*
%TO.C,T2*%
X54170000Y-44855000D02*
X60630000Y-44855000D01*
X54170000Y-38395000D02*
X54170000Y-38425000D01*
X54170000Y-42925000D02*
X54170000Y-40325000D01*
X60630000Y-44855000D02*
X60630000Y-44825000D01*
X54170000Y-38395000D02*
X60630000Y-38395000D01*
X54170000Y-44825000D02*
X54170000Y-44855000D01*
X60630000Y-38395000D02*
X60630000Y-38425000D01*
X60630000Y-42925000D02*
X60630000Y-40325000D01*
D12*
%TO.C,LED2*%
X60625000Y-86915000D02*
G75*
G03*
X60625000Y-86915000I-50000J0D01*
G01*
D13*
%TO.C,T1*%
X44855000Y-60430000D02*
X44855000Y-53970000D01*
X38395000Y-60430000D02*
X38425000Y-60430000D01*
X42925000Y-60430000D02*
X40325000Y-60430000D01*
X44855000Y-53970000D02*
X44825000Y-53970000D01*
X38395000Y-60430000D02*
X38395000Y-53970000D01*
X44825000Y-60430000D02*
X44855000Y-60430000D01*
X38395000Y-53970000D02*
X38425000Y-53970000D01*
X42925000Y-53970000D02*
X40325000Y-53970000D01*
%TO.C,MIKROBUS4*%
X33300000Y-89864445D02*
X33300000Y-89125000D01*
X50477208Y-65425000D02*
X50477208Y-89225000D01*
X34800000Y-89125000D02*
X35550000Y-89125000D01*
X23422792Y-63625000D02*
X48677208Y-63625000D01*
X48950000Y-66625000D02*
X46550000Y-64225000D01*
X33300000Y-89125000D02*
X34800000Y-89125000D01*
X21622792Y-65425000D02*
X21622792Y-89225000D01*
X34800000Y-89125000D02*
X34800000Y-89864445D01*
X32550000Y-89125000D02*
X32550000Y-88425000D01*
X34050000Y-89125000D02*
X34050000Y-88425000D01*
X35550000Y-89125000D02*
X35550000Y-88425000D01*
X33300000Y-89125000D02*
X32550000Y-89125000D01*
X48677208Y-91025008D02*
G75*
G03*
X50477208Y-89225000I-8J1800008D01*
G01*
X21622800Y-89225000D02*
G75*
G03*
X23422792Y-91025000I1800000J0D01*
G01*
X23422792Y-63625000D02*
G75*
G03*
X21622792Y-65425000I1J-1800001D01*
G01*
X50477208Y-65425000D02*
G75*
G03*
X48677208Y-63625000I-1800001J-1D01*
G01*
D14*
X35760277Y-88425000D02*
G75*
G03*
X35760277Y-88425000I-210277J0D01*
G01*
X33510277Y-89864445D02*
G75*
G03*
X33510277Y-89864445I-210277J0D01*
G01*
X34260277Y-88425000D02*
G75*
G03*
X34260277Y-88425000I-210277J0D01*
G01*
X32760277Y-88425000D02*
G75*
G03*
X32760277Y-88425000I-210277J0D01*
G01*
X35010277Y-89864445D02*
G75*
G03*
X35010277Y-89864445I-210277J0D01*
G01*
D13*
%TO.C,R30*%
X32530000Y-57578641D02*
X32530000Y-57271359D01*
X31770000Y-57578641D02*
X31770000Y-57271359D01*
%TO.C,R32*%
X58021359Y-80805000D02*
X58328641Y-80805000D01*
X58021359Y-80045000D02*
X58328641Y-80045000D01*
D12*
%TO.C,LED3*%
X34135000Y-58540000D02*
G75*
G03*
X34135000Y-58540000I-50000J0D01*
G01*
D13*
%TO.C,T4*%
X60955000Y-68770000D02*
X54495000Y-68770000D01*
X60955000Y-75230000D02*
X60955000Y-75200000D01*
X60955000Y-70700000D02*
X60955000Y-73300000D01*
X54495000Y-68770000D02*
X54495000Y-68800000D01*
X60955000Y-75230000D02*
X54495000Y-75230000D01*
X60955000Y-68800000D02*
X60955000Y-68770000D01*
X54495000Y-75230000D02*
X54495000Y-75200000D01*
X54495000Y-70700000D02*
X54495000Y-73300000D01*
%TO.C,T3*%
X69870000Y-54045000D02*
X69870000Y-60505000D01*
X76330000Y-54045000D02*
X76300000Y-54045000D01*
X71800000Y-54045000D02*
X74400000Y-54045000D01*
X69870000Y-60505000D02*
X69900000Y-60505000D01*
X76330000Y-54045000D02*
X76330000Y-60505000D01*
X69900000Y-54045000D02*
X69870000Y-54045000D01*
X76330000Y-60505000D02*
X76300000Y-60505000D01*
X71800000Y-60505000D02*
X74400000Y-60505000D01*
%TO.C,R3*%
X62555000Y-85978641D02*
X62555000Y-85671359D01*
X61795000Y-85978641D02*
X61795000Y-85671359D01*
%TO.C,R15*%
X52745000Y-85671359D02*
X52745000Y-85978641D01*
X53505000Y-85671359D02*
X53505000Y-85978641D01*
%TO.C,MIKROBUS2*%
X38800000Y-24085555D02*
X38800000Y-24825000D01*
X21622792Y-48525000D02*
X21622792Y-24725000D01*
X37300000Y-24825000D02*
X36550000Y-24825000D01*
X48677208Y-50325000D02*
X23422792Y-50325000D01*
X23150000Y-47325000D02*
X25550000Y-49725000D01*
X38800000Y-24825000D02*
X37300000Y-24825000D01*
X50477208Y-48525000D02*
X50477208Y-24725000D01*
X37300000Y-24825000D02*
X37300000Y-24085555D01*
X39550000Y-24825000D02*
X39550000Y-25525000D01*
X38050000Y-24825000D02*
X38050000Y-25525000D01*
X36550000Y-24825000D02*
X36550000Y-25525000D01*
X38800000Y-24825000D02*
X39550000Y-24825000D01*
X23422792Y-22924992D02*
G75*
G03*
X21622792Y-24725000I8J-1800008D01*
G01*
X50477200Y-24725000D02*
G75*
G03*
X48677208Y-22925000I-1800000J0D01*
G01*
X48677208Y-50325000D02*
G75*
G03*
X50477208Y-48525000I-1J1800001D01*
G01*
X21622792Y-48525000D02*
G75*
G03*
X23422792Y-50325000I1800001J1D01*
G01*
D14*
X36760277Y-25525000D02*
G75*
G03*
X36760277Y-25525000I-210277J0D01*
G01*
X39010277Y-24085555D02*
G75*
G03*
X39010277Y-24085555I-210277J0D01*
G01*
X38260277Y-25525000D02*
G75*
G03*
X38260277Y-25525000I-210277J0D01*
G01*
X39760277Y-25525000D02*
G75*
G03*
X39760277Y-25525000I-210277J0D01*
G01*
X37510277Y-24085555D02*
G75*
G03*
X37510277Y-24085555I-210277J0D01*
G01*
D13*
%TO.C,MIKROBUS3*%
X76350000Y-90039445D02*
X76350000Y-89300000D01*
X93527208Y-65600000D02*
X93527208Y-89400000D01*
X77850000Y-89300000D02*
X78600000Y-89300000D01*
X66472792Y-63800000D02*
X91727208Y-63800000D01*
X92000000Y-66800000D02*
X89600000Y-64400000D01*
X76350000Y-89300000D02*
X77850000Y-89300000D01*
X64672792Y-65600000D02*
X64672792Y-89400000D01*
X77850000Y-89300000D02*
X77850000Y-90039445D01*
X75600000Y-89300000D02*
X75600000Y-88600000D01*
X77100000Y-89300000D02*
X77100000Y-88600000D01*
X78600000Y-89300000D02*
X78600000Y-88600000D01*
X76350000Y-89300000D02*
X75600000Y-89300000D01*
X91727208Y-91200008D02*
G75*
G03*
X93527208Y-89400000I-8J1800008D01*
G01*
X64672800Y-89400000D02*
G75*
G03*
X66472792Y-91200000I1800000J0D01*
G01*
X66472792Y-63800000D02*
G75*
G03*
X64672792Y-65600000I1J-1800001D01*
G01*
X93527208Y-65600000D02*
G75*
G03*
X91727208Y-63800000I-1800001J-1D01*
G01*
D14*
X78810277Y-88600000D02*
G75*
G03*
X78810277Y-88600000I-210277J0D01*
G01*
X76560277Y-90039445D02*
G75*
G03*
X76560277Y-90039445I-210277J0D01*
G01*
X77310277Y-88600000D02*
G75*
G03*
X77310277Y-88600000I-210277J0D01*
G01*
X75810277Y-88600000D02*
G75*
G03*
X75810277Y-88600000I-210277J0D01*
G01*
X78060277Y-90039445D02*
G75*
G03*
X78060277Y-90039445I-210277J0D01*
G01*
D13*
%TO.C,R43*%
X62003641Y-28895000D02*
X61696359Y-28895000D01*
X62003641Y-29655000D02*
X61696359Y-29655000D01*
%TO.C,MIKROBUS1*%
X81850000Y-24085555D02*
X81850000Y-24825000D01*
X64672792Y-48525000D02*
X64672792Y-24725000D01*
X80350000Y-24825000D02*
X79600000Y-24825000D01*
X91727208Y-50325000D02*
X66472792Y-50325000D01*
X66200000Y-47325000D02*
X68600000Y-49725000D01*
X81850000Y-24825000D02*
X80350000Y-24825000D01*
X93527208Y-48525000D02*
X93527208Y-24725000D01*
X80350000Y-24825000D02*
X80350000Y-24085555D01*
X82600000Y-24825000D02*
X82600000Y-25525000D01*
X81100000Y-24825000D02*
X81100000Y-25525000D01*
X79600000Y-24825000D02*
X79600000Y-25525000D01*
X81850000Y-24825000D02*
X82600000Y-24825000D01*
X66472792Y-22924992D02*
G75*
G03*
X64672792Y-24725000I8J-1800008D01*
G01*
X93527200Y-24725000D02*
G75*
G03*
X91727208Y-22925000I-1800000J0D01*
G01*
X91727208Y-50325000D02*
G75*
G03*
X93527208Y-48525000I-1J1800001D01*
G01*
X64672792Y-48525000D02*
G75*
G03*
X66472792Y-50325000I1800001J1D01*
G01*
D14*
X79810277Y-25525000D02*
G75*
G03*
X79810277Y-25525000I-210277J0D01*
G01*
X82060277Y-24085555D02*
G75*
G03*
X82060277Y-24085555I-210277J0D01*
G01*
X81310277Y-25525000D02*
G75*
G03*
X81310277Y-25525000I-210277J0D01*
G01*
X82810277Y-25525000D02*
G75*
G03*
X82810277Y-25525000I-210277J0D01*
G01*
X80560277Y-24085555D02*
G75*
G03*
X80560277Y-24085555I-210277J0D01*
G01*
D13*
%TO.C,T5*%
X60755000Y-20095000D02*
X54295000Y-20095000D01*
X60755000Y-26555000D02*
X60755000Y-26525000D01*
X60755000Y-22025000D02*
X60755000Y-24625000D01*
X54295000Y-20095000D02*
X54295000Y-20125000D01*
X60755000Y-26555000D02*
X54295000Y-26555000D01*
X60755000Y-20125000D02*
X60755000Y-20095000D01*
X54295000Y-26555000D02*
X54295000Y-26525000D01*
X54295000Y-22025000D02*
X54295000Y-24625000D01*
%TO.C,R42*%
X53796359Y-29705000D02*
X54103641Y-29705000D01*
X53796359Y-28945000D02*
X54103641Y-28945000D01*
%TD*%
M02*
