%TF.GenerationSoftware,KiCad,Pcbnew,(6.0.7)*%
%TF.CreationDate,2022-08-29T18:43:19+02:00*%
%TF.ProjectId,UNIclicker,554e4963-6c69-4636-9b65-722e6b696361,rev?*%
%TF.SameCoordinates,Original*%
%TF.FileFunction,Copper,L2,Inr*%
%TF.FilePolarity,Positive*%
%FSLAX46Y46*%
G04 Gerber Fmt 4.6, Leading zero omitted, Abs format (unit mm)*
G04 Created by KiCad (PCBNEW (6.0.7)) date 2022-08-29 18:43:19*
%MOMM*%
%LPD*%
G01*
G04 APERTURE LIST*
%TA.AperFunction,ComponentPad*%
%ADD10R,1.700000X1.700000*%
%TD*%
%TA.AperFunction,ComponentPad*%
%ADD11O,1.700000X1.700000*%
%TD*%
%TA.AperFunction,ComponentPad*%
%ADD12O,1.000000X1.600000*%
%TD*%
%TA.AperFunction,ComponentPad*%
%ADD13O,1.000000X2.100000*%
%TD*%
%TA.AperFunction,ViaPad*%
%ADD14C,0.558800*%
%TD*%
%TA.AperFunction,Conductor*%
%ADD15C,0.200000*%
%TD*%
G04 APERTURE END LIST*
D10*
%TO.N,/NRST*%
%TO.C,J3*%
X97150000Y-88960000D03*
D11*
%TO.N,/VSYS*%
X97150000Y-86420000D03*
%TO.N,/VCC-5V*%
X97150000Y-83880000D03*
%TO.N,/VCC-3.3V*%
X97150000Y-81340000D03*
%TO.N,GND*%
X97150000Y-78800000D03*
X97150000Y-76260000D03*
X97150000Y-73720000D03*
X97150000Y-71180000D03*
%TO.N,/HDR-CAN-RX*%
X97150000Y-68640000D03*
%TO.N,/HDR-CAN-TX*%
X97150000Y-66100000D03*
%TO.N,/LAN-RX_N*%
X97150000Y-63560000D03*
%TO.N,/LAN-RX_P*%
X97150000Y-61020000D03*
%TO.N,/LAN-TX_N*%
X97150000Y-58480000D03*
%TO.N,/LAN-TX_P*%
X97150000Y-55940000D03*
%TO.N,/MB1-AN*%
X97150000Y-53400000D03*
%TO.N,/MB2-AN*%
X97150000Y-50860000D03*
%TO.N,/MB3-AN*%
X97150000Y-48320000D03*
%TO.N,/MB4-AN*%
X97150000Y-45780000D03*
%TO.N,/MB5-AN*%
X97150000Y-43240000D03*
%TO.N,/MB2-CS*%
X97150000Y-40700000D03*
%TO.N,/MB3-CS*%
X97150000Y-38160000D03*
%TO.N,/MB4-CS*%
X97150000Y-35620000D03*
%TO.N,/MB1-RST*%
X97150000Y-33080000D03*
%TO.N,/MB2-RST*%
X97150000Y-30540000D03*
%TO.N,/MB3-RST*%
X97150000Y-28000000D03*
%TO.N,/MB4-RST*%
X97150000Y-25460000D03*
%TD*%
D12*
%TO.N,GNDPWR*%
%TO.C,CN3*%
X53180000Y-96250000D03*
D13*
X53180000Y-92070000D03*
X61820000Y-92070000D03*
D12*
X61820000Y-96250000D03*
%TD*%
D10*
%TO.N,/MB1-MOSI*%
%TO.C,J2*%
X17900000Y-88625000D03*
D11*
%TO.N,/MB1-MISO*%
X17900000Y-86085000D03*
%TO.N,/MB1-SCK*%
X17900000Y-83545000D03*
%TO.N,/MB1-CS*%
X17900000Y-81005000D03*
%TO.N,/MB5-MOSI*%
X17900000Y-78465000D03*
%TO.N,/MB5-MISO*%
X17900000Y-75925000D03*
%TO.N,/MB5-SCK*%
X17900000Y-73385000D03*
%TO.N,/MB5-CS*%
X17900000Y-70845000D03*
%TO.N,/MB1-SCL*%
X17900000Y-68305000D03*
%TO.N,/MB1-SDA*%
X17900000Y-65765000D03*
%TO.N,/MB5-SCL*%
X17900000Y-63225000D03*
%TO.N,/MB5-SDA*%
X17900000Y-60685000D03*
%TO.N,/MB1-RX*%
X17900000Y-58145000D03*
%TO.N,/MB1-TX*%
X17900000Y-55605000D03*
%TO.N,/MB5-RX*%
X17900000Y-53065000D03*
%TO.N,/MB5-TX*%
X17900000Y-50525000D03*
%TO.N,/MB1-PWM*%
X17900000Y-47985000D03*
%TO.N,/MB2-PWM*%
X17900000Y-45445000D03*
%TO.N,/MB3-PWM*%
X17900000Y-42905000D03*
%TO.N,/MB4-PWM*%
X17900000Y-40365000D03*
%TO.N,/LCD-BPWM*%
X17900000Y-37825000D03*
%TO.N,/MB1-INT*%
X17900000Y-35285000D03*
%TO.N,/MB2-INT*%
X17900000Y-32745000D03*
%TO.N,/MB3-INT*%
X17900000Y-30205000D03*
%TO.N,/MB4-INT*%
X17900000Y-27665000D03*
%TO.N,/MB5-INT*%
X17900000Y-25125000D03*
%TD*%
D14*
%TO.N,/VCC-3.3V*%
X51000000Y-64050000D03*
X92025000Y-43075000D03*
X57325000Y-27900000D03*
X83650000Y-70700000D03*
X27675000Y-39725000D03*
X57050000Y-72775000D03*
X42200000Y-35650000D03*
X57475000Y-25650000D03*
X61425000Y-84275000D03*
X48925000Y-43175000D03*
X42475000Y-40875000D03*
X27537500Y-71387500D03*
X42275000Y-84000000D03*
X43675000Y-72650000D03*
X46850000Y-77550000D03*
X52275000Y-57175000D03*
%TO.N,GND*%
X50600000Y-67075000D03*
X61075000Y-73675000D03*
X57600000Y-78050000D03*
X48975000Y-45650000D03*
X39475000Y-61025000D03*
X60000000Y-36600000D03*
X93400000Y-68150000D03*
X75350000Y-52475000D03*
X24550000Y-45650000D03*
X53700000Y-88175000D03*
X50525000Y-89400000D03*
X54850000Y-65700000D03*
X62550000Y-25500000D03*
X66300000Y-45450000D03*
X49225000Y-66350000D03*
X57050000Y-87750000D03*
X92025000Y-45075000D03*
X62175000Y-85325000D03*
X24175000Y-68900000D03*
X68400000Y-67000000D03*
X81975000Y-57525000D03*
X53400000Y-72750000D03*
X46700000Y-70650000D03*
X63725000Y-68925000D03*
%TO.N,/VSYS*%
X55855000Y-71995000D03*
X56250000Y-65950000D03*
X68150000Y-77325000D03*
X59825000Y-76025000D03*
%TO.N,/VCC-5V*%
X91980000Y-71050000D03*
X58375000Y-65900000D03*
X64275000Y-53375000D03*
X65675000Y-62875000D03*
X83962500Y-68037500D03*
X64850000Y-43375000D03*
X61750000Y-65550000D03*
%TO.N,/VCC-USB*%
X65700000Y-56875000D03*
X70575000Y-72400000D03*
%TO.N,/VCC-BAT*%
X71325000Y-56875000D03*
X73050000Y-81175000D03*
X73475000Y-74425000D03*
%TO.N,/USB-VBUS*%
X54725000Y-66625000D03*
X52325000Y-88450000D03*
X52875000Y-63100000D03*
X56725000Y-53950000D03*
X55900000Y-76950000D03*
X56850000Y-84125000D03*
X45125000Y-83725000D03*
%TO.N,/LDO3V3*%
X28750000Y-95975000D03*
X55275000Y-84225000D03*
X64125000Y-69600000D03*
X62350000Y-81850000D03*
X72675000Y-74875000D03*
%TO.N,/REF*%
X27925000Y-46275000D03*
X41975000Y-39000000D03*
%TO.N,/LEDD*%
X53975000Y-81700000D03*
X27625000Y-49700000D03*
X21100000Y-66075000D03*
%TO.N,/Button_4*%
X48775000Y-51975000D03*
X27875000Y-51950000D03*
X45825000Y-51925000D03*
%TO.N,/LEDA*%
X32050000Y-54800000D03*
%TO.N,/LEDB*%
X27275000Y-41400000D03*
X56562500Y-34762500D03*
X26900000Y-53075000D03*
%TO.N,/LEDC*%
X32075000Y-55900000D03*
X50075000Y-57275000D03*
%TO.N,/MB5-SDA*%
X36175000Y-80025000D03*
%TO.N,/MB5-TX*%
X35900000Y-78600000D03*
%TO.N,/MB5-RX*%
X36575000Y-79100000D03*
%TO.N,/MB5-INT*%
X32150000Y-77275000D03*
%TO.N,/MB5-MOSI*%
X32950000Y-76225000D03*
%TO.N,/MB5-MISO*%
X32875000Y-75350000D03*
%TO.N,/MB5-SCK*%
X30875000Y-74125000D03*
%TO.N,/MB5-CS*%
X40900000Y-68550000D03*
X33375000Y-72800000D03*
%TO.N,/MB5-RST*%
X39800000Y-68525000D03*
%TO.N,/MB5-AN*%
X65975000Y-65050000D03*
X78225000Y-58750000D03*
X36925000Y-73375000D03*
X52600000Y-64975000D03*
%TO.N,/MB4-SDA*%
X48075000Y-73850000D03*
X38600000Y-72525000D03*
%TO.N,/MB4-SCL*%
X39300000Y-71725000D03*
X47825000Y-76100000D03*
%TO.N,/MB4-TX*%
X48825000Y-78550000D03*
X37350000Y-70900000D03*
%TO.N,/MB4-RX*%
X48750000Y-81000000D03*
X36275000Y-71150000D03*
%TO.N,/MB4-INT*%
X48775000Y-83900000D03*
X36500000Y-70000000D03*
%TO.N,/MB4-PWM*%
X21550000Y-53000000D03*
X35800000Y-69200000D03*
X49950000Y-86275000D03*
%TO.N,/MB4-MOSI*%
X24450000Y-73825000D03*
X33375000Y-71550000D03*
%TO.N,/MB4-MISO*%
X32800000Y-70375000D03*
X24175000Y-76000000D03*
%TO.N,/MB4-SCK*%
X32050000Y-70250000D03*
X23200000Y-78550000D03*
%TO.N,/MB4-CS*%
X88600000Y-37900000D03*
X31225000Y-70150000D03*
X24375000Y-81300000D03*
%TO.N,/MB4-RST*%
X32250000Y-68500000D03*
X23775000Y-83750000D03*
%TO.N,/MB4-AN*%
X23250000Y-86175000D03*
X32250000Y-67650000D03*
%TO.N,/MB3-SDA*%
X38825000Y-65575000D03*
X92000000Y-73700000D03*
%TO.N,/MB3-SCL*%
X92000000Y-76200000D03*
X37050000Y-65925000D03*
%TO.N,/MB3-TX*%
X92025000Y-78775000D03*
X36050000Y-65825000D03*
%TO.N,/MB3-RX*%
X92000000Y-81225000D03*
X33325000Y-65600000D03*
%TO.N,/MB3-INT*%
X92000000Y-83825000D03*
X31975000Y-66000000D03*
%TO.N,/MB3-PWM*%
X37550000Y-64800000D03*
X38450000Y-75675000D03*
X92000000Y-86300000D03*
X42750000Y-70550000D03*
%TO.N,/MB3-MOSI*%
X66350000Y-73725000D03*
X40700000Y-67325000D03*
%TO.N,/MB3-MISO*%
X65650000Y-76125000D03*
X45375000Y-66900000D03*
%TO.N,/MB3-SCK*%
X46000000Y-68325000D03*
X66950000Y-78775000D03*
%TO.N,/MB3-CS*%
X88300000Y-47800000D03*
X44275000Y-67300000D03*
X69375000Y-83550000D03*
%TO.N,/MB3-RST*%
X66175000Y-83800000D03*
X43600000Y-66200000D03*
%TO.N,/MB3-AN*%
X36750000Y-61200000D03*
X66225000Y-86275000D03*
%TO.N,/MB2-SDA*%
X31100000Y-61550000D03*
X23200000Y-40650000D03*
%TO.N,/MB2-SCL*%
X23175000Y-38075000D03*
X30975000Y-60800000D03*
%TO.N,/MB2-TX*%
X23150000Y-35500000D03*
X30750000Y-60050000D03*
%TO.N,/MB2-RX*%
X23150000Y-32975000D03*
X31350000Y-59400000D03*
%TO.N,/MB2-INT*%
X31975000Y-58875000D03*
%TO.N,/MB2-PWM*%
X32925000Y-58250000D03*
%TO.N,/MB2-MOSI*%
X31000000Y-57475000D03*
X49025000Y-40675000D03*
X40900000Y-44075000D03*
%TO.N,/MB2-MISO*%
X39675000Y-44700000D03*
X49100000Y-37750000D03*
X30825000Y-56300000D03*
%TO.N,/MB2-SCK*%
X37400000Y-54550000D03*
X38725000Y-45250000D03*
X49775000Y-35550000D03*
%TO.N,/MB2-CS*%
X48925000Y-32975000D03*
X36625000Y-54950000D03*
X36475000Y-45325000D03*
%TO.N,/MB2-RST*%
X48950000Y-30225000D03*
X33250000Y-55975000D03*
%TO.N,/MB2-AN*%
X48950000Y-27875000D03*
X33575000Y-55100000D03*
%TO.N,/MB1-SDA*%
X36950000Y-53800000D03*
X66400000Y-40600000D03*
%TO.N,/MB1-SCL*%
X36112500Y-53687500D03*
X66325000Y-38025000D03*
%TO.N,/MB1-TX*%
X66325000Y-35550000D03*
X33425000Y-53950000D03*
%TO.N,/MB1-RX*%
X66300000Y-32950000D03*
X33400000Y-53025000D03*
%TO.N,/MB1-INT*%
X67000000Y-30200000D03*
X42350000Y-48675000D03*
%TO.N,/MB1-PWM*%
X40925000Y-49400000D03*
X65200000Y-27825000D03*
%TO.N,/MB1-MOSI*%
X92050000Y-40500000D03*
X46275000Y-58925000D03*
%TO.N,/MB1-MISO*%
X45875000Y-49450000D03*
X92000000Y-38050000D03*
%TO.N,/MB1-SCK*%
X52750000Y-37775000D03*
X92000000Y-35425000D03*
%TO.N,/MB1-CS*%
X37675000Y-48900000D03*
X92025000Y-32950000D03*
%TO.N,/MB1-RST*%
X36625000Y-49075000D03*
%TO.N,/MB1-AN*%
X35750000Y-49000000D03*
%TO.N,/PROG-MUX*%
X40600000Y-18125000D03*
X36350000Y-40700000D03*
%TO.N,/NRST*%
X62400000Y-29275000D03*
X40575000Y-37675000D03*
X70225000Y-17275000D03*
%TO.N,/TCK{slash}SCK{slash}PGC*%
X60050000Y-19700000D03*
X38325000Y-36975000D03*
%TO.N,/TMS{slash}MOSI*%
X57600000Y-19625000D03*
X37175000Y-36900000D03*
%TO.N,GNDPWR*%
X82950000Y-34500000D03*
X82925000Y-82375000D03*
X80875000Y-98300000D03*
X32775000Y-82125000D03*
X32050000Y-34300000D03*
%TO.N,/CAN-RX*%
X89300000Y-59200000D03*
X89000000Y-68250000D03*
%TO.N,/USB_PSW*%
X77525000Y-57700000D03*
X57220000Y-51030000D03*
%TO.N,/USB-SW-ID*%
X48875000Y-84975000D03*
X77150000Y-56900000D03*
%TO.N,/USB-D_P*%
X59200000Y-82525000D03*
X77175000Y-55975000D03*
%TO.N,/USB-D_N*%
X56100000Y-82225000D03*
X77700000Y-55275000D03*
%TO.N,/VBUS*%
X49700000Y-82175000D03*
X78300000Y-54575000D03*
%TO.N,/CC2*%
X58650000Y-88750000D03*
X53925000Y-83850000D03*
%TO.N,Net-(J10-Pad6)*%
X70375000Y-20000000D03*
X44325000Y-21100000D03*
%TO.N,Net-(J10-Pad8)*%
X45850000Y-28900000D03*
X70275000Y-18600000D03*
%TO.N,Net-(LED1-Pad1)*%
X62975000Y-76200000D03*
X36900000Y-75850000D03*
X43812500Y-83937500D03*
%TO.N,/USB_PSW!*%
X53237500Y-48350000D03*
X52175000Y-83500000D03*
X54750000Y-57900000D03*
X44975000Y-72525000D03*
X36225000Y-81000000D03*
%TO.N,/PWR-EN*%
X56400000Y-74200000D03*
X48675000Y-89675000D03*
X65500000Y-74925000D03*
%TO.N,Net-(M1-Pad3)*%
X73850000Y-57050000D03*
X69625000Y-54050000D03*
%TD*%
D15*
%TO.N,/VCC-3.3V*%
X49650000Y-54550000D02*
X52275000Y-57175000D01*
X61425000Y-76650000D02*
X57550000Y-72775000D01*
X27675000Y-35575000D02*
X30025000Y-33225000D01*
X39775000Y-33225000D02*
X42175000Y-35625000D01*
X48925000Y-43175000D02*
X49650000Y-43900000D01*
X57550000Y-72775000D02*
X57050000Y-72775000D01*
X49650000Y-43900000D02*
X49650000Y-54550000D01*
X61425000Y-84275000D02*
X61425000Y-76650000D01*
X30025000Y-33225000D02*
X39775000Y-33225000D01*
X27675000Y-39725000D02*
X27675000Y-35575000D01*
%TO.N,/USB-VBUS*%
X56850000Y-77900000D02*
X55900000Y-76950000D01*
X56850000Y-84125000D02*
X56850000Y-77900000D01*
%TO.N,/LDO3V3*%
X66525000Y-74875000D02*
X64125000Y-72475000D01*
X64125000Y-72475000D02*
X64125000Y-69600000D01*
X72675000Y-74875000D02*
X66525000Y-74875000D01*
%TO.N,/REF*%
X27925000Y-46275000D02*
X35350000Y-38850000D01*
X35350000Y-38850000D02*
X41825000Y-38850000D01*
X41825000Y-38850000D02*
X41975000Y-39000000D01*
%TO.N,/LEDD*%
X21100000Y-56225000D02*
X21100000Y-66075000D01*
X27625000Y-49700000D02*
X21100000Y-56225000D01*
%TO.N,/LEDB*%
X35925000Y-37950000D02*
X30725000Y-37950000D01*
X54650000Y-36675000D02*
X49575000Y-36675000D01*
X38700000Y-37900000D02*
X38650000Y-37950000D01*
X56562500Y-34762500D02*
X54650000Y-36675000D01*
X38650000Y-37950000D02*
X35925000Y-37950000D01*
X39525000Y-37075000D02*
X38700000Y-37900000D01*
X41000000Y-37075000D02*
X39525000Y-37075000D01*
X41100000Y-37175000D02*
X41000000Y-37075000D01*
X49575000Y-36675000D02*
X48350000Y-36675000D01*
X30725000Y-37950000D02*
X27275000Y-41400000D01*
X48350000Y-36675000D02*
X47850000Y-37175000D01*
X47850000Y-37175000D02*
X41100000Y-37175000D01*
%TO.N,/MB5-AN*%
X52600000Y-64975000D02*
X52850000Y-64725000D01*
X65650000Y-64725000D02*
X65975000Y-65050000D01*
X52850000Y-64725000D02*
X65650000Y-64725000D01*
%TO.N,/MB4-SDA*%
X42750000Y-76700000D02*
X48100000Y-76700000D01*
X48100000Y-76700000D02*
X48425000Y-76375000D01*
X48425000Y-76375000D02*
X48425000Y-74200000D01*
X38600000Y-72550000D02*
X42750000Y-76700000D01*
X38600000Y-72525000D02*
X38600000Y-72550000D01*
X48425000Y-74200000D02*
X48075000Y-73850000D01*
%TO.N,/MB4-SCL*%
X47825000Y-74475000D02*
X47825000Y-76100000D01*
X39300000Y-71725000D02*
X39350000Y-71775000D01*
X39350000Y-71775000D02*
X45125000Y-71775000D01*
X45125000Y-71775000D02*
X47825000Y-74475000D01*
%TO.N,/MB4-TX*%
X37350000Y-72375000D02*
X43525000Y-78550000D01*
X43525000Y-78550000D02*
X48825000Y-78550000D01*
X37350000Y-70900000D02*
X37350000Y-72375000D01*
%TO.N,/MB4-RX*%
X36275000Y-71150000D02*
X36275000Y-71875000D01*
X45400000Y-81000000D02*
X48750000Y-81000000D01*
X36275000Y-71875000D02*
X45400000Y-81000000D01*
%TO.N,/MB4-INT*%
X46825000Y-85850000D02*
X39350000Y-85850000D01*
X35250000Y-81750000D02*
X35250000Y-70375000D01*
X39350000Y-85850000D02*
X35250000Y-81750000D01*
X35625000Y-70000000D02*
X36500000Y-70000000D01*
X35250000Y-70375000D02*
X35625000Y-70000000D01*
X48775000Y-83900000D02*
X46825000Y-85850000D01*
%TO.N,/MB4-PWM*%
X34800000Y-81950000D02*
X39100000Y-86250000D01*
X34800000Y-70200000D02*
X34800000Y-81950000D01*
X35800000Y-69200000D02*
X34800000Y-70200000D01*
X39100000Y-86250000D02*
X49925000Y-86250000D01*
X49925000Y-86250000D02*
X49950000Y-86275000D01*
%TO.N,/MB4-MOSI*%
X32900000Y-69550000D02*
X27950000Y-69550000D01*
X33375000Y-71550000D02*
X33375000Y-70550000D01*
X33500000Y-70150000D02*
X32900000Y-69550000D01*
X33375000Y-71025000D02*
X33425000Y-70975000D01*
X33375000Y-71550000D02*
X33375000Y-71025000D01*
X33500000Y-70425000D02*
X33500000Y-70150000D01*
X24450000Y-73050000D02*
X24450000Y-73825000D01*
X33375000Y-70550000D02*
X33500000Y-70425000D01*
X27950000Y-69550000D02*
X24450000Y-73050000D01*
%TO.N,/MB4-MISO*%
X32775000Y-70400000D02*
X32775000Y-74400000D01*
X32775000Y-74400000D02*
X24850000Y-82325000D01*
X32800000Y-70375000D02*
X32775000Y-70400000D01*
X22600000Y-81075000D02*
X22600000Y-77575000D01*
X24850000Y-82325000D02*
X23850000Y-82325000D01*
X22600000Y-77575000D02*
X24175000Y-76000000D01*
X23850000Y-82325000D02*
X22600000Y-81075000D01*
%TO.N,/MB4-SCK*%
X32375000Y-70775000D02*
X32050000Y-70450000D01*
X32050000Y-70250000D02*
X32175000Y-70375000D01*
X23200000Y-78550000D02*
X23200000Y-81050000D01*
X24650000Y-81925000D02*
X32375000Y-74200000D01*
X32050000Y-70450000D02*
X32050000Y-70250000D01*
X23200000Y-81050000D02*
X24075000Y-81925000D01*
X32375000Y-74200000D02*
X32375000Y-70775000D01*
X24075000Y-81925000D02*
X24650000Y-81925000D01*
%TO.N,/MB4-CS*%
X31225000Y-70300000D02*
X31225000Y-70150000D01*
X24375000Y-81300000D02*
X24700000Y-81300000D01*
X31225000Y-70150000D02*
X31475000Y-70400000D01*
X24700000Y-81300000D02*
X31975000Y-74025000D01*
X31975000Y-74025000D02*
X31975000Y-71050000D01*
X31975000Y-71050000D02*
X31225000Y-70300000D01*
%TO.N,/MB4-RST*%
X33975000Y-76500000D02*
X26725000Y-83750000D01*
X33600000Y-68500000D02*
X33975000Y-68875000D01*
X26725000Y-83750000D02*
X23775000Y-83750000D01*
X33975000Y-68875000D02*
X33975000Y-76500000D01*
X32250000Y-68500000D02*
X33600000Y-68500000D01*
%TO.N,/MB4-AN*%
X34375000Y-76700000D02*
X24900000Y-86175000D01*
X33700000Y-67850000D02*
X34375000Y-68525000D01*
X32450000Y-67850000D02*
X33700000Y-67850000D01*
X34375000Y-68525000D02*
X34375000Y-76700000D01*
X24900000Y-86175000D02*
X23250000Y-86175000D01*
X32250000Y-67650000D02*
X32450000Y-67850000D01*
%TO.N,/MB3-SDA*%
X78200000Y-59900000D02*
X44525000Y-59900000D01*
X44525000Y-59900000D02*
X38850000Y-65575000D01*
X38850000Y-65575000D02*
X38825000Y-65575000D01*
X92000000Y-73700000D02*
X78200000Y-59900000D01*
%TO.N,/MB3-SCL*%
X39000000Y-66225000D02*
X44850000Y-60375000D01*
X78025000Y-60375000D02*
X80400000Y-62750000D01*
X37050000Y-65925000D02*
X37350000Y-66225000D01*
X92000000Y-74675000D02*
X92000000Y-76200000D01*
X80350000Y-62750000D02*
X80350000Y-63025000D01*
X44850000Y-60375000D02*
X78025000Y-60375000D01*
X80350000Y-63025000D02*
X92000000Y-74675000D01*
X37350000Y-66225000D02*
X39000000Y-66225000D01*
%TO.N,/MB3-TX*%
X45025000Y-60850000D02*
X72250000Y-60850000D01*
X36050000Y-65825000D02*
X36050000Y-65875000D01*
X36800000Y-66625000D02*
X39250000Y-66625000D01*
X36050000Y-65875000D02*
X36800000Y-66625000D01*
X39250000Y-66625000D02*
X45025000Y-60850000D01*
X72250000Y-60850000D02*
X90175000Y-78775000D01*
X90175000Y-78775000D02*
X92025000Y-78775000D01*
%TO.N,/MB3-RX*%
X33325000Y-65600000D02*
X34750000Y-67025000D01*
X39475000Y-67025000D02*
X45250000Y-61250000D01*
X33325000Y-65600000D02*
X33400000Y-65525000D01*
X34750000Y-67025000D02*
X39475000Y-67025000D01*
X45250000Y-61250000D02*
X72025000Y-61250000D01*
X72025000Y-61250000D02*
X92000000Y-81225000D01*
%TO.N,/MB3-INT*%
X66875000Y-30950000D02*
X65800000Y-29875000D01*
X65800000Y-29875000D02*
X65800000Y-27325000D01*
X94900000Y-82475000D02*
X94900000Y-33800000D01*
X93550000Y-83825000D02*
X94900000Y-82475000D01*
X94900000Y-33800000D02*
X92050000Y-30950000D01*
X92050000Y-30950000D02*
X66875000Y-30950000D01*
X92000000Y-83825000D02*
X93550000Y-83825000D01*
X64925000Y-26450000D02*
X24500000Y-26450000D01*
X20700000Y-30250000D02*
X17945000Y-30250000D01*
X65800000Y-27325000D02*
X64925000Y-26450000D01*
X17945000Y-30250000D02*
X17900000Y-30205000D01*
X24500000Y-26450000D02*
X20700000Y-30250000D01*
%TO.N,/MB3-PWM*%
X52900000Y-82575000D02*
X52900000Y-86425000D01*
X44900000Y-82125000D02*
X48775000Y-82125000D01*
X48775000Y-82125000D02*
X49575000Y-81325000D01*
X52900000Y-86425000D02*
X52200000Y-87125000D01*
X92000000Y-86300000D02*
X91175000Y-87125000D01*
X15525000Y-88550000D02*
X15525000Y-44700000D01*
X45800000Y-89875000D02*
X16850000Y-89875000D01*
X38450000Y-75675000D02*
X44900000Y-82125000D01*
X49575000Y-81325000D02*
X51650000Y-81325000D01*
X48550000Y-87125000D02*
X45800000Y-89875000D01*
X51650000Y-81325000D02*
X52900000Y-82575000D01*
X52200000Y-87125000D02*
X51600000Y-87125000D01*
X17320000Y-42905000D02*
X17900000Y-42905000D01*
X15525000Y-44700000D02*
X17320000Y-42905000D01*
X16850000Y-89875000D02*
X15525000Y-88550000D01*
X51600000Y-87125000D02*
X48550000Y-87125000D01*
X91175000Y-87125000D02*
X52200000Y-87125000D01*
%TO.N,/MB3-MOSI*%
X69025000Y-71050000D02*
X69025000Y-62500000D01*
X66350000Y-73725000D02*
X69025000Y-71050000D01*
X45575000Y-61675000D02*
X40700000Y-66550000D01*
X68200000Y-61675000D02*
X45575000Y-61675000D01*
X40700000Y-66550000D02*
X40700000Y-67325000D01*
X69025000Y-62500000D02*
X68200000Y-61675000D01*
%TO.N,/MB3-MISO*%
X65650000Y-75925000D02*
X57550000Y-67825000D01*
X57550000Y-67825000D02*
X46300000Y-67825000D01*
X65650000Y-76125000D02*
X65650000Y-75925000D01*
X46300000Y-67825000D02*
X45375000Y-66900000D01*
%TO.N,/MB3-SCK*%
X66950000Y-78250000D02*
X57050000Y-68350000D01*
X46025000Y-68350000D02*
X46000000Y-68325000D01*
X57050000Y-68350000D02*
X46025000Y-68350000D01*
X66950000Y-78775000D02*
X66950000Y-78250000D01*
%TO.N,/MB3-CS*%
X69375000Y-83550000D02*
X69375000Y-83425000D01*
X69375000Y-83425000D02*
X54875000Y-68925000D01*
X45700000Y-68925000D02*
X44275000Y-67500000D01*
X44275000Y-67500000D02*
X44275000Y-67300000D01*
X54875000Y-68925000D02*
X45700000Y-68925000D01*
%TO.N,/MB3-RST*%
X98350000Y-29200000D02*
X98350000Y-84400000D01*
X43600000Y-67525000D02*
X45500000Y-69425000D01*
X97150000Y-28000000D02*
X98350000Y-29200000D01*
X54800000Y-69425000D02*
X66175000Y-80800000D01*
X97550000Y-85200000D02*
X67575000Y-85200000D01*
X98350000Y-84400000D02*
X97550000Y-85200000D01*
X45500000Y-69425000D02*
X54800000Y-69425000D01*
X43600000Y-66200000D02*
X43600000Y-67525000D01*
X66175000Y-80800000D02*
X66175000Y-83800000D01*
X67575000Y-85200000D02*
X66175000Y-83800000D01*
%TO.N,/MB3-AN*%
X32725000Y-64800000D02*
X32725000Y-65825000D01*
X32725000Y-65825000D02*
X33225000Y-66325000D01*
X39500000Y-69350000D02*
X44575000Y-69350000D01*
X54600000Y-83275000D02*
X54600000Y-85975000D01*
X44575000Y-69350000D02*
X45250000Y-70025000D01*
X50375000Y-79050000D02*
X54600000Y-83275000D01*
X36750000Y-61200000D02*
X36325000Y-61200000D01*
X54600000Y-85975000D02*
X54900000Y-86275000D01*
X50375000Y-70625000D02*
X50375000Y-79050000D01*
X33225000Y-66525000D02*
X34150000Y-67450000D01*
X34150000Y-67450000D02*
X37600000Y-67450000D01*
X45250000Y-70025000D02*
X49775000Y-70025000D01*
X54900000Y-86275000D02*
X66225000Y-86275000D01*
X36325000Y-61200000D02*
X32725000Y-64800000D01*
X49775000Y-70025000D02*
X50375000Y-70625000D01*
X37600000Y-67450000D02*
X39500000Y-69350000D01*
X33225000Y-66325000D02*
X33225000Y-66525000D01*
%TO.N,/MB2-PWM*%
X17555000Y-45445000D02*
X17900000Y-45445000D01*
%TO.N,/MB2-MOSI*%
X29875000Y-47900000D02*
X29875000Y-47450000D01*
X33800000Y-43550000D02*
X40375000Y-43550000D01*
X29875000Y-47450000D02*
X33600000Y-43725000D01*
X40375000Y-43550000D02*
X40900000Y-44075000D01*
X31000000Y-57475000D02*
X29875000Y-56350000D01*
X29875000Y-56350000D02*
X29875000Y-47900000D01*
X33775000Y-43550000D02*
X33800000Y-43550000D01*
X33600000Y-43725000D02*
X33775000Y-43550000D01*
%TO.N,/MB2-MISO*%
X30350000Y-55825000D02*
X30825000Y-56300000D01*
X39025000Y-44050000D02*
X34675000Y-44050000D01*
X34675000Y-44050000D02*
X30350000Y-48375000D01*
X30350000Y-48375000D02*
X30350000Y-55825000D01*
X39675000Y-44700000D02*
X39025000Y-44050000D01*
%TO.N,/MB2-SCK*%
X38750000Y-53200000D02*
X37400000Y-54550000D01*
X38725000Y-45250000D02*
X38750000Y-45275000D01*
X38750000Y-45275000D02*
X38750000Y-53200000D01*
%TO.N,/MB2-CS*%
X36475000Y-45325000D02*
X34575000Y-47225000D01*
X34575000Y-47225000D02*
X34575000Y-53450000D01*
X34575000Y-53450000D02*
X36075000Y-54950000D01*
X36075000Y-54950000D02*
X36625000Y-54950000D01*
%TO.N,/MB1-SDA*%
X16500000Y-67165000D02*
X17900000Y-65765000D01*
X16500000Y-68725000D02*
X16500000Y-67165000D01*
X44225000Y-50200000D02*
X24875000Y-69550000D01*
X24875000Y-69550000D02*
X17325000Y-69550000D01*
X44225000Y-43275000D02*
X44225000Y-50200000D01*
X47475000Y-40025000D02*
X44225000Y-43275000D01*
X65825000Y-40025000D02*
X47475000Y-40025000D01*
X17325000Y-69550000D02*
X16500000Y-68725000D01*
X66400000Y-40600000D02*
X65825000Y-40025000D01*
%TO.N,/MB1-SCL*%
X25445000Y-68305000D02*
X17900000Y-68305000D01*
X56450000Y-39600000D02*
X47275000Y-39600000D01*
X47275000Y-39600000D02*
X39250000Y-47625000D01*
X58025000Y-38025000D02*
X56450000Y-39600000D01*
X66325000Y-38025000D02*
X58025000Y-38025000D01*
X39250000Y-47625000D02*
X39250000Y-54500000D01*
X39250000Y-54500000D02*
X25445000Y-68305000D01*
%TO.N,/MB1-TX*%
X43200000Y-43075000D02*
X32925000Y-43075000D01*
X20650000Y-55350000D02*
X20650000Y-57525000D01*
X56300000Y-39175000D02*
X47100000Y-39175000D01*
X20650000Y-57525000D02*
X18725000Y-59450000D01*
X18725000Y-59450000D02*
X17300000Y-59450000D01*
X66325000Y-35550000D02*
X59925000Y-35550000D01*
X32925000Y-43075000D02*
X20650000Y-55350000D01*
X59925000Y-35550000D02*
X56300000Y-39175000D01*
X16550000Y-58700000D02*
X16550000Y-56700000D01*
X17300000Y-59450000D02*
X16550000Y-58700000D01*
X47100000Y-39175000D02*
X43200000Y-43075000D01*
X17645000Y-55605000D02*
X17900000Y-55605000D01*
X16550000Y-56700000D02*
X17645000Y-55605000D01*
%TO.N,/MB1-RX*%
X42950000Y-42675000D02*
X46850000Y-38775000D01*
X18920000Y-56455000D02*
X32700000Y-42675000D01*
X46850000Y-38775000D02*
X56125000Y-38775000D01*
X56125000Y-38775000D02*
X61950000Y-32950000D01*
X32700000Y-42675000D02*
X42950000Y-42675000D01*
X61950000Y-32950000D02*
X66300000Y-32950000D01*
X17900000Y-58145000D02*
X18920000Y-57125000D01*
X18920000Y-57125000D02*
X18920000Y-56455000D01*
%TO.N,/MB1-INT*%
X16625000Y-22600000D02*
X15900000Y-23325000D01*
X15900000Y-23325000D02*
X15900000Y-34625000D01*
X16650000Y-35375000D02*
X17810000Y-35375000D01*
X15900000Y-34625000D02*
X16650000Y-35375000D01*
X17810000Y-35375000D02*
X17900000Y-35285000D01*
X62900000Y-22600000D02*
X16625000Y-22600000D01*
X67000000Y-30200000D02*
X67025000Y-30175000D01*
X67025000Y-30175000D02*
X67025000Y-26725000D01*
X67025000Y-26725000D02*
X62900000Y-22600000D01*
%TO.N,/MB1-PWM*%
X17900000Y-47425000D02*
X17900000Y-47985000D01*
X30450000Y-42600000D02*
X22725000Y-42600000D01*
X22725000Y-42600000D02*
X17900000Y-47425000D01*
X55925000Y-38375000D02*
X34675000Y-38375000D01*
X65200000Y-27825000D02*
X65200000Y-29100000D01*
X65200000Y-29100000D02*
X55925000Y-38375000D01*
X34675000Y-38375000D02*
X30450000Y-42600000D01*
%TO.N,/MB1-MOSI*%
X46275000Y-58925000D02*
X46175000Y-58825000D01*
X79550000Y-58700000D02*
X79550000Y-53000000D01*
X79550000Y-53000000D02*
X92050000Y-40500000D01*
X77550000Y-59425000D02*
X78825000Y-59425000D01*
X21975000Y-74950000D02*
X21975000Y-82425000D01*
X46275000Y-58925000D02*
X46375000Y-58825000D01*
X18200000Y-88625000D02*
X17900000Y-88625000D01*
X19425000Y-84975000D02*
X19425000Y-87400000D01*
X38100000Y-58825000D02*
X21975000Y-74950000D01*
X46375000Y-58825000D02*
X76950000Y-58825000D01*
X19425000Y-87400000D02*
X18200000Y-88625000D01*
X21975000Y-82425000D02*
X19425000Y-84975000D01*
X46175000Y-58825000D02*
X38100000Y-58825000D01*
X76950000Y-58825000D02*
X77550000Y-59425000D01*
X78825000Y-59425000D02*
X79550000Y-58700000D01*
%TO.N,/MB1-MISO*%
X45875000Y-50450000D02*
X21550000Y-74775000D01*
X45525000Y-48175000D02*
X45875000Y-48525000D01*
X75275000Y-33775000D02*
X66975000Y-42075000D01*
X17900000Y-85925000D02*
X17900000Y-86085000D01*
X21550000Y-74775000D02*
X21550000Y-82275000D01*
X21550000Y-82275000D02*
X17900000Y-85925000D01*
X45525000Y-43800000D02*
X45525000Y-48175000D01*
X66975000Y-42075000D02*
X47250000Y-42075000D01*
X45875000Y-49450000D02*
X45875000Y-50450000D01*
X47250000Y-42075000D02*
X45525000Y-43800000D01*
X87725000Y-33775000D02*
X75275000Y-33775000D01*
X45875000Y-48525000D02*
X45875000Y-49450000D01*
X92000000Y-38050000D02*
X87725000Y-33775000D01*
%TO.N,/MB1-SCK*%
X21125000Y-74600000D02*
X21125000Y-82100000D01*
X89950000Y-33375000D02*
X75075000Y-33375000D01*
X75075000Y-33375000D02*
X66775000Y-41675000D01*
X66775000Y-41675000D02*
X47050000Y-41675000D01*
X47050000Y-41675000D02*
X45075000Y-43650000D01*
X21125000Y-82100000D02*
X19680000Y-83545000D01*
X19680000Y-83545000D02*
X17900000Y-83545000D01*
X92000000Y-35425000D02*
X89950000Y-33375000D01*
X45075000Y-43650000D02*
X45075000Y-50650000D01*
X45075000Y-50650000D02*
X21125000Y-74600000D01*
%TO.N,/MB1-CS*%
X44650000Y-50450000D02*
X44650000Y-47450000D01*
X44625000Y-47425000D02*
X44625000Y-43475000D01*
X46925000Y-41250000D02*
X46950000Y-41275000D01*
X46950000Y-41275000D02*
X66600000Y-41275000D01*
X20575000Y-74525000D02*
X44650000Y-50450000D01*
X66600000Y-41275000D02*
X74925000Y-32950000D01*
X44650000Y-47450000D02*
X44625000Y-47425000D01*
X17900000Y-81005000D02*
X19555000Y-81005000D01*
X46850000Y-41250000D02*
X46925000Y-41250000D01*
X44625000Y-43475000D02*
X46850000Y-41250000D01*
X19555000Y-81005000D02*
X20575000Y-79985000D01*
X74925000Y-32950000D02*
X92025000Y-32950000D01*
X20575000Y-79985000D02*
X20575000Y-74525000D01*
%TO.N,/NRST*%
X40575000Y-37675000D02*
X47975000Y-37675000D01*
X56275000Y-37075000D02*
X62400000Y-30950000D01*
X47975000Y-37675000D02*
X48575000Y-37075000D01*
X62400000Y-30950000D02*
X62400000Y-29275000D01*
X48575000Y-37075000D02*
X56275000Y-37075000D01*
%TO.N,/USB_PSW*%
X68905000Y-51030000D02*
X57220000Y-51030000D01*
X75575000Y-57700000D02*
X68905000Y-51030000D01*
X77525000Y-57700000D02*
X75575000Y-57700000D01*
%TO.N,Net-(J10-Pad6)*%
X44325000Y-21100000D02*
X69275000Y-21100000D01*
X69275000Y-21100000D02*
X70375000Y-20000000D01*
%TO.N,/USB_PSW!*%
X53237500Y-56387500D02*
X54750000Y-57900000D01*
X52175000Y-83500000D02*
X51625000Y-82950000D01*
X38175000Y-82950000D02*
X36225000Y-81000000D01*
X53237500Y-48350000D02*
X53237500Y-56387500D01*
X51625000Y-82950000D02*
X38175000Y-82950000D01*
%TD*%
M02*
